<svg xmlns:xlink="http://www.w3.org/1999/xlink"  xmlns="http://www.w3.org/2000/svg" width="82" height="95" viewBox="0 0 82 95" fill="none"><path d="M41.5397 47.4397L42.34 2.30857L22.186 36.5125L41.5397 47.4397Z" stroke="#7B5AB4" stroke-width="2.8" stroke-miterlimit="10" stroke-linecap="round" stroke-linejoin="round"></path><path d="M2.30519 70.7737L41.6313 47.5904L22.3741 36.7178L2.30519 70.7737Z" stroke="#7B5AB4" stroke-width="2.8" stroke-miterlimit="10" stroke-linecap="round" stroke-linejoin="round"></path><path d="M41.2044 70.0928L41.6061 47.6716L2.35571 70.8024L41.2044 70.0928Z" stroke="#7B5AB4" stroke-width="2.8" stroke-miterlimit="10" stroke-linecap="round" stroke-linejoin="round"></path><path d="M41.2504 70.3598L40.8487 92.7809L2.40173 71.0693L41.2504 70.3598Z" stroke="#7B5AB4" stroke-width="2.8" stroke-miterlimit="10" stroke-linecap="round" stroke-linejoin="round"></path><path d="M40.9963 70.4531L40.5946 92.8743L79.8451 69.7435L40.9963 70.4531Z" stroke="#7B5AB4" stroke-width="2.8" stroke-miterlimit="10" stroke-linecap="round" stroke-linejoin="round"></path><path d="M41.2847 47.4861L42.0841 2.35303L61.0362 35.8519L41.2847 47.4861Z" stroke="#7B5AB4" stroke-width="2.8" stroke-miterlimit="10" stroke-linecap="round" stroke-linejoin="round"></path><path d="M79.819 69.442L41.307 47.69L60.9685 36.0999L79.819 69.442Z" stroke="#7B5AB4" stroke-width="2.8" stroke-miterlimit="10" stroke-linecap="round" stroke-linejoin="round"></path><path d="M40.9514 70.1871L41.3528 47.7638L79.7981 69.4783L40.9514 70.1871Z" stroke="#7B5AB4" stroke-width="2.8" stroke-miterlimit="10" stroke-linecap="round" stroke-linejoin="round"></path><path d="M61.1053 36.0356L41.0675 70.1285L22.2279 36.7393L61.1053 36.0356Z" stroke="#7B5AB4" stroke-width="2.8" stroke-miterlimit="10" stroke-linecap="round" stroke-linejoin="round"></path></svg>