<svg xmlns:xlink="http://www.w3.org/1999/xlink"  xmlns="http://www.w3.org/2000/svg" width="60" height="60" viewBox="0 0 60 60" fill="none"><path fill-rule="evenodd" clip-rule="evenodd" d="M30.8873 22.749C25.3242 22.749 20.8143 18.2392 20.8143 12.6761C20.8143 7.1129 25.3242 2.60307 30.8873 2.60307C36.4505 2.60307 40.9603 7.1129 40.9603 12.6761C40.9603 18.2392 36.4505 22.749 30.8873 22.749ZM18.2113 12.6761C18.2113 19.6768 23.8865 25.3521 30.8873 25.3521C37.8881 25.3521 43.5634 19.6768 43.5634 12.6761C43.5634 5.67526 37.8881 0 30.8873 0C23.8865 0 18.2113 5.67526 18.2113 12.6761ZM21.1879 29.3672C21.437 28.9718 21.8689 28.7324 22.3329 28.7324H22.8842H38.5967H39.0246C39.4939 28.7324 39.9299 28.9772 40.1775 29.3798L57.7252 57.9062C57.9852 58.3288 57.998 58.8606 57.7585 59.2955C57.5191 59.7303 57.0651 60 56.5724 60H38.5967C38.104 60 37.6501 59.7304 37.4106 59.2957L30.5846 46.9029L23.5091 59.3133C23.2669 59.7381 22.8184 60 22.3329 60H4.35721C3.86185 60 3.40584 59.7275 3.16747 59.2889C2.9291 58.8504 2.94624 58.3156 3.21218 57.8936L21.1879 29.3672ZM6.82959 57.2588L22.5487 32.3135L29.0455 44.1087L21.5483 57.2588H6.82959ZM39.3948 57.2588L32.1644 44.132L38.8468 32.4112L54.1315 57.2588H39.3948ZM30.6253 41.3377L36.2492 31.4736H25.1921L30.6253 41.3377Z" fill="#EF713F"></path></svg>