<svg xmlns:xlink="http://www.w3.org/1999/xlink"  xmlns="http://www.w3.org/2000/svg" width="60" height="60" viewBox="0 0 60 60" fill="none"><path fill-rule="evenodd" clip-rule="evenodd" d="M30.6964 0C30.3263 0 29.9745 0.161073 29.7326 0.441264L4.70222 29.44C4.28676 29.9213 4.29011 30.6354 4.71006 31.1128L29.7405 59.5677C29.9817 59.842 30.3291 59.9994 30.6944 60C31.0597 60.0006 31.4076 59.8442 31.6497 59.5708L44.1649 45.4339L44.1702 45.4279L56.6854 31.1097C57.1029 30.6322 57.1051 29.9201 56.6906 29.44L31.6602 0.441264C31.4184 0.161073 31.0666 0 30.6964 0ZM53.5793 29.7323L31.9696 38.0254V4.69666L53.5793 29.7323ZM29.4233 4.69666V38.0254L7.81357 29.7323L29.4233 4.69666ZM10.0367 33.3129L27.0832 39.8548L18.56 43.0023L10.0367 33.3129ZM20.3622 45.0511L29.4233 41.705V55.3518L20.3622 45.0511ZM31.9696 55.368V41.7175L41.0331 45.1301L31.9696 55.368ZM34.2794 39.8663L42.834 43.0874L51.3887 33.3004L34.2794 39.8663Z" fill="#49B0B0"></path></svg>