<svg width="1024" height="1024" viewBox="0 0 1024 1024" fill="none" xmlns="http://www.w3.org/2000/svg">
<path d="M865.626 818.156C830.053 818.156 801.214 789.319 801.193 753.727V383.322L480.266 198.068C449.461 180.272 438.9 140.875 456.676 110.072C474.473 79.2695 513.873 68.7092 544.677 86.484L897.81 290.35C917.74 301.851 930.016 323.118 930.016 346.142V753.748C930.016 789.319 901.177 818.177 865.605 818.177L865.626 818.156Z" fill="#0FA4EA"/>
<path d="M512.427 1022C501.301 1022 490.176 1019.11 480.221 1013.36L127.088 809.498C96.2836 791.702 85.7227 752.305 103.499 721.502C121.295 690.7 160.695 680.139 191.5 697.914L512.427 883.19L833.354 697.935C864.159 680.139 903.559 690.7 921.355 721.523C939.152 752.326 928.591 791.723 897.766 809.519L544.633 1013.36C534.678 1019.11 523.553 1022 512.427 1022Z" fill="#F6D200"/>
<path d="M159.299 818.155C123.727 818.155 94.8672 789.318 94.8672 753.726V346.12C94.8672 323.096 107.143 301.829 127.073 290.328L480.227 86.4828C511.031 68.6872 550.452 79.2475 568.228 110.071C586.025 140.874 575.464 180.271 544.638 198.066L223.711 383.321V753.726C223.711 789.297 194.872 818.155 159.279 818.155H159.299Z" fill="#E7107E"/>
<path d="M512.428 282.758C589.962 282.758 652.816 219.908 652.816 142.379C652.816 64.8497 589.962 2 512.428 2C434.895 2 372.041 64.8497 372.041 142.379C372.041 219.908 434.895 282.758 512.428 282.758Z" fill="#E7107E"/>
<path d="M159.387 894.107C236.921 894.107 299.775 831.257 299.775 753.728C299.775 676.199 236.921 613.349 159.387 613.349C81.8536 613.349 19 676.199 19 753.728C19 831.257 81.8536 894.107 159.387 894.107Z" fill="#F6D200"/>
<path d="M865.401 894.107C942.935 894.107 1005.79 831.257 1005.79 753.728C1005.79 676.199 942.935 613.349 865.401 613.349C787.867 613.349 725.014 676.199 725.014 753.728C725.014 831.257 787.867 894.107 865.401 894.107Z" fill="#0FA4EA"/>
</svg>
