<svg width="232" height="60" viewBox="0 0 232 60" fill="none" xmlns="http://www.w3.org/2000/svg">
<g clip-path="url(#clip0_466_1693)">
<path d="M121.893 15.7916H115.327V22.1696H112.252V27.5244H115.327V39.0299C115.327 44.3733 118.84 47.9659 124.337 47.9659H127.674V42.469H125.73C122.74 42.469 121.899 39.9451 121.899 37.8475V27.5187H127.674V22.1639H121.899V15.7859L121.893 15.7916Z" fill="white"/>
<path d="M168.712 25.1596V22.1696H162.191V47.9716H168.712V33.567C168.712 29.9233 170.406 28.7807 173.259 28.7807H176.63V21.7546C173.259 21.7546 170.599 22.8802 168.712 25.1653V25.1596Z" fill="white"/>
<path d="M184.387 40.6613C183.205 40.6613 182.238 41.0251 181.477 41.7584C180.715 42.486 180.334 43.3956 180.334 44.4813C180.334 45.567 180.715 46.4766 181.477 47.2042C182.238 47.9318 183.205 48.3013 184.387 48.3013C185.569 48.3013 186.485 47.9375 187.229 47.2042C187.974 46.4766 188.349 45.567 188.349 44.4813C188.349 43.3956 187.974 42.486 187.229 41.7584C186.485 41.0308 185.535 40.6613 184.387 40.6613Z" fill="white"/>
<path d="M196.915 10.7437C195.653 10.7437 194.602 11.1473 193.766 11.9488C192.93 12.7503 192.51 13.7508 192.51 14.9446C192.51 16.1383 192.925 17.1388 193.766 17.9403C194.602 18.7418 195.653 19.1454 196.915 19.1454C198.177 19.1454 199.229 18.7475 200.064 17.9403C200.9 17.1388 201.321 16.1383 201.321 14.9446C201.321 13.7508 200.9 12.7503 200.064 11.9488C199.229 11.1473 198.177 10.7437 196.915 10.7437Z" fill="white"/>
<path d="M200.133 22.1753H193.613V47.9773H200.133V22.1753Z" fill="white"/>
<path d="M229.311 28.0872C228.146 26.0692 226.554 24.5116 224.536 23.4088C222.518 22.306 220.267 21.7546 217.783 21.7546C215.299 21.7546 213.048 22.306 211.03 23.4088C209.012 24.5116 207.42 26.0692 206.255 28.0872C205.09 30.1052 204.51 32.4358 204.51 35.0734C204.51 37.711 205.078 40.0417 206.209 42.0597C207.341 44.0777 208.904 45.6409 210.888 46.7381C212.872 47.8408 215.111 48.3922 217.596 48.3922C220.08 48.3922 222.382 47.8408 224.417 46.7381C226.452 45.6353 228.066 44.0777 229.26 42.0597C230.454 40.0417 231.051 37.711 231.051 35.0734C231.051 32.4358 230.471 30.1052 229.306 28.0872H229.311ZM223.416 39.2686C222.797 40.4169 221.967 41.2809 220.927 41.8551C219.886 42.4292 218.778 42.7191 217.596 42.7191C215.731 42.7191 214.185 42.0597 212.963 40.7409C211.735 39.4221 211.121 37.5348 211.121 35.0848C211.121 32.6348 211.752 30.7475 213.008 29.4287C214.264 28.1099 215.828 27.4505 217.686 27.4505C219.545 27.4505 221.126 28.1099 222.416 29.4287C223.706 30.7475 224.349 32.6348 224.349 35.0848C224.349 36.7333 224.036 38.126 223.416 39.2743V39.2686Z" fill="white"/>
<path d="M105.767 37.8588V15.7916H99.2012V39.0355C99.2012 44.379 102.714 47.9716 108.211 47.9716H110.269V42.4747H109.598C106.608 42.4747 105.767 39.9507 105.767 37.8531V37.8588Z" fill="white"/>
<path d="M85.2833 15.7916H74.1757L75.955 20.6916L66.0469 47.9716H72.891L75.2217 41.5992H87.7901L90.1208 47.9716H96.9649L85.2776 15.7916H85.2833ZM77.2169 36.0796L81.4178 22.2264H81.5883L85.7892 36.0796H77.2113H77.2169Z" fill="white"/>
<path d="M157.471 42.486C156.181 42.486 155.265 41.7243 155.265 40.1781V22.1639H148.615V24.0625C146.017 22.0218 143.447 21.7433 141.765 21.7433C139.525 21.7433 137.501 22.289 135.688 23.3747C133.875 24.4605 132.442 26.018 131.385 28.036C130.327 30.054 129.799 32.3676 129.799 34.9825C129.799 37.5974 130.327 39.9621 131.385 41.9972C132.442 44.0322 134.045 45.7205 136.177 46.9029C138.036 47.9375 139.934 48.4036 142.561 48.4036C145.426 48.4036 148.069 47.3861 150.291 45.4704C151.639 47.2383 153.589 47.983 155.368 47.983H157.795V42.486H157.465H157.471ZM143.135 42.6736C141.958 42.6736 140.855 42.361 139.821 41.7414C138.786 41.1218 137.95 40.2293 137.314 39.064C136.677 37.8986 136.364 36.54 136.364 34.9882C136.364 33.4363 136.683 32.0891 137.314 30.9578C137.945 29.8266 138.775 28.9626 139.798 28.3714C140.821 27.7802 141.93 27.4846 143.135 27.4846C144.709 27.4846 146.773 27.7347 148.62 29.1729V39.6438C148.62 40.019 148.632 40.3771 148.66 40.7238C147.142 41.8153 145.522 42.6793 143.135 42.6793V42.6736Z" fill="white"/>
<path d="M50.7351 48.0057C48.6432 48.0057 46.9435 46.3117 46.9435 44.2141V22.4254L28.0653 11.5282C26.2519 10.4822 25.6323 8.16296 26.6782 6.3496C27.7242 4.53624 30.0435 3.91663 31.8568 4.96258L52.628 16.9512C53.799 17.6277 54.521 18.8783 54.521 20.2312V44.2084C54.521 46.3003 52.827 48 50.7294 48L50.7351 48.0057Z" fill="#0FA4EA"/>
<path d="M29.9618 60C29.3081 60 28.6544 59.8295 28.0689 59.4941L7.29767 47.4998C5.48431 46.4538 4.8647 44.1345 5.91065 42.3212C6.9566 40.5078 9.27588 39.8882 11.0892 40.9342L29.9675 51.8314L48.8458 40.9342C50.6591 39.8882 52.9784 40.5078 54.0243 42.3212C55.0703 44.1345 54.4507 46.4538 52.6373 47.4998L31.8661 59.4884C31.2806 59.8295 30.6269 59.9943 29.9732 59.9943L29.9618 60Z" fill="#F6D200"/>
<path d="M9.19196 48.0057C7.10006 48.0057 5.40039 46.3117 5.40039 44.2141V20.2368C5.40039 18.8839 6.12232 17.6333 7.29333 16.9569L28.0702 4.96825C29.8836 3.9223 32.2029 4.54192 33.2488 6.35528C34.2948 8.16863 33.6751 10.4879 31.8618 11.5339L12.9835 22.4311V44.2198C12.9835 46.3117 11.2895 48.0114 9.19196 48.0114V48.0057Z" fill="#E7107E"/>
<path d="M29.9608 16.5192C34.5224 16.5192 38.2204 12.8212 38.2204 8.25959C38.2204 3.69795 34.5224 0 29.9608 0C25.3991 0 21.7012 3.69795 21.7012 8.25959C21.7012 12.8212 25.3991 16.5192 29.9608 16.5192Z" fill="#E7107E"/>
<path d="M9.19905 52.4794C13.7607 52.4794 17.4586 48.7815 17.4586 44.2198C17.4586 39.6582 13.7607 35.9602 9.19905 35.9602C4.6374 35.9602 0.939453 39.6582 0.939453 44.2198C0.939453 48.7815 4.6374 52.4794 9.19905 52.4794Z" fill="#F6D200"/>
<path d="M50.7303 52.4794C55.2919 52.4794 58.9899 48.7815 58.9899 44.2198C58.9899 39.6582 55.2919 35.9602 50.7303 35.9602C46.1686 35.9602 42.4707 39.6582 42.4707 44.2198C42.4707 48.7815 46.1686 52.4794 50.7303 52.4794Z" fill="#0FA4EA"/>
</g>
<defs>
<clipPath id="clip0_466_1693">
<rect width="230.12" height="60" fill="white" transform="translate(0.939453)"/>
</clipPath>
</defs>
</svg>
