<svg width="228" height="60" viewBox="0 0 228 60" fill="none" xmlns="http://www.w3.org/2000/svg">
<g clip-path="url(#clip0_466_1676)">
<path d="M119.837 15.9314H113.333V22.2497H110.289V27.5534H113.333V38.9489C113.333 44.2379 116.811 47.7997 122.253 47.7997H125.556V42.3572H123.63C120.667 42.3572 119.837 39.8564 119.837 37.7795V27.5522H125.556V22.2485H119.837V15.9302V15.9314Z" fill="#231F20"/>
<path d="M166.203 25.2098V22.2498H159.746V47.8009H166.203V33.5344C166.203 29.9275 167.878 28.7922 170.707 28.7922H174.044V21.8356C170.707 21.8356 168.069 22.9526 166.203 25.211V25.2098Z" fill="#231F20"/>
<path d="M181.727 40.5604C180.558 40.5604 179.598 40.9222 178.845 41.6446C178.091 42.3669 177.715 43.2671 177.715 44.3427C177.715 45.4183 178.091 46.3185 178.845 47.0408C179.598 47.7631 180.559 48.1249 181.727 48.1249C182.895 48.1249 183.803 47.7644 184.541 47.0408C185.279 46.3185 185.648 45.4195 185.648 44.3427C185.648 43.2659 185.279 42.3669 184.541 41.6446C183.803 40.9222 182.865 40.5604 181.727 40.5604Z" fill="#231F20"/>
<path d="M194.132 10.9286C192.881 10.9286 191.842 11.3257 191.014 12.1199C190.186 12.9141 189.771 13.9032 189.771 15.086C189.771 16.2688 190.184 17.2579 191.014 18.0521C191.842 18.8463 192.881 19.2435 194.132 19.2435C195.383 19.2435 196.421 18.8463 197.251 18.0521C198.079 17.2579 198.493 16.27 198.493 15.086C198.493 13.902 198.079 12.9153 197.251 12.1199C196.422 11.3257 195.383 10.9286 194.132 10.9286Z" fill="#231F20"/>
<path d="M197.315 22.2497H190.857V47.8009H197.315V22.2497Z" fill="#231F20"/>
<path d="M226.212 28.1077C225.058 26.11 223.483 24.5642 221.484 23.4727C219.486 22.3813 217.256 21.8356 214.797 21.8356C212.338 21.8356 210.107 22.3813 208.11 23.4727C206.111 24.5642 204.536 26.11 203.382 28.1077C202.229 30.1066 201.652 32.4125 201.652 35.0253C201.652 37.6382 202.213 39.9453 203.336 41.943C204.458 43.9419 206.002 45.4877 207.971 46.5779C209.938 47.6694 212.151 48.2151 214.612 48.2151C217.072 48.2151 219.354 47.6694 221.369 46.5779C223.382 45.4865 224.982 43.9419 226.166 41.943C227.348 39.9441 227.942 37.6382 227.942 35.0253C227.942 32.4125 227.366 30.1066 226.212 28.1077ZM220.378 39.1767C219.763 40.3144 218.941 41.1683 217.911 41.7359C216.88 42.3048 215.781 42.5898 214.613 42.5898C212.768 42.5898 211.239 41.9369 210.024 40.6299C208.81 39.3228 208.202 37.4555 208.202 35.0265C208.202 32.5976 208.825 30.7303 210.07 29.4232C211.314 28.1162 212.86 27.4633 214.704 27.4633C216.549 27.4633 218.109 28.1174 219.386 29.4232C220.661 30.7303 221.299 32.5988 221.299 35.0265C221.299 36.6564 220.991 38.0402 220.377 39.1779L220.378 39.1767Z" fill="#231F20"/>
<path d="M103.865 37.7819V15.9314H97.3613V38.9501C97.3613 44.2391 100.839 47.8009 106.282 47.8009H108.322V42.3584H107.659C104.697 42.3584 103.866 39.8576 103.866 37.7807L103.865 37.7819Z" fill="#231F20"/>
<path d="M83.5809 15.9314H72.5825L74.3463 20.7856L64.5332 47.8009H71.3132L73.6215 41.4911H86.0707L88.379 47.8009H95.159L83.5821 15.9314H83.5809ZM75.5961 36.023L79.7584 22.3021H79.9289L84.0912 36.023H75.5949H75.5961Z" fill="#231F20"/>
<path d="M155.073 42.3669C153.793 42.3669 152.889 41.6141 152.889 40.0829V22.2437H146.302V24.1232C143.732 22.1036 141.185 21.8283 139.521 21.8283C137.304 21.8283 135.299 22.3667 133.504 23.4435C131.708 24.5215 130.288 26.0588 129.243 28.0589C128.196 30.0591 127.674 32.3516 127.674 34.9364C127.674 37.5212 128.196 39.8673 129.243 41.8821C130.288 43.8981 131.88 45.5693 133.987 46.7399C135.83 47.7631 137.71 48.2285 140.309 48.2285C143.149 48.2285 145.763 47.2223 147.966 45.3257C149.299 47.0761 151.228 47.8131 152.992 47.8131H155.398V42.3669H155.073ZM140.872 42.5508C139.708 42.5508 138.614 42.2439 137.588 41.6275C136.562 41.0124 135.735 40.128 135.108 38.9732C134.479 37.8197 134.166 36.4737 134.166 34.9352C134.166 33.3967 134.479 32.0665 135.108 30.9422C135.735 29.8191 136.555 28.9652 137.565 28.3805C138.576 27.7958 139.678 27.5035 140.872 27.5035C142.432 27.5035 144.474 27.7495 146.302 29.1735V39.5445C146.302 39.9148 146.316 40.2705 146.343 40.6116C144.841 41.6933 143.235 42.5484 140.872 42.5484V42.5508Z" fill="#231F20"/>
<path d="M49.3718 47.8338C47.2998 47.8338 45.62 46.154 45.6188 44.0808V22.5043L26.9256 11.7131C25.1313 10.6764 24.5162 8.38152 25.5516 6.58724C26.5882 4.79295 28.8831 4.17781 30.6774 5.2132L51.2465 17.0886C52.4073 17.7586 53.1224 18.9974 53.1224 20.3385V44.082C53.1224 46.154 51.4426 47.835 49.3706 47.835L49.3718 47.8338Z" fill="#0FA4EA"/>
<path d="M28.8022 59.708C28.1542 59.708 27.5062 59.5399 26.9263 59.2049L6.35726 47.3295C4.56297 46.2929 3.94783 43.998 4.98322 42.2037C6.01984 40.4094 8.31477 39.7942 10.109 40.8296L28.8022 51.6221L47.4954 40.8309C49.2897 39.7942 51.5846 40.4094 52.6212 42.2049C53.6578 43.9992 53.0427 46.2941 51.2472 47.3307L30.6781 59.2049C30.0983 59.5399 29.4503 59.708 28.8022 59.708Z" fill="#F6D200"/>
<path d="M8.23348 47.8338C6.16147 47.8338 4.48047 46.154 4.48047 44.0808V20.3373C4.48047 18.9962 5.1955 17.7573 6.35636 17.0874L26.9267 5.2132C28.7209 4.17659 31.0171 4.79173 32.0525 6.58723C33.0891 8.38152 32.4739 10.6764 30.6784 11.7131L11.9853 22.5043V44.0808C11.9853 46.1528 10.3055 47.8338 8.23226 47.8338H8.23348Z" fill="#E7107E"/>
<path d="M28.8002 16.6464C33.3164 16.6464 36.9774 12.9854 36.9774 8.46922C36.9774 3.95308 33.3164 0.292023 28.8002 0.292023C24.2841 0.292023 20.623 3.95308 20.623 8.46922C20.623 12.9854 24.2841 16.6464 28.8002 16.6464Z" fill="#E7107E"/>
<path d="M8.23579 52.258C12.7519 52.258 16.413 48.5969 16.413 44.0808C16.413 39.5646 12.7519 35.9036 8.23579 35.9036C3.71965 35.9036 0.0585938 39.5646 0.0585938 44.0808C0.0585938 48.5969 3.71965 52.258 8.23579 52.258Z" fill="#F6D200"/>
<path d="M49.3627 52.258C53.8789 52.258 57.5399 48.5969 57.5399 44.0808C57.5399 39.5646 53.8789 35.9036 49.3627 35.9036C44.8466 35.9036 41.1855 39.5646 41.1855 44.0808C41.1855 48.5969 44.8466 52.258 49.3627 52.258Z" fill="#0FA4EA"/>
</g>
<defs>
<clipPath id="clip0_466_1676">
<rect width="227.885" height="59.4159" fill="white" transform="translate(0.0585938 0.292023)"/>
</clipPath>
</defs>
</svg>
