<svg xmlns:xlink="http://www.w3.org/1999/xlink"  xmlns="http://www.w3.org/2000/svg" id="Layer_1" viewBox="0 0 160 80"><path d="m102.444,14.087c.405,1.377.212,2.682-.579,3.914l-3.082,4.851c-.358.548-.872.903-1.541,1.065-.669.163-1.305.081-1.908-.244-.603-.308-.994-.77-1.173-1.386-.179-.616-.099-1.197.241-1.745l.65-.744c-1.734-.342-2.865-1.279-3.393-2.81-.528-1.531-.395-2.913.396-4.145.772-1.232,1.918-2.031,3.435-2.399,1.516-.368,2.954-.201,4.311.5,1.357.719,2.237,1.767,2.643,3.144Zm18.271,15.632h-2.899c2.019-1.197,3.593-2.361,4.723-3.49,2.156-1.625,3.234-3.97,3.234-7.032s-1.078-5.454-3.234-7.173c-2.156-1.719-4.757-2.579-7.802-2.579-3.063,0-6.092,1.498-9.086,4.491-1.266,1.609-1.967,2.909-2.105,3.901-.068.531-.102,1.07-.102,1.617,0,1.42.5,2.631,1.501,3.631,1.001,1.001,2.211,1.502,3.631,1.502s2.635-.505,3.644-1.514c.257-.599.488-1.223.693-1.873.137-.992.744-1.489,1.822-1.489s1.574.428,1.488,1.283c-.086.856-4.004,4.449-11.754,10.779-.856,1.129-1.18,2.396-.975,3.798.205,1.403.873,2.532,2.002,3.388.958.667,2.156,1.01,3.594,1.027h11.625c1.42,0,2.631-.5,3.632-1.501,1-1.001,1.501-2.212,1.501-3.632s-.501-2.631-1.501-3.631c-1.001-1.001-2.212-1.502-3.632-1.502Zm26.006-7.942c-1.591-1.3-2.847-1.874-10.347-1.874l-.052-1.154h8.189c1.42,0,2.545-.415,3.375-1.245.83-.83,1.244-1.87,1.244-3.118s-.414-2.288-1.244-3.118c-.83-.83-1.955-1.245-3.375-1.245h-11.353c-1.352,0-2.43.411-3.234,1.232-.958.787-1.548,1.805-1.771,3.054l-.152,6.852c-.257,1.386.021,2.661.834,3.824.812,1.164,1.92,1.865,3.324,2.104.667.12,2.549.12,5.885,0,1.574,0,2.37.573,2.387,1.72-.154,1.198-.749,1.814-1.784,1.848-1.036.034-1.908-.406-2.618-1.322-.71-.915-1.784-1.373-3.221-1.373-1.557,0-2.883.548-3.978,1.642-1.095,1.095-1.643,2.421-1.643,3.978s.877,3.11,2.631,4.658c1.753,1.549,4.623,2.323,8.61,2.323,3.49,0,6.288-1.095,8.392-3.285,2.105-2.19,3.157-4.842,3.157-7.956,0-3.148-1.087-5.663-3.26-7.545Z" stroke-width="0" class="fill"></path><path d="m102.027,14.06c.363,1.233.225,2.397-.418,3.51l-.135.222h0s-3.108,4.892-3.108,4.892c-.303.463-.726.773-1.283.933l-.113.03h0c-.573.14-1.114.084-1.633-.169l-.104-.053-.005-.003-.101-.054c-.457-.259-.758-.618-.918-1.082l-.032-.101c-.158-.543-.091-1.047.203-1.531l.641-.734.301-.345-.448-.088c-1.616-.319-2.659-1.161-3.176-2.528l-.048-.134c-.478-1.385-.391-2.622.239-3.733l.133-.22.002-.003c.694-1.106,1.699-1.85,3.033-2.233l.271-.072c1.378-.334,2.682-.213,3.92.362l.247.121c1.228.651,2.041,1.573,2.457,2.769l.078.243Zm21.985,17.226c-.923-.844-2.018-1.263-3.296-1.263h-3.889l.828-.492c2.026-1.202,3.595-2.363,4.713-3.481l.013-.013.014-.011c2.1-1.583,3.158-3.864,3.158-6.884,0-3.02-1.058-5.353-3.164-7.032-2.124-1.694-4.688-2.545-7.708-2.545-2.993,0-5.981,1.46-8.967,4.441-1.268,1.613-1.934,2.874-2.062,3.799h0c-.067.523-.101,1.055-.101,1.596,0,1.363.477,2.517,1.437,3.477l.183.174c.923.844,2.017,1.263,3.295,1.263,1.346,0,2.492-.471,3.454-1.417.245-.576.467-1.177.666-1.803.079-.534.288-.968.653-1.266.369-.301.86-.435,1.442-.435.569,0,1.043.111,1.364.387.335.289.45.71.401,1.197l-.011.068c-.034.161-.13.334-.247.507-.141.208-.342.456-.598.741-.513.57-1.268,1.311-2.258,2.219-1.978,1.814-4.917,4.313-8.815,7.497-.808,1.077-1.112,2.276-.916,3.612l.042.25c.236,1.23.859,2.224,1.873,2.994.914.634,2.066.968,3.473.985h11.726c1.363,0,2.518-.477,3.478-1.437l.174-.183c.843-.923,1.263-2.017,1.263-3.295,0-1.363-.478-2.517-1.437-3.477l-.183-.174Zm22.772-9.342h0c-.777-.634-1.458-1.081-2.866-1.379-1.434-.302-3.618-.448-7.401-.448h-.252l-.011-.252-.052-1.165-.012-.276h8.54c1.378,0,2.441-.401,3.219-1.179l.142-.149c.689-.758,1.036-1.69,1.036-2.81,0-1.195-.394-2.176-1.178-2.96h0c-.778-.777-1.841-1.178-3.219-1.178h-11.455c-1.306,0-2.321.395-3.074,1.164l-.01.01-.011.009c-.913.75-1.476,1.716-1.692,2.909l-.152,6.889v.021s-.004.021-.004.021c-.231,1.245-.013,2.391.658,3.449l.14.21.15.204c.712.927,1.637,1.513,2.783,1.762l.249.048h.003s.131.02.131.02c.34.043.922.067,1.781.067.975,0,2.288-.03,3.97-.091h.01c.819,0,1.481.148,1.948.484.481.347.715.866.725,1.512v.019s-.002.019-.002.019c-.082.638-.286,1.157-.639,1.522-.357.37-.839.553-1.415.572h0c-1.141.038-2.098-.454-2.859-1.435l-.127-.153c-.654-.743-1.611-1.13-2.914-1.13-1.501,0-2.772.525-3.827,1.58l-.192.201c-.927,1.015-1.388,2.219-1.388,3.627,0,1.372.724,2.777,2.249,4.214l.316.288.162.138c1.711,1.408,4.475,2.139,8.35,2.139,3.462,0,6.212-1.083,8.278-3.234l.191-.204c1.947-2.119,2.92-4.661,2.92-7.641,0-3.108-1.069-5.569-3.197-7.414Z" fill="none" stroke-width=".5" class="line"></path></svg>