<svg xmlns:xlink="http://www.w3.org/1999/xlink"  xmlns="http://www.w3.org/2000/svg" id="te-82a7d713-7168d91d-52c1deaf" data-name="Layer 2" viewBox="0 0 318.4 23.7"><defs><style>.cls-1{fill:#ed1c24}</style></defs><g id="Layer_1-2" data-name="Layer 1"><path d="M5.78 5.79c.06-.09.14-.18.22-.27.3-.3.67-.45 1.1-.45s.8.15 1.1.46c.3.3.46.67.46 1.1 0 .11-.01.23-.03.33q-.06.45-.63 1.02c-.92.92-2.02 1.37-3.31 1.37S2.3 8.89 1.38 7.98.01 5.96.01 4.67s.45-2.39 1.36-3.3S3.39 0 4.68 0s2.4.46 3.31 1.36c.38.38.59.73.63 1.03q.03.165.03.33c0 .43-.15.8-.46 1.1-.3.3-.67.46-1.1.46s-.8-.15-1.1-.46c-.08-.08-.16-.16-.22-.26-.3-.3-.67-.45-1.1-.45s-.8.15-1.1.46-.46.67-.46 1.1.15.8.46 1.1.67.46 1.1.46.8-.15 1.1-.45ZM13.72 9.36c-1.29 0-2.4-.46-3.31-1.37S9.04 5.97 9.04 4.68s.46-2.4 1.37-3.31S12.43 0 13.72 0s2.4.46 3.31 1.37 1.37 2.02 1.37 3.31-.46 2.4-1.37 3.31-2.01 1.37-3.31 1.37m1.11-3.58c.3-.3.46-.67.46-1.1s-.15-.8-.46-1.1-.67-.46-1.1-.46-.8.15-1.1.46c-.3.3-.46.67-.46 1.1s.15.8.46 1.1c.3.3.67.46 1.1.46s.8-.15 1.1-.46M22.22 5.71V7.8c0 .43-.15.8-.46 1.1-.3.3-.67.46-1.1.46s-.8-.15-1.1-.46c-.3-.3-.46-.67-.46-1.1V1.56c0-.43.15-.8.46-1.1.3-.3.67-.46 1.1-.46s.8.15 1.11.45l2.79 3.19V1.56c0-.43.15-.8.46-1.1.3-.3.67-.46 1.1-.46s.8.15 1.1.46c.3.3.46.67.46 1.1V7.8c0 .43-.15.8-.46 1.1-.3.3-.67.46-1.1.46s-.8-.15-1.1-.46zM29.11 8.78c-.49-.38-.73-.79-.73-1.22s.15-.8.46-1.1c.3-.3.67-.46 1.1-.46.4 0 .69.1.89.31q.3.315.69.33c.27.01.42-.05.46-.2.04-.14-.24-.33-.86-.56s-1.2-.54-1.75-.91c-.56-.37-.83-.99-.83-1.86s.3-1.6.91-2.21 1.32-.91 2.13-.91 1.5.18 2.12.53c.62.36.92.75.92 1.18s-.15.8-.46 1.1-.67.46-1.1.46c-.39 0-.67-.09-.81-.27-.15-.18-.33-.28-.54-.29s-.34.05-.38.19.19.32.7.53 1.09.5 1.75.87.99 1.02.99 1.93c0 .86-.3 1.6-.91 2.21s-1.4.91-2.36.91c-1.11 0-1.9-.19-2.39-.57ZM40.31 5.98c.16-.17.23-.4.23-.67V1.56c0-.43.15-.8.46-1.1.3-.3.67-.46 1.1-.46s.8.15 1.1.46c.3.3.46.67.46 1.1v3.9q0 1.62-1.14 2.76c-.76.76-1.75 1.14-2.95 1.14s-2.19-.38-2.95-1.14q-1.14-1.14-1.14-2.76v-3.9c0-.43.15-.8.46-1.1.3-.3.67-.46 1.1-.46s.8.15 1.1.46c.3.3.46.67.46 1.1V5.3c0 .28.08.5.23.67s.4.26.74.26.58-.09.74-.26ZM52.53 0c.74 0 1.21.3 1.42.9l1.54 6.35c.15.41.13.8-.05 1.19s-.48.66-.88.8c-.41.15-.8.14-1.19-.05-.39-.18-.66-.48-.8-.88l-.41-2.59-.92 2.71c-.31.6-.79.9-1.42.9s-1.11-.3-1.42-.9l-.92-2.71-.41 2.59c-.15.41-.41.7-.8.88s-.79.2-1.19.05c-.41-.15-.7-.41-.88-.8s-.2-.79-.05-1.19L45.68.9c.21-.6.68-.9 1.42-.9s1.21.3 1.42.9l1.31 3.88L51.14.9c.21-.6.68-.9 1.42-.9ZM59.37 3.59h1.17c.3 0 .55.11.73.32.19.21.28.47.28.77s-.09.56-.28.77a.94.94 0 0 1-.73.32h-1.17v.39h1.56c.43 0 .8.15 1.1.46.3.3.46.67.46 1.1s-.15.8-.46 1.1c-.3.3-.67.46-1.1.46h-3.12c-.43 0-.8-.15-1.1-.46-.3-.3-.46-.67-.46-1.1V1.64c0-.43.15-.8.46-1.1.3-.3.67-.46 1.1-.46h3.12c.43 0 .8.15 1.1.46.3.3.46.67.46 1.1s-.15.8-.46 1.1c-.3.3-.67.46-1.1.46h-1.56zM66.31 6.56V7.8c0 .43-.15.8-.46 1.1-.3.3-.67.46-1.1.46s-.8-.15-1.1-.46c-.3-.3-.46-.67-.46-1.1V1.64c0-.43.15-.8.46-1.1.3-.3.67-.46 1.1-.46h2.34c.86 0 1.6.3 2.21.91s.91 1.34.91 2.21-.3 1.6-.91 2.21c-.07.07-.13.13-.2.19l.95 1.27c.26.34.36.73.3 1.15s-.26.77-.6 1.03c-.35.25-.74.35-1.16.29q-.645-.09-1.02-.6l-1.25-2.18Zm.31-2.74c.17 0 .32-.06.44-.18s.18-.27.18-.44-.06-.32-.18-.44a.6.6 0 0 0-.44-.18h-.31v1.25h.31ZM71.64 8.78c-.49-.38-.73-.79-.73-1.22s.15-.8.46-1.1c.3-.3.67-.46 1.1-.46.39 0 .69.1.89.31s.43.32.69.33.42-.05.46-.2c.04-.14-.24-.33-.86-.56-.61-.23-1.2-.54-1.75-.91-.56-.37-.83-.99-.83-1.86s.3-1.6.91-2.21 1.32-.91 2.13-.91 1.5.18 2.12.53c.62.36.92.75.92 1.18s-.15.8-.46 1.1c-.3.3-.67.46-1.1.46q-.6 0-.81-.27c-.15-.18-.32-.28-.54-.29-.21-.01-.34.05-.38.19s.19.32.7.53 1.09.5 1.75.87.99 1.02.99 1.93c0 .86-.3 1.6-.91 2.21s-1.4.91-2.36.91c-1.11 0-1.9-.19-2.39-.57ZM79.16 9.14c-.48-.1-.79-.39-.94-.85s-.11-.88.11-1.26c.21-.37.53-.62.95-.73s.81-.06 1.19.15c.38.22.62.54.73.96s.06.81-.16 1.19l-.85 1.47c-.1.17-.24.27-.42.32s-.36.02-.53-.07a.63.63 0 0 1-.32-.42.66.66 0 0 1 .07-.53l.18-.23ZM91.99 3.81c.71.71 1.07 1.49 1.07 2.35s-.3 1.6-.91 2.21-1.34.91-2.21.91H87.6c-.43 0-.8-.15-1.1-.46-.3-.3-.46-.67-.46-1.1V1.64c0-.43.15-.8.46-1.1.3-.3.67-.46 1.1-.46h2.18c.7 0 1.29.24 1.78.73s.73 1.08.73 1.78c0 .45-.1.85-.3 1.22m-2.6-.3c.12 0 .23-.05.32-.14.1-.1.14-.2.14-.32s-.05-.23-.14-.32c-.1-.1-.2-.14-.32-.14h-.23v.94h.23Zm-.23 2.03v1.25h.31c.17 0 .32-.06.44-.18s.18-.27.18-.44-.06-.32-.18-.44a.6.6 0 0 0-.44-.18h-.31ZM95.32 9.36c-.43 0-.8-.15-1.1-.46-.3-.3-.46-.67-.46-1.1V1.56c0-.43.15-.8.46-1.1.3-.3.67-.46 1.1-.46s.8.15 1.1.46c.3.3.46.67.46 1.1V7.8c0 .43-.15.8-.46 1.1-.3.3-.67.46-1.1.46M99.22 9.28c-.43 0-.8-.15-1.1-.46s-.46-.67-.46-1.1V1.56c0-.43.15-.8.46-1.1.3-.3.67-.46 1.1-.46s.8.15 1.1.46c.3.3.46.67.46 1.1v4.6h1.56c.43 0 .8.15 1.1.46.3.3.46.67.46 1.1s-.15.8-.46 1.1c-.3.3-.67.46-1.1.46zM106.16 9.28c-.43 0-.8-.15-1.1-.46s-.46-.67-.46-1.1V1.56c0-.43.15-.8.46-1.1.3-.3.67-.46 1.1-.46s.8.15 1.1.46c.3.3.46.67.46 1.1v4.6h1.56c.43 0 .8.15 1.1.46.3.3.46.67.46 1.1s-.15.8-.46 1.1c-.3.3-.67.46-1.1.46zM113.1 9.36c-.43 0-.8-.15-1.1-.46-.3-.3-.46-.67-.46-1.1V1.56c0-.43.15-.8.46-1.1.3-.3.67-.46 1.1-.46s.8.15 1.1.46c.3.3.46.67.46 1.1V7.8c0 .43-.15.8-.46 1.1-.3.3-.67.46-1.1.46M120.04 9.36c-1.29 0-2.4-.46-3.31-1.37s-1.37-2.02-1.37-3.31.46-2.4 1.37-3.31S118.75 0 120.04 0s2.4.46 3.31 1.37 1.37 2.02 1.37 3.31-.46 2.4-1.37 3.31-2.02 1.37-3.31 1.37m1.1-3.58c.3-.3.46-.67.46-1.1s-.15-.8-.46-1.1c-.3-.3-.67-.46-1.1-.46s-.8.15-1.1.46-.46.67-.46 1.1.15.8.46 1.1.67.46 1.1.46.8-.15 1.1-.46M128.54 5.71V7.8c0 .43-.15.8-.46 1.1-.3.3-.67.46-1.1.46s-.8-.15-1.1-.46c-.3-.3-.46-.67-.46-1.1V1.56c0-.43.15-.8.46-1.1.3-.3.67-.46 1.1-.46s.8.15 1.11.45l2.79 3.19V1.56c0-.43.15-.8.46-1.1.3-.3.67-.46 1.1-.46s.8.15 1.1.46c.3.3.46.67.46 1.1V7.8c0 .43-.15.8-.46 1.1-.3.3-.67.46-1.1.46s-.8-.15-1.1-.46zM137.9 7.8l-.3.72c-.2.38-.5.63-.91.76s-.81.1-1.19-.1-.63-.51-.76-.92-.1-.81.1-1.19l3.17-6.23c.25-.56.72-.84 1.4-.84s1.15.28 1.4.84l3.16 6.23c.2.38.24.77.11 1.19s-.39.72-.77.92-.77.23-1.19.1c-.41-.13-.71-.38-.91-.76l-.3-.72h-3Zm2.03-2.34-.53-1.26-.52 1.26zM146.37 9.36c-.43 0-.8-.15-1.1-.46-.3-.3-.46-.67-.46-1.1V1.56c0-.43.15-.8.46-1.1.3-.3.67-.46 1.1-.46s.8.15 1.1.46c.3.3.46.67.46 1.1V7.8c0 .43-.15.8-.46 1.1-.3.3-.67.46-1.1.46M151.83 6.56V7.8c0 .43-.15.8-.46 1.1-.3.3-.67.46-1.1.46s-.8-.15-1.1-.46c-.3-.3-.46-.67-.46-1.1V1.64c0-.43.15-.8.46-1.1.3-.3.67-.46 1.1-.46h2.34c.86 0 1.6.3 2.21.91s.91 1.34.91 2.21-.3 1.6-.91 2.21c-.07.07-.13.13-.2.19l.95 1.27c.26.34.36.73.3 1.15s-.26.77-.6 1.03c-.35.25-.74.35-1.16.29q-.645-.09-1.02-.6l-1.25-2.18Zm.31-2.74c.17 0 .32-.06.44-.18s.18-.27.18-.44-.06-.32-.18-.44a.6.6 0 0 0-.44-.18h-.31v1.25h.31ZM159.62 3.59h1.17c.3 0 .55.11.73.32.19.21.28.47.28.77s-.09.56-.28.77a.94.94 0 0 1-.73.32h-1.17v.39h1.56c.43 0 .8.15 1.1.46.3.3.46.67.46 1.1s-.15.8-.46 1.1c-.3.3-.67.46-1.1.46h-3.12c-.43 0-.8-.15-1.1-.46s-.46-.67-.46-1.1V1.64c0-.43.15-.8.46-1.1.3-.3.67-.46 1.1-.46h3.12c.43 0 .8.15 1.1.46.3.3.46.67.46 1.1s-.15.8-.46 1.1c-.3.3-.67.46-1.1.46h-1.56zM164.09 8.78c-.49-.38-.73-.79-.73-1.22s.15-.8.46-1.1c.3-.3.67-.46 1.1-.46.39 0 .69.1.89.31s.43.32.69.33.42-.05.46-.2c.04-.14-.24-.33-.86-.56-.61-.23-1.2-.54-1.75-.91-.56-.37-.83-.99-.83-1.86s.3-1.6.91-2.21 1.32-.91 2.13-.91 1.5.18 2.12.53c.62.36.92.75.92 1.18s-.15.8-.46 1.1c-.3.3-.67.46-1.1.46q-.6 0-.81-.27c-.15-.18-.32-.28-.54-.29-.21-.01-.34.05-.38.19s.19.32.7.53 1.09.5 1.75.87.99 1.02.99 1.93c0 .86-.3 1.6-.91 2.21s-1.4.91-2.36.91c-1.11 0-1.9-.19-2.39-.57ZM177.49 7.8l-.3.72c-.2.38-.5.63-.91.76s-.81.1-1.19-.1-.63-.51-.76-.92-.1-.81.1-1.19L177.6.84c.25-.56.72-.84 1.4-.84s1.15.28 1.4.84l3.16 6.23c.2.38.24.77.11 1.19s-.39.72-.77.92-.77.23-1.19.1c-.41-.13-.71-.38-.91-.76l-.3-.72h-3Zm2.02-2.34-.53-1.26-.52 1.26zM187.51 5.71V7.8c0 .43-.15.8-.46 1.1-.3.3-.67.46-1.1.46s-.8-.15-1.1-.46c-.3-.3-.46-.67-.46-1.1V1.56c0-.43.15-.8.46-1.1.3-.3.67-.46 1.1-.46s.8.15 1.11.45l2.79 3.19V1.56c0-.43.15-.8.46-1.1.3-.3.67-.46 1.1-.46s.8.15 1.1.46c.3.3.46.67.46 1.1V7.8c0 .43-.15.8-.46 1.1-.3.3-.67.46-1.1.46s-.8-.15-1.1-.46zM197.65.08c1.29 0 2.4.46 3.31 1.37s1.37 1.99 1.37 3.23-.46 2.32-1.37 3.23-2.02 1.37-3.31 1.37h-2.34c-.43 0-.8-.15-1.1-.46-.3-.3-.46-.67-.46-1.1V1.64c0-.43.15-.8.46-1.1.3-.3.67-.46 1.1-.46zm0 6.08c.43 0 .8-.14 1.1-.42s.46-.63.46-1.06-.15-.79-.46-1.06c-.3-.28-.67-.42-1.1-.42h-.78v2.96zM208.49 9.36c-.43 0-.8-.15-1.1-.46-.3-.3-.46-.67-.46-1.1V1.56c0-.43.15-.8.46-1.1.3-.3.67-.46 1.1-.46s.8.15 1.1.46c.3.3.46.67.46 1.1V7.8c0 .43-.15.8-.46 1.1-.3.3-.67.46-1.1.46M213.95 5.71V7.8c0 .43-.15.8-.46 1.1-.3.3-.67.46-1.1.46s-.8-.15-1.1-.46c-.3-.3-.46-.67-.46-1.1V1.56c0-.43.15-.8.46-1.1.3-.3.67-.46 1.1-.46s.8.15 1.11.45l2.79 3.19V1.56c0-.43.15-.8.46-1.1.3-.3.67-.46 1.1-.46s.8.15 1.1.46c.3.3.46.67.46 1.1V7.8c0 .43-.15.8-.46 1.1-.3.3-.67.46-1.1.46s-.8-.15-1.1-.46zM224.86.08c.43 0 .8.15 1.1.46.3.3.46.67.46 1.1s-.15.8-.46 1.1c-.3.3-.67.46-1.1.46h-1.56v.39h1.17c.35 0 .64.11.85.32s.32.5.32.85-.11.64-.32.85-.5.32-.85.32h-1.17V7.8c0 .43-.15.8-.46 1.1-.3.3-.67.46-1.1.46s-.8-.15-1.1-.46c-.3-.3-.46-.67-.46-1.1V1.64c0-.43.15-.8.46-1.1.3-.3.67-.46 1.1-.46zM228.68 9.28c-.43 0-.8-.15-1.1-.46-.3-.3-.46-.67-.46-1.1V1.56c0-.43.15-.8.46-1.1.3-.3.67-.46 1.1-.46s.8.15 1.1.46c.3.3.46.67.46 1.1v4.6h1.56c.43 0 .8.15 1.1.46.3.3.46.67.46 1.1s-.15.8-.46 1.1c-.3.3-.67.46-1.1.46zM238.9 5.98c.16-.17.23-.4.23-.67V1.56c0-.43.15-.8.46-1.1.3-.3.67-.46 1.1-.46s.8.15 1.1.46c.3.3.46.67.46 1.1v3.9q0 1.62-1.14 2.76c-.76.76-1.75 1.14-2.95 1.14s-2.19-.38-2.95-1.14q-1.14-1.14-1.14-2.76v-3.9c0-.43.15-.8.46-1.1.3-.3.67-.46 1.1-.46s.8.15 1.1.46c.3.3.46.67.46 1.1V5.3c0 .28.08.5.23.67s.4.26.74.26.58-.09.74-.26ZM246.15 3.59h1.17c.3 0 .54.11.73.32s.28.47.28.77-.09.56-.28.77a.94.94 0 0 1-.73.32h-1.17v.39h1.56c.43 0 .8.15 1.1.46.3.3.46.67.46 1.1s-.15.8-.46 1.1c-.3.3-.67.46-1.1.46h-3.12c-.43 0-.8-.15-1.1-.46-.3-.3-.46-.67-.46-1.1V1.64c0-.43.15-.8.46-1.1.3-.3.67-.46 1.1-.46h3.12c.43 0 .8.15 1.1.46.3.3.46.67.46 1.1s-.15.8-.46 1.1c-.3.3-.67.46-1.1.46h-1.56zM253.09 5.71V7.8c0 .43-.15.8-.46 1.1-.3.3-.67.46-1.1.46s-.8-.15-1.1-.46c-.3-.3-.46-.67-.46-1.1V1.56c0-.43.15-.8.46-1.1.3-.3.67-.46 1.1-.46s.8.15 1.11.45l2.79 3.19V1.56c0-.43.15-.8.46-1.1.3-.3.67-.46 1.1-.46s.8.15 1.1.46c.3.3.46.67.46 1.1V7.8c0 .43-.15.8-.46 1.1-.3.3-.67.46-1.1.46s-.8-.15-1.1-.46zM265.02 5.79c.06-.09.13-.18.22-.27.3-.3.67-.45 1.1-.45s.8.15 1.1.46c.3.3.46.67.46 1.1 0 .11-.01.23-.03.33q-.06.45-.63 1.02c-.92.92-2.02 1.37-3.31 1.37s-2.39-.46-3.31-1.37-1.37-2.02-1.37-3.31.46-2.4 1.37-3.31 2.02-1.37 3.31-1.37 2.4.46 3.31 1.36c.38.38.59.73.63 1.03q.03.165.03.33c0 .43-.15.8-.46 1.1-.3.3-.67.46-1.1.46s-.8-.15-1.1-.46c-.08-.08-.16-.16-.22-.26-.3-.3-.67-.45-1.1-.45s-.8.15-1.1.46c-.3.3-.46.67-.46 1.1s.15.8.46 1.1c.3.3.67.46 1.1.46s.8-.15 1.1-.45ZM271.8 3.59h1.17c.3 0 .54.11.73.32s.28.47.28.77-.09.56-.28.77a.94.94 0 0 1-.73.32h-1.17v.39h1.56c.43 0 .8.15 1.1.46.3.3.46.67.46 1.1s-.15.8-.46 1.1c-.3.3-.67.46-1.1.46h-3.12c-.43 0-.8-.15-1.1-.46-.3-.3-.46-.67-.46-1.1V1.64c0-.43.15-.8.46-1.1.3-.3.67-.46 1.1-.46h3.12c.43 0 .8.15 1.1.46.3.3.46.67.46 1.1s-.15.8-.46 1.1c-.3.3-.67.46-1.1.46h-1.56zM278.74 6.56V7.8c0 .43-.15.8-.46 1.1-.3.3-.67.46-1.1.46s-.8-.15-1.1-.46c-.3-.3-.46-.67-.46-1.1V1.64c0-.43.15-.8.46-1.1.3-.3.67-.46 1.1-.46h2.34c.86 0 1.6.3 2.21.91s.91 1.34.91 2.21-.3 1.6-.91 2.21c-.07.07-.14.13-.2.19l.95 1.27c.26.34.36.73.3 1.15s-.26.77-.6 1.03c-.35.25-.74.35-1.16.29q-.645-.09-1.02-.6l-1.25-2.18Zm.31-2.74c.17 0 .32-.06.44-.18s.18-.27.18-.44-.06-.32-.18-.44a.6.6 0 0 0-.44-.18h-.31v1.25h.31ZM284.07 8.78c-.49-.38-.73-.79-.73-1.22s.15-.8.46-1.1c.3-.3.67-.46 1.1-.46.4 0 .69.1.89.31q.3.315.69.33c.26.01.42-.05.46-.2.04-.14-.24-.33-.86-.56s-1.2-.54-1.75-.91c-.56-.37-.83-.99-.83-1.86s.3-1.6.91-2.21 1.32-.91 2.13-.91 1.5.18 2.12.53c.62.36.92.75.92 1.18s-.15.8-.46 1.1c-.3.3-.67.46-1.1.46q-.6 0-.81-.27c-.15-.18-.33-.28-.54-.29s-.34.05-.38.19.19.32.7.53 1.09.5 1.75.87.99 1.02.99 1.93c0 .86-.3 1.6-.91 2.21s-1.4.91-2.36.91c-1.11 0-1.9-.19-2.39-.57ZM297.46 7.8l-.3.72c-.2.38-.5.63-.91.76s-.81.1-1.19-.1-.63-.51-.76-.92-.1-.81.1-1.19l3.17-6.23c.25-.56.72-.84 1.4-.84s1.15.28 1.4.84l3.16 6.23c.2.38.24.77.11 1.19s-.39.72-.77.92-.77.23-1.19.1c-.41-.13-.71-.38-.91-.76l-.3-.72h-3Zm2.03-2.34-.53-1.26-.52 1.26zM307.49 6.56V7.8c0 .43-.15.8-.46 1.1-.3.3-.67.46-1.1.46s-.8-.15-1.1-.46c-.3-.3-.46-.67-.46-1.1V1.64c0-.43.15-.8.46-1.1.3-.3.67-.46 1.1-.46h2.34c.86 0 1.6.3 2.21.91s.91 1.34.91 2.21-.3 1.6-.91 2.21c-.07.07-.14.13-.2.19l.95 1.27c.26.34.36.73.3 1.15s-.26.77-.6 1.03c-.35.25-.74.35-1.16.29q-.645-.09-1.02-.6l-1.25-2.18Zm.31-2.74c.17 0 .32-.06.44-.18s.18-.27.18-.44-.06-.32-.18-.44a.6.6 0 0 0-.44-.18h-.31v1.25h.31ZM315.28 3.59h1.17c.3 0 .54.11.73.32s.28.47.28.77-.09.56-.28.77a.94.94 0 0 1-.73.32h-1.17v.39h1.56c.43 0 .8.15 1.1.46.3.3.46.67.46 1.1s-.15.8-.46 1.1c-.3.3-.67.46-1.1.46h-3.12c-.43 0-.8-.15-1.1-.46-.3-.3-.46-.67-.46-1.1V1.64c0-.43.15-.8.46-1.1.3-.3.67-.46 1.1-.46h3.12c.43 0 .8.15 1.1.46.3.3.46.67.46 1.1s-.15.8-.46 1.1c-.3.3-.67.46-1.1.46h-1.56zM106.27 23.7c-.43 0-.8-.15-1.1-.46-.3-.3-.46-.67-.46-1.1V15.9c0-.43.15-.8.46-1.1.3-.3.67-.46 1.1-.46s.8.15 1.1.46c.3.3.46.67.46 1.1v6.24c0 .43-.15.8-.46 1.1-.3.3-.67.46-1.1.46M111.73 20.05v2.09c0 .43-.15.8-.46 1.1-.3.3-.67.46-1.1.46s-.8-.15-1.1-.46c-.3-.3-.46-.67-.46-1.1V15.9c0-.43.15-.8.46-1.1.3-.3.67-.46 1.1-.46s.8.15 1.11.45l2.79 3.19V15.9c0-.43.15-.8.46-1.1.3-.3.67-.46 1.1-.46s.8.15 1.1.46c.3.3.46.67.46 1.1v6.24c0 .43-.15.8-.46 1.1-.3.3-.67.46-1.1.46s-.8-.15-1.1-.46zM128.03 14.42c.43 0 .8.15 1.1.46.3.3.46.67.46 1.1s-.15.8-.46 1.1c-.3.3-.67.46-1.1.46h-.78v4.6c0 .43-.15.8-.46 1.1-.3.3-.67.46-1.1.46s-.8-.15-1.1-.46c-.3-.3-.46-.67-.46-1.1v-4.6h-.78c-.43 0-.8-.15-1.1-.46-.3-.3-.46-.67-.46-1.1s.15-.8.46-1.1c.3-.3.67-.46 1.1-.46zM134.34 23.7c-1.29 0-2.4-.46-3.31-1.37s-1.37-2.02-1.37-3.31.46-2.4 1.37-3.31 2.02-1.37 3.31-1.37 2.4.46 3.31 1.37 1.37 2.02 1.37 3.31-.46 2.4-1.37 3.31-2.02 1.37-3.31 1.37m1.1-3.58c.3-.3.46-.67.46-1.1s-.15-.8-.46-1.1c-.3-.3-.67-.46-1.1-.46s-.8.15-1.1.46-.46.67-.46 1.1.15.8.46 1.1.67.46 1.1.46.8-.15 1.1-.46M145.26 14.42c.43 0 .8.15 1.1.46.3.3.46.67.46 1.1s-.15.8-.46 1.1c-.3.3-.67.46-1.1.46h-.78v4.6c0 .43-.15.8-.46 1.1-.3.3-.67.46-1.1.46s-.8-.15-1.1-.46c-.3-.3-.46-.67-.46-1.1v-4.6h-.78c-.43 0-.8-.15-1.1-.46-.3-.3-.46-.67-.46-1.1s.15-.8.46-1.1c.3-.3.67-.46 1.1-.46zM149.08 22.14l-.3.72c-.2.38-.5.63-.91.76s-.81.1-1.19-.1-.63-.51-.76-.92-.1-.81.1-1.19l3.17-6.23c.25-.56.72-.84 1.4-.84s1.15.28 1.4.84l3.16 6.23c.2.38.24.77.11 1.19s-.39.72-.77.92-.77.23-1.19.1c-.41-.13-.71-.38-.91-.76l-.3-.72h-3Zm2.03-2.34-.53-1.26-.52 1.26zM157.55 23.62c-.43 0-.8-.15-1.1-.46s-.46-.67-.46-1.1V15.9c0-.43.15-.8.46-1.1.3-.3.67-.46 1.1-.46s.8.15 1.1.46c.3.3.46.67.46 1.1v4.6h1.56c.43 0 .8.15 1.1.46.3.3.46.67.46 1.1s-.15.8-.46 1.1c-.3.3-.67.46-1.1.46zM167.48 23.13c-.49-.38-.73-.79-.73-1.22s.15-.8.46-1.1c.3-.3.67-.46 1.1-.46.39 0 .69.1.89.31s.43.32.69.33.42-.05.46-.2c.04-.14-.24-.33-.86-.56-.61-.23-1.2-.54-1.75-.91-.56-.37-.83-.99-.83-1.86s.3-1.6.91-2.21 1.32-.91 2.13-.91 1.5.18 2.12.53c.62.36.92.75.92 1.18s-.15.8-.46 1.1c-.3.3-.67.46-1.1.46q-.6 0-.81-.27c-.15-.18-.32-.28-.54-.29-.21-.01-.34.05-.38.19s.19.32.7.53 1.09.5 1.75.87.99 1.02.99 1.93c0 .86-.3 1.6-.91 2.21s-1.4.91-2.36.91c-1.11 0-1.9-.19-2.39-.57ZM176.97 20.5v1.64c0 .43-.15.8-.46 1.1-.3.3-.67.46-1.1.46s-.8-.15-1.1-.46c-.3-.3-.46-.67-.46-1.1V15.9c0-.43.15-.8.46-1.1.3-.3.67-.46 1.1-.46s.8.15 1.1.46c.3.3.46.67.46 1.1v1.64h1.95V15.9c0-.43.15-.8.46-1.1.3-.3.67-.46 1.1-.46s.8.15 1.1.46c.3.3.46.67.46 1.1v6.24c0 .43-.15.8-.46 1.1-.3.3-.67.46-1.1.46s-.8-.15-1.1-.46c-.3-.3-.46-.67-.46-1.1V20.5zM187.42 23.7c-1.29 0-2.4-.46-3.31-1.37s-1.37-2.02-1.37-3.31.46-2.4 1.37-3.31 2.02-1.37 3.31-1.37 2.4.46 3.31 1.37 1.37 2.02 1.37 3.31-.46 2.4-1.37 3.31-2.01 1.37-3.31 1.37m1.1-3.58c.3-.3.46-.67.46-1.1s-.15-.8-.46-1.1-.67-.46-1.1-.46-.8.15-1.1.46c-.3.3-.46.67-.46 1.1s.15.8.46 1.1c.3.3.67.46 1.1.46s.8-.15 1.1-.46M198.5 20.13c.06-.09.13-.18.22-.27.3-.3.67-.45 1.1-.45s.8.15 1.1.46.46.67.46 1.1c0 .11-.01.23-.03.33q-.06.45-.63 1.02c-.91.92-2.02 1.37-3.31 1.37s-2.39-.46-3.31-1.37-1.37-2.02-1.37-3.31.46-2.4 1.37-3.31 2.02-1.37 3.31-1.37 2.4.46 3.31 1.36c.38.38.59.73.63 1.03q.03.165.03.33c0 .43-.15.8-.46 1.1s-.67.46-1.1.46-.8-.15-1.1-.46c-.08-.08-.16-.16-.22-.26-.3-.3-.67-.45-1.1-.45s-.8.15-1.1.46c-.3.3-.46.67-.46 1.1s.15.8.46 1.1c.3.3.67.46 1.1.46s.8-.15 1.1-.45ZM205.27 20.6v1.54c0 .43-.15.8-.46 1.1-.3.3-.67.46-1.1.46s-.8-.15-1.1-.46c-.3-.3-.46-.67-.46-1.1V15.9c0-.43.15-.8.46-1.1.3-.3.67-.46 1.1-.46s.8.15 1.1.46c.3.3.46.67.46 1.1v1.04l1.49-1.98c.25-.34.6-.54 1.02-.6.43-.06.81.04 1.16.29.34.26.54.6.6 1.03s-.04.81-.3 1.15l-1.44 1.93 1.82 2.44c.26.34.36.73.3 1.15-.06.43-.26.77-.6 1.03-.35.25-.74.35-1.16.29q-.645-.09-1.02-.6l-1.87-2.48ZM212.13 19.8c-.43 0-.8-.15-1.1-.46-.3-.3-.46-.67-.46-1.1s.15-.8.46-1.1c.3-.3.67-.46 1.1-.46s.8.15 1.1.46.46.67.46 1.1-.15.8-.46 1.1c-.3.3-.67.46-1.1.46m0 3.9c-.43 0-.8-.15-1.1-.46-.3-.3-.46-.67-.46-1.1s.15-.8.46-1.1c.3-.3.67-.46 1.1-.46s.8.15 1.1.46c.3.3.46.67.46 1.1s-.15.8-.46 1.1c-.3.3-.67.46-1.1.46" class="cls-1"></path></g></svg>