<svg xmlns:xlink="http://www.w3.org/1999/xlink"  id="svg_cart" width="28" height="38" viewBox="0 0 30 40" fill="none" xmlns="http://www.w3.org/2000/svg">
          <path class="fill" fill-rule="evenodd" clip-rule="evenodd" d="M4 0C1.79086 0 0 1.79086 0 4V36C0 38.2091 1.79086 40 4 40H26C28.2091 40 30 38.2091 30 36V4C30 1.79086 28.2091 0 26 0H4ZM11 4C9.89543 4 9 4.89543 9 6C9 7.10457 9.89543 8 11 8H19C20.1046 8 21 7.10457 21 6C21 4.89543 20.1046 4 19 4H11Z"></path>
          <text id="tx_amount_test" fill="#ffffff" stroke="#ffffff" x="15" y="31" style="font-size: 20px; font-family: UniversTE20T; text-anchor: middle;">0</text>
        </svg>