<svg xmlns:xlink="http://www.w3.org/1999/xlink"  xmlns="http://www.w3.org/2000/svg" width="980" height="333" fill="none"><g clip-path="url(#a)"><path fill="#EAB124" d="M139.969 0h-140v333h140z"/><path fill="#F7941D" d="M279.969 0h-140v333h140z"/><path fill="#EF4136" d="M419.969 0h-140v333h140z"/><path fill="#EE2A7B" d="M559.969 0h-140v333h140z"/><path fill="#92278F" d="M699.969 0h-140v333h140z"/><path fill="#D1D3D4" d="M839.969 0h-140v333h140z"/><path fill="#231F20" d="M979.969 0h-140v333h140zM40.722 38.096c-2.635 0-4.913-1.472-4.913-4.653h2.278c0 1.52.712 2.896 2.706 2.896 2.28 0 2.944-1.661 2.944-3.68V20.697h2.231v12.011c0 3.466-1.685 5.389-5.246 5.389M56.962 38.167c-4.558 0-6.884-2.208-6.884-6.908V20.697h2.326v10.255c0 1.234.024 2.516.712 3.584.831 1.306 2.374 1.852 3.87 1.852 1.756 0 3.465-.784 4.177-2.469.404-.95.428-1.994.428-3.014V20.697h2.255v10.61c0 4.392-2.469 6.86-6.884 6.86M78.832 37.858l-8.521-14.883v14.883h-2.018V20.696h2.99l8.522 14.931v-14.93h2.018v17.161zM86.48 37.858V20.696h10.635v1.733h-8.427v5.697h8.07v1.733h-8.07v6.267h8.76v1.732zM188.003 36.22c-.949 1.33-2.54 1.828-4.106 1.828-2.374 0-4.51-1.4-4.51-3.964 0-.118 0-.261.023-.38h1.567c0 .095-.024.19-.024.285 0 1.733 1.354 2.777 3.015 2.777 2.469 0 3.276-1.78 3.276-3.987V20.696h1.543v12.177c0 1.164-.095 2.374-.784 3.348M199.735 38.12c-4.225 0-6.575-2.374-6.575-6.576V20.696h1.614v10.302c0 1.33.024 2.706.784 3.846.925 1.377 2.587 1.97 4.177 1.97 1.876 0 3.703-.807 4.51-2.587.428-.973.452-2.184.452-3.229V20.697h1.614v10.847c0 4.083-2.469 6.575-6.576 6.575M211.059 37.858V20.696h1.543v15.88h8.616v1.282zM226.896 30.5v7.358h-1.542v-7.406l-6.647-9.804h1.852l5.649 8.427 5.578-8.427h1.757zM339.174 37.857l-1.946-4.795h-8.688l-1.851 4.795h-1.638l7.002-17.162h1.638l7.287 17.162zm-6.409-15.666-3.726 9.59h7.643zM349.743 38.119c-4.225 0-6.575-2.374-6.575-6.576V20.695h1.614v10.302c0 1.33.024 2.706.783 3.846.926 1.377 2.588 1.97 4.178 1.97 1.876 0 3.703-.807 4.51-2.587.428-.974.451-2.184.451-3.229V20.696h1.614v10.847c0 4.083-2.468 6.575-6.575 6.575M367.783 38c-5.269 0-7.904-3.823-7.904-8.807 0-4.677 2.445-8.83 7.548-8.83 2.944 0 5.46 1.424 5.745 4.58h-1.662c-.38-2.23-1.899-3.275-4.106-3.275-4.178 0-5.816 3.727-5.816 7.382 0 3.964 1.78 7.62 6.219 7.62 1.353 0 2.73-.19 4.036-.594v-5.625h-4.321v-1.282h5.84v7.88c-1.852.523-3.632.95-5.579.95M471.428 38.072c-3.133 0-5.436-1.377-5.744-4.677h1.614c.071 2.445 2.017 3.371 4.201 3.371 2.065 0 4.463-.902 4.463-3.323 0-1.852-1.496-2.706-3.703-3.418l-1.258-.404c-2.777-.878-4.819-1.899-4.819-4.581 0-3.204 2.825-4.558 5.673-4.558 2.611 0 5.317.974 5.365 4.012h-1.59c-.214-2.089-1.804-2.73-3.703-2.73-1.971 0-4.178.878-4.178 3.157 0 1.686 1.258 2.54 3.916 3.395l1.425.45c2.777.879 4.367 1.805 4.438 4.416 0 3.442-3.038 4.89-6.1 4.89M481.426 37.858V20.696h10.183v1.282h-8.64v6.314h8.308v1.282h-8.308v7.003h8.997v1.281zM503.485 29.811c-1.021.333-2.232.404-3.442.404h-2.777v7.643h-1.543V20.696h4.818c1.876 0 3.252.285 4.178.879 1.377.878 1.923 2.16 1.923 3.893 0 2.088-1.187 3.679-3.157 4.343m-2.873-7.833h-3.347v6.955h2.564c.926 0 2.255-.047 3.133-.356 1.33-.475 2.018-1.899 2.018-3.252 0-2.848-1.994-3.347-4.368-3.347M613.361 38.12c-5.317 0-7.525-4.036-7.525-8.878 0-4.724 2.35-8.854 7.525-8.854 5.388 0 7.548 3.75 7.548 8.711 0 4.843-2.16 9.02-7.548 9.02m0-16.427c-4.273 0-5.816 3.846-5.816 7.549 0 3.726 1.519 7.596 5.816 7.596 4.32 0 5.839-3.846 5.839-7.596 0-3.87-1.4-7.549-5.839-7.549M630.791 38.095c-5.175 0-7.264-3.964-7.264-8.664 0-4.795 2.398-8.996 7.406-8.996 1.804 0 3.632.522 4.748 2.041.498.688.854 1.472.878 2.326h-1.662c-.213-2.089-2.065-3.014-3.987-3.014-4.107 0-5.721 3.892-5.721 7.453 0 3.68 1.353 7.501 5.649 7.501 1.852 0 3.798-1.068 4.083-3.11h1.709c-.522 2.849-2.824 4.463-5.839 4.463M645.222 21.978v15.88h-1.543v-15.88h-5.484v-1.282h12.533v1.282zM759.948 37.858l-9.305-15.286v15.286h-1.448V20.696h2.089l9.305 15.335V20.696h1.448v17.162zM773.361 38.12c-5.317 0-7.525-4.036-7.525-8.878 0-4.724 2.35-8.854 7.525-8.854 5.388 0 7.548 3.75 7.548 8.711 0 4.843-2.16 9.02-7.548 9.02m0-16.427c-4.273 0-5.816 3.846-5.816 7.549 0 3.726 1.519 7.596 5.816 7.596 4.32 0 5.839-3.846 5.839-7.596 0-3.87-1.4-7.549-5.839-7.549M790.864 37.858h-1.757l-6.623-17.162h1.686l5.863 15.643 5.815-15.643h1.543z"/><path fill="#D1D3D4" d="M895.519 37.787c-.949.095-1.923.071-2.872.071h-3.585V20.696h4.629c2.35 0 3.798.024 5.555 1.14 2.35 1.519 3.299 4.368 3.299 7.382 0 4.629-2.16 8.142-7.026 8.57m2.849-14.836c-1.33-.95-3.205-.973-4.772-.973h-2.99v14.599h3.489c4.985 0 6.836-2.612 6.836-7.383 0-2.326-.546-4.819-2.563-6.243M906.352 37.858V20.696h10.183v1.282h-8.64v6.314h8.308v1.282h-8.308v7.003h8.996v1.281zM926.725 38.095c-5.175 0-7.264-3.964-7.264-8.664 0-4.795 2.397-8.996 7.406-8.996 1.804 0 3.632.522 4.747 2.041.499.688.855 1.472.879 2.326h-1.662c-.214-2.089-2.065-3.014-3.988-3.014-4.106 0-5.72 3.892-5.72 7.453 0 3.68 1.353 7.501 5.649 7.501 1.852 0 3.798-1.068 4.083-3.11h1.709c-.522 2.849-2.825 4.463-5.839 4.463"/><path fill="#E6E7E8" d="M104.078 263.462q0 14.643-10.322 24.967-10.322 10.32-24.967 10.32t-24.966-10.32Q33.5 278.105 33.5 263.462c0-9.761 3.44-18.086 10.323-24.967q10.32-10.323 24.966-10.322 14.646 0 24.967 10.322 10.322 10.321 10.322 24.967m-26.967-8.324q-3.44-3.44-8.321-3.439-4.883 0-8.323 3.439-3.44 3.443-3.44 8.324t3.44 8.321q3.44 3.442 8.323 3.441 4.88 0 8.32-3.441 3.442-3.44 3.441-8.321 0-4.881-3.44-8.324M92.316 199.354q4.883 0 8.323 3.442 3.44 3.439 3.44 8.321t-3.44 8.322q-3.44 3.441-8.323 3.441H45.853q-4.88 0-8.322-3.441t-3.441-8.322v-17.645q0-9.76 6.882-16.644 6.881-6.881 16.644-6.881t16.644 6.881q6.882 6.884 6.881 16.644v5.882zm-29.995-2.353q0-1.939-1.382-3.322t-3.323-1.383q-1.94 0-3.323 1.383-1.381 1.383-1.382 3.322v2.353h9.41zM68.79 117.602q4.882 0 8.322 3.441t3.44 8.322v23.526q0 4.882-3.44 8.321-3.44 3.442-8.321 3.442-4.883 0-8.323-3.442-3.44-3.439-3.44-8.321v-23.526q0-4.882 3.44-8.322 3.44-3.441 8.323-3.441M34.086 94.077q0-4.88 3.44-8.322 3.443-3.441 8.323-3.44h46.463q4.883-.001 8.323 3.44 3.44 3.442 3.44 8.322 0 4.882-3.44 8.323-3.44 3.44-8.323 3.441h-34.7q0 4.88-3.44 8.322-3.44 3.44-8.323 3.439-4.882 0-8.322-3.439-3.441-3.442-3.441-8.322z"/><mask id="b" width="841" height="278" x="140" y="56" maskUnits="userSpaceOnUse" style="mask-type:luminance"><path fill="#fff" d="M980.064 56.331H140.121v277.01h839.943z"/></mask><g stroke="#231F20" stroke-miterlimit="10" stroke-width="1.35" mask="url(#b)"><path d="m141.854 50.092-295.252 295.911M154.776 50.092l-295.253 295.911M167.694 50.092l-295.253 295.911M180.604 50.092l-295.252 295.911M193.523 50.092-101.73 346.003M206.44 50.092-88.812 346.003M219.355 50.092-75.898 346.003M232.272 50.092-62.98 346.003M245.183 50.092-50.07 346.003M258.101 50.092-37.152 346.003M271.019 50.092-24.234 346.003M283.933 50.092-11.32 346.003M296.847 50.092 1.594 346.003M309.765 50.092 14.512 346.003M322.683 50.092 27.43 346.003M335.601 50.092 40.348 346.003M348.518 50.092 53.266 346.003M361.429 50.092 66.176 346.003M374.347 50.092 79.094 346.003M387.265 50.092 92.012 346.003M400.183 50.092 104.93 346.003M413.097 50.092 117.844 346.003M426.011 50.092 130.758 346.003M438.929 50.092 143.676 346.003M451.851 50.092 156.598 346.003M464.765 50.092 169.512 346.003M477.679 50.092 182.426 346.003M490.597 50.092 195.344 346.003M503.511 50.092 208.258 346.003M516.429 50.092 221.176 346.003M529.339 50.092 234.086 346.003M542.257 50.092 247.004 346.003M555.175 50.092 259.922 346.003M568.089 50.092 272.836 346.003M581.007 50.092 285.754 346.003M593.921 50.092 298.668 346.003M606.835 50.092 311.582 346.003M619.753 50.092 324.5 346.003M632.671 50.092 337.418 346.003M645.585 50.092 350.332 346.003M658.503 50.092 363.25 346.003M671.417 50.092 376.164 346.003M684.335 50.092 389.082 346.003M697.253 50.092 402 346.003M710.163 50.092 414.91 346.003M723.081 50.092 427.828 346.003M735.999 50.092 440.746 346.003M748.913 50.092 453.66 346.003M761.827 50.092 466.574 346.003M774.741 50.092 479.488 346.003M787.659 50.092 492.406 346.003M800.581 50.092 505.328 346.003M813.495 50.092 518.242 346.003M826.409 50.092 531.156 346.003M839.327 50.092 544.074 346.003M852.245 50.092 556.992 346.003M865.163 50.092 569.91 346.003M878.077 50.092 582.824 346.003M890.991 50.092 595.738 346.003M903.909 50.092 608.656 346.003M916.823 50.092 621.57 346.003M929.745 50.092 634.492 346.003M942.659 50.092 647.406 346.003M955.573 50.092 660.32 346.003M968.491 50.092 673.238 346.003M981.409 50.092 686.156 346.003M994.319 50.092 699.066 346.003M1007.24 50.092 711.984 346.003M1020.16 50.092 724.902 346.003M1033.07 50.092 737.816 346.003M1045.98 50.092 750.73 346.003M1058.9 50.092 763.645 346.003M1071.82 50.092 776.562 346.003M1084.73 50.092 789.48 346.003M1097.65 50.092 802.395 346.003M1110.57 50.092 815.312 346.003M1123.48 50.092 828.23 346.003M1136.4 50.092 841.145 346.003M1149.32 50.092 854.062 346.003M1162.23 50.092 866.973 346.003M1175.14 50.092 879.891 346.003M1188.06 50.092 892.809 346.003M1200.98 50.092 905.723 346.003M1213.89 50.092 918.641 346.003M1226.81 50.092 931.555 346.003M1239.72 50.092 944.469 346.003M1252.64 50.092 957.387 346.003M1265.56 50.092 970.305 346.003"/></g></g><defs><clipPath id="a"><path fill="#fff" d="M0 0h980v333H0z"/></clipPath></defs></svg>