<svg xmlns:xlink="http://www.w3.org/1999/xlink"  xmlns="http://www.w3.org/2000/svg" fill="none" viewBox="0 0 980 362" id="te-14393e63-43dda914-8ecd6ae2"><path fill="#EAB124" d="M138.284.701H-2v334.174h140.284z"></path><path fill="#F7941D" d="M278.636.701H138.352v334.174h140.284z"></path><path fill="#ED2127" d="M418.917.701H278.633v334.174h140.284z"></path><path fill="#EE2A7B" d="M559.202.701H418.918v334.174h140.284z"></path><path fill="#92278F" d="M699.487.701H559.203v334.174h140.284z"></path><path fill="#9D9DA3" d="M839.772.701H699.488v334.174h140.284z"></path><path fill="#231F20" d="M980.054.701H839.77v334.174h140.284zM186.334 36.974c-.952 1.333-2.545 1.832-4.115 1.832-2.379 0-4.52-1.403-4.52-3.972 0-.12 0-.262.024-.38h1.57c0 .094-.024.19-.024.285 0 1.736 1.356 2.783 3.021 2.783 2.474 0 3.283-1.784 3.283-3.996V21.418h1.546V33.62c0 1.165-.095 2.378-.785 3.353M198.089 38.877c-4.234 0-6.589-2.378-6.589-6.589v-10.87h1.617V31.74c0 1.332.024 2.712.785 3.854.928 1.38 2.593 1.974 4.187 1.974 1.879 0 3.711-.809 4.52-2.593.428-.975.452-2.188.452-3.235V21.418h1.617v10.87c0 4.092-2.474 6.59-6.589 6.59M209.438 38.616V21.418h1.546v15.914h8.634v1.284zM225.308 31.242v7.374h-1.546v-7.422l-6.66-9.824h1.855l5.661 8.444 5.59-8.444h1.761zM470.354 38.83c-3.14 0-5.447-1.38-5.756-4.686h1.617c.071 2.45 2.022 3.377 4.21 3.377 2.07 0 4.472-.904 4.472-3.33 0-1.855-1.498-2.712-3.71-3.425l-1.261-.404c-2.783-.88-4.829-1.903-4.829-4.591 0-3.212 2.831-4.567 5.685-4.567 2.617 0 5.329.975 5.376 4.02h-1.593c-.215-2.094-1.808-2.736-3.711-2.736-1.975 0-4.187.88-4.187 3.164 0 1.689 1.261 2.545 3.925 3.401l1.427.452c2.783.88 4.377 1.808 4.448 4.425 0 3.449-3.044 4.9-6.113 4.9M480.371 38.616V21.418h10.205v1.285h-8.659v6.327h8.326v1.284h-8.326v7.017h9.016v1.285zM502.474 30.552c-1.023.333-2.236.405-3.449.405h-2.784v7.659h-1.546V21.418h4.829c1.879 0 3.259.285 4.187.88 1.379.88 1.926 2.165 1.926 3.901 0 2.093-1.189 3.687-3.163 4.353m-2.879-7.85h-3.354v6.97h2.569c.928 0 2.26-.047 3.14-.357 1.332-.476 2.022-1.903 2.022-3.259 0-2.854-1.998-3.354-4.377-3.354M612.583 38.878c-5.328 0-7.54-4.044-7.54-8.897 0-4.733 2.355-8.872 7.54-8.872 5.4 0 7.565 3.758 7.565 8.73 0 4.852-2.165 9.039-7.565 9.039m0-16.46c-4.281 0-5.827 3.853-5.827 7.563 0 3.735 1.522 7.612 5.827 7.612 4.33 0 5.852-3.853 5.852-7.612 0-3.877-1.403-7.564-5.852-7.564M630.048 38.853c-5.185 0-7.278-3.972-7.278-8.682 0-4.805 2.402-9.015 7.421-9.015 1.808 0 3.64.523 4.757 2.046.5.69.857 1.474.881 2.33h-1.665c-.215-2.093-2.07-3.02-3.997-3.02-4.115 0-5.732 3.9-5.732 7.469 0 3.687 1.356 7.517 5.661 7.517 1.855 0 3.806-1.07 4.091-3.116h1.713c-.523 2.854-2.831 4.471-5.852 4.471M644.51 22.703v15.913h-1.547V22.703h-5.494v-1.285h12.559v1.285zM759.475 38.616l-9.325-15.319v15.32h-1.451V21.417h2.093l9.325 15.367V21.418h1.451v17.198zM772.919 38.878c-5.328 0-7.54-4.044-7.54-8.897 0-4.733 2.355-8.872 7.54-8.872 5.4 0 7.565 3.758 7.565 8.73 0 4.852-2.165 9.039-7.565 9.039m0-16.46c-4.281 0-5.827 3.853-5.827 7.563 0 3.735 1.522 7.612 5.827 7.612 4.33 0 5.852-3.853 5.852-7.612 0-3.877-1.403-7.564-5.852-7.564M790.455 38.616h-1.76l-6.636-17.198h1.688l5.876 15.676 5.828-15.676h1.546z"></path><path fill="#D1D3D4" d="M895.333 38.545c-.951.095-1.926.071-2.878.071h-3.592V21.418h4.639c2.355 0 3.806.024 5.566 1.142 2.355 1.522 3.306 4.377 3.306 7.398 0 4.638-2.164 8.159-7.041 8.587m2.855-14.867c-1.332-.952-3.211-.976-4.781-.976h-2.997v14.63h3.496c4.995 0 6.851-2.617 6.851-7.398 0-2.332-.547-4.83-2.569-6.256M906.188 38.616V21.418h10.204v1.285h-8.658v6.327h8.325v1.284h-8.325v7.017h9.015v1.285zM926.603 38.853c-5.185 0-7.279-3.972-7.279-8.682 0-4.805 2.403-9.015 7.422-9.015 1.808 0 3.639.523 4.757 2.045.5.69.856 1.475.88 2.331h-1.665c-.214-2.093-2.069-3.02-3.996-3.02-4.115 0-5.733 3.9-5.733 7.469 0 3.687 1.356 7.516 5.662 7.516 1.855 0 3.806-1.07 4.091-3.116h1.713c-.524 2.855-2.831 4.472-5.852 4.472"></path><path fill="#E6E7E8" d="M102.229 264.692q0 14.675-10.343 25.019t-25.019 10.342q-14.675.001-25.018-10.342-10.345-10.344-10.345-25.019c0-9.781 3.448-18.124 10.345-25.02q10.342-10.343 25.018-10.343t25.019 10.343q10.343 10.344 10.343 25.02m-27.023-8.341q-3.447-3.446-8.339-3.446t-8.34 3.446q-3.447 3.45-3.447 8.341 0 4.892 3.447 8.339 3.448 3.449 8.34 3.448 4.892.001 8.339-3.448 3.449-3.447 3.448-8.339.001-4.891-3.448-8.341M90.446 200.449q4.892 0 8.34 3.449t3.448 8.339q0 4.893-3.448 8.34t-8.34 3.448h-46.56q-4.89 0-8.34-3.448-3.448-3.447-3.448-8.34v-17.682q0-9.781 6.897-16.678 6.895-6.897 16.678-6.896 9.784 0 16.679 6.896 6.895 6.897 6.895 16.678v5.894zm-30.058-2.357q.001-1.943-1.385-3.329-1.384-1.386-3.33-1.386-1.944 0-3.33 1.386-1.384 1.386-1.385 3.329v2.357h9.43zM66.87 118.527q4.891 0 8.339 3.449 3.448 3.447 3.447 8.338v23.576q0 4.892-3.447 8.339-3.448 3.449-8.34 3.449-4.89 0-8.34-3.449-3.446-3.447-3.447-8.339v-23.576q0-4.891 3.448-8.338 3.447-3.45 8.34-3.449M32.094 94.952q0-4.89 3.448-8.34 3.45-3.447 8.34-3.446h46.56q4.893-.001 8.34 3.446 3.448 3.45 3.448 8.34 0 4.893-3.448 8.34t-8.34 3.448H55.67q0 4.892-3.448 8.34t-8.34 3.447q-4.892 0-8.34-3.447t-3.448-8.34zM240.073 265.552q0 14.674-10.343 25.019-10.344 10.343-25.019 10.342-14.675.001-25.019-10.342-10.345-10.345-10.344-25.019c0-9.781 3.448-18.124 10.344-25.02q10.344-10.343 25.019-10.343t25.019 10.343 10.343 25.02m-27.023-8.341q-3.446-3.446-8.339-3.446-4.892 0-8.34 3.446-3.447 3.449-3.448 8.341t3.448 8.339q3.448 3.448 8.34 3.448 4.893.001 8.339-3.448 3.448-3.447 3.448-8.339 0-4.891-3.448-8.341M228.286 201.309q4.892 0 8.34 3.449 3.448 3.447 3.448 8.339t-3.448 8.34-8.34 3.448h-46.561q-4.89 0-8.34-3.448-3.447-3.447-3.447-8.34v-17.682q0-9.781 6.896-16.678 6.897-6.897 16.679-6.896 9.784 0 16.679 6.896 6.895 6.897 6.895 16.678v5.894zm-30.058-2.357q0-1.943-1.385-3.329-1.384-1.386-3.33-1.386-1.944 0-3.33 1.386-1.384 1.385-1.385 3.329v2.357h9.43zM204.71 119.386q4.891 0 8.338 3.45 3.449 3.447 3.448 8.338v23.576q.001 4.891-3.448 8.339-3.447 3.449-8.338 3.449-4.893 0-8.34-3.449t-3.448-8.339v-23.576q0-4.891 3.448-8.338 3.447-3.45 8.34-3.45M169.934 95.812q0-4.89 3.448-8.34 3.449-3.447 8.34-3.446h46.56q4.893-.001 8.34 3.446 3.447 3.45 3.448 8.34 0 4.893-3.448 8.34t-8.34 3.448h-34.773q0 4.892-3.448 8.34t-8.34 3.447q-4.89 0-8.34-3.447-3.447-3.448-3.447-8.34z"></path><mask id="a" width="700" height="278" x="418" y="57" maskUnits="userSpaceOnUse" style="mask-type:luminance"><path fill="#fff" stroke="#fff" stroke-width="1.35" d="M1117.32 57.898v275.678H419.593V57.897z"></path></mask><g stroke="#000" stroke-miterlimit="10" stroke-width="1.35" mask="url(#a)"><path d="M420.363 50.983 174.625 346.914M433.902 50.983 188.164 346.914M447.445 50.983 201.707 346.914M460.992 50.983 215.254 346.914M474.531 50.983 228.793 346.914M488.082 50.983 242.344 346.914M501.621 50.983 255.883 346.914M515.168 50.983 269.43 346.914M528.707 50.983 282.969 346.914M542.25 50.983 296.512 346.914M555.793 50.983 310.055 346.914M569.34 50.983 323.602 346.914M582.883 50.983 337.145 346.914M596.426 50.983 350.688 346.914M609.969 50.983 364.23 346.914M623.512 50.983 377.773 346.914M637.054 50.983 391.316 346.914M650.601 50.983 404.863 346.914M664.144 50.983 418.406 346.914M677.683 50.983 431.945 346.914M691.23 50.983 445.492 346.914M704.769 50.983 459.031 346.914M718.316 50.983 472.578 346.914M731.855 50.983 486.117 346.914M745.406 50.983 499.668 346.914M758.949 50.983 513.211 346.914M772.488 50.983 526.75 346.914M786.035 50.983 540.297 346.914M799.574 50.983 553.836 346.914M813.121 50.983 567.383 346.914M826.664 50.983 580.926 346.914M840.207 50.983 594.469 346.914M853.75 50.983 608.012 346.914M867.293 50.983 621.555 346.914M880.836 50.983 635.098 346.914M894.379 50.983 648.641 346.914M907.926 50.983 662.188 346.914M921.469 50.983 675.73 346.914M935.011 50.983 689.273 346.914M948.555 50.983 702.816 346.914M962.097 50.983 716.359 346.914M975.641 50.983 729.902 346.914M989.183 50.983 743.445 346.914M1002.73 50.983 756.988 346.914M1016.27 50.983 770.535 346.914M1029.81 50.983 784.074 346.914M1043.36 50.983 797.621 346.914M1056.9 50.983 811.164 346.914M1070.44 50.983 824.703 346.914M1083.99 50.983 838.254 346.914M1097.53 50.983 851.793 346.914M1111.08 50.983 865.34 346.914M1124.62 50.983 878.879 346.914M1138.16 50.983 892.422 346.914M1151.7 50.983 905.965 346.914M1165.25 50.983 919.512 346.914M1178.79 50.983 933.055 346.914M1192.34 50.983 946.598 346.914M1205.88 50.983 960.145 346.914M1219.42 50.983 973.684 346.914"></path></g><path fill="#E6E7E8" d="M373.239 275.529q4.377-.028 7.509 3.062 3.078 3.038 3.107 7.415t-3.009 7.509q-3.091 3.078-7.468 3.108l-41.659.275q-4.377.029-7.456-3.01-3.131-3.09-3.16-7.467l-.105-15.82q-.058-8.754 6.071-14.964t14.883-6.269q8.754-.058 14.964 6.071t6.269 14.883l.035 5.273zm-26.908-1.931q-.011-1.741-1.232-2.945-1.274-1.258-3.014-1.246-1.741.011-2.945 1.285-1.258 1.221-1.246 2.961l.014 2.11 8.437-.056zm12.852-66.268a11.7 11.7 0 0 1-1.803-1.465q-3.078-3.038-3.108-7.415-.028-4.377 3.062-7.456 3.038-3.131 7.415-3.161a12 12 0 0 1 2.269.196q3.061.402 6.937 4.226 9.342 9.22 9.429 22.35.086 13.078-9.081 22.42-9.22 9.344-22.35 9.429-13.13.087-22.421-9.133-9.342-9.22-9.428-22.298-.087-13.13 9.08-22.472 3.877-3.876 6.933-4.318 1.105-.218 2.266-.225 4.377-.03 7.508 3.061 3.08 3.039 3.108 7.416.029 4.376-3.062 7.456a10 10 0 0 1-1.731 1.488q-3.038 3.078-3.009 7.455t3.161 7.468q3.078 3.038 7.455 3.009t7.468-3.108q3.039-3.132 3.009-7.508-.029-4.377-3.107-7.415m-7.983-74.779q4.377-.03 7.509 3.061 3.078 3.039 3.108 7.416l.209 31.64q.029 4.376-3.009 7.508-3.091 3.08-7.468 3.108t-7.456-3.01q-3.132-3.09-3.161-7.467l-.209-31.64q-.028-4.377 3.062-7.456 3.038-3.132 7.415-3.16m9.804-32.761-.042-6.328q-.029-4.377 3.062-7.456 3.038-3.132 7.415-3.16 4.377-.03 7.508 3.061 3.08 3.039 3.108 7.416l.16 24.257q-.023 4.43-2.06 7.396-2.614 3.498-6.934 4.16-4.32.66-7.818-1.953-19.668-23.759-22.307-24.005t-2.617 3.076q.022 3.321 3.084 3.724a42 42 0 0 1 3.859 1.398q3.132 3.09 3.16 7.467.03 4.377-3.009 7.509-3.09 3.08-7.468 3.108a26 26 0 0 1-3.323-.189q-3.061-.402-8.044-4.271-9.29-9.168-9.352-18.607-.061-9.387 5.22-16.066 5.23-6.68 14.669-6.742t14.493 6.55q3.502 3.457 7.236 9.655"></path><path fill="#000" d="M339.041 38.616h-2.592l-1.8-4.584h-8.4l-1.776 4.584h-2.28l7.056-17.352h2.472zm-5.088-6.288-3.6-9.12-3.48 9.12zm21.367-.336c0 4.44-2.496 6.936-6.96 6.936-4.608 0-6.96-2.232-6.96-6.984v-10.68h2.352v10.368c0 1.248.024 2.544.72 3.624.84 1.32 2.4 1.872 3.912 1.872 1.776 0 3.504-.792 4.224-2.496.408-.96.432-2.016.432-3.048v-10.32h2.28zm18.115 5.856c-1.944.528-3.936.96-5.952.96-5.448 0-8.328-3.72-8.328-8.928 0-4.92 2.736-8.976 8.016-8.976 3.168 0 5.832 1.464 6.12 4.896h-2.352c-.336-2.112-1.8-3.096-3.864-3.096-3.984 0-5.496 3.6-5.496 7.056 0 3.792 1.728 7.272 5.976 7.272 1.248 0 2.496-.168 3.696-.528v-5.16h-4.152V29.64h6.336zM47.125 33.575c0 1.176-.096 2.4-.792 3.384-.96 1.344-2.568 1.848-4.152 1.848-2.4 0-4.56-1.416-4.56-4.008 0-.12 0-.264.024-.384h1.584c0 .096-.024.192-.024.288 0 1.752 1.368 2.808 3.048 2.808 2.496 0 3.312-1.8 3.312-4.032V21.263h1.56zm18.195-1.344c0 4.128-2.496 6.648-6.648 6.648-4.272 0-6.648-2.4-6.648-6.648V21.263h1.632V31.68c0 1.344.024 2.736.792 3.888.936 1.392 2.616 1.992 4.224 1.992 1.896 0 3.744-.816 4.56-2.616.432-.984.456-2.208.456-3.264V21.263h1.632zm18.268 6.384h-2.112L72.068 23.16v15.456h-1.464V21.263h2.112l9.408 15.504V21.263h1.464zm16.175 0H89.107V21.263h10.296v1.296h-8.736v6.384h8.4v1.296h-8.4v7.08h9.096z"></path></svg>