<svg xmlns:xlink="http://www.w3.org/1999/xlink"  xmlns="http://www.w3.org/2000/svg" id="te-4780d369-07df68e6-d7fd38a6" data-name="Layer 2" viewBox="0 0 451.03 67.79"><defs><style>.cls-1{fill:#ed1c24}</style></defs><g id="Layer_1-2" data-name="Layer 1"><path d="m42.92 8.45-.84-2.32-.84 2.32c-.21.6-.68.91-1.42.91s-1.21-.3-1.42-.91L36.09 2.1c-.15-.41-.13-.8.05-1.19s.48-.66.88-.8c.41-.15.8-.13 1.19.05s.66.48.8.88l.8 2.2.84-2.32c.32-.62.79-.92 1.43-.92s1.11.3 1.42.91l.84 2.32.8-2.2c.15-.41.41-.7.8-.88s.79-.2 1.19-.05c.41.15.7.41.88.8s.2.79.05 1.19l-2.32 6.35c-.21.6-.68.91-1.42.91s-1.21-.3-1.42-.91ZM51.96 3.59h1.17c.3 0 .55.11.73.32.19.21.28.47.28.77s-.09.56-.28.77a.94.94 0 0 1-.73.32h-1.17v.39h1.56c.43 0 .8.15 1.1.46s.46.67.46 1.1-.15.8-.46 1.1-.67.46-1.1.46H50.4c-.43 0-.8-.15-1.1-.46-.3-.3-.46-.67-.46-1.1V1.64c0-.43.15-.8.46-1.1.3-.3.67-.46 1.1-.46h3.12c.43 0 .8.15 1.1.46s.46.67.46 1.1-.15.8-.46 1.1c-.3.3-.67.46-1.1.46h-1.56zM60.33 8.78c-.49-.38-.73-.79-.73-1.22s.15-.8.46-1.1c.3-.3.67-.46 1.1-.46.39 0 .69.1.89.31s.43.32.69.33.42-.05.46-.2c.04-.14-.24-.33-.86-.56-.61-.23-1.2-.54-1.75-.91-.56-.37-.83-.99-.83-1.86s.3-1.6.91-2.21c.6-.59 1.31-.9 2.12-.9s1.5.18 2.12.53c.62.36.92.75.92 1.18s-.15.8-.46 1.1-.67.46-1.1.46q-.6 0-.81-.27c-.15-.18-.32-.28-.54-.29-.21-.01-.34.05-.38.2-.04.14.19.32.7.53s1.09.5 1.75.87.99 1.02.99 1.93c0 .86-.3 1.6-.91 2.21s-1.4.91-2.36.91c-1.11 0-1.9-.19-2.39-.57ZM69.81 3.59h1.17c.3 0 .55.11.73.32.19.21.28.47.28.77s-.09.56-.28.77a.94.94 0 0 1-.73.32h-1.17v.39h1.56c.43 0 .8.15 1.1.46.3.3.46.67.46 1.1s-.15.8-.46 1.1c-.3.3-.67.46-1.1.46h-3.12c-.43 0-.8-.15-1.1-.46s-.46-.67-.46-1.1V1.64c0-.43.15-.8.46-1.1s.67-.46 1.1-.46h3.12c.43 0 .8.15 1.1.46.3.3.46.67.46 1.1s-.15.8-.46 1.1c-.3.3-.67.46-1.1.46h-1.56zM79.79.08c.43 0 .8.15 1.1.46.3.3.46.67.46 1.1s-.15.8-.46 1.1c-.3.3-.67.46-1.1.46h-.78v4.6c0 .43-.15.8-.46 1.1-.3.3-.67.46-1.1.46s-.8-.15-1.1-.46c-.3-.3-.46-.67-.46-1.1V3.2h-.78c-.43 0-.8-.15-1.1-.46-.3-.3-.46-.67-.46-1.1s.15-.8.46-1.1.67-.46 1.1-.46zM89.08 7.8l-.3.72c-.2.38-.5.63-.91.76s-.81.1-1.19-.1-.63-.51-.76-.92-.1-.81.1-1.19L89.19.84c.25-.56.72-.84 1.4-.84s1.15.28 1.4.84l3.16 6.23c.2.38.24.77.11 1.19-.13.41-.39.72-.77.92s-.77.23-1.19.1c-.41-.13-.71-.38-.91-.76l-.3-.72h-3Zm2.03-2.34-.53-1.26-.52 1.26zM108.46 4.76v1.87c-.06.53-.28.98-.66 1.36-.91.92-2.02 1.37-3.31 1.37s-2.39-.46-3.31-1.37-1.37-2.02-1.37-3.31.46-2.4 1.37-3.31S103.2 0 104.49 0s2.24.27 2.85.82c.38.33.6.71.66 1.13q0 .645-.3 1.02c-.2.25-.52.38-.95.38s-.8-.08-1.1-.23c-.34-.16-.73-.24-1.16-.24s-.8.17-1.1.5-.46.76-.46 1.3.15.97.46 1.3c.3.33.67.5 1.1.5s.8-.1 1.12-.3v-.25h-.65c-.33 0-.6-.11-.83-.34s-.34-.5-.34-.83.11-.6.34-.83.5-.34.83-.34h2.34c.33 0 .6.11.83.34s.34.5.34.83ZM113.84 9.36c-1.29 0-2.4-.46-3.31-1.37s-1.37-2.02-1.37-3.31.46-2.4 1.37-3.31S112.55 0 113.84 0s2.4.46 3.31 1.37 1.37 2.02 1.37 3.31-.46 2.4-1.37 3.31-2.01 1.37-3.31 1.37m1.11-3.58c.3-.3.46-.67.46-1.1s-.15-.8-.46-1.1c-.3-.3-.67-.46-1.1-.46s-.8.15-1.1.46c-.3.3-.46.67-.46 1.1s.15.8.46 1.1c.3.3.67.46 1.1.46s.8-.15 1.1-.46M121.73 7.8l-.3.72c-.2.38-.5.63-.91.76s-.81.1-1.19-.1-.63-.51-.76-.92-.1-.81.1-1.19l3.17-6.23c.25-.56.72-.84 1.4-.84s1.15.28 1.4.84l3.16 6.23c.2.38.24.77.11 1.19-.13.41-.39.72-.77.92s-.77.23-1.19.1c-.41-.13-.71-.38-.91-.76l-.3-.72h-3Zm2.02-2.34-.53-1.26-.52 1.26zM130.19 9.28c-.43 0-.8-.15-1.1-.46s-.46-.67-.46-1.1V1.56c0-.43.15-.8.46-1.1.3-.3.67-.46 1.1-.46s.8.15 1.1.46c.3.3.46.67.46 1.1v4.6h1.56c.43 0 .8.15 1.1.46.3.3.46.67.46 1.1s-.15.8-.46 1.1c-.3.3-.67.46-1.1.46zM145.63.08c.43 0 .8.15 1.1.46.3.3.46.67.46 1.1s-.15.8-.46 1.1c-.3.3-.67.46-1.1.46h-.78v4.6c0 .43-.15.8-.46 1.1-.3.3-.67.46-1.1.46s-.8-.15-1.1-.46c-.3-.3-.46-.67-.46-1.1V3.2h-.78c-.43 0-.8-.15-1.1-.46-.3-.3-.46-.67-.46-1.1s.15-.8.46-1.1.67-.46 1.1-.46zM151.95 9.36c-1.29 0-2.4-.46-3.31-1.37s-1.37-2.02-1.37-3.31.46-2.4 1.37-3.31S150.65 0 151.95 0s2.4.46 3.31 1.37 1.37 2.02 1.37 3.31-.46 2.4-1.37 3.31-2.02 1.37-3.31 1.37m1.1-3.58c.3-.3.46-.67.46-1.1s-.15-.8-.46-1.1-.67-.46-1.1-.46-.8.15-1.1.46c-.3.3-.46.67-.46 1.1s.15.8.46 1.1c.3.3.67.46 1.1.46s.8-.15 1.1-.46M165.12.08c1.29 0 2.4.46 3.31 1.37s1.37 1.99 1.37 3.23-.46 2.32-1.37 3.23-2.02 1.37-3.31 1.37h-2.34c-.43 0-.8-.15-1.1-.46s-.46-.67-.46-1.1V1.64c0-.43.15-.8.46-1.1s.67-.46 1.1-.46zm0 6.08c.43 0 .8-.14 1.1-.42s.46-.63.46-1.06-.15-.79-.46-1.06c-.3-.28-.67-.42-1.1-.42h-.78v2.96zM173.62 3.59h1.17c.3 0 .55.11.73.32.19.21.28.47.28.77s-.09.56-.28.77a.94.94 0 0 1-.73.32h-1.17v.39h1.56c.43 0 .8.15 1.1.46s.46.67.46 1.1-.15.8-.46 1.1-.67.46-1.1.46h-3.12c-.43 0-.8-.15-1.1-.46-.3-.3-.46-.67-.46-1.1V1.64c0-.43.15-.8.46-1.1.3-.3.67-.46 1.1-.46h3.12c.43 0 .8.15 1.1.46s.46.67.46 1.1-.15.8-.46 1.1c-.3.3-.67.46-1.1.46h-1.56zM178.09 8.78c-.49-.38-.73-.79-.73-1.22s.15-.8.46-1.1c.3-.3.67-.46 1.1-.46.39 0 .69.1.89.31s.43.32.69.33.42-.05.46-.2c.04-.14-.24-.33-.86-.56-.61-.23-1.2-.54-1.75-.91-.56-.37-.83-.99-.83-1.86s.3-1.6.91-2.21 1.32-.91 2.13-.91 1.5.18 2.12.53c.62.36.92.75.92 1.18s-.15.8-.46 1.1-.67.46-1.1.46q-.6 0-.81-.27c-.15-.18-.32-.28-.54-.29-.21-.01-.34.05-.38.2-.04.14.19.32.7.53s1.09.5 1.75.87.99 1.02.99 1.93c0 .86-.3 1.6-.91 2.21s-1.4.91-2.36.91c-1.11 0-1.9-.19-2.39-.57M186.02 9.36c-.43 0-.8-.15-1.1-.46-.3-.3-.46-.67-.46-1.1V1.56c0-.43.15-.8.46-1.1.3-.3.67-.46 1.1-.46s.8.15 1.1.46.46.67.46 1.1V7.8c0 .43-.15.8-.46 1.1-.3.3-.67.46-1.1.46M196.94 4.76v1.87c-.06.53-.28.98-.66 1.36-.92.92-2.02 1.37-3.31 1.37s-2.39-.46-3.31-1.37-1.37-2.02-1.37-3.31.46-2.4 1.37-3.31S191.67 0 192.96 0s2.24.27 2.85.82c.38.33.6.71.66 1.13q0 .645-.3 1.02c-.2.25-.52.38-.95.38s-.8-.08-1.1-.23c-.34-.16-.73-.24-1.16-.24s-.8.17-1.1.5-.46.76-.46 1.3.15.97.46 1.3c.3.33.67.5 1.1.5s.8-.1 1.11-.3v-.25h-.65c-.33 0-.6-.11-.83-.34s-.34-.5-.34-.83.11-.6.34-.83.5-.34.83-.34h2.34c.33 0 .6.11.83.34s.34.5.34.83ZM200.83 5.71V7.8c0 .43-.15.8-.46 1.1-.3.3-.67.46-1.1.46s-.8-.15-1.1-.46c-.3-.3-.46-.67-.46-1.1V1.56c0-.43.15-.8.46-1.1.3-.3.67-.46 1.1-.46s.8.15 1.11.45l2.79 3.19V1.56c0-.43.15-.8.46-1.1.3-.3.67-.46 1.1-.46s.8.15 1.1.46.46.67.46 1.1V7.8c0 .43-.15.8-.46 1.1-.3.3-.67.46-1.1.46s-.8-.15-1.1-.46zM217.13.08c.43 0 .8.15 1.1.46s.46.67.46 1.1-.15.8-.46 1.1c-.3.3-.67.46-1.1.46h-.78v4.6c0 .43-.15.8-.46 1.1-.3.3-.67.46-1.1.46s-.8-.15-1.1-.46c-.3-.3-.46-.67-.46-1.1V3.2h-.78c-.43 0-.8-.15-1.1-.46-.3-.3-.46-.67-.46-1.1s.15-.8.46-1.1c.3-.3.67-.46 1.1-.46zM222.51 6.16V7.8c0 .43-.15.8-.46 1.1-.3.3-.67.46-1.1.46s-.8-.15-1.1-.46c-.3-.3-.46-.67-.46-1.1V1.56c0-.43.15-.8.46-1.1.3-.3.67-.46 1.1-.46s.8.15 1.1.46.46.67.46 1.1V3.2h1.95V1.56c0-.43.15-.8.46-1.1.3-.3.67-.46 1.1-.46s.8.15 1.1.46c.3.3.46.67.46 1.1V7.8c0 .43-.15.8-.46 1.1s-.67.46-1.1.46-.8-.15-1.1-.46-.46-.67-.46-1.1V6.16zM231.48 3.59h1.17c.3 0 .55.11.73.32.19.21.28.47.28.77s-.09.56-.28.77a.94.94 0 0 1-.73.32h-1.17v.39h1.56c.43 0 .8.15 1.1.46s.46.67.46 1.1-.15.8-.46 1.1-.67.46-1.1.46h-3.12c-.43 0-.8-.15-1.1-.46-.3-.3-.46-.67-.46-1.1V1.64c0-.43.15-.8.46-1.1.3-.3.67-.46 1.1-.46h3.12c.43 0 .8.15 1.1.46s.46.67.46 1.1-.15.8-.46 1.1c-.3.3-.67.46-1.1.46h-1.56zM244.9 5.79c.06-.09.14-.18.22-.27.3-.3.67-.45 1.1-.45s.8.15 1.1.46c.3.3.46.67.46 1.1 0 .11-.01.23-.03.33q-.06.45-.63 1.02c-.92.92-2.02 1.37-3.31 1.37s-2.39-.46-3.31-1.37-1.37-2.02-1.37-3.31.46-2.4 1.37-3.31S242.51 0 243.8 0s2.4.46 3.31 1.37c.38.38.59.73.63 1.03q.03.165.03.33c0 .43-.15.8-.46 1.1-.3.3-.67.46-1.1.46s-.8-.15-1.1-.46c-.08-.08-.16-.16-.22-.26-.3-.3-.67-.45-1.1-.45s-.8.15-1.1.46c-.3.3-.46.67-.46 1.1s.15.8.46 1.1c.3.3.67.46 1.1.46s.8-.15 1.1-.45ZM251.67 6.16V7.8c0 .43-.15.8-.46 1.1-.3.3-.67.46-1.1.46s-.8-.15-1.1-.46-.46-.67-.46-1.1V1.56c0-.43.15-.8.46-1.1.3-.3.67-.46 1.1-.46s.8.15 1.1.46c.3.3.46.67.46 1.1V3.2h1.95V1.56c0-.43.15-.8.46-1.1s.67-.46 1.1-.46.8.15 1.1.46.46.67.46 1.1V7.8c0 .43-.15.8-.46 1.1-.3.3-.67.46-1.1.46s-.8-.15-1.1-.46c-.3-.3-.46-.67-.46-1.1V6.16zM260.64 3.59h1.17c.3 0 .55.11.73.32.19.21.28.47.28.77s-.09.56-.28.77a.94.94 0 0 1-.73.32h-1.17v.39h1.56c.43 0 .8.15 1.1.46s.46.67.46 1.1-.15.8-.46 1.1-.67.46-1.1.46h-3.12c-.43 0-.8-.15-1.1-.46-.3-.3-.46-.67-.46-1.1V1.64c0-.43.15-.8.46-1.1.3-.3.67-.46 1.1-.46h3.12c.43 0 .8.15 1.1.46s.46.67.46 1.1-.15.8-.46 1.1c-.3.3-.67.46-1.1.46h-1.56zM267.59 7.8l-.3.72c-.2.38-.5.63-.91.76s-.81.1-1.19-.1-.63-.51-.76-.92-.1-.81.1-1.19L267.7.84c.25-.56.72-.84 1.4-.84s1.15.28 1.4.84l3.16 6.23c.2.38.24.77.11 1.19-.13.41-.39.72-.77.92s-.77.23-1.19.1c-.41-.13-.71-.38-.91-.76l-.3-.72h-3Zm2.02-2.34-.53-1.26-.52 1.26zM277.61 7.8c0 .43-.15.8-.46 1.1-.3.3-.67.46-1.1.46s-.8-.15-1.1-.46c-.3-.3-.46-.67-.46-1.1V1.64c0-.43.15-.8.46-1.1.3-.3.67-.46 1.1-.46h2.34c.86 0 1.6.3 2.21.91s.91 1.34.91 2.21-.3 1.6-.91 2.21-1.34.91-2.21.91h-.78zm.31-3.98c.17 0 .32-.06.44-.18s.18-.27.18-.44-.06-.32-.18-.44-.27-.18-.44-.18h-.31v1.25h.31ZM285.33 3.59h1.17c.3 0 .55.11.73.32.19.21.28.47.28.77s-.09.56-.28.77a.94.94 0 0 1-.73.32h-1.17v.39h1.56c.43 0 .8.15 1.1.46.3.3.46.67.46 1.1s-.15.8-.46 1.1c-.3.3-.67.46-1.1.46h-3.12c-.43 0-.8-.15-1.1-.46s-.46-.67-.46-1.1V1.64c0-.43.15-.8.46-1.1s.67-.46 1.1-.46h3.12c.43 0 .8.15 1.1.46.3.3.46.67.46 1.1s-.15.8-.46 1.1c-.3.3-.67.46-1.1.46h-1.56zM289.8 8.78c-.49-.38-.73-.79-.73-1.22s.15-.8.46-1.1.67-.46 1.1-.46c.4 0 .69.1.89.31q.3.315.69.33c.27.01.42-.05.46-.2.04-.14-.24-.33-.86-.56-.61-.23-1.2-.54-1.75-.91-.56-.37-.83-.99-.83-1.86s.3-1.6.91-2.21 1.32-.9 2.13-.9 1.5.18 2.12.53c.62.36.92.75.92 1.18s-.15.8-.46 1.1c-.3.3-.67.46-1.1.46-.39 0-.67-.09-.81-.27-.15-.18-.33-.28-.54-.29s-.34.05-.38.2c-.04.14.19.32.7.53s1.09.5 1.75.87.99 1.02.99 1.93c0 .86-.3 1.6-.91 2.21s-1.4.91-2.36.91c-1.11 0-1.9-.19-2.39-.57ZM302.1.08c.43 0 .8.15 1.1.46.3.3.46.67.46 1.1s-.15.8-.46 1.1c-.3.3-.67.46-1.1.46h-.78v4.6c0 .43-.15.8-.46 1.1-.3.3-.67.46-1.1.46s-.8-.15-1.1-.46c-.3-.3-.46-.67-.46-1.1V3.2h-.78c-.43 0-.8-.15-1.1-.46-.3-.3-.46-.67-.46-1.1s.15-.8.46-1.1.67-.46 1.1-.46zM313.96 5.79c.06-.09.13-.18.22-.27.3-.3.67-.45 1.1-.45s.8.15 1.1.46c.3.3.46.67.46 1.1 0 .11-.01.23-.03.33q-.06.45-.63 1.02c-.92.92-2.02 1.37-3.31 1.37s-2.39-.46-3.31-1.37-1.37-2.02-1.37-3.31.46-2.4 1.37-3.31 2.02-1.37 3.31-1.37 2.4.46 3.31 1.37c.38.38.59.73.63 1.03q.03.165.03.33c0 .43-.15.8-.46 1.1-.3.3-.67.46-1.1.46s-.8-.15-1.1-.46c-.08-.08-.16-.16-.22-.26-.3-.3-.67-.45-1.1-.45s-.8.15-1.1.46c-.3.3-.46.67-.46 1.1s.15.8.46 1.1c.3.3.67.46 1.1.46s.8-.15 1.1-.45ZM321.9 9.36c-1.29 0-2.4-.46-3.31-1.37s-1.37-2.02-1.37-3.31.46-2.4 1.37-3.31S320.61 0 321.9 0s2.4.46 3.31 1.37 1.37 2.02 1.37 3.31-.46 2.4-1.37 3.31-2.02 1.37-3.31 1.37m1.1-3.58c.3-.3.46-.67.46-1.1s-.15-.8-.46-1.1c-.3-.3-.67-.46-1.1-.46s-.8.15-1.1.46c-.3.3-.46.67-.46 1.1s.15.8.46 1.1c.3.3.67.46 1.1.46s.8-.15 1.1-.46M335.21 0c.74 0 1.21.3 1.42.91l1.54 6.35c.15.41.13.8-.05 1.19s-.48.66-.88.8c-.41.15-.8.13-1.19-.05s-.66-.48-.8-.88l-.41-2.59-.92 2.71c-.31.6-.79.91-1.42.91s-1.11-.3-1.42-.91l-.92-2.71-.41 2.59c-.15.41-.41.7-.8.88s-.79.2-1.19.05c-.41-.15-.7-.41-.88-.8s-.2-.79-.05-1.19l1.53-6.35c.21-.6.68-.91 1.42-.91s1.21.3 1.42.91l1.31 3.88 1.31-3.88c.21-.6.68-.91 1.42-.91ZM342.05 7.8c0 .43-.15.8-.46 1.1-.3.3-.67.46-1.1.46s-.8-.15-1.1-.46c-.3-.3-.46-.67-.46-1.1V1.64c0-.43.15-.8.46-1.1.3-.3.67-.46 1.1-.46h2.34c.86 0 1.6.3 2.21.91s.91 1.34.91 2.21-.3 1.6-.91 2.21-1.34.91-2.21.91h-.78zm.31-3.98c.17 0 .32-.06.44-.18s.18-.27.18-.44-.06-.32-.18-.44-.27-.18-.44-.18h-.31v1.25h.31ZM351.48 5.98c.16-.17.23-.4.23-.67V1.56c0-.43.15-.8.46-1.1.3-.3.67-.46 1.1-.46s.8.15 1.1.46.46.67.46 1.1v3.9q0 1.62-1.14 2.76c-1.14 1.14-1.75 1.14-2.95 1.14s-2.19-.38-2.95-1.14-1.14-1.68-1.14-2.76v-3.9c0-.43.15-.8.46-1.1s.67-.46 1.1-.46.8.15 1.1.46.46.67.46 1.1V5.3c0 .28.08.5.23.67s.4.26.75.26.58-.09.74-.26ZM361.78.08c.43 0 .8.15 1.1.46.3.3.46.67.46 1.1s-.15.8-.46 1.1c-.3.3-.67.46-1.1.46H361v4.6c0 .43-.15.8-.46 1.1s-.67.46-1.1.46-.8-.15-1.1-.46-.46-.67-.46-1.1V3.2h-.78c-.43 0-.8-.15-1.1-.46-.3-.3-.46-.67-.46-1.1s.15-.8.46-1.1c.3-.3.67-.46 1.1-.46zM367.16 3.59h1.17c.3 0 .54.11.73.32s.28.47.28.77-.09.56-.28.77a.94.94 0 0 1-.73.32h-1.17v.39h1.56c.43 0 .8.15 1.1.46.3.3.46.67.46 1.1s-.15.8-.46 1.1c-.3.3-.67.46-1.1.46h-3.12c-.43 0-.8-.15-1.1-.46-.3-.3-.46-.67-.46-1.1V1.64c0-.43.15-.8.46-1.1.3-.3.67-.46 1.1-.46h3.12c.43 0 .8.15 1.1.46.3.3.46.67.46 1.1s-.15.8-.46 1.1c-.3.3-.67.46-1.1.46h-1.56zM374.09 6.56V7.8c0 .43-.15.8-.46 1.1-.3.3-.67.46-1.1.46s-.8-.15-1.1-.46c-.3-.3-.46-.67-.46-1.1V1.64c0-.43.15-.8.46-1.1.3-.3.67-.46 1.1-.46h2.34c.86 0 1.6.3 2.21.91s.91 1.34.91 2.21-.3 1.6-.91 2.21c-.07.07-.14.13-.2.19l.95 1.27c.26.34.36.73.3 1.15-.06.43-.26.77-.6 1.03-.35.25-.74.35-1.16.29q-.645-.09-1.02-.6l-1.25-2.18Zm.32-2.74c.17 0 .32-.06.44-.18s.18-.27.18-.44-.06-.32-.18-.44-.27-.18-.44-.18h-.31v1.25h.31ZM388.37 5.79c.06-.09.13-.18.22-.27.3-.3.67-.45 1.1-.45s.8.15 1.1.46c.3.3.46.67.46 1.1 0 .11-.01.23-.03.33q-.06.45-.63 1.02c-.92.92-2.02 1.37-3.31 1.37s-2.39-.46-3.31-1.37-1.37-2.02-1.37-3.31.46-2.4 1.37-3.31 2.02-1.37 3.31-1.37 2.4.46 3.31 1.37c.38.38.59.73.63 1.03q.03.165.03.33c0 .43-.15.8-.46 1.1-.3.3-.67.46-1.1.46s-.8-.15-1.1-.46c-.08-.08-.16-.16-.22-.26-.3-.3-.67-.45-1.1-.45s-.8.15-1.1.46c-.3.3-.46.67-.46 1.1s.15.8.46 1.1c.3.3.67.46 1.1.46s.8-.15 1.1-.45ZM394.84 7.8l-.3.72c-.2.38-.5.63-.91.76s-.81.1-1.19-.1-.63-.51-.76-.92-.1-.81.1-1.19l3.17-6.23c.25-.56.72-.84 1.4-.84s1.15.28 1.4.84l3.16 6.23c.2.38.24.77.11 1.19-.13.41-.39.72-.77.92s-.77.23-1.19.1c-.41-.13-.71-.38-.91-.76l-.3-.72h-3Zm2.03-2.34-.53-1.26-.52 1.26zM402.4 8.78c-.49-.38-.73-.79-.73-1.22s.15-.8.46-1.1c.3-.3.67-.46 1.1-.46.4 0 .69.1.89.31q.3.315.69.33c.39.015.42-.05.46-.2.04-.14-.24-.33-.86-.56-.61-.23-1.2-.54-1.75-.91-.56-.37-.83-.99-.83-1.86s.3-1.6.91-2.21 1.32-.91 2.13-.91 1.5.18 2.12.53c.62.36.92.75.92 1.18s-.15.8-.46 1.1c-.3.3-.67.46-1.1.46q-.6 0-.81-.27c-.15-.18-.33-.28-.54-.29s-.34.05-.38.2c-.04.14.19.32.7.53s1.09.5 1.75.87.99 1.02.99 1.93c0 .86-.3 1.6-.91 2.21s-1.4.91-2.36.91c-1.11 0-1.9-.19-2.39-.57M411.89 3.59h1.17c.3 0 .54.11.73.32s.28.47.28.77-.09.56-.28.77a.94.94 0 0 1-.73.32h-1.17v.39h1.56c.43 0 .8.15 1.1.46.3.3.46.67.46 1.1s-.15.8-.46 1.1c-.3.3-.67.46-1.1.46h-3.12c-.43 0-.8-.15-1.1-.46-.3-.3-.46-.67-.46-1.1V1.64c0-.43.15-.8.46-1.1.3-.3.67-.46 1.1-.46h3.12c.43 0 .8.15 1.1.46.3.3.46.67.46 1.1s-.15.8-.46 1.1c-.3.3-.67.46-1.1.46h-1.56zM35.68 23.7c-.43 0-.8-.15-1.1-.46-.3-.3-.46-.67-.46-1.1V15.9c0-.43.15-.8.46-1.1.3-.3.67-.46 1.1-.46s.8.15 1.1.46.46.67.46 1.1v6.24c0 .43-.15.8-.46 1.1s-.67.46-1.1.46M41.14 20.05v2.09c0 .43-.15.8-.46 1.1s-.67.46-1.1.46-.8-.15-1.1-.46c-.3-.3-.46-.67-.46-1.1V15.9c0-.43.15-.8.46-1.1.3-.3.67-.46 1.1-.46s.8.15 1.11.45l2.79 3.19V15.9c0-.43.15-.8.46-1.1.3-.3.67-.46 1.1-.46s.8.15 1.1.46.46.67.46 1.1v6.24c0 .43-.15.8-.46 1.1s-.67.46-1.1.46-.8-.15-1.1-.46zM57.44 14.42c.43 0 .8.15 1.1.46.3.3.46.67.46 1.1s-.15.8-.46 1.1c-.3.3-.67.46-1.1.46h-.78v4.6c0 .43-.15.8-.46 1.1s-.67.46-1.1.46-.8-.15-1.1-.46c-.3-.3-.46-.67-.46-1.1v-4.6h-.78c-.43 0-.8-.15-1.1-.46s-.46-.67-.46-1.1.15-.8.46-1.1c.3-.3.67-.46 1.1-.46zM62.82 20.5v1.64c0 .43-.15.8-.46 1.1-.3.3-.67.46-1.1.46s-.8-.15-1.1-.46-.46-.67-.46-1.1V15.9c0-.43.15-.8.46-1.1s.67-.46 1.1-.46.8.15 1.1.46c.3.3.46.67.46 1.1v1.64h1.95V15.9c0-.43.15-.8.46-1.1.3-.3.67-.46 1.1-.46s.8.15 1.1.46c.3.3.46.67.46 1.1v6.24c0 .43-.15.8-.46 1.1-.3.3-.67.46-1.1.46s-.8-.15-1.1-.46c-.3-.3-.46-.67-.46-1.1V20.5zM71.78 17.93h1.17c.3 0 .55.11.73.32.19.21.28.47.28.77s-.09.56-.28.77a.94.94 0 0 1-.73.32h-1.17v.39h1.56c.43 0 .8.15 1.1.46s.46.67.46 1.1-.15.8-.46 1.1-.67.46-1.1.46h-3.12c-.43 0-.8-.15-1.1-.46-.3-.3-.46-.67-.46-1.1v-6.08c0-.43.15-.8.46-1.1.3-.3.67-.46 1.1-.46h3.12c.43 0 .8.15 1.1.46.3.3.46.67.46 1.1s-.15.8-.46 1.1-.67.46-1.1.46h-1.56zM86.33 22.8l-.84-2.32-.84 2.32c-.21.6-.68.9-1.42.9s-1.21-.3-1.42-.9l-2.31-6.35c-.15-.41-.13-.8.05-1.19s.48-.66.88-.8c.41-.15.8-.14 1.19.05.39.18.66.48.8.88l.8 2.2.84-2.32c.31-.6.78-.9 1.42-.9s1.11.3 1.42.9l.84 2.32.8-2.2c.15-.41.41-.7.8-.88s.79-.2 1.19-.05c.41.15.7.41.88.8s.2.79.05 1.19l-2.32 6.35c-.21.6-.68.9-1.42.9s-1.21-.3-1.42-.9ZM96.3 23.7c-1.29 0-2.4-.46-3.31-1.37s-1.37-2.02-1.37-3.31.46-2.4 1.37-3.31 2.02-1.37 3.31-1.37 2.4.46 3.31 1.37 1.37 2.02 1.37 3.31-.46 2.4-1.37 3.31-2.02 1.37-3.31 1.37m1.1-3.57c.3-.3.46-.67.46-1.1s-.15-.8-.46-1.1c-.3-.3-.67-.46-1.1-.46s-.8.15-1.1.46c-.3.3-.46.67-.46 1.1s.15.8.46 1.1c.3.3.67.46 1.1.46s.8-.15 1.1-.46M104.8 20.9v1.24c0 .43-.15.8-.46 1.1-.3.3-.67.46-1.1.46s-.8-.15-1.1-.46-.46-.67-.46-1.1v-6.16c0-.43.15-.8.46-1.1s.67-.46 1.1-.46h2.34c.86 0 1.6.3 2.21.91s.91 1.34.91 2.21-.3 1.6-.91 2.21c-.07.07-.14.13-.2.19l.95 1.27c.26.34.36.73.3 1.15-.06.43-.26.77-.6 1.03-.35.25-.74.35-1.16.29s-.77-.26-1.02-.6l-1.25-2.17Zm.31-2.74c.17 0 .32-.06.44-.18s.18-.27.18-.44-.06-.32-.18-.44a.6.6 0 0 0-.44-.18h-.31v1.25h.31ZM111.04 23.62c-.43 0-.8-.15-1.1-.46-.3-.3-.46-.67-.46-1.1V15.9c0-.43.15-.8.46-1.1.3-.3.67-.46 1.1-.46s.8.15 1.1.46.46.67.46 1.1v4.6h1.56c.43 0 .8.15 1.1.46s.46.67.46 1.1-.15.8-.46 1.1-.67.46-1.1.46zM120.31 14.42c1.29 0 2.4.46 3.31 1.37s1.37 1.99 1.37 3.23-.46 2.32-1.37 3.23-2.02 1.37-3.31 1.37h-2.34c-.43 0-.8-.15-1.1-.46-.3-.3-.46-.67-.46-1.1v-6.08c0-.43.15-.8.46-1.1.3-.3.67-.46 1.1-.46zm0 6.08c.43 0 .8-.14 1.1-.42s.46-.63.46-1.06-.15-.79-.46-1.06c-.3-.28-.67-.42-1.1-.42h-.78v2.96zM126.79 23.7c-.43 0-.8-.15-1.1-.46-.3-.3-.46-.67-.46-1.1s.15-.8.46-1.1.67-.46 1.1-.46.8.15 1.1.46c.3.3.46.67.46 1.1s-.15.8-.46 1.1-.67.46-1.1.46M137.62 23.7c-1.29 0-2.4-.46-3.31-1.37s-1.37-2.02-1.37-3.31.46-2.4 1.37-3.31 2.02-1.37 3.31-1.37 2.4.46 3.31 1.37 1.37 2.02 1.37 3.31-.46 2.4-1.37 3.31-2.01 1.37-3.31 1.37m1.11-3.57c.3-.3.46-.67.46-1.1s-.15-.8-.46-1.1c-.3-.3-.67-.46-1.1-.46s-.8.15-1.1.46-.46.67-.46 1.1.15.8.46 1.1.67.46 1.1.46.8-.15 1.1-.46M147.84 20.32c.16-.17.23-.4.23-.67v-3.74c0-.43.15-.8.46-1.1.3-.3.67-.46 1.1-.46s.8.15 1.1.46c.3.3.46.67.46 1.1v3.9q0 1.62-1.14 2.76c-.76.76-1.75 1.14-2.95 1.14s-2.19-.38-2.95-1.14q-1.14-1.14-1.14-2.76v-3.9c0-.43.15-.8.46-1.1.3-.3.67-.46 1.1-.46s.8.15 1.1.46.46.67.46 1.1v3.74c0 .28.08.5.23.67s.4.26.74.26.58-.09.74-.26M155.09 20.9v1.24c0 .43-.15.8-.46 1.1s-.67.46-1.1.46-.8-.15-1.1-.46c-.3-.3-.46-.67-.46-1.1v-6.16c0-.43.15-.8.46-1.1.3-.3.67-.46 1.1-.46h2.34c.86 0 1.6.3 2.21.91s.91 1.34.91 2.21-.3 1.6-.91 2.21c-.07.07-.13.13-.2.19l.95 1.27c.26.34.36.73.3 1.15-.06.43-.26.77-.6 1.03-.35.25-.74.35-1.16.29q-.645-.09-1.02-.6l-1.25-2.17Zm.31-2.74c.17 0 .32-.06.44-.18s.18-.27.18-.44-.06-.32-.18-.44a.6.6 0 0 0-.44-.18h-.31v1.25h.31ZM166.79 17.93h1.17c.3 0 .55.11.73.32.19.21.28.47.28.77s-.09.56-.28.77a.94.94 0 0 1-.73.32h-1.17v.39h1.56c.43 0 .8.15 1.1.46.3.3.46.67.46 1.1s-.15.8-.46 1.1c-.3.3-.67.46-1.1.46h-3.12c-.43 0-.8-.15-1.1-.46-.3-.3-.46-.67-.46-1.1v-6.08c0-.43.15-.8.46-1.1s.67-.46 1.1-.46h3.12c.43 0 .8.15 1.1.46.3.3.46.67.46 1.1s-.15.8-.46 1.1c-.3.3-.67.46-1.1.46h-1.56zM173.72 20.05v2.09c0 .43-.15.8-.46 1.1-.3.3-.67.46-1.1.46s-.8-.15-1.1-.46-.46-.67-.46-1.1V15.9c0-.43.15-.8.46-1.1s.67-.46 1.1-.46.8.15 1.11.45l2.79 3.19V15.9c0-.43.15-.8.46-1.1s.67-.46 1.1-.46.8.15 1.1.46c.3.3.46.67.46 1.1v6.24c0 .43-.15.8-.46 1.1-.3.3-.67.46-1.1.46s-.8-.15-1.1-.46zM188.54 19.1v1.87c-.06.52-.28.98-.66 1.36-.92.92-2.02 1.37-3.31 1.37s-2.39-.46-3.31-1.37-1.37-2.02-1.37-3.31.46-2.4 1.37-3.31 2.02-1.37 3.31-1.37 2.24.27 2.85.82c.38.33.6.71.66 1.13 0 .43-.1.77-.3 1.03s-.52.38-.95.38-.8-.08-1.1-.23c-.34-.16-.73-.24-1.16-.24s-.8.17-1.1.5-.46.76-.46 1.3.15.97.46 1.3.67.5 1.1.5.8-.1 1.11-.3v-.25h-.65c-.33 0-.6-.11-.83-.34s-.34-.5-.34-.83.11-.6.34-.83.5-.34.83-.34h2.34c.33 0 .6.11.83.34s.34.5.34.83ZM190.88 23.7c-.43 0-.8-.15-1.1-.46s-.46-.67-.46-1.1V15.9c0-.43.15-.8.46-1.1s.67-.46 1.1-.46.8.15 1.1.46c.3.3.46.67.46 1.1v6.24c0 .43-.15.8-.46 1.1-.3.3-.67.46-1.1.46M196.34 20.05v2.09c0 .43-.15.8-.46 1.1-.3.3-.67.46-1.1.46s-.8-.15-1.1-.46-.46-.67-.46-1.1V15.9c0-.43.15-.8.46-1.1s.67-.46 1.1-.46.8.15 1.11.45l2.79 3.19V15.9c0-.43.15-.8.46-1.1s.67-.46 1.1-.46.8.15 1.1.46c.3.3.46.67.46 1.1v6.24c0 .43-.15.8-.46 1.1-.3.3-.67.46-1.1.46s-.8-.15-1.1-.46zM205.69 17.93h1.17c.3 0 .55.11.73.32.19.21.28.47.28.77s-.09.56-.28.77a.94.94 0 0 1-.73.32h-1.17v.39h1.56c.43 0 .8.15 1.1.46.3.3.46.67.46 1.1s-.15.8-.46 1.1c-.3.3-.67.46-1.1.46h-3.12c-.43 0-.8-.15-1.1-.46-.3-.3-.46-.67-.46-1.1v-6.08c0-.43.15-.8.46-1.1s.67-.46 1.1-.46h3.12c.43 0 .8.15 1.1.46.3.3.46.67.46 1.1s-.15.8-.46 1.1c-.3.3-.67.46-1.1.46h-1.56zM212.63 17.93h1.17c.3 0 .55.11.73.32.19.21.28.47.28.77s-.09.56-.28.77a.94.94 0 0 1-.73.32h-1.17v.39h1.56c.43 0 .8.15 1.1.46.3.3.46.67.46 1.1s-.15.8-.46 1.1c-.3.3-.67.46-1.1.46h-3.12c-.43 0-.8-.15-1.1-.46-.3-.3-.46-.67-.46-1.1v-6.08c0-.43.15-.8.46-1.1s.67-.46 1.1-.46h3.12c.43 0 .8.15 1.1.46.3.3.46.67.46 1.1s-.15.8-.46 1.1c-.3.3-.67.46-1.1.46h-1.56zM219.57 20.9v1.24c0 .43-.15.8-.46 1.1-.3.3-.67.46-1.1.46s-.8-.15-1.1-.46-.46-.67-.46-1.1v-6.16c0-.43.15-.8.46-1.1s.67-.46 1.1-.46h2.34c.86 0 1.6.3 2.21.91s.91 1.34.91 2.21-.3 1.6-.91 2.21c-.07.07-.14.13-.2.19l.95 1.27c.26.34.36.73.3 1.15-.06.43-.26.77-.6 1.03-.35.25-.74.35-1.16.29s-.77-.26-1.02-.6l-1.25-2.17Zm.31-2.74c.17 0 .32-.06.44-.18s.18-.27.18-.44-.06-.32-.18-.44a.6.6 0 0 0-.44-.18h-.31v1.25h.31ZM224.9 23.13c-.49-.38-.73-.79-.73-1.22s.15-.8.46-1.1c.3-.3.67-.46 1.1-.46.4 0 .69.1.89.31q.3.315.69.33c.27.01.42-.05.46-.2.04-.14-.24-.33-.86-.57-.61-.23-1.2-.54-1.75-.91-.56-.37-.83-.99-.83-1.86s.3-1.6.91-2.21 1.32-.91 2.13-.91 1.5.18 2.12.53.92.75.92 1.18-.15.8-.46 1.1c-.3.3-.67.46-1.1.46-.39 0-.67-.09-.81-.27s-.33-.28-.54-.29-.34.05-.38.19.19.32.7.53 1.09.5 1.75.87c.66.38.99 1.02.99 1.93 0 .86-.3 1.6-.91 2.21s-1.4.91-2.36.91c-1.11 0-1.9-.19-2.39-.57ZM241.99 22.8l-.84-2.32-.84 2.32c-.21.6-.68.9-1.42.9s-1.21-.3-1.42-.9l-2.31-6.35c-.15-.41-.13-.8.05-1.19s.48-.66.88-.8c.41-.15.8-.14 1.19.05.39.18.66.48.8.88l.8 2.2.84-2.32c.31-.6.79-.9 1.42-.9s1.11.3 1.42.9l.84 2.32.8-2.2c.15-.41.41-.7.8-.88s.79-.2 1.19-.05c.41.15.7.41.88.8s.2.79.05 1.19l-2.32 6.35c-.21.6-.68.9-1.42.9s-1.21-.3-1.42-.9ZM251.96 23.7c-1.29 0-2.4-.46-3.31-1.37s-1.37-2.02-1.37-3.31.46-2.4 1.37-3.31 2.02-1.37 3.31-1.37 2.4.46 3.31 1.37 1.37 2.02 1.37 3.31-.46 2.4-1.37 3.31-2.02 1.37-3.31 1.37m1.1-3.57c.3-.3.46-.67.46-1.1s-.15-.8-.46-1.1c-.3-.3-.67-.46-1.1-.46s-.8.15-1.1.46c-.3.3-.46.67-.46 1.1s.15.8.46 1.1c.3.3.67.46 1.1.46s.8-.15 1.1-.46M260.46 20.9v1.24c0 .43-.15.8-.46 1.1s-.67.46-1.1.46-.8-.15-1.1-.46c-.3-.3-.46-.67-.46-1.1v-6.16c0-.43.15-.8.46-1.1.3-.3.67-.46 1.1-.46h2.34c.86 0 1.6.3 2.21.91s.91 1.34.91 2.21-.3 1.6-.91 2.21c-.07.07-.13.13-.2.19l.95 1.27c.26.34.36.73.3 1.15-.06.43-.26.77-.6 1.03-.35.25-.74.35-1.16.29q-.645-.09-1.02-.6l-1.25-2.17Zm.31-2.74c.17 0 .32-.06.44-.18s.18-.27.18-.44-.06-.32-.18-.44a.6.6 0 0 0-.44-.18h-.31v1.25h.31ZM268.26 20.6v1.54c0 .43-.15.8-.46 1.1-.3.3-.67.46-1.1.46s-.8-.15-1.1-.46-.46-.67-.46-1.1V15.9c0-.43.15-.8.46-1.1s.67-.46 1.1-.46.8.15 1.1.46c.3.3.46.67.46 1.1v1.04l1.49-1.98q.375-.51 1.02-.6c.43-.06.81.04 1.16.29.34.26.54.6.6 1.03s-.04.81-.3 1.15l-1.44 1.93 1.82 2.44c.26.34.36.73.3 1.15-.06.43-.26.77-.6 1.03-.35.25-.74.35-1.16.29q-.645-.09-1.02-.6l-1.87-2.48ZM276.68 17.93h1.17c.3 0 .55.11.73.32.19.21.28.47.28.77s-.09.56-.28.77a.94.94 0 0 1-.73.32h-1.17v.39h1.56c.43 0 .8.15 1.1.46.3.3.46.67.46 1.1s-.15.8-.46 1.1c-.3.3-.67.46-1.1.46h-3.12c-.43 0-.8-.15-1.1-.46-.3-.3-.46-.67-.46-1.1v-6.08c0-.43.15-.8.46-1.1s.67-.46 1.1-.46h3.12c.43 0 .8.15 1.1.46.3.3.46.67.46 1.1s-.15.8-.46 1.1c-.3.3-.67.46-1.1.46h-1.56zM284.4 14.42c1.29 0 2.4.46 3.31 1.37s1.37 1.99 1.37 3.23-.46 2.32-1.37 3.23-2.02 1.37-3.31 1.37h-2.34c-.43 0-.8-.15-1.1-.46-.3-.3-.46-.67-.46-1.1v-6.08c0-.43.15-.8.46-1.1s.67-.46 1.1-.46zm0 6.08c.43 0 .8-.14 1.1-.42s.46-.63.46-1.06-.15-.79-.46-1.06c-.3-.28-.67-.42-1.1-.42h-.78v2.96zM297.57 14.42c1.29 0 2.4.46 3.31 1.37s1.37 1.99 1.37 3.23-.46 2.32-1.37 3.23-2.02 1.37-3.31 1.37h-2.34c-.43 0-.8-.15-1.1-.46-.3-.3-.46-.67-.46-1.1v-6.08c0-.43.15-.8.46-1.1s.67-.46 1.1-.46zm0 6.08c.43 0 .8-.14 1.1-.42s.46-.63.46-1.06-.15-.79-.46-1.06c-.3-.28-.67-.42-1.1-.42h-.78v2.96zM305.54 22.14l-.3.72c-.2.38-.5.63-.91.76s-.81.1-1.19-.1-.63-.51-.76-.92-.1-.81.1-1.18l3.17-6.23c.25-.56.72-.84 1.39-.84s1.15.28 1.4.84l3.16 6.23c.2.38.24.77.11 1.18s-.39.72-.77.92-.77.23-1.19.1c-.41-.13-.71-.38-.91-.76l-.29-.72h-3Zm2.02-2.34-.53-1.26-.52 1.26zM316.03 19.67v2.47c0 .43-.15.8-.46 1.1-.3.3-.67.46-1.1.46s-.8-.15-1.1-.46-.46-.67-.46-1.1v-2.48l-2.27-2.65c-.31-.31-.46-.68-.46-1.11s.15-.8.46-1.1c.3-.31.67-.46 1.1-.46s.8.15 1.11.46l1.62 2.01 1.63-2.01c.3-.31.67-.46 1.1-.46s.8.15 1.1.46c.31.3.46.67.46 1.1s-.15.8-.46 1.11zM326.49 22.14l-.3.72c-.2.38-.5.63-.91.76s-.81.1-1.19-.1-.63-.51-.76-.92-.1-.81.1-1.18l3.17-6.23c.25-.56.72-.84 1.4-.84s1.15.28 1.4.84l3.16 6.23c.2.38.24.77.11 1.18s-.39.72-.77.92-.77.23-1.19.1c-.41-.13-.71-.38-.91-.76l-.3-.72h-3Zm2.02-2.34-.53-1.26-.52 1.26zM336.51 20.05v2.09c0 .43-.15.8-.46 1.1-.3.3-.67.46-1.1.46s-.8-.15-1.1-.46c-.3-.3-.46-.67-.46-1.1V15.9c0-.43.15-.8.46-1.1.3-.3.67-.46 1.1-.46s.8.15 1.11.45l2.79 3.19V15.9c0-.43.15-.8.46-1.1.3-.3.67-.46 1.1-.46s.8.15 1.1.46c.3.3.46.67.46 1.1v6.24c0 .43-.15.8-.46 1.1-.3.3-.67.46-1.1.46s-.8-.15-1.1-.46zM346.65 14.42c1.29 0 2.4.46 3.31 1.37s1.37 1.99 1.37 3.23-.46 2.32-1.37 3.23-2.02 1.37-3.31 1.37h-2.34c-.43 0-.8-.15-1.1-.46s-.46-.67-.46-1.1v-6.08c0-.43.15-.8.46-1.1.3-.3.67-.46 1.1-.46zm0 6.08c.43 0 .8-.14 1.1-.42s.46-.63.46-1.06-.15-.79-.46-1.06-.67-.42-1.1-.42h-.78v2.96zM359.05 20.05v2.09c0 .43-.15.8-.46 1.1-.3.3-.67.46-1.1.46s-.8-.15-1.1-.46c-.3-.3-.46-.67-.46-1.1V15.9c0-.43.15-.8.46-1.1.3-.3.67-.46 1.1-.46s.8.15 1.11.45l2.79 3.19V15.9c0-.43.15-.8.46-1.1.3-.3.67-.46 1.1-.46s.8.15 1.1.46c.3.3.46.67.46 1.1v6.24c0 .43-.15.8-.46 1.1-.3.3-.67.46-1.1.46s-.8-.15-1.1-.46zM366.84 23.7c-.43 0-.8-.15-1.1-.46-.3-.3-.46-.67-.46-1.1V15.9c0-.43.15-.8.46-1.1.3-.3.67-.46 1.1-.46s.8.15 1.1.46c.3.3.46.67.46 1.1v6.24c0 .43-.15.8-.46 1.1-.3.3-.67.46-1.1.46M377.76 19.1v1.87c-.06.52-.28.98-.66 1.36-.92.92-2.02 1.37-3.31 1.37s-2.39-.46-3.31-1.37-1.37-2.02-1.37-3.31.46-2.4 1.37-3.31 2.02-1.37 3.31-1.37 2.24.27 2.85.82c.38.33.6.71.66 1.13 0 .43-.1.77-.3 1.03s-.52.38-.95.38-.8-.08-1.1-.23c-.34-.16-.73-.24-1.16-.24s-.8.17-1.1.5-.46.76-.46 1.3.15.97.46 1.3c.3.33.67.5 1.1.5s.8-.1 1.12-.3v-.25h-.65c-.33 0-.6-.11-.83-.34s-.34-.5-.34-.83.11-.6.34-.83.5-.34.83-.34h2.34c.33 0 .6.11.83.34s.34.5.34.83ZM381.66 20.5v1.64c0 .43-.15.8-.46 1.1-.3.3-.67.46-1.1.46s-.8-.15-1.1-.46c-.3-.3-.46-.67-.46-1.1V15.9c0-.43.15-.8.46-1.1.3-.3.67-.46 1.1-.46s.8.15 1.1.46c.3.3.46.67.46 1.1v1.64h1.95V15.9c0-.43.15-.8.46-1.1s.67-.46 1.1-.46.8.15 1.1.46c.3.3.46.67.46 1.1v6.24c0 .43-.15.8-.46 1.1-.3.3-.67.46-1.1.46s-.8-.15-1.1-.46-.46-.67-.46-1.1V20.5zM393.67 14.42c.43 0 .8.15 1.1.46.3.3.46.67.46 1.1s-.15.8-.46 1.1-.67.46-1.1.46h-.78v4.6c0 .43-.15.8-.46 1.1-.3.3-.67.46-1.1.46s-.8-.15-1.1-.46c-.3-.3-.46-.67-.46-1.1v-4.6h-.78c-.43 0-.8-.15-1.1-.46s-.46-.67-.46-1.1.15-.8.46-1.1c.3-.3.67-.46 1.1-.46zM405.99 14.42c.43 0 .8.15 1.1.46.3.3.46.67.46 1.1s-.15.8-.46 1.1-.67.46-1.1.46h-.78v4.6c0 .43-.15.8-.46 1.1-.3.3-.67.46-1.1.46s-.8-.15-1.1-.46c-.3-.3-.46-.67-.46-1.1v-4.6h-.78c-.43 0-.8-.15-1.1-.46s-.46-.67-.46-1.1.15-.8.46-1.1c.3-.3.67-.46 1.1-.46zM412.3 23.7c-1.29 0-2.4-.46-3.31-1.37s-1.37-2.02-1.37-3.31.46-2.4 1.37-3.31 2.02-1.37 3.31-1.37 2.4.46 3.31 1.37 1.37 2.02 1.37 3.31-.46 2.4-1.37 3.31-2.02 1.37-3.31 1.37m1.1-3.57c.3-.3.46-.67.46-1.1s-.15-.8-.46-1.1-.67-.46-1.1-.46-.8.15-1.1.46-.46.67-.46 1.1.15.8.46 1.1.67.46 1.1.46.8-.15 1.1-.46M3.12 35.24v1.24c0 .43-.15.8-.46 1.1-.3.3-.67.46-1.1.46s-.8-.15-1.1-.46-.46-.67-.46-1.1v-6.16c0-.43.15-.8.46-1.1s.67-.46 1.1-.46H3.9c.86 0 1.6.3 2.21.91s.91 1.34.91 2.21-.3 1.6-.91 2.21c-.07.07-.13.13-.2.19l.95 1.27c.26.34.36.73.3 1.15-.06.43-.26.77-.6 1.03-.35.25-.74.35-1.16.29q-.645-.09-1.02-.6l-1.25-2.18Zm.31-2.73c.17 0 .32-.06.44-.18s.18-.27.18-.44-.06-.32-.18-.44-.27-.18-.44-.18h-.31v1.25h.31ZM10.92 32.27h1.17c.3 0 .55.11.73.32.19.21.28.47.28.77s-.09.56-.28.77a.94.94 0 0 1-.73.32h-1.17v.39h1.56c.43 0 .8.15 1.1.46s.46.67.46 1.1-.15.8-.46 1.1-.67.46-1.1.46H9.36c-.43 0-.8-.15-1.1-.46-.3-.3-.46-.67-.46-1.1v-6.08c0-.43.15-.8.46-1.1.3-.3.67-.46 1.1-.46h3.12c.43 0 .8.15 1.1.46s.46.67.46 1.1-.15.8-.46 1.1c-.3.3-.67.46-1.1.46h-1.56zM17.86 36.48l-.3.72c-.2.38-.5.63-.91.76s-.81.1-1.19-.1-.63-.51-.76-.92-.1-.81.1-1.19l3.17-6.23c.25-.56.72-.84 1.4-.84s1.15.28 1.4.84l3.16 6.23c.2.38.24.77.11 1.19-.13.41-.39.72-.77.92s-.77.23-1.18.1-.71-.38-.91-.76l-.3-.72h-3Zm2.03-2.33-.53-1.26-.52 1.26zM26.33 37.97c-.43 0-.8-.15-1.1-.46s-.46-.67-.46-1.1v-6.16c0-.43.15-.8.46-1.1.3-.3.67-.46 1.1-.46s.8.15 1.1.46c.3.3.46.67.46 1.1v4.6h1.56c.43 0 .8.15 1.1.46.3.3.46.67.46 1.1s-.15.8-.46 1.1c-.3.3-.67.46-1.1.46zM33.27 37.97c-.43 0-.8-.15-1.1-.46s-.46-.67-.46-1.1v-6.16c0-.43.15-.8.46-1.1.3-.3.67-.46 1.1-.46s.8.15 1.1.46c.3.3.46.67.46 1.1v4.6h1.56c.43 0 .8.15 1.1.46.3.3.46.67.46 1.1s-.15.8-.46 1.1c-.3.3-.67.46-1.1.46zM42.08 34.01v2.47c0 .43-.15.8-.46 1.1s-.67.46-1.1.46-.8-.15-1.1-.46-.46-.67-.46-1.1V34l-2.27-2.65c-.31-.31-.46-.68-.46-1.11s.15-.8.46-1.1c.3-.31.67-.46 1.1-.46s.8.15 1.11.46l1.62 2.01 1.63-2.01c.3-.31.67-.46 1.1-.46s.8.15 1.1.46c.31.3.46.67.46 1.1s-.15.8-.46 1.11zM52.53 36.48c0 .43-.15.8-.46 1.1-.3.3-.67.46-1.1.46s-.8-.15-1.1-.46-.46-.67-.46-1.1v-6.16c0-.43.15-.8.46-1.1s.67-.46 1.1-.46h2.34c.86 0 1.6.3 2.21.91s.91 1.34.91 2.21-.3 1.6-.91 2.21-1.34.91-2.21.91h-.78zm.31-3.97c.17 0 .32-.06.44-.18s.18-.27.18-.44-.06-.32-.18-.44-.27-.18-.44-.18h-.31v1.25h.31ZM61.96 34.66c.16-.17.23-.4.23-.67v-3.74c0-.43.15-.8.46-1.1.3-.3.67-.46 1.1-.46s.8.15 1.1.46c.3.3.46.67.46 1.1v3.9q0 1.62-1.14 2.76c-.76.76-1.75 1.14-2.95 1.14s-2.19-.38-2.95-1.14q-1.14-1.14-1.14-2.76v-3.9c0-.43.15-.8.46-1.1.3-.3.67-.46 1.1-.46s.8.15 1.1.46.46.67.46 1.1v3.74c0 .28.08.5.23.67s.4.26.75.26.58-.09.74-.26ZM66.75 37.47c-.49-.38-.73-.79-.73-1.22s.15-.8.46-1.1c.3-.3.67-.46 1.1-.46.39 0 .69.1.89.31s.43.32.69.33.42-.05.46-.2c.04-.14-.24-.33-.86-.56-.61-.23-1.2-.54-1.75-.91-.56-.37-.83-.99-.83-1.86s.3-1.6.91-2.21 1.32-.91 2.13-.91 1.5.18 2.12.53c.62.36.92.75.92 1.18s-.15.8-.46 1.1-.67.46-1.1.46q-.6 0-.81-.27c-.15-.18-.32-.28-.54-.29-.21-.01-.34.05-.38.2-.04.14.19.32.7.53s1.09.5 1.75.87.99 1.02.99 1.93c0 .86-.3 1.6-.91 2.21s-1.4.91-2.36.91c-1.11 0-1.9-.19-2.39-.57M76.23 34.85v1.64c0 .43-.15.8-.46 1.1-.3.3-.67.46-1.1.46s-.8-.15-1.1-.46c-.3-.3-.46-.67-.46-1.1v-6.24c0-.43.15-.8.46-1.1.3-.3.67-.46 1.1-.46s.8.15 1.1.46.46.67.46 1.1v1.64h1.95v-1.64c0-.43.15-.8.46-1.1.3-.3.67-.46 1.1-.46s.8.15 1.1.46c.3.3.46.67.46 1.1v6.24c0 .43-.15.8-.46 1.1s-.67.46-1.1.46-.8-.15-1.1-.46-.46-.67-.46-1.1v-1.64zM92.14 28.77c.43 0 .8.15 1.1.46s.46.67.46 1.1-.15.8-.46 1.1c-.3.3-.67.46-1.1.46h-.78v4.6c0 .43-.15.8-.46 1.1-.3.3-.67.46-1.1.46s-.8-.15-1.1-.46c-.3-.3-.46-.67-.46-1.1v-4.6h-.78c-.43 0-.8-.15-1.1-.46-.3-.3-.46-.67-.46-1.1s.15-.8.46-1.1c.3-.3.67-.46 1.1-.46zM97.52 34.85v1.64c0 .43-.15.8-.46 1.1-.3.3-.67.46-1.1.46s-.8-.15-1.1-.46c-.3-.3-.46-.67-.46-1.1v-6.24c0-.43.15-.8.46-1.1.3-.3.67-.46 1.1-.46s.8.15 1.1.46.46.67.46 1.1v1.64h1.95v-1.64c0-.43.15-.8.46-1.1.3-.3.67-.46 1.1-.46s.8.15 1.1.46c.3.3.46.67.46 1.1v6.24c0 .43-.15.8-.46 1.1s-.67.46-1.1.46-.8-.15-1.1-.46-.46-.67-.46-1.1v-1.64zM106.49 32.27h1.17c.3 0 .55.11.73.32.19.21.28.47.28.77s-.09.56-.28.77a.94.94 0 0 1-.73.32h-1.17v.39h1.56c.43 0 .8.15 1.1.46.3.3.46.67.46 1.1s-.15.8-.46 1.1c-.3.3-.67.46-1.1.46h-3.12c-.43 0-.8-.15-1.1-.46s-.46-.67-.46-1.1v-6.08c0-.43.15-.8.46-1.1s.67-.46 1.1-.46h3.12c.43 0 .8.15 1.1.46.3.3.46.67.46 1.1s-.15.8-.46 1.1c-.3.3-.67.46-1.1.46h-1.56zM115.76 37.97c-.43 0-.8-.15-1.1-.46-.3-.3-.46-.67-.46-1.1v-6.16c0-.43.15-.8.46-1.1.3-.3.67-.46 1.1-.46s.8.15 1.1.46.46.67.46 1.1v4.6h1.56c.43 0 .8.15 1.1.46s.46.67.46 1.1-.15.8-.46 1.1-.67.46-1.1.46zM122.7 38.04c-.43 0-.8-.15-1.1-.46-.3-.3-.46-.67-.46-1.1v-6.24c0-.43.15-.8.46-1.1.3-.3.67-.46 1.1-.46s.8.15 1.1.46.46.67.46 1.1v6.24c0 .43-.15.8-.46 1.1-.3.3-.67.46-1.1.46M133.44 28.69c.74 0 1.21.3 1.42.91l1.54 6.35c.15.41.13.8-.05 1.19s-.48.66-.88.8c-.41.15-.8.13-1.19-.05s-.66-.48-.8-.88l-.41-2.59-.92 2.71c-.31.6-.79.91-1.42.91s-1.11-.3-1.42-.91l-.92-2.71-.41 2.59c-.15.41-.41.7-.8.88s-.79.2-1.19.05c-.41-.15-.7-.41-.88-.8s-.2-.79-.05-1.19l1.53-6.35c.21-.6.68-.91 1.42-.91s1.21.3 1.42.91l1.31 3.88 1.31-3.88c.21-.6.68-.91 1.42-.91ZM138.72 38.04c-.43 0-.8-.15-1.1-.46s-.46-.67-.46-1.1v-6.24c0-.43.15-.8.46-1.1.3-.3.67-.46 1.1-.46s.8.15 1.1.46c.3.3.46.67.46 1.1v6.24c0 .43-.15.8-.46 1.1-.3.3-.67.46-1.1.46M147.22 28.77c.43 0 .8.15 1.1.46.3.3.46.67.46 1.1s-.15.8-.46 1.1c-.3.3-.67.46-1.1.46h-.78v4.6c0 .43-.15.8-.46 1.1-.3.3-.67.46-1.1.46s-.8-.15-1.1-.46c-.3-.3-.46-.67-.46-1.1v-4.6h-.78c-.43 0-.8-.15-1.1-.46-.3-.3-.46-.67-.46-1.1s.15-.8.46-1.1.67-.46 1.1-.46zM149.9 37.47c-.49-.38-.73-.79-.73-1.22s.15-.8.46-1.1c.3-.3.67-.46 1.1-.46.39 0 .69.1.89.31s.43.32.69.33.42-.05.46-.2c.04-.14-.24-.33-.86-.56-.61-.23-1.2-.54-1.75-.91-.56-.37-.83-.99-.83-1.86s.3-1.6.91-2.21 1.32-.91 2.13-.91 1.5.18 2.12.53c.62.36.92.75.92 1.18s-.15.8-.46 1.1-.67.46-1.1.46q-.6 0-.81-.27c-.15-.18-.32-.28-.54-.29-.21-.01-.34.05-.38.2-.04.14.19.32.7.53s1.09.5 1.75.87.99 1.02.99 1.93c0 .86-.3 1.6-.91 2.21s-1.4.91-2.36.91c-1.11 0-1.9-.19-2.39-.57M163.29 36.48l-.3.72c-.2.38-.5.63-.91.76s-.81.1-1.19-.1-.63-.51-.76-.92-.1-.81.1-1.19l3.17-6.23c.25-.56.72-.84 1.4-.84s1.15.28 1.4.84l3.16 6.23c.2.38.24.77.11 1.19-.13.41-.39.72-.77.92s-.77.23-1.19.1c-.41-.13-.71-.38-.91-.76l-.3-.72h-3Zm2.03-2.33-.53-1.26-.52 1.26zM173.31 34.4v2.09c0 .43-.15.8-.46 1.1-.3.3-.67.46-1.1.46s-.8-.15-1.1-.46-.46-.67-.46-1.1v-6.24c0-.43.15-.8.46-1.1.3-.3.67-.46 1.1-.46s.8.15 1.11.45l2.79 3.19v-2.08c0-.43.15-.8.46-1.1.3-.3.67-.46 1.1-.46s.8.15 1.1.46c.3.3.46.67.46 1.1v6.24c0 .43-.15.8-.46 1.1-.3.3-.67.46-1.1.46s-.8-.15-1.1-.46zM183.45 28.77c1.29 0 2.4.46 3.31 1.37s1.37 1.99 1.37 3.23-.46 2.32-1.37 3.23-2.02 1.37-3.31 1.37h-2.34c-.43 0-.8-.15-1.1-.46-.3-.3-.46-.67-.46-1.1v-6.08c0-.43.15-.8.46-1.1.3-.3.67-.46 1.1-.46zm0 6.08c.43 0 .8-.14 1.1-.42s.46-.63.46-1.06-.15-.79-.46-1.06c-.3-.28-.67-.42-1.1-.42h-.78v2.96zM198.89 28.77c.43 0 .8.15 1.1.46s.46.67.46 1.1-.15.8-.46 1.1c-.3.3-.67.46-1.1.46h-.78v4.6c0 .43-.15.8-.46 1.1-.3.3-.67.46-1.1.46s-.8-.15-1.1-.46c-.3-.3-.46-.67-.46-1.1v-4.6h-.78c-.43 0-.8-.15-1.1-.46-.3-.3-.46-.67-.46-1.1s.15-.8.46-1.1c.3-.3.67-.46 1.1-.46zM204.27 34.85v1.64c0 .43-.15.8-.46 1.1-.3.3-.67.46-1.1.46s-.8-.15-1.1-.46c-.3-.3-.46-.67-.46-1.1v-6.24c0-.43.15-.8.46-1.1.3-.3.67-.46 1.1-.46s.8.15 1.1.46.46.67.46 1.1v1.64h1.95v-1.64c0-.43.15-.8.46-1.1.3-.3.67-.46 1.1-.46s.8.15 1.1.46c.3.3.46.67.46 1.1v6.24c0 .43-.15.8-.46 1.1s-.67.46-1.1.46-.8-.15-1.1-.46-.46-.67-.46-1.1v-1.64zM213.24 32.27h1.17c.3 0 .55.11.73.32.19.21.28.47.28.77s-.09.56-.28.77a.94.94 0 0 1-.73.32h-1.17v.39h1.56c.43 0 .8.15 1.1.46s.46.67.46 1.1-.15.8-.46 1.1-.67.46-1.1.46h-3.12c-.43 0-.8-.15-1.1-.46-.3-.3-.46-.67-.46-1.1v-6.08c0-.43.15-.8.46-1.1.3-.3.67-.46 1.1-.46h3.12c.43 0 .8.15 1.1.46s.46.67.46 1.1-.15.8-.46 1.1c-.3.3-.67.46-1.1.46h-1.56zM222.83 34.01v2.47c0 .43-.15.8-.46 1.1s-.67.46-1.1.46-.8-.15-1.1-.46-.46-.67-.46-1.1V34l-2.27-2.65c-.31-.31-.46-.68-.46-1.11s.15-.8.46-1.1c.3-.31.67-.46 1.1-.46s.8.15 1.11.46l1.62 2.01 1.63-2.01c.3-.31.67-.46 1.1-.46s.8.15 1.1.46c.31.3.46.67.46 1.1s-.15.8-.46 1.11zM236.98 37.14l-.84-2.32-.84 2.32c-.21.6-.68.91-1.42.91s-1.21-.3-1.42-.91l-2.31-6.35c-.15-.41-.13-.8.05-1.19s.48-.66.88-.8c.41-.15.8-.13 1.19.05s.66.48.8.88l.8 2.2.84-2.32c.31-.6.79-.91 1.42-.91s1.11.3 1.42.91l.84 2.32.8-2.2c.15-.41.41-.7.8-.88s.79-.2 1.19-.05c.41.15.7.41.88.8s.2.79.05 1.19l-2.32 6.35c-.21.6-.68.91-1.42.91s-1.21-.3-1.42-.91ZM246.02 32.27h1.17c.3 0 .55.11.73.32.19.21.28.47.28.77s-.09.56-.28.77a.94.94 0 0 1-.73.32h-1.17v.39h1.56c.43 0 .8.15 1.1.46s.46.67.46 1.1-.15.8-.46 1.1-.67.46-1.1.46h-3.12c-.43 0-.8-.15-1.1-.46-.3-.3-.46-.67-.46-1.1v-6.08c0-.43.15-.8.46-1.1.3-.3.67-.46 1.1-.46h3.12c.43 0 .8.15 1.1.46s.46.67.46 1.1-.15.8-.46 1.1c-.3.3-.67.46-1.1.46h-1.56zM252.96 34.4v2.09c0 .43-.15.8-.46 1.1-.3.3-.67.46-1.1.46s-.8-.15-1.1-.46c-.3-.3-.46-.67-.46-1.1v-6.24c0-.43.15-.8.46-1.1.3-.3.67-.46 1.1-.46s.8.15 1.11.45l2.79 3.19v-2.08c0-.43.15-.8.46-1.1.3-.3.67-.46 1.1-.46s.8.15 1.1.46.46.67.46 1.1v6.24c0 .43-.15.8-.46 1.1-.3.3-.67.46-1.1.46s-.8-.15-1.1-.46zM265.35 28.77c.43 0 .8.15 1.1.46s.46.67.46 1.1-.15.8-.46 1.1c-.3.3-.67.46-1.1.46h-.78v4.6c0 .43-.15.8-.46 1.1-.3.3-.67.46-1.1.46s-.8-.15-1.1-.46c-.3-.3-.46-.67-.46-1.1v-4.6h-.78c-.43 0-.8-.15-1.1-.46-.3-.3-.46-.67-.46-1.1s.15-.8.46-1.1c.3-.3.67-.46 1.1-.46zM277.46 32.49c.71.71 1.07 1.49 1.07 2.35s-.3 1.6-.91 2.21-1.34.91-2.21.91h-2.34c-.43 0-.8-.15-1.1-.46-.3-.3-.46-.67-.46-1.1v-6.08c0-.43.15-.8.46-1.1.3-.3.67-.46 1.1-.46h2.18c.7 0 1.29.25 1.78.73.49.49.73 1.08.73 1.78 0 .45-.1.85-.3 1.22m-2.6-.29c.12 0 .23-.05.32-.14.1-.1.14-.2.14-.32s-.05-.23-.14-.32c-.1-.1-.2-.14-.32-.14h-.23v.94h.23Zm-.23 2.02v1.25h.31c.17 0 .32-.06.44-.18s.18-.27.18-.44-.06-.32-.18-.44-.27-.18-.44-.18h-.31ZM282.35 32.27h1.17c.3 0 .55.11.73.32.19.21.28.47.28.77s-.09.56-.28.77a.94.94 0 0 1-.73.32h-1.17v.39h1.56c.43 0 .8.15 1.1.46.3.3.46.67.46 1.1s-.15.8-.46 1.1c-.3.3-.67.46-1.1.46h-3.12c-.43 0-.8-.15-1.1-.46s-.46-.67-.46-1.1v-6.08c0-.43.15-.8.46-1.1s.67-.46 1.1-.46h3.12c.43 0 .8.15 1.1.46.3.3.46.67.46 1.1s-.15.8-.46 1.1c-.3.3-.67.46-1.1.46h-1.56zM291.94 34.01v2.47c0 .43-.15.8-.46 1.1-.3.3-.67.46-1.1.46s-.8-.15-1.1-.46c-.3-.3-.46-.67-.46-1.1V34l-2.27-2.65c-.31-.31-.46-.68-.46-1.11s.15-.8.46-1.1c.3-.31.67-.46 1.1-.46s.8.15 1.11.46l1.62 2.01 1.63-2.01c.3-.31.67-.46 1.1-.46s.8.15 1.1.46c.31.3.46.67.46 1.1s-.15.8-.46 1.11zM299.35 38.04c-1.29 0-2.4-.46-3.31-1.37s-1.37-2.02-1.37-3.31.46-2.4 1.37-3.31 2.02-1.37 3.31-1.37 2.4.46 3.31 1.37 1.37 2.02 1.37 3.31-.46 2.4-1.37 3.31-2.02 1.37-3.31 1.37m1.1-3.57c.3-.3.46-.67.46-1.1s-.15-.8-.46-1.1-.67-.46-1.1-.46-.8.15-1.1.46c-.3.3-.46.67-.46 1.1s.15.8.46 1.1c.3.3.67.46 1.1.46s.8-.15 1.1-.46M307.85 34.4v2.09c0 .43-.15.8-.46 1.1-.3.3-.67.46-1.1.46s-.8-.15-1.1-.46c-.3-.3-.46-.67-.46-1.1v-6.24c0-.43.15-.8.46-1.1s.67-.46 1.1-.46.8.15 1.11.45l2.79 3.19v-2.08c0-.43.15-.8.46-1.1s.67-.46 1.1-.46.8.15 1.1.46.46.67.46 1.1v6.24c0 .43-.15.8-.46 1.1-.3.3-.67.46-1.1.46s-.8-.15-1.1-.46zM317.98 28.77c1.29 0 2.4.46 3.31 1.37s1.37 1.99 1.37 3.23-.46 2.32-1.37 3.23-2.02 1.37-3.31 1.37h-2.34c-.43 0-.8-.15-1.1-.46-.3-.3-.46-.67-.46-1.1v-6.08c0-.43.15-.8.46-1.1.3-.3.67-.46 1.1-.46zm0 6.08c.43 0 .8-.14 1.1-.42s.46-.63.46-1.06-.15-.79-.46-1.06c-.3-.28-.67-.42-1.1-.42h-.78v2.96zM330.39 36.48l-.3.72c-.2.38-.5.63-.91.76s-.81.1-1.19-.1-.63-.51-.76-.92-.1-.81.1-1.19l3.17-6.23c.25-.56.72-.84 1.4-.84s1.15.28 1.4.84l3.16 6.23c.2.38.24.77.11 1.19-.13.41-.39.72-.77.92s-.77.23-1.19.1c-.41-.13-.71-.38-.91-.76l-.3-.72h-3Zm2.03-2.33-.53-1.26-.52 1.26zM338.86 37.97c-.43 0-.8-.15-1.1-.46-.3-.3-.46-.67-.46-1.1v-6.16c0-.43.15-.8.46-1.1s.67-.46 1.1-.46.8.15 1.1.46.46.67.46 1.1v4.6h1.56c.43 0 .8.15 1.1.46.3.3.46.67.46 1.1s-.15.8-.46 1.1c-.3.3-.67.46-1.1.46zM345.79 37.97c-.43 0-.8-.15-1.1-.46-.3-.3-.46-.67-.46-1.1v-6.16c0-.43.15-.8.46-1.1s.67-.46 1.1-.46.8.15 1.1.46.46.67.46 1.1v4.6h1.56c.43 0 .8.15 1.1.46.3.3.46.67.46 1.1s-.15.8-.46 1.1c-.3.3-.67.46-1.1.46zM358.19 32.27h1.17c.3 0 .54.11.73.32s.28.47.28.77-.09.56-.28.77a.94.94 0 0 1-.73.32h-1.17v.39h1.56c.43 0 .8.15 1.1.46.3.3.46.67.46 1.1s-.15.8-.46 1.1c-.3.3-.67.46-1.1.46h-3.12c-.43 0-.8-.15-1.1-.46-.3-.3-.46-.67-.46-1.1v-6.08c0-.43.15-.8.46-1.1.3-.3.67-.46 1.1-.46h3.12c.43 0 .8.15 1.1.46.3.3.46.67.46 1.1s-.15.8-.46 1.1c-.3.3-.67.46-1.1.46h-1.56zM367.98 33.11l1.82 2.44c.26.34.36.73.3 1.15-.06.43-.26.77-.6 1.03-.35.25-.74.35-1.16.29q-.645-.09-1.02-.6l-1.29-1.72-1.29 1.72c-.26.34-.6.54-1.03.6s-.81-.04-1.15-.29c-.34-.26-.55-.6-.61-1.03s.04-.81.3-1.15l1.83-2.44-1.45-1.93a1.5 1.5 0 0 1-.3-1.15c.06-.43.26-.77.61-1.03.34-.25.73-.35 1.15-.29.43.06.77.26 1.03.6l.9 1.21.9-1.21c.25-.34.6-.54 1.02-.6.43-.06.81.04 1.16.29.34.26.54.6.6 1.03s-.04.81-.3 1.15l-1.44 1.93ZM373.93 36.48c0 .43-.15.8-.46 1.1-.3.3-.67.46-1.1.46s-.8-.15-1.1-.46c-.3-.3-.46-.67-.46-1.1v-6.16c0-.43.15-.8.46-1.1.3-.3.67-.46 1.1-.46h2.34c.86 0 1.6.3 2.21.91s.91 1.34.91 2.21-.3 1.6-.91 2.21-1.34.91-2.21.91h-.78zm.32-3.97c.17 0 .32-.06.44-.18s.18-.27.18-.44-.06-.32-.18-.44-.27-.18-.44-.18h-.31v1.25h.31ZM381.65 32.27h1.17c.3 0 .54.11.73.32s.28.47.28.77-.09.56-.28.77a.94.94 0 0 1-.73.32h-1.17v.39h1.56c.43 0 .8.15 1.1.46.3.3.46.67.46 1.1s-.15.8-.46 1.1c-.3.3-.67.46-1.1.46h-3.12c-.43 0-.8-.15-1.1-.46-.3-.3-.46-.67-.46-1.1v-6.08c0-.43.15-.8.46-1.1.3-.3.67-.46 1.1-.46h3.12c.43 0 .8.15 1.1.46.3.3.46.67.46 1.1s-.15.8-.46 1.1c-.3.3-.67.46-1.1.46h-1.56zM390.63 34.47c.06-.09.13-.18.22-.27.3-.3.67-.45 1.1-.45s.8.15 1.1.46c.3.3.46.67.46 1.1 0 .11-.01.23-.03.33q-.06.45-.63 1.02c-.92.92-2.02 1.37-3.31 1.37s-2.39-.46-3.31-1.37-1.37-2.02-1.37-3.31.46-2.4 1.37-3.31 2.02-1.37 3.31-1.37 2.4.46 3.31 1.37c.38.38.59.73.63 1.03q.03.165.03.33c0 .43-.15.8-.46 1.1-.3.3-.67.46-1.1.46s-.8-.15-1.1-.46c-.08-.08-.16-.16-.22-.26-.3-.3-.67-.45-1.1-.45s-.8.15-1.1.46c-.3.3-.46.67-.46 1.1s.15.8.46 1.1c.3.3.67.46 1.1.46s.8-.15 1.1-.45ZM400.06 28.77c.43 0 .8.15 1.1.46.3.3.46.67.46 1.1s-.15.8-.46 1.1c-.3.3-.67.46-1.1.46h-.78v4.6c0 .43-.15.8-.46 1.1s-.67.46-1.1.46-.8-.15-1.1-.46-.46-.67-.46-1.1v-4.6h-.78c-.43 0-.8-.15-1.1-.46-.3-.3-.46-.67-.46-1.1s.15-.8.46-1.1c.3-.3.67-.46 1.1-.46zM403.88 36.48l-.3.72c-.2.38-.5.63-.91.76s-.81.1-1.19-.1-.63-.51-.76-.92-.1-.81.1-1.19l3.17-6.23c.25-.56.72-.84 1.4-.84s1.15.28 1.4.84l3.16 6.23c.2.38.24.77.11 1.19-.13.41-.39.72-.77.92s-.77.23-1.19.1c-.41-.13-.71-.38-.91-.76l-.3-.72h-3Zm2.03-2.33-.53-1.26-.52 1.26zM415.39 28.77c.43 0 .8.15 1.1.46.3.3.46.67.46 1.1s-.15.8-.46 1.1c-.3.3-.67.46-1.1.46h-.78v4.6c0 .43-.15.8-.46 1.1s-.67.46-1.1.46-.8-.15-1.1-.46-.46-.67-.46-1.1v-4.6h-.78c-.43 0-.8-.15-1.1-.46-.3-.3-.46-.67-.46-1.1s.15-.8.46-1.1c.3-.3.67-.46 1.1-.46zM419.21 38.04c-.43 0-.8-.15-1.1-.46-.3-.3-.46-.67-.46-1.1v-6.24c0-.43.15-.8.46-1.1s.67-.46 1.1-.46.8.15 1.1.46.46.67.46 1.1v6.24c0 .43-.15.8-.46 1.1-.3.3-.67.46-1.1.46M426.15 38.04c-1.29 0-2.4-.46-3.31-1.37s-1.37-2.02-1.37-3.31.46-2.4 1.37-3.31 2.02-1.37 3.31-1.37 2.4.46 3.31 1.37 1.37 2.02 1.37 3.31-.46 2.4-1.37 3.31-2.02 1.37-3.31 1.37m1.11-3.57c.3-.3.46-.67.46-1.1s-.15-.8-.46-1.1c-.3-.3-.67-.46-1.1-.46s-.8.15-1.1.46c-.3.3-.46.67-.46 1.1s.15.8.46 1.1c.3.3.67.46 1.1.46s.8-.15 1.1-.46M434.65 34.4v2.09c0 .43-.15.8-.46 1.1-.3.3-.67.46-1.1.46s-.8-.15-1.1-.46c-.3-.3-.46-.67-.46-1.1v-6.24c0-.43.15-.8.46-1.1s.67-.46 1.1-.46.8.15 1.11.45l2.79 3.19v-2.08c0-.43.15-.8.46-1.1s.67-.46 1.1-.46.8.15 1.1.46.46.67.46 1.1v6.24c0 .43-.15.8-.46 1.1-.3.3-.67.46-1.1.46s-.8-.15-1.1-.46zM441.54 37.47c-.49-.38-.73-.79-.73-1.22s.15-.8.46-1.1c.3-.3.67-.46 1.1-.46.4 0 .69.1.89.31q.3.315.69.33c.39.015.42-.05.46-.2.04-.14-.24-.33-.86-.56-.61-.23-1.2-.54-1.75-.91-.56-.37-.83-.99-.83-1.86s.3-1.6.91-2.21 1.32-.91 2.13-.91 1.5.18 2.12.53c.62.36.92.75.92 1.18s-.15.8-.46 1.1c-.3.3-.67.46-1.1.46q-.6 0-.81-.27c-.15-.18-.33-.28-.54-.29s-.34.05-.38.2c-.04.14.19.32.7.53s1.09.5 1.75.87.99 1.02.99 1.93c0 .86-.3 1.6-.91 2.21s-1.4.91-2.36.91c-1.11 0-1.9-.19-2.39-.57M449.47 38.04c-.43 0-.8-.15-1.1-.46-.3-.3-.46-.67-.46-1.1s.15-.8.46-1.1c.3-.3.67-.46 1.1-.46s.8.15 1.1.46c.3.3.46.67.46 1.1s-.15.8-.46 1.1c-.3.3-.67.46-1.1.46M45.27 43.11c.43 0 .8.15 1.1.46.3.3.46.67.46 1.1s-.15.8-.46 1.1-.67.46-1.1.46h-.78v4.6c0 .43-.15.8-.46 1.1-.3.3-.67.46-1.1.46s-.8-.15-1.1-.46-.46-.67-.46-1.1v-4.6h-.78c-.43 0-.8-.15-1.1-.46-.3-.3-.46-.67-.46-1.1s.15-.8.46-1.1c.3-.3.67-.46 1.1-.46zM50.65 49.19v1.64c0 .43-.15.8-.46 1.1s-.67.46-1.1.46-.8-.15-1.1-.46c-.3-.3-.46-.67-.46-1.1v-6.24c0-.43.15-.8.46-1.1.3-.3.67-.46 1.1-.46s.8.15 1.1.46.46.67.46 1.1v1.64h1.95v-1.64c0-.43.15-.8.46-1.1.3-.3.67-.46 1.1-.46s.8.15 1.1.46c.3.3.46.67.46 1.1v6.24c0 .43-.15.8-.46 1.1-.3.3-.67.46-1.1.46s-.8-.15-1.1-.46c-.3-.3-.46-.67-.46-1.1v-1.64zM59.61 46.62h1.17c.3 0 .55.11.73.32.19.21.28.47.28.77s-.09.56-.28.77a.94.94 0 0 1-.73.32h-1.17v.39h1.56c.43 0 .8.15 1.1.46s.46.67.46 1.1-.15.8-.46 1.1-.67.46-1.1.46h-3.12c-.43 0-.8-.15-1.1-.46-.3-.3-.46-.67-.46-1.1v-6.08c0-.43.15-.8.46-1.1.3-.3.67-.46 1.1-.46h3.12c.43 0 .8.15 1.1.46.3.3.46.67.46 1.1s-.15.8-.46 1.1-.67.46-1.1.46h-1.56zM69.2 48.36v2.47c0 .43-.15.8-.46 1.1-.3.3-.67.46-1.1.46s-.8-.15-1.1-.46c-.3-.3-.46-.67-.46-1.1v-2.48l-2.27-2.65c-.31-.31-.46-.68-.46-1.11s.15-.8.46-1.1c.3-.31.67-.46 1.1-.46s.8.15 1.11.46l1.62 2.01 1.63-2.01c.3-.31.67-.46 1.1-.46s.8.15 1.1.46c.31.3.46.67.46 1.1s-.15.8-.46 1.11zM79.65 46.62h1.17c.3 0 .55.11.73.32.19.21.28.47.28.77s-.09.56-.28.77a.94.94 0 0 1-.73.32h-1.17v.39h1.56c.43 0 .8.15 1.1.46.3.3.46.67.46 1.1s-.15.8-.46 1.1c-.3.3-.67.46-1.1.46h-3.12c-.43 0-.8-.15-1.1-.46-.3-.3-.46-.67-.46-1.1v-6.08c0-.43.15-.8.46-1.1s.67-.46 1.1-.46h3.12c.43 0 .8.15 1.1.46.3.3.46.67.46 1.1s-.15.8-.46 1.1c-.3.3-.67.46-1.1.46h-1.56zM86.59 48.74v2.09c0 .43-.15.8-.46 1.1-.3.3-.67.46-1.1.46s-.8-.15-1.1-.46-.46-.67-.46-1.1v-6.24c0-.43.15-.8.46-1.1s.67-.46 1.1-.46.8.15 1.11.45l2.79 3.19v-2.08c0-.43.15-.8.46-1.1s.67-.46 1.1-.46.8.15 1.1.46c.3.3.46.67.46 1.1v6.24c0 .43-.15.8-.46 1.1-.3.3-.67.46-1.1.46s-.8-.15-1.1-.46zM101.41 47.79v1.87c-.06.52-.28.98-.66 1.36-.92.92-2.02 1.37-3.31 1.37s-2.39-.46-3.31-1.37-1.37-2.02-1.37-3.31.46-2.4 1.37-3.31 2.02-1.37 3.31-1.37 2.24.27 2.85.82c.38.33.6.71.66 1.13 0 .43-.1.77-.3 1.03s-.52.38-.95.38-.8-.08-1.1-.23c-.34-.16-.73-.24-1.16-.24s-.8.17-1.1.5-.46.76-.46 1.3.15.97.46 1.3.67.5 1.1.5.8-.1 1.11-.3v-.25h-.65c-.33 0-.6-.11-.83-.34s-.34-.5-.34-.83.11-.6.34-.83.5-.34.83-.34h2.34c.33 0 .6.11.83.34s.34.5.34.83ZM103.75 52.39c-.43 0-.8-.15-1.1-.46s-.46-.67-.46-1.1v-6.24c0-.43.15-.8.46-1.1s.67-.46 1.1-.46.8.15 1.1.46c.3.3.46.67.46 1.1v6.24c0 .43-.15.8-.46 1.1-.3.3-.67.46-1.1.46M109.2 48.74v2.09c0 .43-.15.8-.46 1.1-.3.3-.67.46-1.1.46s-.8-.15-1.1-.46-.46-.67-.46-1.1v-6.24c0-.43.15-.8.46-1.1s.67-.46 1.1-.46.8.15 1.11.45l2.79 3.19v-2.08c0-.43.15-.8.46-1.1s.67-.46 1.1-.46.8.15 1.1.46c.3.3.46.67.46 1.1v6.24c0 .43-.15.8-.46 1.1-.3.3-.67.46-1.1.46s-.8-.15-1.1-.46zM118.56 46.62h1.17c.3 0 .55.11.73.32.19.21.28.47.28.77s-.09.56-.28.77a.94.94 0 0 1-.73.32h-1.17v.39h1.56c.43 0 .8.15 1.1.46s.46.67.46 1.1-.15.8-.46 1.1-.67.46-1.1.46H117c-.43 0-.8-.15-1.1-.46-.3-.3-.46-.67-.46-1.1v-6.08c0-.43.15-.8.46-1.1.3-.3.67-.46 1.1-.46h3.12c.43 0 .8.15 1.1.46.3.3.46.67.46 1.1s-.15.8-.46 1.1-.67.46-1.1.46h-1.56zM125.5 46.62h1.17c.3 0 .55.11.73.32.19.21.28.47.28.77s-.09.56-.28.77a.94.94 0 0 1-.73.32h-1.17v.39h1.56c.43 0 .8.15 1.1.46s.46.67.46 1.1-.15.8-.46 1.1-.67.46-1.1.46h-3.12c-.43 0-.8-.15-1.1-.46-.3-.3-.46-.67-.46-1.1v-6.08c0-.43.15-.8.46-1.1.3-.3.67-.46 1.1-.46h3.12c.43 0 .8.15 1.1.46.3.3.46.67.46 1.1s-.15.8-.46 1.1-.67.46-1.1.46h-1.56zM132.44 49.59v1.24c0 .43-.15.8-.46 1.1-.3.3-.67.46-1.1.46s-.8-.15-1.1-.46-.46-.67-.46-1.1v-6.16c0-.43.15-.8.46-1.1s.67-.46 1.1-.46h2.34c.86 0 1.6.3 2.21.91s.91 1.34.91 2.21-.3 1.6-.91 2.21c-.07.07-.14.13-.2.19l.95 1.27c.26.34.36.73.3 1.15-.06.43-.26.77-.6 1.03-.35.25-.74.35-1.16.29s-.77-.26-1.02-.6l-1.25-2.17Zm.31-2.74c.17 0 .32-.06.44-.18s.18-.27.18-.44-.06-.32-.18-.44a.6.6 0 0 0-.44-.18h-.31v1.25h.31ZM140.24 46.62h1.17c.3 0 .55.11.73.32.19.21.28.47.28.77s-.09.56-.28.77a.94.94 0 0 1-.73.32h-1.17v.39h1.56c.43 0 .8.15 1.1.46s.46.67.46 1.1-.15.8-.46 1.1-.67.46-1.1.46h-3.12c-.43 0-.8-.15-1.1-.46-.3-.3-.46-.67-.46-1.1v-6.08c0-.43.15-.8.46-1.1.3-.3.67-.46 1.1-.46h3.12c.43 0 .8.15 1.1.46.3.3.46.67.46 1.1s-.15.8-.46 1.1-.67.46-1.1.46h-1.56zM147.96 43.11c1.29 0 2.4.46 3.31 1.37s1.37 1.99 1.37 3.23-.46 2.32-1.37 3.23-2.02 1.37-3.31 1.37h-2.34c-.43 0-.8-.15-1.1-.46-.3-.3-.46-.67-.46-1.1v-6.08c0-.43.15-.8.46-1.1.3-.3.67-.46 1.1-.46zm0 6.08c.43 0 .8-.14 1.1-.42s.46-.63.46-1.06-.15-.79-.46-1.06c-.3-.28-.67-.42-1.1-.42h-.78v2.96zM158.79 52.39c-.43 0-.8-.15-1.1-.46s-.46-.67-.46-1.1v-6.24c0-.43.15-.8.46-1.1s.67-.46 1.1-.46.8.15 1.1.46c.3.3.46.67.46 1.1v6.24c0 .43-.15.8-.46 1.1-.3.3-.67.46-1.1.46M167.29 43.11c.43 0 .8.15 1.1.46.3.3.46.67.46 1.1s-.15.8-.46 1.1c-.3.3-.67.46-1.1.46h-.78v4.6c0 .43-.15.8-.46 1.1s-.67.46-1.1.46-.8-.15-1.1-.46c-.3-.3-.46-.67-.46-1.1v-4.6h-.78c-.43 0-.8-.15-1.1-.46s-.46-.67-.46-1.1.15-.8.46-1.1c.3-.3.67-.46 1.1-.46zM176.58 50.83l-.3.72c-.2.38-.5.63-.91.76s-.81.1-1.19-.1-.63-.51-.76-.92-.1-.81.1-1.18l3.17-6.23c.25-.56.72-.84 1.4-.84s1.15.28 1.4.84l3.16 6.23c.2.38.24.77.11 1.18s-.39.72-.77.92-.77.23-1.19.1c-.41-.13-.71-.38-.91-.76l-.3-.72h-3Zm2.03-2.34-.53-1.26-.52 1.26zM185.05 52.31c-.43 0-.8-.15-1.1-.46-.3-.3-.46-.67-.46-1.1v-6.16c0-.43.15-.8.46-1.1s.67-.46 1.1-.46.8.15 1.1.46c.3.3.46.67.46 1.1v4.6h1.56c.43 0 .8.15 1.1.46.3.3.46.67.46 1.1s-.15.8-.46 1.1c-.3.3-.67.46-1.1.46zM191.99 52.31c-.43 0-.8-.15-1.1-.46-.3-.3-.46-.67-.46-1.1v-6.16c0-.43.15-.8.46-1.1s.67-.46 1.1-.46.8.15 1.1.46c.3.3.46.67.46 1.1v4.6h1.56c.43 0 .8.15 1.1.46.3.3.46.67.46 1.1s-.15.8-.46 1.1c-.3.3-.67.46-1.1.46zM207.42 43.11c.43 0 .8.15 1.1.46.3.3.46.67.46 1.1s-.15.8-.46 1.1c-.3.3-.67.46-1.1.46h-.78v4.6c0 .43-.15.8-.46 1.1s-.67.46-1.1.46-.8-.15-1.1-.46c-.3-.3-.46-.67-.46-1.1v-4.6h-.78c-.43 0-.8-.15-1.1-.46s-.46-.67-.46-1.1.15-.8.46-1.1c.3-.3.67-.46 1.1-.46zM212.8 49.19v1.64c0 .43-.15.8-.46 1.1-.3.3-.67.46-1.1.46s-.8-.15-1.1-.46-.46-.67-.46-1.1v-6.24c0-.43.15-.8.46-1.1s.67-.46 1.1-.46.8.15 1.1.46c.3.3.46.67.46 1.1v1.64h1.95v-1.64c0-.43.15-.8.46-1.1.3-.3.67-.46 1.1-.46s.8.15 1.1.46c.3.3.46.67.46 1.1v6.24c0 .43-.15.8-.46 1.1-.3.3-.67.46-1.1.46s-.8-.15-1.1-.46c-.3-.3-.46-.67-.46-1.1v-1.64zM221.77 46.62h1.17c.3 0 .55.11.73.32.19.21.28.47.28.77s-.09.56-.28.77a.94.94 0 0 1-.73.32h-1.17v.39h1.56c.43 0 .8.15 1.1.46.3.3.46.67.46 1.1s-.15.8-.46 1.1c-.3.3-.67.46-1.1.46h-3.12c-.43 0-.8-.15-1.1-.46-.3-.3-.46-.67-.46-1.1v-6.08c0-.43.15-.8.46-1.1s.67-.46 1.1-.46h3.12c.43 0 .8.15 1.1.46.3.3.46.67.46 1.1s-.15.8-.46 1.1c-.3.3-.67.46-1.1.46h-1.56zM236.31 51.48l-.84-2.32-.84 2.32c-.21.6-.68.9-1.42.9s-1.21-.3-1.42-.9l-2.31-6.35c-.15-.41-.13-.8.05-1.19s.48-.66.88-.8c.41-.15.8-.14 1.19.05.39.18.66.48.8.88l.8 2.2.84-2.32c.31-.6.78-.9 1.42-.9s1.11.3 1.42.9l.84 2.32.8-2.2c.15-.41.41-.7.8-.88s.79-.2 1.19-.05c.41.15.7.41.88.8s.2.79.05 1.19l-2.32 6.35c-.21.6-.68.9-1.42.9s-1.21-.3-1.42-.9ZM243.8 50.83l-.3.72c-.2.38-.5.63-.91.76s-.81.1-1.19-.1-.63-.51-.76-.92-.1-.81.1-1.18l3.17-6.23c.25-.56.72-.84 1.4-.84s1.15.28 1.4.84l3.16 6.23c.2.38.24.77.11 1.18s-.39.72-.77.92-.77.23-1.18.1-.71-.38-.91-.76l-.3-.72h-3Zm2.02-2.34-.53-1.26-.52 1.26zM254.29 48.36v2.47c0 .43-.15.8-.46 1.1-.3.3-.67.46-1.1.46s-.8-.15-1.1-.46c-.3-.3-.46-.67-.46-1.1v-2.48l-2.27-2.65c-.31-.31-.46-.68-.46-1.11s.15-.8.46-1.1c.3-.31.67-.46 1.1-.46s.8.15 1.11.46l1.62 2.01 1.63-2.01c.3-.31.67-.46 1.1-.46s.8.15 1.1.46c.31.3.46.67.46 1.1s-.15.8-.46 1.11zM265.52 43.11c1.29 0 2.4.46 3.31 1.37s1.37 1.99 1.37 3.23-.46 2.32-1.37 3.23-2.02 1.37-3.31 1.37h-2.34c-.43 0-.8-.15-1.1-.46-.3-.3-.46-.67-.46-1.1v-6.08c0-.43.15-.8.46-1.1s.67-.46 1.1-.46zm0 6.08c.43 0 .8-.14 1.1-.42s.46-.63.46-1.06-.15-.79-.46-1.06c-.3-.28-.67-.42-1.1-.42h-.78v2.96zM275.5 52.39c-1.29 0-2.4-.46-3.31-1.37s-1.37-2.02-1.37-3.31.46-2.4 1.37-3.31 2.02-1.37 3.31-1.37 2.4.46 3.31 1.37 1.37 2.02 1.37 3.31-.46 2.4-1.37 3.31-2.02 1.37-3.31 1.37m1.1-3.58c.3-.3.46-.67.46-1.1s-.15-.8-.46-1.1c-.3-.3-.67-.46-1.1-.46s-.8.15-1.1.46c-.3.3-.46.67-.46 1.1s.15.8.46 1.1c.3.3.67.46 1.1.46s.8-.15 1.1-.46M287.16 51.48l-.84-2.32-.84 2.32c-.21.6-.68.9-1.42.9s-1.21-.3-1.42-.9l-2.31-6.35c-.15-.41-.13-.8.05-1.19s.48-.66.88-.8c.41-.15.8-.14 1.19.05.39.18.66.48.8.88l.8 2.2.84-2.32c.31-.6.78-.9 1.42-.9s1.11.3 1.42.9l.84 2.32.8-2.2c.15-.41.41-.7.8-.88s.79-.2 1.19-.05c.41.15.7.41.88.8s.2.79.05 1.19l-2.32 6.35c-.21.6-.68.9-1.42.9s-1.21-.3-1.42-.9ZM296.19 48.74v2.09c0 .43-.15.8-.46 1.1s-.67.46-1.1.46-.8-.15-1.1-.46c-.3-.3-.46-.67-.46-1.1v-6.24c0-.43.15-.8.46-1.1.3-.3.67-.46 1.1-.46s.8.15 1.11.45l2.79 3.19v-2.08c0-.43.15-.8.46-1.1.3-.3.67-.46 1.1-.46s.8.15 1.1.46.46.67.46 1.1v6.24c0 .43-.15.8-.46 1.1s-.67.46-1.1.46-.8-.15-1.1-.46zM312.49 43.11c.43 0 .8.15 1.1.46.3.3.46.67.46 1.1s-.15.8-.46 1.1-.67.46-1.1.46h-.78v4.6c0 .43-.15.8-.46 1.1-.3.3-.67.46-1.1.46s-.8-.15-1.1-.46c-.3-.3-.46-.67-.46-1.1v-4.6h-.78c-.43 0-.8-.15-1.1-.46s-.46-.67-.46-1.1.15-.8.46-1.1c.3-.3.67-.46 1.1-.46zM318.81 52.39c-1.29 0-2.4-.46-3.31-1.37s-1.37-2.02-1.37-3.31.46-2.4 1.37-3.31 2.02-1.37 3.31-1.37 2.4.46 3.31 1.37 1.37 2.02 1.37 3.31-.46 2.4-1.37 3.31-2.02 1.37-3.31 1.37m1.1-3.58c.3-.3.46-.67.46-1.1s-.15-.8-.46-1.1-.67-.46-1.1-.46-.8.15-1.1.46-.46.67-.46 1.1.15.8.46 1.1.67.46 1.1.46.8-.15 1.1-.46M331.21 50.83l-.3.72c-.2.38-.5.63-.91.76s-.81.1-1.19-.1-.63-.51-.76-.92-.1-.81.1-1.18l3.17-6.23c.25-.56.72-.84 1.4-.84s1.15.28 1.4.84l3.16 6.23c.2.38.24.77.11 1.18s-.39.72-.77.92-.77.23-1.19.1c-.41-.13-.71-.38-.91-.76l-.3-.72h-3Zm2.03-2.34-.53-1.26-.52 1.26zM347.72 48.82c.06-.09.13-.18.22-.26.3-.3.67-.45 1.1-.45s.8.15 1.1.46.46.67.46 1.1c0 .11-.01.23-.03.33q-.06.45-.63 1.02c-.92.92-2.02 1.37-3.31 1.37s-2.39-.46-3.31-1.37-1.37-2.02-1.37-3.31.46-2.4 1.37-3.31 2.02-1.37 3.31-1.37 2.4.46 3.31 1.36c.38.38.59.73.63 1.03q.03.165.03.33c0 .43-.15.8-.46 1.1s-.67.46-1.1.46-.8-.15-1.1-.46c-.08-.08-.16-.16-.22-.26-.3-.3-.67-.45-1.1-.45s-.8.15-1.1.46-.46.67-.46 1.1.15.8.46 1.1.67.46 1.1.46.8-.15 1.1-.45ZM355.66 52.39c-1.29 0-2.4-.46-3.31-1.37s-1.37-2.02-1.37-3.31.46-2.4 1.37-3.31 2.02-1.37 3.31-1.37 2.4.46 3.31 1.37 1.37 2.02 1.37 3.31-.46 2.4-1.37 3.31-2.02 1.37-3.31 1.37m1.11-3.58c.3-.3.46-.67.46-1.1s-.15-.8-.46-1.1-.67-.46-1.1-.46-.8.15-1.1.46-.46.67-.46 1.1.15.8.46 1.1.67.46 1.1.46.8-.15 1.1-.46M361.5 51.81c-.49-.38-.73-.79-.73-1.22s.15-.8.46-1.1c.3-.3.67-.46 1.1-.46.4 0 .69.1.89.31q.3.315.69.33c.26.01.42-.05.46-.2s-.24-.33-.86-.57c-.61-.23-1.2-.54-1.75-.91-.56-.37-.83-.99-.83-1.86s.3-1.6.91-2.21 1.32-.91 2.13-.91 1.5.18 2.12.53c.62.36.92.75.92 1.18s-.15.8-.46 1.1-.67.46-1.1.46q-.6 0-.81-.27c-.15-.18-.33-.28-.54-.29s-.34.05-.38.19.19.32.7.53 1.09.5 1.75.87c.66.38.99 1.02.99 1.93 0 .86-.3 1.6-.91 2.21s-1.4.91-2.36.91c-1.11 0-1.9-.19-2.39-.57ZM373.79 43.11c.43 0 .8.15 1.1.46.3.3.46.67.46 1.1s-.15.8-.46 1.1-.67.46-1.1.46h-.78v4.6c0 .43-.15.8-.46 1.1-.3.3-.67.46-1.1.46s-.8-.15-1.1-.46c-.3-.3-.46-.67-.46-1.1v-4.6h-.78c-.43 0-.8-.15-1.1-.46s-.46-.67-.46-1.1.15-.8.46-1.1c.3-.3.67-.46 1.1-.46zM384.55 52.39c-1.29 0-2.4-.46-3.31-1.37s-1.37-2.02-1.37-3.31.46-2.4 1.37-3.31 2.02-1.37 3.31-1.37 2.4.46 3.31 1.37 1.37 2.02 1.37 3.31-.46 2.4-1.37 3.31-2.02 1.37-3.31 1.37m1.1-3.58c.3-.3.46-.67.46-1.1s-.15-.8-.46-1.1-.67-.46-1.1-.46-.8.15-1.1.46-.46.67-.46 1.1.15.8.46 1.1.67.46 1.1.46.8-.15 1.1-.46M394.61 43.11c.43 0 .8.15 1.1.46.3.3.46.67.46 1.1s-.15.8-.46 1.1-.67.46-1.1.46h-1.56v.39h1.17c.35 0 .64.11.85.32s.32.5.32.85-.11.64-.32.85-.5.32-.85.32h-1.17v1.87c0 .43-.15.8-.46 1.1-.3.3-.67.46-1.1.46s-.8-.15-1.1-.46c-.3-.3-.46-.67-.46-1.1v-6.16c0-.43.15-.8.46-1.1.3-.3.67-.46 1.1-.46zM404.59 52.39c-1.29 0-2.27-.46-2.92-1.37s-.98-2.02-.98-3.31.33-2.4.98-3.31 1.63-1.37 2.92-1.37 2.27.46 2.92 1.37.98 2.02.98 3.31-.33 2.4-.98 3.31-1.63 1.37-2.92 1.37m.56-3.58c.15-.3.22-.67.22-1.1s-.07-.8-.22-1.1-.33-.46-.56-.46-.41.15-.56.46c-.15.3-.22.67-.22 1.1s.07.8.22 1.1.33.46.56.46.41-.15.56-.46M410.36 52.39c-.43 0-.8-.15-1.1-.46-.3-.3-.46-.67-.46-1.1s.15-.8.46-1.1c.3-.3.67-.46 1.1-.46s.8.15 1.1.46c.3.3.46.67.46 1.1s-.15.8-.46 1.1c-.3.3-.67.46-1.1.46M111.13 62.05c0 .43-.15.8-.46 1.1-.3.3-.67.46-1.1.46h-3.12c-.43 0-.8-.15-1.1-.46s-.46-.67-.46-1.1.15-.8.46-1.1.67-.46 1.1-.46h3.12c.43 0 .8.15 1.1.46.3.3.46.67.46 1.1M115.03 63.08v2.09c0 .43-.15.8-.46 1.1-.3.3-.67.46-1.1.46s-.8-.15-1.1-.46-.46-.67-.46-1.1v-6.24c0-.43.15-.8.46-1.1.3-.3.67-.46 1.1-.46s.8.15 1.11.45l2.79 3.19v-2.08c0-.43.15-.8.46-1.1.3-.3.67-.46 1.1-.46s.8.15 1.1.46c.3.3.46.67.46 1.1v6.24c0 .43-.15.8-.46 1.1-.3.3-.67.46-1.1.46s-.8-.15-1.1-.46zM125.87 66.73c-1.29 0-2.4-.46-3.31-1.37s-1.37-2.02-1.37-3.31.46-2.4 1.37-3.31 2.02-1.37 3.31-1.37 2.4.46 3.31 1.37 1.37 2.02 1.37 3.31-.46 2.4-1.37 3.31-2.01 1.37-3.31 1.37m1.1-3.57c.3-.3.46-.67.46-1.1s-.15-.8-.46-1.1c-.3-.3-.67-.46-1.1-.46s-.8.15-1.1.46c-.3.3-.46.67-.46 1.1s.15.8.46 1.1c.3.3.67.46 1.1.46s.8-.15 1.1-.46M137.52 65.83l-.84-2.32-.84 2.32c-.21.6-.68.91-1.42.91s-1.21-.3-1.42-.91l-2.31-6.35c-.15-.41-.13-.8.05-1.19s.48-.66.88-.8c.41-.15.8-.13 1.19.05s.66.48.8.88l.8 2.2.84-2.32c.31-.6.79-.91 1.42-.91s1.11.3 1.42.91l.84 2.32.8-2.2c.15-.41.41-.7.8-.88s.79-.2 1.19-.05c.41.15.7.41.88.8s.2.79.05 1.19l-2.32 6.35c-.21.6-.68.91-1.42.91s-1.21-.3-1.42-.91ZM142.8 66.51c-.48-.1-.79-.39-.94-.85-.15-.47-.11-.88.11-1.26.21-.37.53-.62.95-.73s.82-.06 1.19.15c.37.22.62.54.73.96s.06.81-.16 1.19l-.85 1.47c-.1.17-.24.27-.43.32-.18.05-.36.02-.53-.07a.63.63 0 0 1-.32-.42.66.66 0 0 1 .07-.53zM155.85 57.45c.43 0 .8.15 1.1.46s.46.67.46 1.1-.15.8-.46 1.1c-.3.3-.67.46-1.1.46h-.78v4.6c0 .43-.15.8-.46 1.1-.3.3-.67.46-1.1.46s-.8-.15-1.1-.46c-.3-.3-.46-.67-.46-1.1v-4.6h-.78c-.43 0-.8-.15-1.1-.46-.3-.3-.46-.67-.46-1.1s.15-.8.46-1.1c.3-.3.67-.46 1.1-.46zM161.23 63.53v1.64c0 .43-.15.8-.46 1.1-.3.3-.67.46-1.1.46s-.8-.15-1.1-.46c-.3-.3-.46-.67-.46-1.1v-6.24c0-.43.15-.8.46-1.1.3-.3.67-.46 1.1-.46s.8.15 1.1.46.46.67.46 1.1v1.64h1.95v-1.64c0-.43.15-.8.46-1.1.3-.3.67-.46 1.1-.46s.8.15 1.1.46c.3.3.46.67.46 1.1v6.24c0 .43-.15.8-.46 1.1s-.67.46-1.1.46-.8-.15-1.1-.46-.46-.67-.46-1.1v-1.64zM170.2 65.17l-.3.72c-.2.38-.5.63-.91.76s-.81.1-1.19-.1-.63-.51-.76-.92-.1-.81.1-1.19l3.17-6.23c.25-.56.72-.84 1.4-.84s1.15.28 1.4.84l3.16 6.23c.2.38.24.77.11 1.19-.13.41-.39.72-.77.92s-.77.23-1.19.1c-.41-.13-.71-.38-.91-.76l-.3-.72h-3Zm2.03-2.34-.53-1.26-.52 1.26zM181.71 57.45c.43 0 .8.15 1.1.46s.46.67.46 1.1-.15.8-.46 1.1c-.3.3-.67.46-1.1.46h-.78v4.6c0 .43-.15.8-.46 1.1-.3.3-.67.46-1.1.46s-.8-.15-1.1-.46c-.3-.3-.46-.67-.46-1.1v-4.6h-.78c-.43 0-.8-.15-1.1-.46-.3-.3-.46-.67-.46-1.1s.15-.8.46-1.1c.3-.3.67-.46 1.1-.46zM185.12 60.28c-.48-.1-.79-.39-.94-.85s-.11-.88.11-1.26c.21-.37.53-.62.95-.73s.81-.06 1.19.15c.38.22.62.54.73.96s.06.81-.16 1.19l-.85 1.47c-.1.17-.24.27-.42.32s-.36.02-.53-.07a.63.63 0 0 1-.32-.42.66.66 0 0 1 .07-.53l.18-.23ZM188.53 66.16c-.49-.38-.73-.79-.73-1.22s.15-.8.46-1.1c.3-.3.67-.46 1.1-.46.39 0 .69.1.89.31s.43.32.69.33.42-.05.46-.2c.04-.14-.24-.33-.86-.56-.61-.23-1.2-.54-1.75-.91-.56-.37-.83-.99-.83-1.86s.3-1.6.91-2.21 1.32-.91 2.13-.91 1.5.18 2.12.53c.62.36.92.75.92 1.18s-.15.8-.46 1.1-.67.46-1.1.46q-.6 0-.81-.27c-.15-.18-.32-.28-.54-.29-.21-.01-.34.05-.38.2-.04.14.19.32.7.53s1.09.5 1.75.87.99 1.02.99 1.93c0 .86-.3 1.6-.91 2.21s-1.4.91-2.36.91c-1.11 0-1.9-.19-2.39-.57M204.95 57.45c.43 0 .8.15 1.1.46s.46.67.46 1.1-.15.8-.46 1.1c-.3.3-.67.46-1.1.46h-.78v4.6c0 .43-.15.8-.46 1.1-.3.3-.67.46-1.1.46s-.8-.15-1.1-.46c-.3-.3-.46-.67-.46-1.1v-4.6h-.78c-.43 0-.8-.15-1.1-.46-.3-.3-.46-.67-.46-1.1s.15-.8.46-1.1c.3-.3.67-.46 1.1-.46zM210.33 60.96h1.17c.3 0 .55.11.73.32.19.21.28.47.28.77s-.09.56-.28.77a.94.94 0 0 1-.73.32h-1.17v.39h1.56c.43 0 .8.15 1.1.46s.46.67.46 1.1-.15.8-.46 1.1-.67.46-1.1.46h-3.12c-.43 0-.8-.15-1.1-.46-.3-.3-.46-.67-.46-1.1v-6.08c0-.43.15-.8.46-1.1.3-.3.67-.46 1.1-.46h3.12c.43 0 .8.15 1.1.46s.46.67.46 1.1-.15.8-.46 1.1c-.3.3-.67.46-1.1.46h-1.56zM217.27 60.96h1.17c.3 0 .55.11.73.32.19.21.28.47.28.77s-.09.56-.28.77a.94.94 0 0 1-.73.32h-1.17v.39h1.56c.43 0 .8.15 1.1.46s.46.67.46 1.1-.15.8-.46 1.1-.67.46-1.1.46h-3.12c-.43 0-.8-.15-1.1-.46-.3-.3-.46-.67-.46-1.1v-6.08c0-.43.15-.8.46-1.1.3-.3.67-.46 1.1-.46h3.12c.43 0 .8.15 1.1.46s.46.67.46 1.1-.15.8-.46 1.1c-.3.3-.67.46-1.1.46h-1.56zM224.21 63.08v2.09c0 .43-.15.8-.46 1.1-.3.3-.67.46-1.1.46s-.8-.15-1.1-.46-.46-.67-.46-1.1v-6.24c0-.43.15-.8.46-1.1.3-.3.67-.46 1.1-.46s.8.15 1.11.45l2.79 3.19v-2.08c0-.43.15-.8.46-1.1.3-.3.67-.46 1.1-.46s.8.15 1.1.46c.3.3.46.67.46 1.1v6.24c0 .43-.15.8-.46 1.1-.3.3-.67.46-1.1.46s-.8-.15-1.1-.46zM233.58 65.17l-.3.72c-.2.38-.5.63-.91.76s-.81.1-1.19-.1-.63-.51-.76-.92-.1-.81.1-1.19l3.17-6.23c.25-.56.72-.84 1.4-.84s1.15.28 1.4.84l3.16 6.23c.2.38.24.77.11 1.19-.13.41-.39.72-.77.92s-.77.23-1.19.1c-.41-.13-.71-.38-.91-.76l-.3-.72h-3Zm2.02-2.34-.53-1.26-.52 1.26zM248.51 62.13V64c-.06.53-.28.98-.66 1.36-.91.92-2.02 1.37-3.31 1.37s-2.39-.46-3.31-1.37-1.37-2.02-1.37-3.31.46-2.4 1.37-3.31 2.02-1.37 3.31-1.37 2.24.27 2.85.82c.38.33.6.71.66 1.13q0 .645-.3 1.02c-.2.25-.52.38-.95.38s-.8-.08-1.1-.23c-.34-.16-.73-.24-1.16-.24s-.8.17-1.1.5-.46.76-.46 1.3.15.97.46 1.3c.3.33.67.5 1.1.5s.8-.1 1.12-.3v-.25h-.65c-.33 0-.6-.11-.83-.34s-.34-.5-.34-.83.11-.6.34-.83.5-.34.83-.34h2.34c.33 0 .6.11.83.34s.34.5.34.83ZM252.41 60.96h1.17c.3 0 .55.11.73.32.19.21.28.47.28.77s-.09.56-.28.77a.94.94 0 0 1-.73.32h-1.17v.39h1.56c.43 0 .8.15 1.1.46s.46.67.46 1.1-.15.8-.46 1.1-.67.46-1.1.46h-3.12c-.43 0-.8-.15-1.1-.46-.3-.3-.46-.67-.46-1.1v-6.08c0-.43.15-.8.46-1.1.3-.3.67-.46 1.1-.46h3.12c.43 0 .8.15 1.1.46s.46.67.46 1.1-.15.8-.46 1.1c-.3.3-.67.46-1.1.46h-1.56zM263.25 60.96h1.17c.3 0 .55.11.73.32.19.21.28.47.28.77s-.09.56-.28.77a.94.94 0 0 1-.73.32h-1.17v.39h1.56c.43 0 .8.15 1.1.46s.46.67.46 1.1-.15.8-.46 1.1-.67.46-1.1.46h-3.12c-.43 0-.8-.15-1.1-.46-.3-.3-.46-.67-.46-1.1v-6.08c0-.43.15-.8.46-1.1.3-.3.67-.46 1.1-.46h3.12c.43 0 .8.15 1.1.46s.46.67.46 1.1-.15.8-.46 1.1c-.3.3-.67.46-1.1.46h-1.56zM270.19 63.08v2.09c0 .43-.15.8-.46 1.1-.3.3-.67.46-1.1.46s-.8-.15-1.1-.46c-.3-.3-.46-.67-.46-1.1v-6.24c0-.43.15-.8.46-1.1.3-.3.67-.46 1.1-.46s.8.15 1.11.45l2.79 3.19v-2.08c0-.43.15-.8.46-1.1.3-.3.67-.46 1.1-.46s.8.15 1.1.46.46.67.46 1.1v6.24c0 .43-.15.8-.46 1.1-.3.3-.67.46-1.1.46s-.8-.15-1.1-.46zM285 62.13V64c-.06.53-.28.98-.66 1.36-.92.92-2.02 1.37-3.31 1.37s-2.39-.46-3.31-1.37-1.37-2.02-1.37-3.31.46-2.4 1.37-3.31 2.02-1.37 3.31-1.37 2.24.27 2.85.82c.38.33.6.71.66 1.13q0 .645-.3 1.02c-.2.25-.52.38-.95.38s-.8-.08-1.1-.23c-.34-.16-.73-.24-1.16-.24s-.8.17-1.1.5-.46.76-.46 1.3.15.97.46 1.3c.3.33.67.5 1.1.5s.8-.1 1.11-.3v-.25h-.65c-.33 0-.6-.11-.83-.34s-.34-.5-.34-.83.11-.6.34-.83.5-.34.83-.34h2.34c.33 0 .6.11.83.34s.34.5.34.83M287.34 66.73c-.43 0-.8-.15-1.1-.46-.3-.3-.46-.67-.46-1.1v-6.24c0-.43.15-.8.46-1.1.3-.3.67-.46 1.1-.46s.8.15 1.1.46.46.67.46 1.1v6.24c0 .43-.15.8-.46 1.1-.3.3-.67.46-1.1.46M292.8 63.08v2.09c0 .43-.15.8-.46 1.1-.3.3-.67.46-1.1.46s-.8-.15-1.1-.46c-.3-.3-.46-.67-.46-1.1v-6.24c0-.43.15-.8.46-1.1.3-.3.67-.46 1.1-.46s.8.15 1.11.45l2.79 3.19v-2.08c0-.43.15-.8.46-1.1.3-.3.67-.46 1.1-.46s.8.15 1.1.46.46.67.46 1.1v6.24c0 .43-.15.8-.46 1.1-.3.3-.67.46-1.1.46s-.8-.15-1.1-.46zM302.16 60.96h1.17c.3 0 .55.11.73.32.19.21.28.47.28.77s-.09.56-.28.77a.94.94 0 0 1-.73.32h-1.17v.39h1.56c.43 0 .8.15 1.1.46s.46.67.46 1.1-.15.8-.46 1.1-.67.46-1.1.46h-3.12c-.43 0-.8-.15-1.1-.46-.3-.3-.46-.67-.46-1.1v-6.08c0-.43.15-.8.46-1.1.3-.3.67-.46 1.1-.46h3.12c.43 0 .8.15 1.1.46s.46.67.46 1.1-.15.8-.46 1.1c-.3.3-.67.46-1.1.46h-1.56zM309.1 60.96h1.17c.3 0 .54.11.73.32s.28.47.28.77-.09.56-.28.77a.94.94 0 0 1-.73.32h-1.17v.39h1.56c.43 0 .8.15 1.1.46.3.3.46.67.46 1.1s-.15.8-.46 1.1c-.3.3-.67.46-1.1.46h-3.12c-.43 0-.8-.15-1.1-.46-.3-.3-.46-.67-.46-1.1v-6.08c0-.43.15-.8.46-1.1.3-.3.67-.46 1.1-.46h3.12c.43 0 .8.15 1.1.46.3.3.46.67.46 1.1s-.15.8-.46 1.1c-.3.3-.67.46-1.1.46h-1.56zM316.04 63.93v1.24c0 .43-.15.8-.46 1.1-.3.3-.67.46-1.1.46s-.8-.15-1.1-.46c-.3-.3-.46-.67-.46-1.1v-6.16c0-.43.15-.8.46-1.1.3-.3.67-.46 1.1-.46h2.34c.86 0 1.6.3 2.21.91s.91 1.34.91 2.21-.3 1.6-.91 2.21c-.07.07-.14.13-.2.19l.95 1.27c.26.34.36.73.3 1.15-.06.43-.26.77-.6 1.03-.35.25-.74.35-1.16.29q-.645-.09-1.02-.6l-1.25-2.18Zm.31-2.74c.17 0 .32-.06.44-.18s.18-.27.18-.44-.06-.32-.18-.44-.27-.18-.44-.18h-.31v1.25h.31ZM322.27 66.73c-.43 0-.8-.15-1.1-.46-.3-.3-.46-.67-.46-1.1v-6.24c0-.43.15-.8.46-1.1s.67-.46 1.1-.46.8.15 1.1.46.46.67.46 1.1v6.24c0 .43-.15.8-.46 1.1-.3.3-.67.46-1.1.46M327.73 63.08v2.09c0 .43-.15.8-.46 1.1-.3.3-.67.46-1.1.46s-.8-.15-1.1-.46c-.3-.3-.46-.67-.46-1.1v-6.24c0-.43.15-.8.46-1.1s.67-.46 1.1-.46.8.15 1.11.45l2.79 3.19v-2.08c0-.43.15-.8.46-1.1s.67-.46 1.1-.46.8.15 1.1.46.46.67.46 1.1v6.24c0 .43-.15.8-.46 1.1-.3.3-.67.46-1.1.46s-.8-.15-1.1-.46zM342.55 62.13V64c-.06.53-.28.98-.66 1.36-.92.92-2.02 1.37-3.31 1.37s-2.39-.46-3.31-1.37-1.37-2.02-1.37-3.31.46-2.4 1.37-3.31 2.02-1.37 3.31-1.37 2.24.27 2.85.82c.38.33.6.71.66 1.13q0 .645-.3 1.02c-.2.25-.52.38-.95.38s-.8-.08-1.1-.23c-.34-.16-.73-.24-1.16-.24s-.8.17-1.1.5-.46.76-.46 1.3.15.97.46 1.3c.3.33.67.5 1.1.5s.8-.1 1.12-.3v-.25h-.65c-.33 0-.6-.11-.83-.34s-.34-.5-.34-.83.11-.6.34-.83.5-.34.83-.34h2.34c.33 0 .6.11.83.34s.34.5.34.83ZM344.57 66.73c-.43 0-.8-.15-1.1-.46-.3-.3-.46-.67-.46-1.1s.15-.8.46-1.1c.3-.3.67-.46 1.1-.46s.8.15 1.1.46c.3.3.46.67.46 1.1s-.15.8-.46 1.1c-.3.3-.67.46-1.1.46" class="cls-1"></path></g></svg>