<svg xmlns:xlink="http://www.w3.org/1999/xlink"  xmlns="http://www.w3.org/2000/svg" id="te-82ccbabf-1ccef276-baebdef9" data-name="Layer 2" viewBox="0 0 409.17 118.46"><defs><style>.cls-1{fill:#ed1c24}</style></defs><g id="Layer_1-2" data-name="Layer 1"><path d="M5.93 16.8c-2.77-.6-4.58-2.25-5.42-4.95s-.64-5.12.63-7.29C2.37 2.39 4.2.99 6.63.34c2.42-.65 4.72-.35 6.89.88 2.17 1.26 3.58 3.11 4.22 5.53.65 2.42.34 4.72-.93 6.89l-4.92 8.54c-.57.96-1.39 1.59-2.46 1.88s-2.09.14-3.05-.43c-.96-.54-1.59-1.36-1.88-2.44s-.16-2.11.38-3.07l1.04-1.31ZM53.97 33.52c.36-.54.78-1.05 1.27-1.54 1.75-1.75 3.87-2.62 6.37-2.62s4.63.88 6.39 2.64 2.64 3.89 2.64 6.39c0 .66-.06 1.31-.18 1.94-.24 1.75-1.46 3.72-3.66 5.92q-7.95 7.95-19.2 7.95c-11.25 0-13.85-2.64-19.15-7.93S20.5 34.59 20.5 27.09s2.65-13.89 7.95-19.18C33.75 2.64 40.13 0 47.6 0s13.9 2.64 19.2 7.91c2.2 2.23 3.42 4.22 3.66 5.96.12.63.18 1.28.18 1.94q0 3.75-2.64 6.39c-2.64 2.64-3.89 2.64-6.39 2.64s-4.62-.89-6.37-2.67c-.48-.45-.9-.95-1.27-1.49-1.75-1.75-3.87-2.62-6.37-2.62s-4.63.88-6.39 2.64q-2.64 2.64-2.64 6.39c0 3.75.88 4.63 2.64 6.39q2.64 2.64 6.39 2.64c3.75 0 4.62-.87 6.37-2.62ZM90.54 45.17l-1.72 4.16c-1.15 2.2-2.91 3.67-5.29 4.43-2.38.75-4.68.56-6.91-.59-2.2-1.17-3.67-2.95-4.43-5.33-.75-2.38-.56-4.67.59-6.87L91.13 4.88C92.61 1.63 95.3 0 99.22 0s6.66 1.63 8.13 4.88l18.3 36.09q1.755 3.3.63 6.87c-.75 2.38-2.24 4.16-4.47 5.33-2.2 1.14-4.49 1.34-6.87.59s-4.14-2.23-5.29-4.43l-1.72-4.16zm11.75-13.55-3.07-7.32-3.03 7.32zM157.65 34.63c.9-1.01 1.35-2.31 1.35-3.91V9.03q0-3.75 2.64-6.39T168.03 0c3.75 0 4.63.88 6.39 2.64s2.64 3.89 2.64 6.39v22.59c0 6.23-2.21 11.56-6.62 15.97s-10.11 6.62-17.1 6.62-12.69-2.21-17.1-6.62-6.62-9.74-6.62-15.97V9.03q0-3.75 2.64-6.39T138.65 0c3.75 0 4.63.88 6.39 2.64s2.64 3.89 2.64 6.39v21.68c0 1.6.44 2.9 1.33 3.91s2.33 1.51 4.31 1.51 3.39-.5 4.29-1.51ZM184.44 50.89c-2.82-2.21-4.22-4.57-4.22-7.07s.88-4.63 2.64-6.39q2.64-2.64 6.39-2.64c2.29 0 4.01.6 5.15 1.81s2.48 1.84 4.02 1.92 2.42-.3 2.67-1.13c.24-.83-1.42-1.92-4.97-3.28a50 50 0 0 1-10.16-5.29c-3.22-2.17-4.83-5.75-4.83-10.75s1.76-9.26 5.29-12.78C189.94 1.77 194.05 0 198.75 0s8.7 1.03 12.26 3.09c3.57 2.06 5.35 4.34 5.35 6.84s-.88 4.63-2.64 6.39-3.89 2.64-6.39 2.64c-2.29 0-3.85-.53-4.7-1.58-.84-1.05-1.88-1.62-3.12-1.69-1.24-.08-1.97.3-2.21 1.13s1.11 1.85 4.07 3.05c2.95 1.21 6.34 2.89 10.16 5.06s5.74 5.9 5.74 11.2c0 5-1.76 9.26-5.29 12.78s-8.09 5.29-13.69 5.29c-6.41 0-11.03-1.11-13.85-3.32ZM238.47 20.78h6.78c1.75 0 3.16.62 4.25 1.85 1.08 1.23 1.63 2.73 1.63 4.47s-.54 3.24-1.63 4.47c-1.08 1.24-2.5 1.85-4.25 1.85h-6.78v2.26h9.04q3.75 0 6.39 2.64c2.64 2.64 2.64 3.89 2.64 6.39s-.88 4.63-2.64 6.39-3.89 2.64-6.39 2.64h-18.07q-3.75 0-6.39-2.64c-2.64-2.64-2.64-3.89-2.64-6.39V9.49q0-3.75 2.64-6.39t6.39-2.64h18.07q3.75 0 6.39 2.64t2.64 6.39c0 3.75-.88 4.63-2.64 6.39s-3.89 2.64-6.39 2.64h-9.04zM290.38 54.21q-3.75 0-6.39-2.64c-2.64-2.64-2.64-3.89-2.64-6.39V9.03q0-3.75 2.64-6.39C286.63 0 287.88 0 290.38 0s4.63.88 6.39 2.64q2.64 2.64 2.64 6.39v36.14q0 3.75-2.64 6.39t-6.39 2.64ZM338.69.45q3.75 0 6.39 2.64t2.64 6.39c0 3.75-.88 4.63-2.64 6.39q-2.64 2.64-6.39 2.64h-4.52v26.65q0 3.75-2.64 6.39c-2.64 2.64-3.89 2.64-6.39 2.64s-4.63-.88-6.39-2.64-2.64-3.89-2.64-6.39V18.51h-4.52q-3.75 0-6.39-2.64t-2.64-6.39c0-3.75.88-4.63 2.64-6.39s3.89-2.64 6.39-2.64h27.11ZM357.56 16.8c-2.77-.6-4.58-2.25-5.42-4.95s-.63-5.13.63-7.3C354 2.38 355.83.97 358.26.33s4.72-.35 6.89.88c2.17 1.26 3.58 3.11 4.22 5.53.65 2.42.34 4.72-.93 6.89l-4.92 8.54c-.57.96-1.39 1.59-2.46 1.88s-2.08.14-3.05-.43c-.96-.54-1.59-1.36-1.88-2.44s-.16-2.11.38-3.07l1.04-1.31ZM376.35 50.89c-2.82-2.21-4.22-4.57-4.22-7.07s.88-4.63 2.64-6.39 3.89-2.64 6.39-2.64c2.29 0 4 .6 5.15 1.81 1.14 1.21 2.48 1.84 4.02 1.92s2.42-.3 2.67-1.13c.24-.83-1.42-1.92-4.97-3.28-3.55-1.35-6.94-3.12-10.17-5.29-3.22-2.17-4.83-5.75-4.83-10.75s1.76-9.26 5.29-12.78S385.95 0 390.65 0s8.7 1.03 12.26 3.09c3.57 2.06 5.35 4.34 5.35 6.84s-.88 4.63-2.64 6.39-3.89 2.64-6.39 2.64c-2.29 0-3.86-.53-4.7-1.58s-1.88-1.62-3.12-1.69c-1.24-.08-1.97.3-2.21 1.13s1.11 1.85 4.07 3.05c2.95 1.21 6.34 2.89 10.16 5.06s5.74 5.9 5.74 11.2c0 5-1.76 9.26-5.29 12.78s-8.09 5.29-13.69 5.29c-6.42 0-11.03-1.11-13.85-3.32ZM141 64.7q3.75 0 6.39 2.64t2.64 6.39c0 3.75-.88 4.63-2.64 6.39q-2.64 2.64-6.39 2.64h-9.04v2.26h6.78c2.05 0 3.69.62 4.92 1.85s1.85 2.88 1.85 4.92-.62 3.69-1.85 4.92-2.88 1.85-4.92 1.85h-6.78v10.84q0 3.75-2.64 6.39c-2.64 2.64-3.89 2.64-6.39 2.64s-4.63-.88-6.39-2.64q-2.64-2.64-2.64-6.39V73.71q0-3.75 2.64-6.39t6.39-2.64H141ZM171.25 102.24v7.18q0 3.75-2.64 6.39c-2.64 2.64-3.89 2.64-6.39 2.64s-4.63-.88-6.39-2.64q-2.64-2.64-2.64-6.39V73.73q0-3.75 2.64-6.39t6.39-2.64h13.55c5 0 9.26 1.76 12.78 5.29 3.52 3.52 5.29 7.79 5.29 12.78s-1.76 9.26-5.29 12.78q-.585.585-1.17 1.08l5.51 7.36c1.51 1.99 2.08 4.22 1.74 6.69-.35 2.47-1.51 4.46-3.5 5.96-2.02 1.48-4.26 2.04-6.73 1.69s-4.44-1.51-5.92-3.5l-7.23-12.6Zm1.81-15.85c.99 0 1.84-.35 2.55-1.06s1.06-1.56 1.06-2.55-.35-1.84-1.06-2.55-1.56-1.06-2.55-1.06h-1.81v7.23h1.81ZM215.5 85.03h6.78c1.75 0 3.16.62 4.25 1.85 1.08 1.23 1.62 2.73 1.62 4.47s-.54 3.24-1.62 4.47c-1.08 1.24-2.5 1.85-4.25 1.85h-6.78v2.26h9.04q3.75 0 6.39 2.64c2.64 2.64 2.64 3.89 2.64 6.39s-.88 4.63-2.64 6.39-3.89 2.64-6.39 2.64h-18.07q-3.75 0-6.39-2.64t-2.64-6.39V73.72q0-3.75 2.64-6.39t6.39-2.64h18.07q3.75 0 6.39 2.64t2.64 6.39c0 3.75-.88 4.63-2.64 6.39s-3.89 2.64-6.39 2.64h-9.04v2.26ZM254.78 85.03h6.78c1.75 0 3.16.62 4.25 1.85 1.08 1.23 1.63 2.73 1.63 4.47s-.54 3.24-1.63 4.47c-1.08 1.24-2.5 1.85-4.25 1.85h-6.78v2.26h9.04q3.75 0 6.39 2.64c2.64 2.64 2.64 3.89 2.64 6.39s-.88 4.63-2.64 6.39-3.89 2.64-6.39 2.64h-18.07q-3.75 0-6.39-2.64c-2.64-2.64-2.64-3.89-2.64-6.39V73.72q0-3.75 2.64-6.39t6.39-2.64h18.07q3.75 0 6.39 2.64t2.64 6.39c0 3.75-.88 4.63-2.64 6.39s-3.89 2.64-6.39 2.64h-9.04v2.26ZM285.03 98.13q-3.75 0-6.39-2.64C276 92.85 276 91.6 276 89.1V73.29q0-3.75 2.64-6.39c2.64-2.64 3.89-2.64 6.39-2.64s4.63.88 6.39 2.64q2.64 2.64 2.64 6.39V89.1q0 3.75-2.64 6.39t-6.39 2.64m0 20.33q-3.75 0-6.39-2.64c-2.64-2.64-2.64-3.89-2.64-6.39s.88-4.63 2.64-6.39 3.89-2.64 6.39-2.64 4.63.88 6.39 2.64q2.64 2.64 2.64 6.39c0 3.75-.88 4.63-2.64 6.39q-2.64 2.64-6.39 2.64" class="cls-1"></path></g></svg>