<svg xmlns:xlink="http://www.w3.org/1999/xlink"  xmlns="http://www.w3.org/2000/svg" id="te-ee2a4e2b-fc395fdb-ae0bfbae" version="1.1" viewBox="0 0 412.9 317.4"><defs><style>.st0{fill:#ed1c24}</style></defs><g id="Layer_1-2"><path d="M174.6 1.8c2.5 0 4.6.9 6.4 2.6s2.6 3.9 2.6 6.4-.9 4.6-2.6 6.4c-1.8 1.8-3.9 2.6-6.4 2.6h-4.5v26.6c0 2.5-.9 4.6-2.6 6.4s-3.9 2.6-6.4 2.6-4.6-.9-6.4-2.6-2.6-3.9-2.6-6.4V19.8h-4.5c-2.5 0-4.6-.9-6.4-2.6s-2.6-3.9-2.6-6.4.9-4.6 2.6-6.4c1.8-1.8 3.9-2.6 6.4-2.6h27.1ZM204.9 37.1v9.5c0 2.5-.9 4.6-2.6 6.4s-3.9 2.6-6.4 2.6-4.6-.9-6.4-2.6-2.6-3.9-2.6-6.4V10.4c0-2.5.9-4.6 2.6-6.4 1.8-1.8 3.9-2.6 6.4-2.6s4.6.9 6.4 2.6c1.8 1.8 2.6 3.9 2.6 6.4v9.5h11.3v-9.5c0-2.5.9-4.6 2.6-6.4s3.9-2.6 6.4-2.6 4.6.9 6.4 2.6c1.8 1.8 2.6 3.9 2.6 6.4v36.1c0 2.5-.9 4.6-2.6 6.4s-3.9 2.6-6.4 2.6-4.6-.9-6.4-2.6-2.6-3.9-2.6-6.4V37h-11.3ZM255.9 22.2h6.8c1.8 0 3.2.6 4.2 1.9s1.6 2.7 1.6 4.5-.5 3.2-1.6 4.5q-1.65 1.8-4.2 1.8h-6.8v2.3h9c2.5 0 4.6.9 6.4 2.6s2.6 3.9 2.6 6.4-.9 4.6-2.6 6.4-3.9 2.6-6.4 2.6h-18.1c-2.5 0-4.6-.9-6.4-2.6s-2.6-3.9-2.6-6.4V10.9c0-2.5.9-4.6 2.6-6.4 1.8-1.8 3.9-2.6 6.4-2.6h18.1c2.5 0 4.6.9 6.4 2.6 1.8 1.8 2.6 3.9 2.6 6.4s-.9 4.6-2.6 6.4c-1.8 1.8-3.9 2.6-6.4 2.6h-9zM40.5 99.2c.4-.5.8-1.1 1.3-1.5 1.8-1.8 3.9-2.6 6.4-2.6s4.6.9 6.4 2.6 2.6 3.9 2.6 6.4 0 1.3-.2 1.9c-.2 1.8-1.5 3.7-3.7 5.9-5.3 5.3-11.7 7.9-19.2 7.9s-13.9-2.6-19.1-7.9c-5.3-5.3-7.9-11.7-7.9-19.2S9.8 78.8 15 73.5c5.3-5.3 11.7-7.9 19.1-7.9s13.9 2.6 19.2 7.9c2.2 2.2 3.4 4.2 3.7 6 .1.6.2 1.3.2 1.9 0 2.5-.9 4.6-2.6 6.4s-3.9 2.6-6.4 2.6-4.6-.9-6.4-2.7c-.5-.4-.9-.9-1.3-1.5-1.8-1.8-3.9-2.6-6.4-2.6s-4.6.9-6.4 2.6c-1.8 1.8-2.6 3.9-2.6 6.4s.9 4.6 2.6 6.4 3.9 2.6 6.4 2.6 4.6-.9 6.4-2.6ZM85.6 119.8c-7.5 0-13.9-2.6-19.2-7.9s-7.9-11.7-7.9-19.2 2.6-13.9 7.9-19.2 11.7-7.9 19.2-7.9 13.9 2.6 19.2 7.9 7.9 11.7 7.9 19.2-2.6 13.9-7.9 19.2-11.7 7.9-19.2 7.9M92 99.1c1.8-1.8 2.6-3.9 2.6-6.4s-.9-4.6-2.6-6.4-3.9-2.6-6.4-2.6-4.6.9-6.4 2.6-2.6 3.9-2.6 6.4.9 4.6 2.6 6.4 3.9 2.6 6.4 2.6 4.6-.9 6.4-2.6M161.8 65.6c4.3 0 7 1.8 8.2 5.2l8.9 36.8c.8 2.3.7 4.7-.3 6.9-1.1 2.3-2.8 3.8-5.1 4.7-2.4.9-4.6.8-6.9-.3s-3.8-2.8-4.6-5.1l-2.4-15-5.3 15.7c-1.8 3.5-4.6 5.2-8.2 5.2s-6.4-1.8-8.2-5.2l-5.3-15.7-2.4 15c-.8 2.3-2.4 4.1-4.7 5.1-2.3 1.1-4.6 1.1-6.9.3s-4.1-2.4-5.1-4.7q-1.65-3.45-.3-6.9l8.8-36.8c1.2-3.5 3.9-5.2 8.2-5.2s7 1.8 8.2 5.2l7.6 22.5 7.6-22.5c1.2-3.5 3.9-5.2 8.2-5.2M200.5 110.8c0 2.5-.9 4.6-2.6 6.4s-3.9 2.6-6.4 2.6-4.6-.9-6.4-2.6-2.6-3.9-2.6-6.4V75.1c0-2.5.9-4.6 2.6-6.4s3.9-2.6 6.4-2.6h13.6c5 0 9.3 1.8 12.8 5.3s5.3 7.8 5.3 12.8-1.8 9.3-5.3 12.8-7.8 5.3-12.8 5.3h-4.5v8.6Zm1.8-23c1 0 1.8-.3 2.6-1.1s1.1-1.6 1.1-2.6-.4-1.8-1.1-2.6c-.7-.7-1.6-1.1-2.6-1.1h-1.8v7.2h1.8ZM254.2 100.3c.9-1 1.4-2.3 1.4-3.9V74.7c0-2.5.9-4.6 2.6-6.4 1.8-1.8 3.9-2.6 6.4-2.6s4.6.9 6.4 2.6 2.6 3.9 2.6 6.4v22.6c0 6.2-2.2 11.6-6.6 16s-10.1 6.6-17.1 6.6-12.7-2.2-17.1-6.6-6.6-9.7-6.6-16V74.7c0-2.5.9-4.6 2.6-6.4s3.9-2.6 6.4-2.6 4.6.9 6.4 2.6 2.6 3.9 2.6 6.4v21.7c0 1.6.4 2.9 1.3 3.9s2.3 1.5 4.3 1.5 3.4-.5 4.3-1.5ZM312.9 66.1c2.5 0 4.6.9 6.4 2.6s2.6 3.9 2.6 6.4-.9 4.6-2.6 6.4-3.9 2.6-6.4 2.6h-4.5v26.7c0 2.5-.9 4.6-2.6 6.4s-3.9 2.6-6.4 2.6-4.6-.9-6.4-2.6-2.6-3.9-2.6-6.4V84.1h-4.5c-2.5 0-4.6-.9-6.4-2.6s-2.6-3.9-2.6-6.4.9-4.6 2.6-6.4 3.9-2.6 6.4-2.6H313ZM343.2 86.4h6.8q2.7 0 4.2 1.8c1.5 1.8 1.6 2.7 1.6 4.5s-.5 3.2-1.6 4.5Q352.55 99 350 99h-6.8v2.3h9c2.5 0 4.6.9 6.4 2.6s2.6 3.9 2.6 6.4-.9 4.6-2.6 6.4-3.9 2.6-6.4 2.6h-18.1c-2.5 0-4.6-.9-6.4-2.6s-2.6-3.9-2.6-6.4V75.1c0-2.5.9-4.6 2.6-6.4s3.9-2.6 6.4-2.6h18.1c2.5 0 4.6.9 6.4 2.6s2.6 3.9 2.6 6.4-.9 4.6-2.6 6.4-3.9 2.6-6.4 2.6h-9zM382.4 103.6v7.2c0 2.5-.9 4.6-2.6 6.4s-3.9 2.6-6.4 2.6-4.6-.9-6.4-2.6-2.6-3.9-2.6-6.4V75.1c0-2.5.9-4.6 2.6-6.4s3.9-2.6 6.4-2.6h13.5c5 0 9.3 1.8 12.8 5.3s5.3 7.8 5.3 12.8-1.8 9.3-5.3 12.8c-.4.4-.8.8-1.2 1.1l5.5 7.4c1.5 2 2.1 4.2 1.7 6.7s-1.5 4.5-3.5 6-4.3 2-6.7 1.7-4.4-1.5-5.9-3.5l-7.2-12.6Zm1.8-15.8c1 0 1.8-.3 2.5-1.1s1.1-1.6 1.1-2.6-.4-1.8-1.1-2.6c-.7-.7-1.6-1.1-2.5-1.1h-1.8v7.2h1.8ZM147.2 163.4c.4-.5.8-1.1 1.3-1.5 1.8-1.8 3.9-2.6 6.4-2.6s4.6.9 6.4 2.6 2.6 3.9 2.6 6.4 0 1.3-.2 1.9c-.2 1.8-1.5 3.7-3.7 5.9-5.3 5.3-11.7 7.9-19.2 7.9s-13.8-2.6-19.2-7.9-7.9-11.7-7.9-19.2 2.7-13.9 7.9-19.2c5.3-5.3 11.7-7.9 19.2-7.9s13.9 2.6 19.2 7.9c2.2 2.2 3.4 4.2 3.7 6 .1.6.2 1.3.2 1.9 0 2.5-.9 4.6-2.6 6.4s-3.9 2.6-6.4 2.6-4.6-.9-6.4-2.7c-.5-.4-.9-.9-1.3-1.5-1.8-1.8-3.9-2.6-6.4-2.6s-4.6.9-6.4 2.6-2.6 3.9-2.6 6.4.9 4.6 2.6 6.4 3.9 2.6 6.4 2.6 4.6-.9 6.4-2.6ZM183.8 175.1l-1.7 4.2c-1.1 2.2-2.9 3.7-5.3 4.4q-3.6 1.2-6.9-.6c-2.2-1.2-3.7-2.9-4.4-5.3q-1.2-3.6.6-6.9l18.3-36.1c1.5-3.2 4.2-4.9 8.1-4.9s6.7 1.6 8.1 4.9l18.3 36.1q1.8 3.3.6 6.9c-.8 2.4-2.2 4.2-4.5 5.3q-3.3 1.65-6.9.6c-2.4-.8-4.1-2.2-5.3-4.4l-1.7-4.2h-17.4Zm11.7-13.6-3.1-7.3-3 7.3zM226.6 180.8c-2.8-2.2-4.2-4.6-4.2-7.1s.9-4.6 2.6-6.4 3.9-2.6 6.4-2.6 4 .6 5.1 1.8 2.5 1.9 4 1.9 2.4-.3 2.7-1.1c.2-.8-1.4-1.9-5-3.3s-6.9-3.1-10.2-5.3-4.8-5.8-4.8-10.8 1.8-9.3 5.3-12.8 7.6-5.3 12.3-5.3 8.7 1 12.3 3.1 5.3 4.3 5.3 6.8-.9 4.6-2.6 6.4-3.9 2.6-6.4 2.6-3.9-.5-4.7-1.6-1.9-1.6-3.1-1.7c-1.2 0-2 .3-2.2 1.1s1.1 1.9 4.1 3.1q4.35 1.8 10.2 5.1c5.85 3.3 5.7 5.9 5.7 11.2s-1.8 9.3-5.3 12.8-8.1 5.3-13.7 5.3-11-1.1-13.9-3.3ZM280.7 150.7h6.8c1.8 0 3.2.6 4.2 1.9s1.6 2.7 1.6 4.5-.5 3.2-1.6 4.5c-1.1 1.2-2.5 1.9-4.2 1.9h-6.8v2.3h9c2.5 0 4.6.9 6.4 2.6s2.6 3.9 2.6 6.4-.9 4.6-2.6 6.4-3.9 2.6-6.4 2.6h-18.1c-2.5 0-4.6-.9-6.4-2.6s-2.6-3.9-2.6-6.4v-35.2c0-2.5.9-4.6 2.6-6.4s3.9-2.6 6.4-2.6h18.1c2.5 0 4.6.9 6.4 2.6s2.6 3.9 2.6 6.4-.9 4.6-2.6 6.4-3.9 2.6-6.4 2.6h-9v2.3ZM35.8 225v14.3c0 2.5-.9 4.6-2.6 6.4-1.8 1.8-3.9 2.6-6.4 2.6s-4.6-.9-6.4-2.6c-1.8-1.8-2.6-3.9-2.6-6.4v-14.4L4.7 209.5c-1.8-1.8-2.7-3.9-2.7-6.4s.9-4.6 2.7-6.4 3.9-2.7 6.4-2.7 4.6.9 6.4 2.7l9.4 11.7 9.4-11.7c1.8-1.8 3.9-2.7 6.4-2.7s4.6.9 6.4 2.7 2.7 3.9 2.7 6.4-.9 4.6-2.7 6.4l-13.2 15.4ZM77.8 248.3c-7.5 0-13.9-2.6-19.2-7.9s-7.9-11.7-7.9-19.2 2.6-13.9 7.9-19.2 11.7-7.9 19.2-7.9 13.9 2.6 19.2 7.9 7.9 11.7 7.9 19.2-2.6 13.9-7.9 19.2-11.7 7.9-19.2 7.9m6.4-20.7c1.8-1.8 2.6-3.9 2.6-6.4s-.9-4.6-2.6-6.4-3.9-2.6-6.4-2.6-4.6.9-6.4 2.6-2.6 3.9-2.6 6.4.9 4.6 2.6 6.4 3.9 2.6 6.4 2.6 4.6-.9 6.4-2.6M136.1 228.8c.9-1 1.4-2.3 1.4-3.9v-21.7c0-2.5.9-4.6 2.6-6.4s3.9-2.6 6.4-2.6 4.6.9 6.4 2.6 2.6 3.9 2.6 6.4v22.6c0 6.2-2.2 11.6-6.6 16q-6.6 6.6-17.1 6.6c-10.5 0-12.7-2.2-17.1-6.6s-6.6-9.7-6.6-16v-22.6c0-2.5.9-4.6 2.6-6.4s3.9-2.6 6.4-2.6 4.6.9 6.4 2.6 2.6 3.9 2.6 6.4v21.7c0 1.6.4 2.9 1.3 3.9s2.3 1.5 4.3 1.5 3.4-.5 4.3-1.5ZM213.8 227.7c.4-.5.8-1.1 1.3-1.5 1.8-1.8 3.9-2.6 6.4-2.6s4.6.9 6.4 2.6 2.6 3.9 2.6 6.4 0 1.3-.2 1.9c-.2 1.8-1.5 3.7-3.7 5.9-5.3 5.3-11.7 7.9-19.2 7.9s-13.9-2.6-19.1-7.9c-5.3-5.3-7.9-11.7-7.9-19.2s2.6-13.9 7.9-19.2 11.7-7.9 19.1-7.9 13.9 2.6 19.2 7.9c2.2 2.2 3.4 4.2 3.7 6 .1.6.2 1.3.2 1.9 0 2.5-.9 4.6-2.6 6.4s-3.9 2.6-6.4 2.6-4.6-.9-6.4-2.7c-.5-.4-.9-.9-1.3-1.5-1.8-1.8-3.9-2.6-6.4-2.6s-4.6.9-6.4 2.6-2.6 3.9-2.6 6.4.9 4.6 2.6 6.4 3.9 2.6 6.4 2.6 4.6-.9 6.4-2.6ZM250.4 239.3l-1.7 4.2c-1.1 2.2-2.9 3.7-5.3 4.4q-3.6 1.2-6.9-.6c-2.2-1.2-3.7-2.9-4.4-5.3q-1.2-3.6.6-6.9L251 199c1.5-3.2 4.2-4.9 8.1-4.9s6.7 1.6 8.1 4.9l18.3 36.1q1.8 3.3.6 6.9c-1.2 3.6-2.2 4.2-4.5 5.3q-3.3 1.65-6.9.6c-3.6-1.05-4.1-2.2-5.3-4.4l-1.7-4.2h-17.4Zm11.7-13.5-3.1-7.3-3 7.3zM307.5 227.2v12.1c0 2.5-.9 4.6-2.6 6.4s-3.9 2.6-6.4 2.6-4.6-.9-6.4-2.6-2.6-3.9-2.6-6.4v-36.1c0-2.5.9-4.6 2.6-6.4s3.9-2.6 6.4-2.6 4.6.9 6.4 2.6l16.2 18.5v-12.1c0-2.5.9-4.6 2.6-6.4s3.9-2.6 6.4-2.6 4.6.9 6.4 2.6 2.6 3.9 2.6 6.4v36.1c0 2.5-.9 4.6-2.6 6.4s-3.9 2.6-6.4 2.6-4.6-.9-6.4-2.7l-16.2-18.5ZM349.4 210.9c-2.8-.6-4.6-2.2-5.4-4.9s-.6-5.1.6-7.3 3.1-3.6 5.5-4.2 4.7-.4 6.9.9 3.6 3.1 4.2 5.5q.9 3.6-.9 6.9l-4.9 8.5c-.6 1-1.4 1.6-2.5 1.9s-2.1.1-3-.4c-1-.5-1.6-1.4-1.9-2.4s-.2-2.1.4-3.1l1-1.3ZM401.5 194.6c2.5 0 4.6.9 6.4 2.6s2.6 3.9 2.6 6.4-.9 4.6-2.6 6.4-3.9 2.6-6.4 2.6H397v26.6c0 2.5-.9 4.6-2.6 6.4s-3.9 2.6-6.4 2.6-4.6-.9-6.4-2.6-2.6-3.9-2.6-6.4v-26.6h-4.5c-2.5 0-4.6-.9-6.4-2.6s-2.6-3.9-2.6-6.4.9-4.6 2.6-6.4 3.9-2.6 6.4-2.6h27.1ZM163.7 280.4c4.1 4.1 6.2 8.6 6.2 13.6s-1.8 9.3-5.3 12.8-7.8 5.3-12.8 5.3h-13.6c-2.5 0-4.6-.9-6.4-2.6s-2.6-3.9-2.6-6.4v-35.2c0-2.5.9-4.6 2.6-6.4s3.9-2.6 6.4-2.6h12.6c4 0 7.5 1.4 10.3 4.2s4.2 6.3 4.2 10.3-.6 4.9-1.8 7Zm-15-1.7c.7 0 1.3-.3 1.9-.8.6-.6.8-1.2.8-1.9s-.3-1.3-.8-1.9-1.2-.8-1.9-.8h-1.4v5.4zm-1.4 11.8v7.2h1.8c1 0 1.8-.4 2.6-1.1s1.1-1.6 1.1-2.5-.4-1.8-1.1-2.5-1.6-1.1-2.6-1.1zM201.1 293c.9-1 1.4-2.3 1.4-3.9v-21.7c0-2.5.9-4.6 2.6-6.4s3.9-2.6 6.4-2.6 4.6.9 6.4 2.6 2.6 3.9 2.6 6.4V290c0 6.2-2.2 11.6-6.6 16s-10.1 6.6-17.1 6.6-12.7-2.2-17.1-6.6-6.6-9.7-6.6-16v-22.6c0-2.5.9-4.6 2.6-6.4s3.9-2.6 6.4-2.6 4.6.9 6.4 2.6 2.6 3.9 2.6 6.4v21.7c0 1.6.4 2.9 1.3 3.9s2.3 1.5 4.3 1.5 3.4-.5 4.3-1.5ZM257.5 289.2v14.3c0 2.5-.9 4.6-2.6 6.4s-3.9 2.6-6.4 2.6-4.6-.9-6.4-2.6-2.6-3.9-2.6-6.4v-14.4l-13.1-15.4c-1.8-1.8-2.7-3.9-2.7-6.4s.9-4.6 2.7-6.4 3.9-2.7 6.4-2.7 4.6.9 6.4 2.7l9.4 11.7 9.4-11.7c1.8-1.8 3.9-2.7 6.4-2.7s4.6.9 6.4 2.7 2.7 3.9 2.7 6.4-.9 4.6-2.7 6.4l-13.1 15.4ZM274.2 312.6c-2.5 0-4.6-.9-6.4-2.6s-2.6-3.9-2.6-6.4.9-4.6 2.6-6.4 3.9-2.6 6.4-2.6 4.6.9 6.4 2.6 2.6 3.9 2.6 6.4-.9 4.6-2.6 6.4-3.9 2.6-6.4 2.6" class="st0"></path></g></svg>