<svg xmlns:xlink="http://www.w3.org/1999/xlink"  xmlns="http://www.w3.org/2000/svg" id="te-2ee9bc69-c0d9ec2e-4bb7f899" version="1.1" viewBox="0 0 97.4 53.3"><defs><style>.st0{fill:#ed1c24}.st2{fill:#d5d8db}</style></defs><g id="Layer_1-2"><path d="M37.4 52.5c-.4 0-.8-.2-1.1-.4-.3-.3-.5-.6-.5-1.1s.2-.8.5-1.1.7-.4 1.1-.4.8.2 1.1.4c.3.3.5.6.5 1.1s-.2.8-.5 1.1-.7.4-1.1.4M42.9 51c0 .4-.2.8-.5 1.1s-.7.4-1.1.4-.8-.2-1.1-.4c-.3-.3-.5-.6-.5-1.1v-5.9c0-.4.2-.8.5-1.1s.7-.4 1.1-.4h2.3c.9 0 1.6.3 2.2.9q.9.9.9 2.1c0 1.2-.3 1.5-.9 2.1s-1.3.9-2.2.9h-.8V51Zm.3-3.8c.2 0 .3 0 .4-.2s.2-.3.2-.4 0-.3-.2-.4-.3-.2-.4-.2h-.3v1.2zM51.4 43.6c1.3 0 2.4.4 3.3 1.3s1.4 1.9 1.4 3.1-.5 2.2-1.4 3.1-2 1.3-3.3 1.3h-2.3c-.4 0-.8-.2-1.1-.4-.3-.3-.5-.6-.5-1.1v-5.8c0-.4.2-.8.5-1.1s.7-.4 1.1-.4zm0 5.8c.4 0 .8-.1 1.1-.4s.5-.6.5-1-.2-.8-.5-1c-.3-.3-.7-.4-1.1-.4h-.8v2.8zM61.4 43.6c.4 0 .8.2 1.1.4.3.3.5.6.5 1.1s-.2.8-.5 1.1-.7.4-1.1.4h-1.6v.4H61c.3 0 .6 0 .8.3.2.2.3.5.3.8s-.1.6-.3.8-.5.3-.8.3h-1.2V51c0 .4-.2.8-.5 1.1s-.7.4-1.1.4-.8-.2-1.1-.4c-.3-.3-.5-.6-.5-1.1v-5.9c0-.4.2-.8.5-1.1s.7-.4 1.1-.4h3.1Z" class="st0"></path><rect width="95.1" height="30.6" x="1.8" y="1.4" rx="13.9" ry="13.9" style="fill:#f2f2f2"></rect><path d="M26.1 15.2c1.4 1.3 2.1 2.8 2.1 4.4s-.6 3-1.8 4.1-2.6 1.7-4.3 1.7h-4.5c-.8 0-1.6-.3-2.1-.9s-.9-1.2-.9-2V11.2q0-1.2.9-2.1c.6-.6 1.3-.8 2.1-.8h4.2c1.4 0 2.5.5 3.5 1.4s1.4 2 1.4 3.3-.2 1.6-.6 2.3Zm-5-.5c.2 0 .4 0 .6-.3s.3-.4.3-.6 0-.4-.3-.6-.4-.3-.6-.3h-.5v1.7h.5Zm-.5 3.8v2.3h.6q.45 0 .9-.3c.2-.2.4-.5.4-.8s-.1-.6-.4-.8-.5-.3-.9-.3h-.6ZM38.9 19.3c.3-.3.5-.7.5-1.3v-7q0-1.2.9-2.1c.6-.6 1.3-.8 2.1-.8s1.5.3 2.1.8.9 1.2.9 2.1v7.3c0 2-.7 3.7-2.2 5.1q-2.25 2.1-5.7 2.1c-3.45 0-4.2-.7-5.7-2.1s-2.2-3.1-2.2-5.1V11q0-1.2.9-2.1c.6-.6 1.3-.8 2.1-.8s1.6.3 2.1.8.9 1.2.9 2.1v7c0 .5.2.9.5 1.3.3.3.8.5 1.4.5s1.1-.2 1.4-.5M50 25.6q-1.2 0-2.1-.9c-.9-.9-.9-1.2-.9-2V11.1q0-1.2.9-2.1c.6-.6 1.3-.8 2.1-.8s1.5.3 2.1.8.9 1.2.9 2.1v11.6c0 .8-.3 1.5-.9 2q-.9.9-2.1.9M57.5 25.4q-1.2 0-2.1-.9c-.9-.9-.9-1.2-.9-2V11q0-1.2.9-2.1c.6-.6 1.3-.8 2.1-.8s1.5.3 2.1.8.9 1.2.9 2.1v8.6h3q1.2 0 2.1.9c.9.9.9 1.2.9 2s-.3 1.5-.9 2q-.9.9-2.1.9h-6.1ZM75.5 8.3c2.5 0 4.7.8 6.4 2.5s2.7 3.7 2.7 6-.9 4.3-2.7 6-3.9 2.5-6.4 2.5H71c-.8 0-1.6-.3-2.1-.9s-.9-1.2-.9-2V11.1q0-1.2.9-2.1c.6-.6 1.3-.8 2.1-.8h4.5Zm0 11.3c.8 0 1.6-.3 2.1-.8s.9-1.2.9-2-.3-1.5-.9-2-1.3-.8-2.1-.8H74v5.5h1.5Z" class="st2"></path></g></svg>