<svg xmlns:xlink="http://www.w3.org/1999/xlink"  xmlns="http://www.w3.org/2000/svg" id="te-d6e4de30-72744ea7-e624af92" data-name="Layer 2" viewBox="0 0 95.75 55.47"><defs><style>.cls-1{fill:#ed1c24}.cls-2{fill:#d5d8db}</style></defs><g id="Layer_1-2" data-name="Layer 1"><path d="M4.29 52.48c.17.1.41.27.71.51s.46.57.46.98-.15.77-.46 1.06c-.3.29-.67.44-1.1.44-.77 0-1.61-.56-2.53-1.69C.45 52.66 0 51.22 0 49.48s.46-3.17 1.37-4.3c.91-1.12 1.76-1.69 2.53-1.69.43 0 .8.15 1.1.44s.46.64.46 1.06-.15.74-.46.98c-.3.24-.54.41-.71.51-.78.58-1.17 1.58-1.17 2.99s.39 2.41 1.17 2.99ZM9.2 45.08c.43 0 .8.15 1.1.44s.46.64.46 1.06v5.91c0 .41-.15.77-.46 1.06-.3.29-.67.44-1.1.44s-.8-.15-1.1-.44-.46-.64-.46-1.06v-4.41c-.43 0-.8-.15-1.1-.44s-.46-.64-.46-1.06.15-.77.46-1.06c.3-.29.67-.44 1.1-.44zM18.56 52.48c0 .41-.15.77-.46 1.06-.3.29-.67.44-1.1.44s-.8-.15-1.1-.44-.46-.64-.46-1.06v-5.91c0-.41.15-.77.46-1.06.3-.29.67-.44 1.1-.44h2.34c.86 0 1.6.29 2.21.88.61.58.91 1.29.91 2.12s-.3 1.53-.91 2.12c-.61.58-1.34.88-2.21.88h-.78v1.42Zm.31-3.81c.17 0 .32-.06.44-.18s.18-.26.18-.42-.06-.31-.18-.42-.27-.18-.44-.18h-.31v1.2zM26.28 48.44h1.17c.3 0 .55.1.73.31.19.2.28.45.28.74s-.09.54-.28.74-.43.31-.73.31h-1.17v.37h1.56c.43 0 .8.15 1.1.44s.46.64.46 1.06-.15.77-.46 1.06-.67.44-1.1.44h-3.12c-.43 0-.8-.15-1.1-.44s-.46-.64-.46-1.06v-5.83c0-.41.15-.77.46-1.06.3-.29.67-.44 1.1-.44h3.12c.43 0 .8.15 1.1.44s.46.64.46 1.06-.15.77-.46 1.06-.67.44-1.1.44h-1.56v.37ZM33.22 51.29v1.19c0 .41-.15.77-.46 1.06-.3.29-.67.44-1.1.44s-.8-.15-1.1-.44-.46-.64-.46-1.06v-5.91c0-.41.15-.77.46-1.06.3-.29.67-.44 1.1-.44H34c.86 0 1.6.29 2.21.88.61.58.91 1.29.91 2.12s-.3 1.53-.91 2.12c-.07.06-.14.12-.2.18l.95 1.22q.39.495.3 1.11t-.6.99c-.35.24-.74.34-1.16.28-.43-.06-.77-.25-1.02-.58l-1.25-2.09Zm.31-2.62c.17 0 .32-.06.44-.18s.18-.26.18-.42-.06-.31-.18-.42-.27-.18-.44-.18h-.31v1.2zM44.91 52.48c0 .41-.15.77-.46 1.06-.3.29-.67.44-1.1.44s-.8-.15-1.1-.44-.46-.64-.46-1.06v-5.91c0-.41.15-.77.46-1.06.3-.29.67-.44 1.1-.44h2.34c.86 0 1.6.29 2.21.88.61.58.91 1.29.91 2.12s-.3 1.53-.91 2.12c-.61.58-1.34.88-2.21.88h-.78v1.42Zm.31-3.81c.17 0 .32-.06.44-.18s.18-.26.18-.42-.06-.31-.18-.42-.27-.18-.44-.18h-.31v1.2zM52.63 48.44h1.17c.3 0 .54.1.73.31.19.2.28.45.28.74s-.09.54-.28.74-.43.31-.73.31h-1.17v.37h1.56c.43 0 .8.15 1.1.44s.46.64.46 1.06-.15.77-.46 1.06-.67.44-1.1.44h-3.12c-.43 0-.8-.15-1.1-.44s-.46-.64-.46-1.06v-5.83c0-.41.15-.77.46-1.06.3-.29.67-.44 1.1-.44h3.12c.43 0 .8.15 1.1.44s.46.64.46 1.06-.15.77-.46 1.06-.67.44-1.1.44h-1.56v.37ZM59.57 51.29v1.19c0 .41-.15.77-.46 1.06-.3.29-.67.44-1.1.44s-.8-.15-1.1-.44-.46-.64-.46-1.06v-5.91c0-.41.15-.77.46-1.06.3-.29.67-.44 1.1-.44h2.34c.86 0 1.6.29 2.21.88.61.58.91 1.29.91 2.12s-.3 1.53-.91 2.12c-.07.06-.14.12-.2.18l.95 1.22q.39.495.3 1.11t-.6.99c-.35.24-.74.34-1.16.28-.43-.06-.77-.25-1.02-.58l-1.25-2.09Zm.31-2.62c.17 0 .32-.06.44-.18s.18-.26.18-.42-.06-.31-.18-.42-.27-.18-.44-.18h-.31v1.2zM64.9 53.43c-.49-.37-.73-.76-.73-1.17s.15-.77.46-1.06c.3-.29.67-.44 1.1-.44.4 0 .69.1.89.3s.43.31.69.32.42-.05.46-.19-.24-.32-.86-.54-1.2-.52-1.75-.88c-.56-.36-.83-.95-.83-1.78s.3-1.53.91-2.12 1.32-.88 2.13-.88 1.5.17 2.12.51.92.72.92 1.13-.15.77-.46 1.06c-.3.29-.67.44-1.1.44-.4 0-.67-.09-.81-.26a.76.76 0 0 0-.54-.28c-.21-.01-.34.05-.38.19s.19.3.7.5 1.09.48 1.75.84.99.98.99 1.85c0 .83-.3 1.53-.91 2.12-.61.58-1.4.88-2.36.88-1.11 0-1.9-.18-2.39-.55ZM75.63 53.98c-1.29 0-2.4-.44-3.31-1.31-.91-.88-1.37-1.93-1.37-3.17s.46-2.3 1.37-3.17c.91-.88 2.02-1.31 3.31-1.31s2.4.44 3.31 1.31 1.37 1.93 1.37 3.17-.46 2.3-1.37 3.17-2.02 1.31-3.31 1.31m1.11-3.43c.3-.29.46-.64.46-1.06s-.15-.77-.46-1.06c-.3-.29-.67-.44-1.1-.44s-.8.15-1.1.44-.46.64-.46 1.06.15.77.46 1.06c.3.29.67.44 1.1.44s.8-.15 1.1-.44M84.13 50.48v2c0 .41-.15.77-.46 1.06-.3.29-.67.44-1.1.44s-.8-.15-1.1-.44-.46-.64-.46-1.06V46.5c0-.41.15-.77.46-1.06.3-.29.67-.44 1.1-.44s.8.14 1.11.43l2.79 3.06v-2c0-.41.15-.77.46-1.06.3-.29.67-.44 1.1-.44s.8.15 1.1.44.46.64.46 1.06v5.98c0 .41-.15.77-.46 1.06-.3.29-.67.44-1.1.44s-.8-.15-1.1-.44l-2.8-3.06ZM92.63 49.49c0-1.41-.39-2.41-1.17-2.99-.17-.1-.41-.27-.71-.51s-.46-.57-.46-.98.15-.77.46-1.06c.3-.29.67-.44 1.1-.44.77 0 1.61.56 2.53 1.69.92 1.12 1.37 2.56 1.37 4.3s-.46 3.17-1.37 4.3-1.76 1.69-2.53 1.69c-.43 0-.8-.15-1.1-.44s-.46-.64-.46-1.06.15-.74.46-.98c.3-.24.54-.41.71-.51.78-.58 1.17-1.58 1.17-2.99Z" class="cls-1"></path><rect width="95.11" height="30.62" x=".32" class="cls-1" rx="13.91" ry="13.91"></rect><path d="M39.45 15.87v3.48c-.12.98-.55 1.82-1.29 2.53-1.78 1.7-3.92 2.55-6.43 2.55s-4.64-.85-6.42-2.55-2.66-3.75-2.66-6.16.89-4.46 2.66-6.16c1.78-1.7 3.91-2.55 6.42-2.55s4.35.51 5.52 1.52q1.11.93 1.29 2.1c0 .8-.19 1.44-.58 1.91s-1 .7-1.84.7-1.55-.14-2.13-.42q-1.005-.45-2.25-.45c-1.245 0-1.55.31-2.14.92-.59.62-.89 1.42-.89 2.42s.29 1.8.89 2.42c.59.61 1.3.92 2.14.92s1.56-.18 2.16-.55v-.46h-1.26c-.64 0-1.17-.21-1.61-.63s-.66-.94-.66-1.55.22-1.12.66-1.55.98-.63 1.61-.63h4.54c.64 0 1.17.21 1.61.63s.66.94.66 1.55ZM47.02 13.69h2.27c.59 0 1.06.2 1.42.6s.54.88.54 1.44-.18 1.04-.54 1.44-.84.6-1.42.6h-2.27v.73h3.03c.84 0 1.55.28 2.14.85s.89 1.25.89 2.05-.3 1.49-.89 2.05c-.59.57-1.3.85-2.14.85H44c-.84 0-1.55-.28-2.14-.85s-.89-1.25-.89-2.05V10.08c0-.8.29-1.49.89-2.05.59-.57 1.3-.85 2.14-.85h6.05c.84 0 1.55.28 2.14.85s.89 1.25.89 2.05-.3 1.49-.89 2.05c-.59.57-1.3.85-2.14.85h-3.03v.73ZM66.39 7.16c.84 0 1.55.28 2.14.85s.89 1.25.89 2.05-.29 1.49-.89 2.05c-.59.57-1.3.85-2.14.85h-1.51v8.56c0 .8-.29 1.49-.88 2.05-.59.57-1.3.85-2.14.85s-1.55-.28-2.14-.85-.88-1.25-.88-2.05v-8.56h-1.51c-.84 0-1.55-.28-2.14-.85s-.88-1.25-.88-2.05.29-1.49.88-2.05c.59-.57 1.3-.85 2.14-.85h9.08Z" class="cls-2"></path></g></svg>