<svg xmlns:xlink="http://www.w3.org/1999/xlink"  xmlns="http://www.w3.org/2000/svg" id="te-8324261b-929bab4a-45b671a8" data-name="Layer 2" viewBox="0 0 448.17 23.52"><defs><style>.cls-1{fill:#ed1c24}.cls-2{fill:#fff}</style></defs><g id="Layer_1-2" data-name="Layer 1"><path d="M7.15 0c.62 0 1.02.25 1.19.76L9.63 6.1c.12.34.11.67-.04 1s-.4.55-.74.67c-.34.13-.67.11-1-.04s-.55-.4-.67-.74l-.35-2.17-.77 2.28c-.26.51-.66.76-1.19.76s-.93-.25-1.19-.76l-.77-2.28-.35 2.17c-.12.34-.35.59-.67.74-.33.15-.66.17-1 .04C.55 7.65.3 7.42.15 7.1c-.15-.33-.17-.66-.04-1L1.37.76C1.55.25 1.94 0 2.56 0s1.02.25 1.19.76l1.1 3.26L5.95.76C6.13.25 6.53 0 7.15 0M13.75 7.86c-1.09 0-2.01-.38-2.78-1.15S9.82 5.02 9.82 3.93s.38-2.01 1.15-2.78C11.73.38 12.66 0 13.75 0s2.01.38 2.78 1.15 1.15 1.69 1.15 2.78-.38 2.01-1.15 2.78-1.69 1.15-2.78 1.15m.92-3c.25-.26.38-.56.38-.93s-.13-.67-.38-.93c-.26-.25-.57-.38-.93-.38s-.67.13-.93.38c-.26.26-.38.56-.38.93s.13.67.38.93.56.38.93.38.67-.13.93-.38M20.89 5.51v1.04c0 .36-.13.67-.38.93s-.56.38-.93.38-.67-.13-.93-.38-.38-.56-.38-.93V1.38c0-.36.13-.67.38-.93.26-.26.56-.38.93-.38h1.97c.72 0 1.34.25 1.85.77.51.51.77 1.13.77 1.85s-.25 1.34-.77 1.85c-.06.06-.11.11-.17.16l.8 1.07c.22.29.3.61.25.97s-.22.65-.51.86-.62.3-.98.25-.64-.22-.86-.51l-1.05-1.83Zm.26-2.3a.514.514 0 0 0 .52-.52.514.514 0 0 0-.52-.52h-.26v1.05h.26ZM27.44 3.01h.98c.25 0 .46.09.62.27s.24.4.24.65-.08.47-.24.65-.36.27-.62.27h-.98v.33h1.31c.36 0 .67.13.93.38s.38.56.38.93-.13.67-.38.93-.56.38-.93.38h-2.62a1.3 1.3 0 0 1-.93-.38c-.26-.25-.38-.56-.38-.93V1.38c0-.36.13-.67.38-.93s.56-.38.93-.38h2.62a1.3 1.3 0 0 1 1.31 1.31c0 .37-.13.67-.38.93-.26.25-.56.38-.93.38h-1.31v.33Z" class="cls-1"></path><path d="M37.85.07a1.3 1.3 0 0 1 1.31 1.31c0 .37-.13.67-.38.93-.26.25-.56.38-.93.38h-1.31v.33h.98c.3 0 .54.09.71.27s.27.42.27.71-.09.54-.27.71c-.18.18-.42.27-.71.27h-.98v1.57c0 .36-.13.67-.38.93s-.56.38-.93.38-.67-.13-.93-.38-.38-.56-.38-.93V1.38c0-.36.13-.67.38-.93s.56-.38.93-.38zM41.06 7.8c-.36 0-.67-.13-.93-.38s-.38-.56-.38-.93V1.31c0-.36.13-.67.38-.93.26-.26.56-.38.93-.38s.67.13.93.38c.25.26.38.56.38.93v3.87h1.31c.36 0 .67.13.93.38s.38.56.38.93-.13.67-.38.93-.56.38-.93.38zM46.9 7.86c-.36 0-.67-.13-.93-.38s-.38-.56-.38-.93V1.31c0-.36.13-.67.38-.93.26-.26.56-.38.93-.38s.67.13.93.38c.25.26.38.56.38.93v5.24c0 .36-.13.67-.38.93s-.56.38-.93.38M51.48 6.55c0 .36-.13.67-.38.93s-.56.38-.93.38-.67-.13-.93-.38-.38-.56-.38-.93V1.38c0-.36.13-.67.38-.93.26-.26.56-.38.93-.38h1.97c.72 0 1.34.25 1.85.77.51.51.77 1.13.77 1.85s-.25 1.34-.77 1.85c-.51.51-1.13.77-1.85.77h-.66v1.25Zm.26-3.34a.514.514 0 0 0 .52-.52.514.514 0 0 0-.52-.52h-.26v1.05h.26ZM57.97 6.55c0 .36-.13.67-.38.93s-.56.38-.93.38-.67-.13-.93-.38-.38-.56-.38-.93V1.38c0-.36.13-.67.38-.93.26-.26.56-.38.93-.38h1.97c.72 0 1.34.25 1.85.77.51.51.77 1.13.77 1.85s-.25 1.34-.77 1.85c-.51.51-1.13.77-1.85.77h-.66v1.25Zm.26-3.34a.514.514 0 0 0 .52-.52.514.514 0 0 0-.52-.52h-.26v1.05h.26ZM64.45 3.01h.98c.25 0 .46.09.62.27s.24.4.24.65-.08.47-.24.65-.36.27-.62.27h-.98v.33h1.31c.36 0 .67.13.93.38s.38.56.38.93-.13.67-.38.93-.56.38-.93.38h-2.62a1.3 1.3 0 0 1-.93-.38c-.26-.25-.38-.56-.38-.93V1.38c0-.36.13-.67.38-.93s.56-.38.93-.38h2.62a1.3 1.3 0 0 1 1.31 1.31c0 .37-.13.67-.38.93-.26.25-.56.38-.93.38h-1.31v.33ZM70.94.07c1.09 0 2.01.38 2.78 1.15s1.15 1.67 1.15 2.72-.38 1.95-1.15 2.71-1.69 1.15-2.78 1.15h-1.97c-.36 0-.67-.13-.93-.38s-.38-.56-.38-.93V1.38c0-.36.13-.67.38-.93.26-.26.56-.38.93-.38zm0 5.11c.36 0 .67-.12.93-.35s.38-.53.38-.89-.13-.66-.38-.89-.56-.35-.93-.35h-.66v2.49h.66ZM82.6 7.86c-1.09 0-2.01-.38-2.78-1.15s-1.15-1.69-1.15-2.78.38-2.01 1.15-2.78S81.51 0 82.6 0s2.01.38 2.78 1.15 1.15 1.69 1.15 2.78-.38 2.01-1.15 2.78-1.69 1.15-2.78 1.15m.93-3c.25-.26.38-.56.38-.93s-.13-.67-.38-.93c-.26-.25-.57-.38-.93-.38s-.67.13-.93.38c-.26.26-.38.56-.38.93s.13.67.38.93.56.38.93.38.67-.13.93-.38M91.18 5.02c.13-.15.2-.34.2-.57V1.31c0-.36.13-.67.38-.93s.56-.38.93-.38.67.13.93.38c.26.26.38.56.38.93v3.28c0 .9-.32 1.68-.96 2.32s-1.47.96-2.48.96-1.84-.32-2.48-.96-.96-1.41-.96-2.32V1.31c0-.36.13-.67.38-.93.26-.26.56-.38.93-.38s.67.13.93.38c.25.26.38.56.38.93v3.14c0 .23.06.42.19.57s.34.22.63.22.49-.07.62-.22M99.83.07c.36 0 .67.13.93.38.26.26.38.56.38.93s-.13.67-.38.93-.56.38-.93.38h-.66v3.87c0 .36-.13.67-.38.93s-.56.38-.93.38-.67-.13-.93-.38-.38-.56-.38-.93V2.69h-.66c-.36 0-.67-.13-.93-.38s-.38-.56-.38-.93.13-.67.38-.93.56-.38.93-.38h3.93ZM105.98 2.44c-.4-.09-.66-.33-.79-.72-.12-.39-.09-.74.09-1.06.18-.31.44-.52.8-.61s.68-.05 1 .13c.31.18.52.45.61.8s.05.68-.13 1l-.71 1.24q-.12.21-.36.27c-.16.04-.3.02-.44-.06a.56.56 0 0 1-.27-.35.6.6 0 0 1 .06-.45l.15-.19ZM112.09 5.18h.79c.36 0 .67.13.93.38s.38.56.38.93-.13.67-.38.93-.56.38-.93.38h-3.01c-.37 0-.67-.09-.92-.26-.29-.22-.46-.51-.51-.86-.05-.36.03-.68.25-.97 1.98-1.62 2.98-2.53 3-2.75s-.1-.33-.38-.33-.43.13-.46.38q-.075.255-.18.48-.39.39-.93.39c-.54 0-.67-.13-.93-.38-.26-.26-.38-.56-.38-.93 0-.14 0-.28.03-.41.04-.25.21-.58.54-1 .75-.78 1.52-1.16 2.3-1.16s1.44.22 1.99.66.83 1.05.83 1.83-.28 1.38-.83 1.79c-.29.29-.69.58-1.21.89ZM117.42 2.59c1.11-.01 1.87.15 2.27.48.55.48.83 1.12.83 1.93s-.27 1.47-.81 2.03-1.25.84-2.14.84c-1.02 0-1.75-.2-2.2-.59-.45-.4-.67-.79-.67-1.19s.14-.74.42-1.02q.42-.42 1.02-.42c.37 0 .64.12.82.35s.4.35.67.34.42-.17.46-.47c0-.29-.21-.44-.61-.44q-1.275.045-1.53 0c-.36-.06-.64-.24-.85-.54s-.28-.62-.21-.98l.22-1.75q.09-.48.45-.78c.21-.21.48-.31.83-.31h2.88c.36 0 .65.11.86.32s.32.48.32.8-.11.58-.32.8-.5.32-.86.32h-1.81l-.03.29Z" class="cls-2"></path><path d="M128.26 7.86c-1.09 0-2.01-.38-2.78-1.15s-1.15-1.69-1.15-2.78.38-2.01 1.15-2.78c.76-.77 1.69-1.15 2.78-1.15s2.01.38 2.78 1.15 1.15 1.69 1.15 2.78-.38 2.01-1.15 2.78-1.69 1.15-2.78 1.15m.93-3c.25-.26.38-.56.38-.93s-.13-.67-.38-.93c-.26-.25-.57-.38-.93-.38s-.67.13-.93.38c-.26.26-.38.56-.38.93s.13.67.38.93.56.38.93.38.67-.13.93-.38M136.71.07a1.3 1.3 0 0 1 1.31 1.31c0 .37-.13.67-.38.93-.26.25-.56.38-.93.38h-1.31v.33h.98c.3 0 .54.09.71.27s.27.42.27.71-.09.54-.27.71c-.18.18-.42.27-.71.27h-.98v1.57c0 .36-.13.67-.38.93s-.56.38-.93.38-.67-.13-.93-.38-.38-.56-.38-.93V1.38c0-.36.13-.67.38-.93s.56-.38.93-.38zM142.54.07c.36 0 .67.13.93.38.26.26.38.56.38.93s-.13.67-.38.93-.56.38-.93.38h-1.31v.33h.98c.3 0 .54.09.71.27.18.18.27.42.27.71s-.09.54-.27.71c-.18.18-.42.27-.71.27h-.98v1.57c0 .36-.13.67-.38.93s-.56.38-.93.38-.67-.13-.93-.38-.38-.56-.38-.93V1.38c0-.36.13-.67.38-.93.26-.26.56-.38.93-.38zM147.06 3.01h.98c.25 0 .46.09.62.27s.24.4.24.65-.08.47-.24.65-.36.27-.62.27h-.98v.33h1.31c.36 0 .67.13.93.38s.38.56.38.93-.13.67-.38.93-.56.38-.93.38h-2.62c-.36 0-.67-.13-.93-.38s-.38-.56-.38-.93V1.38c0-.36.13-.67.38-.93.26-.26.56-.38.93-.38h2.62c.36 0 .67.13.93.38.26.26.38.56.38.93s-.13.67-.38.93-.56.38-.93.38h-1.31v.33ZM152.89 5.51v1.04c0 .36-.13.67-.38.93s-.56.38-.93.38-.67-.13-.93-.38-.38-.56-.38-.93V1.38c0-.36.13-.67.38-.93s.56-.38.93-.38h1.97c.72 0 1.34.25 1.85.77.51.51.77 1.13.77 1.85s-.26 1.34-.77 1.85c-.06.06-.11.11-.17.16l.8 1.07c.22.29.3.61.25.97s-.22.65-.51.86-.62.3-.98.25-.64-.22-.86-.51l-1.05-1.83Zm.26-2.3a.514.514 0 0 0 .52-.52.514.514 0 0 0-.52-.52h-.26v1.05h.26ZM157.37 7.38c-.41-.32-.61-.66-.61-1.03s.13-.67.38-.93c.26-.26.56-.38.93-.38.33 0 .58.09.75.26s.36.27.58.28.35-.04.39-.16-.21-.28-.72-.48c-.52-.2-1.01-.45-1.47-.77-.47-.31-.7-.83-.7-1.56s.25-1.34.77-1.85 1.09-.76 1.77-.76 1.26.15 1.78.45.78.63.78.99a1.3 1.3 0 0 1-1.31 1.31c-.33 0-.56-.08-.68-.23a.65.65 0 0 0-.45-.25c-.18-.01-.29.04-.32.16s.16.27.59.44.92.42 1.47.73.83.86.83 1.62c0 .73-.26 1.34-.77 1.85s-1.17.77-1.99.77q-1.395 0-2.01-.48ZM171.73 7.1l-.71-1.95-.71 1.95c-.17.51-.57.76-1.19.76s-1.02-.25-1.19-.76l-1.94-5.34c-.13-.34-.11-.67.04-1s.4-.55.74-.67c.34-.13.67-.11 1 .04s.55.4.67.74l.67 1.85.71-1.95c.26-.51.66-.76 1.19-.76s.93.25 1.19.76l.71 1.95.67-1.85c.12-.34.35-.59.67-.74.33-.15.66-.17 1-.04.34.12.59.35.74.67.15.33.17.66.05 1l-1.95 5.34c-.17.51-.57.76-1.19.76s-1.02-.25-1.19-.76ZM178.01 7.86c-.36 0-.67-.13-.93-.38s-.38-.56-.38-.93V1.31c0-.36.13-.67.38-.93.26-.26.56-.38.93-.38s.67.13.93.38c.25.26.38.56.38.93v5.24c0 .36-.13.67-.38.93s-.56.38-.93.38M181.29 7.8a1.3 1.3 0 0 1-.93-.38c-.26-.25-.38-.56-.38-.93V1.31c0-.36.13-.67.38-.93s.56-.38.93-.38.67.13.93.38c.26.26.38.56.38.93v3.87h1.31c.36 0 .67.13.93.38s.38.56.38.93-.13.67-.38.93-.56.38-.93.38zM187.12 7.8a1.3 1.3 0 0 1-.93-.38c-.26-.25-.38-.56-.38-.93V1.31c0-.36.13-.67.38-.93s.56-.38.93-.38.67.13.93.38c.26.26.38.56.38.93v3.87h1.31c.36 0 .67.13.93.38s.38.56.38.93-.13.67-.38.93-.56.38-.93.38zM199.91 3.2q.9.885.9 1.98c0 1.095-.26 1.34-.77 1.85s-1.13.77-1.85.77h-1.97a1.3 1.3 0 0 1-.93-.38c-.26-.25-.38-.56-.38-.93V1.38c0-.36.13-.67.38-.93s.56-.38.93-.38h1.83c.59 0 1.08.21 1.49.62s.62.91.62 1.49c0 .38-.09.72-.26 1.02Zm-2.18-.25q.15 0 .27-.12t.12-.27c0-.15-.04-.19-.12-.27s-.17-.12-.27-.12h-.2v.79h.2Zm-.2 1.7V5.7h.26a.514.514 0 0 0 .52-.52.514.514 0 0 0-.52-.52h-.26ZM204.02 3.01h.98c.25 0 .46.09.62.27s.24.4.24.65-.08.47-.24.65-.36.27-.62.27h-.98v.33h1.31c.36 0 .67.13.93.38s.38.56.38.93-.13.67-.38.93-.56.38-.93.38h-2.62c-.36 0-.67-.13-.93-.38s-.38-.56-.38-.93V1.38c0-.36.13-.67.38-.93.26-.26.56-.38.93-.38h2.62c.36 0 .67.13.93.38.26.26.38.56.38.93s-.13.67-.38.93-.56.38-.93.38h-1.31v.33ZM213.13 6.55c0 .36-.13.67-.38.93s-.56.38-.93.38-.67-.13-.93-.38-.38-.56-.38-.93V1.38c0-.36.13-.67.38-.93.26-.26.56-.38.93-.38h1.97c.72 0 1.34.25 1.85.77.51.51.77 1.13.77 1.85s-.25 1.34-.77 1.85c-.51.51-1.13.77-1.85.77h-.66v1.25Zm.26-3.34a.514.514 0 0 0 .52-.52.514.514 0 0 0-.52-.52h-.26v1.05h.26ZM219.61 5.51v1.04c0 .36-.13.67-.38.93s-.56.38-.93.38-.67-.13-.93-.38-.38-.56-.38-.93V1.38c0-.36.13-.67.38-.93s.56-.38.93-.38h1.97c.72 0 1.34.25 1.85.77.51.51.77 1.13.77 1.85s-.26 1.34-.77 1.85c-.06.06-.11.11-.17.16l.8 1.07c.22.29.3.61.25.97s-.22.65-.51.86-.62.3-.98.25-.64-.22-.86-.51l-1.05-1.83Zm.26-2.3a.514.514 0 0 0 .52-.52.514.514 0 0 0-.52-.52h-.26v1.05h.26ZM226.16 3.01h.98c.25 0 .46.09.62.27s.24.4.24.65-.08.47-.24.65-.36.27-.62.27h-.98v.33h1.31c.36 0 .67.13.93.38s.38.56.38.93-.13.67-.38.93-.56.38-.93.38h-2.62c-.36 0-.67-.13-.93-.38s-.38-.56-.38-.93V1.38c0-.36.13-.67.38-.93.26-.26.56-.38.93-.38h2.62c.36 0 .67.13.93.38.26.26.38.56.38.93s-.13.67-.38.93-.56.38-.93.38h-1.31v.33ZM229.92 7.38c-.41-.32-.61-.66-.61-1.03s.13-.67.38-.93c.26-.26.56-.38.93-.38.33 0 .58.09.75.26s.36.27.58.28.35-.04.39-.16-.21-.28-.72-.48c-.52-.2-1.01-.45-1.47-.77-.47-.31-.7-.83-.7-1.56s.25-1.34.77-1.85 1.09-.76 1.77-.76 1.26.15 1.78.45.78.63.78.99a1.3 1.3 0 0 1-1.31 1.31c-.33 0-.56-.08-.68-.23a.65.65 0 0 0-.45-.25c-.18-.01-.29.04-.32.16s.16.27.59.44.92.42 1.47.73.83.86.83 1.62c0 .73-.26 1.34-.77 1.85s-1.17.77-1.99.77q-1.395 0-2.01-.48ZM237.89 3.01h.98c.25 0 .46.09.62.27s.24.4.24.65-.08.47-.24.65-.36.27-.62.27h-.98v.33h1.31c.36 0 .67.13.93.38s.38.56.38.93-.13.67-.38.93-.56.38-.93.38h-2.62a1.3 1.3 0 0 1-.93-.38c-.26-.25-.38-.56-.38-.93V1.38c0-.36.13-.67.38-.93s.56-.38.93-.38h2.62a1.3 1.3 0 0 1 1.31 1.31c0 .37-.13.67-.38.93-.26.25-.56.38-.93.38h-1.31v.33ZM243.72 4.8v1.76c0 .36-.13.67-.38.93s-.56.38-.93.38-.67-.13-.93-.38-.38-.56-.38-.93V1.31c0-.36.13-.67.38-.93s.56-.38.93-.38.67.13.93.38l2.34 2.68V1.31c0-.36.13-.67.38-.93s.56-.38.93-.38.67.13.93.38c.26.26.38.56.38.93v5.24c0 .36-.13.67-.38.93s-.56.38-.93.38-.67-.13-.92-.39l-2.35-2.68ZM254.14.07c.36 0 .67.13.93.38.26.26.38.56.38.93s-.13.67-.38.93-.56.38-.93.38h-.66v3.87c0 .36-.13.67-.38.93s-.56.38-.93.38-.67-.13-.93-.38-.38-.56-.38-.93V2.69h-.66c-.36 0-.67-.13-.93-.38s-.38-.56-.38-.93.13-.67.38-.93.56-.38.93-.38h3.93ZM258.66 3.01h.98c.25 0 .46.09.62.27s.24.4.24.65-.08.47-.24.65-.36.27-.62.27h-.98v.33h1.31c.36 0 .67.13.93.38s.38.56.38.93-.13.67-.38.93-.56.38-.93.38h-2.62c-.36 0-.67-.13-.93-.38s-.38-.56-.38-.93V1.38c0-.36.13-.67.38-.93.26-.26.56-.38.93-.38h2.62c.36 0 .67.13.93.38.26.26.38.56.38.93s-.13.67-.38.93-.56.38-.93.38h-1.31v.33ZM265.14.07c1.09 0 2.01.38 2.78 1.15s1.15 1.67 1.15 2.72-.38 1.95-1.15 2.71-1.69 1.15-2.78 1.15h-1.97a1.3 1.3 0 0 1-.93-.38c-.26-.25-.38-.56-.38-.93V1.38c0-.36.13-.67.38-.93s.56-.38.93-.38zm0 5.11c.36 0 .67-.12.93-.35.25-.23.38-.53.38-.89s-.13-.66-.38-.89c-.26-.23-.56-.35-.93-.35h-.66v2.49h.66ZM276.22.07c1.09 0 2.01.38 2.78 1.15s1.15 1.67 1.15 2.72-.38 1.95-1.15 2.71-1.69 1.15-2.78 1.15h-1.97a1.3 1.3 0 0 1-.93-.38c-.26-.25-.38-.56-.38-.93V1.38c0-.36.13-.67.38-.93s.56-.38.93-.38zm0 5.11c.36 0 .67-.12.93-.35.25-.23.38-.53.38-.89s-.13-.66-.38-.89c-.26-.23-.56-.35-.93-.35h-.66v2.49h.66ZM284.8 5.02c.13-.15.2-.34.2-.57V1.31c0-.36.13-.67.38-.93.26-.26.56-.38.93-.38s.67.13.93.38c.25.26.38.56.38.93v3.28c0 .9-.32 1.68-.96 2.32s-1.47.96-2.48.96-1.84-.32-2.48-.96-.96-1.41-.96-2.32V1.31c0-.36.13-.67.38-.93s.56-.38.93-.38.67.13.93.38c.26.26.38.56.38.93v3.14c0 .23.06.42.19.57s.34.22.62.22.49-.07.62-.22ZM290.89 5.51v1.04c0 .36-.13.67-.38.93s-.56.38-.93.38-.67-.13-.93-.38-.38-.56-.38-.93V1.38c0-.36.13-.67.38-.93s.56-.38.93-.38h1.97c.72 0 1.34.25 1.85.77.51.51.77 1.13.77 1.85s-.26 1.34-.77 1.85c-.06.06-.11.11-.17.16l.8 1.07c.22.29.3.61.25.97s-.22.65-.51.86-.62.3-.98.25-.64-.22-.86-.51l-1.05-1.83Zm.26-2.3a.514.514 0 0 0 .52-.52.514.514 0 0 0-.52-.52h-.26v1.05h.26ZM296.13 7.86a1.3 1.3 0 0 1-.93-.38c-.26-.25-.38-.56-.38-.93V1.31c0-.36.13-.67.38-.93s.56-.38.93-.38.67.13.93.38c.26.26.38.56.38.93v5.24c0 .36-.13.67-.38.93s-.56.38-.93.38M300.72 4.8v1.76c0 .36-.13.67-.38.93s-.56.38-.93.38-.67-.13-.93-.38-.38-.56-.38-.93V1.31c0-.36.13-.67.38-.93s.56-.38.93-.38.67.13.93.38l2.34 2.68V1.31c0-.36.13-.67.38-.93s.56-.38.93-.38.67.13.93.38c.25.26.38.56.38.93v5.24c0 .36-.13.67-.38.93s-.57.38-.93.38-.67-.13-.92-.39l-2.35-2.68ZM313.17 4v1.57c-.05.44-.24.82-.56 1.14-.77.77-1.7 1.15-2.78 1.15s-2.01-.38-2.78-1.15-1.15-1.69-1.15-2.78.38-2.01 1.15-2.78S308.74 0 309.82 0s1.88.23 2.39.69c.32.28.5.6.56.95 0 .36-.08.65-.25.86s-.43.32-.8.32-.67-.06-.92-.19c-.29-.14-.61-.2-.98-.2s-.67.14-.93.42c-.25.28-.38.64-.38 1.09s.13.81.38 1.09c.26.28.56.42.93.42s.67-.08.94-.25v-.21h-.54c-.28 0-.51-.09-.7-.29-.19-.19-.29-.42-.29-.7s.09-.51.29-.7.42-.29.7-.29h1.97c.27 0 .51.1.7.29s.29.42.29.7ZM322.27.07a1.3 1.3 0 0 1 1.31 1.31 1.3 1.3 0 0 1-1.31 1.31h-.66v3.87c0 .36-.13.67-.38.93-.26.26-.56.38-.93.38s-.67-.13-.93-.38-.38-.56-.38-.93V2.69h-.66c-.36 0-.67-.13-.93-.38s-.38-.56-.38-.93.13-.67.38-.93.56-.38.93-.38h3.93ZM326.79 5.18v1.38c0 .36-.13.67-.38.93s-.56.38-.93.38-.67-.13-.93-.38-.38-.56-.38-.93V1.31c0-.36.13-.67.38-.93s.56-.38.93-.38.67.13.93.38c.26.26.38.56.38.93v1.38h1.64V1.31c0-.36.13-.67.38-.93s.56-.38.93-.38.67.13.93.38.38.56.38.93v5.24c0 .36-.13.67-.38.93-.26.26-.56.38-.93.38s-.67-.13-.93-.38-.38-.56-.38-.93V5.17h-1.64ZM334.33 3.01h.98c.25 0 .46.09.62.27s.24.4.24.65-.08.47-.24.65-.36.27-.62.27h-.98v.33h1.31c.36 0 .67.13.93.38s.38.56.38.93-.13.67-.38.93c-.26.26-.56.38-.93.38h-2.62a1.3 1.3 0 0 1-.93-.38c-.26-.25-.38-.56-.38-.93V1.38c0-.36.13-.67.38-.93s.56-.38.93-.38h2.62c.36 0 .67.13.93.38s.38.56.38.93-.13.67-.38.93c-.26.25-.56.38-.93.38h-1.31v.33ZM343.43 5.51v1.04c0 .36-.13.67-.38.93s-.56.38-.93.38-.67-.13-.93-.38-.38-.56-.38-.93V1.38c0-.36.13-.67.38-.93s.56-.38.93-.38h1.97c.72 0 1.34.25 1.85.77s.77 1.13.77 1.85-.25 1.34-.77 1.85c-.06.06-.11.11-.17.16l.8 1.07c.22.29.3.61.25.97s-.22.65-.51.86-.62.3-.98.25-.64-.22-.86-.51l-1.05-1.83Zm.26-2.3a.514.514 0 0 0 .52-.52.514.514 0 0 0-.52-.52h-.26v1.05h.26ZM349.98 3.01h.98c.25 0 .46.09.62.27s.24.4.24.65-.08.47-.24.65-.36.27-.62.27h-.98v.33h1.31c.36 0 .67.13.93.38s.38.56.38.93-.13.67-.38.93c-.26.26-.56.38-.93.38h-2.62a1.3 1.3 0 0 1-.93-.38c-.26-.25-.38-.56-.38-.93V1.38c0-.36.13-.67.38-.93s.56-.38.93-.38h2.62c.36 0 .67.13.93.38s.38.56.38.93-.13.67-.38.93c-.26.25-.56.38-.93.38h-1.31v.33ZM353.74 7.38c-.41-.32-.61-.66-.61-1.03s.13-.67.38-.93.56-.38.93-.38c.33 0 .58.09.75.26s.36.27.58.28.35-.04.39-.16q.045-.18-.72-.48c-.52-.2-1.01-.45-1.47-.77-.47-.31-.7-.83-.7-1.56s.25-1.34.77-1.85c.51-.51 1.11-.77 1.79-.77s1.26.15 1.78.45.78.63.78.99a1.3 1.3 0 0 1-1.31 1.31c-.33 0-.56-.08-.68-.23s-.27-.23-.45-.25-.29.04-.32.16.16.27.59.44.92.42 1.47.73.83.86.83 1.62c0 .73-.25 1.34-.77 1.85-.51.51-1.17.77-1.99.77q-1.395 0-2.01-.48ZM364.07.07a1.3 1.3 0 0 1 1.31 1.31 1.3 1.3 0 0 1-1.31 1.31h-.66v3.87c0 .36-.13.67-.38.93-.26.26-.56.38-.93.38s-.67-.13-.93-.38-.38-.56-.38-.93V2.69h-.66c-.36 0-.67-.13-.93-.38s-.38-.56-.38-.93.13-.67.38-.93.56-.38.93-.38h3.93ZM373.11 7.86c-1.09 0-2.01-.38-2.78-1.15s-1.15-1.69-1.15-2.78.38-2.01 1.15-2.78S372.02 0 373.11 0s2.01.38 2.78 1.15 1.15 1.69 1.15 2.78-.38 2.01-1.15 2.78-1.69 1.15-2.78 1.15m.93-3c.25-.26.38-.56.38-.93s-.13-.67-.38-.93c-.26-.25-.56-.38-.93-.38s-.67.13-.93.38c-.25.26-.38.56-.38.93s.13.67.38.93c.26.26.56.38.93.38s.67-.13.93-.38M381.56.07c.36 0 .67.13.93.38s.38.56.38.93-.13.67-.38.93c-.26.25-.56.38-.93.38h-1.31v.33h.98c.3 0 .54.09.71.27s.27.42.27.71-.09.54-.27.71c-.18.18-.42.27-.71.27h-.98v1.57c0 .36-.13.67-.38.93s-.56.38-.93.38-.67-.13-.93-.38-.38-.56-.38-.93V1.38c0-.36.13-.67.38-.93s.56-.38.93-.38zM391.91.07a1.3 1.3 0 0 1 1.31 1.31 1.3 1.3 0 0 1-1.31 1.31h-.66v3.87c0 .36-.13.67-.38.93-.26.26-.56.38-.93.38s-.67-.13-.93-.38-.38-.56-.38-.93V2.69h-.66c-.36 0-.67-.13-.93-.38s-.38-.56-.38-.93.13-.67.38-.93.56-.38.93-.38h3.93ZM396.43 5.18v1.38c0 .36-.13.67-.38.93s-.56.38-.93.38-.67-.13-.93-.38-.38-.56-.38-.93V1.31c0-.36.13-.67.38-.93s.56-.38.93-.38.67.13.93.38c.26.26.38.56.38.93v1.38h1.64V1.31c0-.36.13-.67.38-.93s.56-.38.93-.38.67.13.93.38.38.56.38.93v5.24c0 .36-.13.67-.38.93-.26.26-.56.38-.93.38s-.67-.13-.93-.38-.38-.56-.38-.93V5.17h-1.64ZM403.97 3.01h.98c.25 0 .46.09.62.27s.24.4.24.65-.08.47-.24.65-.36.27-.62.27h-.98v.33h1.31c.36 0 .67.13.93.38s.38.56.38.93-.13.67-.38.93c-.26.26-.56.38-.93.38h-2.62a1.3 1.3 0 0 1-.93-.38c-.26-.25-.38-.56-.38-.93V1.38c0-.36.13-.67.38-.93s.56-.38.93-.38h2.62c.36 0 .67.13.93.38s.38.56.38.93-.13.67-.38.93c-.26.25-.56.38-.93.38h-1.31v.33ZM415.3 4.48v2.08c0 .36-.13.67-.38.93s-.56.38-.93.38-.67-.13-.93-.38-.38-.56-.38-.93V4.48l-1.91-2.23q-.39-.39-.39-.93c0-.54.13-.67.39-.92.25-.26.56-.39.92-.39s.67.13.93.39l1.36 1.69L415.35.4c.25-.26.56-.39.92-.39s.67.13.92.39c.26.25.39.56.39.92s-.13.67-.39.93l-1.91 2.23ZM420.81 3.01h.98c.25 0 .46.09.62.27s.24.4.24.65-.08.47-.24.65-.36.27-.62.27h-.98v.33h1.31c.36 0 .67.13.93.38s.38.56.38.93-.13.67-.38.93c-.26.26-.56.38-.93.38h-2.62a1.3 1.3 0 0 1-.93-.38c-.26-.25-.38-.56-.38-.93V1.38c0-.36.13-.67.38-.93s.56-.38.93-.38h2.62c.36 0 .67.13.93.38s.38.56.38.93-.13.67-.38.93c-.26.25-.56.38-.93.38h-1.31v.33ZM426.64 6.55l-.25.6c-.17.32-.42.53-.77.64s-.68.08-1-.08c-.32-.17-.53-.43-.64-.77s-.08-.68.08-1l2.66-5.23c.21-.47.6-.71 1.17-.71s.96.24 1.18.71l2.65 5.23c.17.32.2.65.09 1s-.33.6-.65.77-.65.19-1 .08c-.34-.11-.6-.32-.77-.64l-.25-.6h-2.52Zm1.71-1.96-.45-1.06-.44 1.06h.88ZM435.07 5.51v1.04c0 .36-.13.67-.38.93s-.56.38-.93.38-.67-.13-.93-.38-.38-.56-.38-.93V1.38c0-.36.13-.67.38-.93s.56-.38.93-.38h1.97c.72 0 1.34.25 1.85.77s.77 1.13.77 1.85-.25 1.34-.77 1.85c-.06.06-.11.11-.17.16l.8 1.07c.22.29.3.61.25.97s-.22.65-.51.86-.62.3-.98.25-.64-.22-.86-.51l-1.05-1.83Zm.26-2.3a.514.514 0 0 0 .52-.52.514.514 0 0 0-.52-.52h-.26v1.05h.26ZM440.31 7.86a1.3 1.3 0 0 1-.93-.38c-.26-.25-.38-.56-.38-.93s.13-.67.38-.93c.26-.26.56-.38.93-.38s.67.13.93.38.38.56.38.93-.13.67-.38.93-.56.38-.93.38M443.59 7.86a1.3 1.3 0 0 1-.93-.38c-.26-.25-.38-.56-.38-.93s.13-.67.38-.93c.26-.26.56-.38.93-.38s.67.13.93.38.38.56.38.93-.13.67-.38.93-.56.38-.93.38M446.86 7.86a1.3 1.3 0 0 1-.93-.38c-.26-.25-.38-.56-.38-.93s.13-.67.38-.93c.26-.26.56-.38.93-.38s.67.13.93.38.38.56.38.93-.13.67-.38.93-.56.38-.93.38M84.65 20.9q.21.135.6.45c.25.21.38.5.38.86a1.3 1.3 0 0 1-1.31 1.31c-.65 0-1.35-.49-2.12-1.48-.77-.98-1.15-2.24-1.15-3.76s.38-2.78 1.15-3.76 1.48-1.48 2.12-1.48c.36 0 .67.13.93.38s.38.56.38.93-.13.65-.38.86q-.39.315-.6.45c-.66.51-.98 1.38-.98 2.62s.33 2.11.98 2.62M90.08 22.21c-1.09 0-2.01-.38-2.78-1.15s-1.15-1.69-1.15-2.78.38-2.01 1.15-2.78 1.69-1.15 2.78-1.15 2.01.38 2.78 1.15 1.15 1.69 1.15 2.78-.38 2.01-1.15 2.78-1.69 1.15-2.78 1.15m.93-3.01c.25-.25.38-.56.38-.93s-.13-.67-.38-.93c-.26-.26-.57-.38-.93-.38s-.67.13-.93.38-.38.56-.38.93.13.67.38.93c.26.26.56.38.93.38s.67-.13.93-.38M97.22 19.85v1.04c0 .36-.13.67-.38.93s-.56.38-.93.38-.67-.13-.93-.38c-.26-.26-.38-.56-.38-.93v-5.18c0-.36.13-.67.38-.93s.56-.38.93-.38h1.97c.72 0 1.34.26 1.85.77s.77 1.13.77 1.85-.26 1.34-.77 1.85c-.06.06-.11.11-.17.16l.8 1.07c.22.29.3.61.25.97q-.075.54-.51.87c-.29.21-.62.3-.98.25s-.64-.22-.86-.51l-1.05-1.83Zm.27-2.3a.514.514 0 0 0 .52-.52.514.514 0 0 0-.52-.52h-.26v1.05h.26ZM108.49 19.37c.13-.15.2-.33.2-.57v-3.14a1.3 1.3 0 0 1 1.31-1.31c.37 0 .67.13.93.38.25.26.38.56.38.93v3.28c0 .9-.32 1.68-.96 2.32s-1.47.96-2.48.96-1.84-.32-2.48-.96-.96-1.41-.96-2.32v-3.28c0-.36.13-.67.38-.93s.56-.38.93-.38.67.13.93.38.38.56.38.93v3.14c0 .23.06.42.19.57s.34.22.62.22.49-.07.62-.22ZM114.59 19.14v1.76c0 .36-.13.67-.38.93s-.56.38-.93.38-.67-.13-.93-.38c-.26-.26-.38-.56-.38-.93v-5.24c0-.36.13-.67.38-.93s.56-.38.93-.38.67.13.93.38l2.34 2.68v-1.75c0-.36.13-.67.38-.93s.56-.38.93-.38.67.13.93.38.38.56.38.93v5.24c0 .36-.13.67-.38.93s-.56.38-.93.38-.67-.13-.92-.39zM125 14.41c.36 0 .67.13.93.38s.38.57.38.93-.13.67-.38.93-.56.38-.93.38h-.66v3.87c0 .36-.13.67-.38.93-.26.26-.56.38-.93.38s-.67-.13-.93-.38c-.25-.26-.38-.56-.38-.93v-3.87h-.66a1.3 1.3 0 0 1-.93-.38c-.26-.26-.38-.56-.38-.93s.13-.67.38-.93.56-.38.93-.38h3.93ZM128.21 22.21a1.3 1.3 0 0 1-1.31-1.31v-5.24a1.3 1.3 0 0 1 1.31-1.31c.37 0 .67.13.93.38.25.26.38.56.38.93v5.24c0 .36-.13.67-.38.93-.26.26-.56.38-.93.38M131.49 22.14c-.36 0-.67-.13-.93-.38s-.38-.56-.38-.93v-5.18c0-.36.13-.67.38-.93s.56-.38.93-.38.67.13.93.38.38.56.38.93v3.87h1.31a1.3 1.3 0 0 1 1.31 1.31c0 .37-.13.67-.38.93-.26.25-.56.38-.93.38zM144.46 14.41c.36 0 .67.13.93.38s.38.57.38.93-.13.67-.38.93-.56.38-.93.38h-.66v3.87c0 .36-.13.67-.38.93-.26.26-.56.38-.93.38s-.67-.13-.93-.38c-.25-.26-.38-.56-.38-.93v-3.87h-.66a1.3 1.3 0 0 1-.93-.38c-.26-.26-.38-.56-.38-.93s.13-.67.38-.93.56-.38.93-.38h3.93ZM148.98 19.52v1.38c0 .36-.13.67-.38.93-.26.26-.56.38-.93.38s-.67-.13-.93-.38c-.25-.26-.38-.56-.38-.93v-5.24a1.3 1.3 0 0 1 1.31-1.31c.37 0 .67.13.93.38.25.26.38.56.38.93v1.38h1.64v-1.38c0-.36.13-.67.38-.93s.56-.38.93-.38.67.13.93.38.38.56.38.93v5.24c0 .36-.13.67-.38.93s-.56.38-.93.38-.67-.13-.93-.38c-.26-.26-.38-.56-.38-.93v-1.38zM156.51 17.36h.98c.25 0 .46.09.62.27s.24.4.24.65-.08.47-.24.65-.36.27-.62.27h-.98v.33h1.31a1.3 1.3 0 0 1 1.31 1.31c0 .37-.13.67-.38.93-.26.25-.56.38-.93.38h-2.62c-.36 0-.67-.13-.93-.38s-.38-.56-.38-.93v-5.11c0-.36.13-.67.38-.93s.56-.38.93-.38h2.62a1.3 1.3 0 0 1 1.31 1.31c0 .36-.13.67-.38.93-.26.26-.56.38-.93.38h-1.31v.33ZM168.73 21.45l-.71-1.95-.71 1.95c-.17.51-.57.76-1.19.76s-1.02-.25-1.19-.76l-1.94-5.34c-.13-.34-.11-.67.04-1s.4-.55.74-.67c.34-.13.67-.11 1 .04s.55.4.67.74l.67 1.85.71-1.95c.26-.51.66-.76 1.19-.76s.93.25 1.19.76l.71 1.95.67-1.85c.12-.34.35-.59.67-.74.33-.15.66-.17 1-.04.34.12.59.35.74.67.15.33.17.66.05 1l-1.95 5.34c-.17.51-.57.76-1.19.76s-1.02-.25-1.19-.76ZM177.11 22.21c-1.09 0-2.01-.38-2.78-1.15s-1.15-1.69-1.15-2.78.38-2.01 1.15-2.78 1.69-1.15 2.78-1.15 2.01.38 2.78 1.15 1.15 1.69 1.15 2.78-.38 2.01-1.15 2.78-1.69 1.15-2.78 1.15m.93-3.01c.26-.25.38-.56.38-.93s-.13-.67-.38-.93-.56-.38-.93-.38-.67.13-.93.38c-.26.26-.38.56-.38.93s.13.67.38.93.56.38.93.38.67-.13.93-.38M184.25 19.85v1.04c0 .36-.13.67-.38.93-.26.26-.56.38-.93.38s-.67-.13-.93-.38c-.25-.26-.38-.56-.38-.93v-5.18a1.3 1.3 0 0 1 1.31-1.31h1.97c.72 0 1.34.26 1.85.77s.77 1.13.77 1.85-.25 1.34-.77 1.85c-.06.06-.11.11-.17.16l.8 1.07c.22.29.3.61.25.97q-.075.54-.51.87c-.29.21-.62.3-.98.25s-.64-.22-.86-.51l-1.05-1.83Zm.26-2.3a.514.514 0 0 0 .52-.52.514.514 0 0 0-.52-.52h-.26v1.05h.26ZM189.49 22.14a1.3 1.3 0 0 1-1.31-1.31v-5.18a1.3 1.3 0 0 1 1.31-1.31c.37 0 .67.13.93.38.25.26.38.56.38.93v3.87h1.31c.36 0 .67.13.93.38s.38.56.38.93-.13.67-.38.93-.56.38-.93.38zM197.29 14.41c1.09 0 2.01.38 2.78 1.15s1.15 1.67 1.15 2.72-.38 1.95-1.15 2.72-1.69 1.15-2.78 1.15h-1.97c-.36 0-.67-.13-.93-.38s-.38-.56-.38-.93v-5.11c0-.36.13-.67.38-.93s.56-.38.93-.38h1.97Zm0 5.11c.36 0 .67-.12.93-.35.25-.23.38-.53.38-.89s-.13-.66-.38-.89c-.26-.23-.56-.35-.93-.35h-.66v2.49h.66ZM206.4 22.21a1.3 1.3 0 0 1-1.31-1.31v-5.24a1.3 1.3 0 0 1 1.31-1.31c.37 0 .67.13.93.38.25.26.38.56.38.93v5.24c0 .36-.13.67-.38.93-.26.26-.56.38-.93.38M208.91 21.72c-.41-.32-.61-.66-.61-1.03s.13-.67.38-.93.56-.38.93-.38c.33 0 .58.09.75.26s.36.27.58.28.35-.04.39-.16-.21-.28-.72-.47c-.52-.2-1.01-.45-1.47-.77s-.7-.83-.7-1.56.26-1.34.77-1.85 1.11-.77 1.79-.77 1.26.15 1.78.45q.78.45.78.99c0 .54-.13.67-.38.93-.26.26-.57.38-.93.38-.33 0-.56-.08-.68-.23a.61.61 0 0 0-.45-.25c-.18-.01-.29.04-.32.16s.16.27.59.44.92.42 1.47.73.83.86.83 1.62c0 .72-.25 1.34-.77 1.85-.51.51-1.17.77-1.98.77q-1.395 0-2.01-.48ZM220.16 20.9l-.25.6c-.17.32-.42.53-.77.64s-.68.08-1-.08c-.32-.17-.53-.43-.64-.77s-.08-.68.08-1l2.66-5.24c.21-.47.6-.71 1.17-.71s.97.24 1.18.71l2.65 5.24c.17.32.2.65.09 1s-.33.6-.65.77-.65.19-1 .08c-.34-.11-.6-.32-.77-.64l-.25-.6h-2.52Zm1.71-1.97-.45-1.06-.44 1.06h.88ZM230.55 22.14a1.3 1.3 0 0 1-1.31-1.31v-5.18a1.3 1.3 0 0 1 1.31-1.31c.37 0 .67.13.93.38.25.26.38.56.38.93v3.87h1.31c.36 0 .67.13.93.38s.38.56.38.93-.13.67-.38.93-.56.38-.93.38zM236.38 22.21a1.3 1.3 0 0 1-.93-.38c-.26-.26-.38-.56-.38-.93v-5.24c0-.36.13-.67.38-.93s.56-.38.93-.38.67.13.93.38.38.56.38.93v5.24c0 .36-.13.67-.38.93s-.56.38-.93.38M243.52 14.41a1.3 1.3 0 0 1 1.31 1.31c0 .36-.13.67-.38.93-.26.26-.56.38-.93.38h-.66v3.87c0 .36-.13.67-.38.93s-.56.38-.93.38-.67-.13-.93-.38c-.26-.26-.38-.56-.38-.93v-3.87h-.66c-.36 0-.67-.13-.93-.38s-.38-.56-.38-.93.13-.67.38-.93c.26-.25.56-.38.93-.38h3.93ZM250.6 14.41c.36 0 .67.13.93.38s.38.57.38.93-.13.67-.38.93-.56.38-.93.38h-.66v3.87c0 .36-.13.67-.38.93-.26.26-.56.38-.93.38s-.67-.13-.93-.38c-.25-.26-.38-.56-.38-.93v-3.87h-.66a1.3 1.3 0 0 1-.93-.38c-.26-.26-.38-.56-.38-.93s.13-.67.38-.93.56-.38.93-.38h3.93ZM253.81 22.14c-.36 0-.67-.13-.93-.38s-.38-.56-.38-.93v-5.18c0-.36.13-.67.38-.93s.56-.38.93-.38.67.13.93.38.38.56.38.93v3.87h1.31a1.3 1.3 0 0 1 1.31 1.31c0 .37-.13.67-.38.93-.26.25-.56.38-.93.38zM260.95 17.36h.98c.25 0 .46.09.62.27s.24.4.24.65-.08.47-.24.65-.36.27-.62.27h-.98v.33h1.31a1.3 1.3 0 0 1 1.31 1.31c0 .37-.13.67-.38.93-.26.25-.56.38-.93.38h-2.62c-.36 0-.67-.13-.93-.38s-.38-.56-.38-.93v-5.11c0-.36.13-.67.38-.93s.56-.38.93-.38h2.62a1.3 1.3 0 0 1 1.31 1.31c0 .36-.13.67-.38.93-.26.26-.56.38-.93.38h-1.31v.33ZM272.44 17.54q.9.885.9 1.98c0 1.095-.26 1.34-.77 1.85s-1.13.77-1.85.77h-1.97c-.36 0-.67-.13-.93-.38s-.38-.56-.38-.93v-5.11c0-.36.13-.67.38-.93s.56-.38.93-.38h1.83c.59 0 1.08.21 1.49.62s.62.91.62 1.49c0 .38-.09.72-.26 1.02Zm-2.19-.25q.15 0 .27-.12t.12-.27c0-.15-.04-.19-.12-.27a.37.37 0 0 0-.27-.12h-.2v.79h.2Zm-.19 1.71v1.05h.26a.514.514 0 0 0 .52-.52.514.514 0 0 0-.52-.52h-.26ZM275.23 22.21a1.3 1.3 0 0 1-1.31-1.31v-5.24a1.3 1.3 0 0 1 1.31-1.31c.37 0 .67.13.93.38.25.26.38.56.38.93v5.24c0 .36-.13.67-.38.93-.26.26-.56.38-.93.38M282.37 14.41c.36 0 .67.13.93.38s.38.57.38.93-.13.67-.38.93-.56.38-.93.38h-.66v3.87c0 .36-.13.67-.38.93-.26.26-.56.38-.93.38s-.67-.13-.93-.38c-.25-.26-.38-.56-.38-.93v-3.87h-.66a1.3 1.3 0 0 1-.93-.38c-.26-.26-.38-.56-.38-.93s.13-.67.38-.93.56-.38.93-.38h3.93ZM294.61 14.34c.62 0 1.02.25 1.19.76l1.29 5.34c.12.34.11.67-.04 1s-.4.55-.74.67c-.34.13-.67.11-1-.04s-.55-.4-.67-.74l-.35-2.17-.77 2.28c-.26.51-.66.76-1.19.76s-.93-.25-1.19-.76l-.77-2.28-.35 2.17c-.12.34-.35.59-.67.74-.33.15-.66.17-1 .04-.34-.12-.59-.35-.74-.67-.15-.33-.17-.66-.04-1l1.28-5.34c.17-.51.57-.76 1.19-.76s1.02.25 1.19.76l1.1 3.26 1.1-3.26c.17-.51.57-.76 1.19-.76ZM301.2 22.21c-1.09 0-2.01-.38-2.78-1.15s-1.15-1.69-1.15-2.78.38-2.01 1.15-2.78 1.69-1.15 2.78-1.15 2.01.38 2.78 1.15 1.15 1.69 1.15 2.78-.38 2.01-1.15 2.78-1.69 1.15-2.78 1.15m.93-3.01c.26-.25.38-.56.38-.93s-.13-.67-.38-.93-.56-.38-.93-.38-.67.13-.93.38c-.26.26-.38.56-.38.93s.13.67.38.93.56.38.93.38.67-.13.93-.38M308.34 19.85v1.04c0 .36-.13.67-.38.93s-.56.38-.93.38-.67-.13-.93-.38-.38-.56-.38-.93v-5.18a1.3 1.3 0 0 1 1.31-1.31H309c.72 0 1.34.26 1.85.77s.77 1.13.77 1.85-.25 1.34-.77 1.85c-.06.06-.11.11-.17.16l.8 1.07c.22.29.3.61.25.97q-.075.54-.51.87c-.29.21-.62.3-.98.25s-.64-.22-.86-.51l-1.05-1.83Zm.27-2.3a.514.514 0 0 0 .52-.52.514.514 0 0 0-.52-.52h-.26v1.05h.26ZM314.9 17.36h.98c.25 0 .46.09.62.27s.24.4.24.65-.08.47-.24.65-.36.27-.62.27h-.98v.33h1.31c.36 0 .67.13.93.38.26.26.38.56.38.93s-.13.67-.38.93c-.26.25-.56.38-.93.38h-2.62a1.3 1.3 0 0 1-.93-.38c-.26-.26-.38-.56-.38-.93v-5.11a1.3 1.3 0 0 1 1.31-1.31h2.62c.36 0 .67.13.93.38.26.26.38.57.38.93s-.13.67-.38.93-.56.38-.93.38h-1.31v.33ZM321.93 21.72c-.41-.32-.61-.66-.61-1.03s.13-.67.38-.93.56-.38.93-.38c.33 0 .58.09.75.26s.36.27.58.28.35-.04.39-.16c.03-.12-.21-.28-.72-.47-.52-.2-1.01-.45-1.47-.77-.47-.31-.7-.83-.7-1.56s.25-1.34.77-1.85c.51-.51 1.11-.77 1.79-.77s1.26.15 1.78.45q.78.45.78.99c0 .54-.13.67-.38.93-.26.26-.56.38-.93.38-.33 0-.56-.08-.68-.23s-.27-.24-.45-.25-.29.04-.32.16.16.27.59.44.92.42 1.47.73.83.86.83 1.62c0 .72-.25 1.34-.77 1.85s-1.17.77-1.99.77q-1.395 0-2.01-.48ZM332.26 14.41a1.3 1.3 0 0 1 1.31 1.31c0 .36-.13.67-.38.93-.26.26-.57.38-.93.38h-.66v3.87c0 .36-.13.67-.38.93s-.56.38-.93.38-.67-.13-.93-.38c-.25-.26-.38-.56-.38-.93v-3.87h-.66a1.3 1.3 0 0 1-.93-.38c-.26-.26-.38-.56-.38-.93s.13-.67.38-.93.56-.38.93-.38h3.93ZM335.47 20.9l-.25.6c-.17.32-.42.53-.77.64s-.68.08-1-.08c-.32-.17-.53-.43-.64-.77s-.08-.68.08-1l2.66-5.24c.21-.47.6-.71 1.17-.71s.96.24 1.18.71l2.65 5.24c.17.32.2.65.09 1s-.33.6-.65.77-.65.19-1 .08c-.34-.11-.6-.32-.77-.64l-.25-.6h-2.52Zm1.71-1.97-.45-1.06-.44 1.06h.88ZM346.28 17.54q.9.885.9 1.98c0 1.095-.25 1.34-.77 1.85-.51.51-1.13.77-1.85.77h-1.97a1.3 1.3 0 0 1-.93-.38c-.26-.26-.38-.56-.38-.93v-5.11a1.3 1.3 0 0 1 1.31-1.31h1.83c.58 0 1.08.21 1.49.62s.62.91.62 1.49c0 .38-.08.72-.26 1.02Zm-2.19-.25q.15 0 .27-.12t.12-.27c0-.15-.04-.19-.12-.27a.37.37 0 0 0-.27-.12h-.2v.79h.2ZM343.9 19v1.05h.26a.514.514 0 0 0 .52-.52.514.514 0 0 0-.52-.52h-.26ZM349.07 22.14a1.3 1.3 0 0 1-.93-.38c-.26-.26-.38-.56-.38-.93v-5.18a1.3 1.3 0 0 1 1.31-1.31c.37 0 .67.13.93.38s.38.56.38.93v3.87h1.31c.36 0 .67.13.93.38.26.26.38.56.38.93s-.13.67-.38.93c-.26.25-.56.38-.93.38zM356.22 17.36h.98c.25 0 .46.09.62.27s.24.4.24.65-.08.47-.24.65-.36.27-.62.27h-.98v.33h1.31c.36 0 .67.13.93.38.26.26.38.56.38.93s-.13.67-.38.93c-.26.25-.56.38-.93.38h-2.62a1.3 1.3 0 0 1-.93-.38c-.26-.26-.38-.56-.38-.93v-5.11a1.3 1.3 0 0 1 1.31-1.31h2.62c.36 0 .67.13.93.38.26.26.38.57.38.93s-.13.67-.38.93-.56.38-.93.38h-1.31v.33ZM361.33 18.27c0-1.24-.33-2.11-.98-2.62q-.21-.135-.6-.45c-.26-.21-.38-.5-.38-.86s.13-.67.38-.93.56-.38.93-.38c.65 0 1.35.49 2.12 1.48s1.15 2.24 1.15 3.76-.38 2.78-1.15 3.76c-.77.99-1.48 1.48-2.12 1.48-.36 0-.67-.13-.93-.38s-.38-.56-.38-.93.13-.65.38-.86.46-.36.6-.45c.66-.51.98-1.38.98-2.62M365.91 22.21c-.36 0-.67-.13-.93-.38s-.38-.56-.38-.93.13-.67.38-.93c.26-.25.56-.38.93-.38s.67.13.93.38.38.56.38.93-.13.67-.38.93-.56.38-.93.38" class="cls-1"></path></g></svg>