<svg xmlns:xlink="http://www.w3.org/1999/xlink"  xmlns="http://www.w3.org/2000/svg" width="60" height="60" viewBox="0 0 60 60" fill="none"><path fill-rule="evenodd" clip-rule="evenodd" d="M30 60C29.5409 60 29.1063 59.7922 28.8175 59.4346L0.338663 24.1692C-0.0781658 23.653 -0.113586 22.9259 0.251099 22.3715L14.5167 0.68539C14.7982 0.257515 15.2754 -3.98331e-08 15.7868 0L43.9022 2.1898e-06C44.4083 2.22922e-06 44.8812 0.25218 45.1639 0.67277L59.7405 22.3589C60.1138 22.9142 60.0817 23.6487 59.6613 24.1692L31.1825 59.4346C30.8937 59.7922 30.4591 60 30 60ZM55.0754 25.0017L32.975 52.3686L39.8029 25.0017H55.0754ZM55.6823 21.7784L44.688 5.42195L40.6071 21.7784H55.6823ZM37.4711 21.7784L42.1441 3.04854L17.8559 3.04854L22.5289 21.7784H37.4711ZM36.6669 25.0017L23.3331 25.0017L30 51.7232L36.6669 25.0017ZM20.1971 25.0017L27.025 52.3686L4.92464 25.0017H20.1971ZM19.3929 21.7784L15.2385 5.1274L4.28509 21.7784H19.3929Z" fill="#7B5AB4"></path></svg>