<svg xmlns="http://www.w3.org/2000/svg" width="393" height="683" viewBox="0 0 393 683" fill="none"><g clip-path="url(#clip0_264_420)"><path opacity="0.1" fill-rule="evenodd" clip-rule="evenodd" d="M594.113 794.988C594.113 795.743 593.711 796.441 593.057 796.818C592.403 797.196 591.597 797.195 590.944 796.818L1.23299 456.206C1.1747 456.179 1.11732 456.149 1.06111 456.117C0.404434 455.738 -0.000107118 455.037 -0.000107085 454.279L-9.71565e-05 227.139C-9.71234e-05 226.381 0.4042 225.681 1.06063 225.302L394.305 -1.83766C394.961 -2.21693 395.77 -2.21705 396.427 -1.83802C397.084 -1.45893 397.488 -0.758309 397.488 -6.96299e-05L397.488 227.139C397.488 227.897 397.084 228.598 396.427 228.977L202.979 340.713L593.057 566.019C593.711 566.397 594.113 567.094 594.113 567.849L594.113 794.988ZM198.755 343.153L589.888 569.069L589.888 791.328L6.35524 454.284L198.755 343.153ZM4.24417 230.806L4.24416 450.602L194.512 340.703L4.24417 230.806ZM6.35525 227.145L198.736 338.263L393.244 225.914L393.244 3.67638L6.35525 227.145Z" fill="#524A82"></path><path fill-rule="evenodd" clip-rule="evenodd" d="M249.71 370.195C248.606 372.109 249.263 374.555 251.176 375.659L324.566 417.991C326.479 419.095 328.925 418.438 330.029 416.525C331.133 414.611 330.477 412.165 328.563 411.061L255.174 368.729C253.26 367.625 250.814 368.282 249.71 370.195Z" fill="#0FA4EA"></path></g><defs><clipPath id="clip0_264_420"><rect width="393" height="683" fill="white"></rect></clipPath></defs></svg>