<svg xmlns="http://www.w3.org/2000/svg" width="129" height="99" viewBox="0 0 129 99" fill="none"><g clip-path="url(#clip0_3851_6769)"><path d="M33.5806 62H39.4506V98.6876H33.5806V62ZM59.9956 86.9843C59.9956 92.5989 55.2747 93.0465 53.8703 93.0465C50.3615 93.0465 49.7231 89.7622 49.7231 87.7811V73.74H43.8531V87.7518C43.8531 91.2297 44.9449 94.1002 46.8585 96.0138C48.5491 97.7058 51.082 98.6304 53.8263 98.6304C55.7722 98.6304 58.5281 98.0243 59.9956 96.6845V98.6876H65.8657V73.74H59.9956V86.9843ZM77.6057 64.935H71.7357V73.74H67.3332V79.61H71.7357V98.6876H77.6057V79.61H82.0082V73.74H77.6057V64.935ZM100.494 91.2283C99.2162 92.3773 97.5285 93.0142 95.6765 93.0142C91.5939 93.0142 88.5958 90.0161 88.5958 85.8998C88.5958 81.7834 91.4986 78.9115 95.6765 78.9115C97.4962 78.9115 99.2162 79.5176 100.527 80.6667L101.417 81.4327L105.375 77.4763L104.385 76.5826C102.056 74.4797 98.9637 73.2998 95.6751 73.2998C88.3375 73.2998 83.009 78.5945 83.009 85.869C83.009 93.1126 88.4652 98.5966 95.6751 98.5966C99.0254 98.5966 102.15 97.4167 104.449 95.2801L105.406 94.3863L101.387 90.4329L100.494 91.2283ZM126.327 75.9149C124.636 74.2243 122.655 73.2998 119.911 73.2998C117.965 73.2998 115.761 73.9059 114.293 75.2442V62H108.423V98.6876H114.293V84.9444C114.293 79.3298 118.282 78.8836 119.686 78.8836C123.195 78.8836 123.098 82.1694 123.098 84.1476V98.6876H128.968V84.1784C128.968 80.7004 128.242 77.83 126.327 75.9149Z" fill="white"></path><path d="M95.4825 81.7202C96.6081 81.7202 97.6876 82.1674 98.4835 82.9633C99.2794 83.7592 99.7266 84.8387 99.7266 85.9642C99.7266 87.0898 99.2794 88.1693 98.4835 88.9652C97.6876 89.7611 96.6081 90.2083 95.4825 90.2083C94.357 90.2083 93.2775 89.7611 92.4816 88.9652C91.6857 88.1693 91.2385 87.0898 91.2385 85.9642C91.2385 84.8387 91.6857 83.7592 92.4816 82.9633C93.2775 82.1674 94.357 81.7202 95.4825 81.7202Z" fill="white"></path><path d="M25.3623 89.4732C23.1303 91.7699 20.0984 93.0143 16.908 93.0143C10.3688 93.0143 5.61412 87.8781 5.61412 80.8282C5.61412 73.746 10.3688 68.6097 16.908 68.6097C20.0676 68.6097 23.0657 69.8527 25.3315 72.1185L26.2237 73.0122L30.1479 69.0881L29.2864 68.1944C26.033 64.8441 21.6305 63.0273 16.908 63.0273C7.27387 63.0273 0.0317383 70.6833 0.0317383 80.859C0.0317383 91.0038 7.30616 98.629 16.908 98.629C21.6627 98.629 26.0653 96.7799 29.3187 93.4296L30.1801 92.5359L26.2883 88.5487L25.3623 89.4732Z" fill="white"></path></g><path d="M2.32031 39.625H6.08594C6.9401 39.625 7.66146 39.7552 8.25 40.0156C8.84375 40.276 9.29427 40.6615 9.60156 41.1719C9.91406 41.6771 10.0703 42.2995 10.0703 43.0391C10.0703 43.5599 9.96354 44.0365 9.75 44.4688C9.54167 44.8958 9.23958 45.2604 8.84375 45.5625C8.45312 45.8594 7.98438 46.0807 7.4375 46.2266L7.01562 46.3906H3.47656L3.46094 45.1641H6.13281C6.67448 45.1641 7.125 45.0703 7.48438 44.8828C7.84375 44.6901 8.11458 44.4323 8.29688 44.1094C8.47917 43.7865 8.57031 43.4297 8.57031 43.0391C8.57031 42.6016 8.48438 42.2188 8.3125 41.8906C8.14062 41.5625 7.86979 41.3099 7.5 41.1328C7.13542 40.9505 6.66406 40.8594 6.08594 40.8594H3.82812V51H2.32031V39.625ZM8.96875 51L6.20312 45.8438L7.77344 45.8359L10.5781 50.9062V51H8.96875ZM21.6062 49.7734V51H15.5828V49.7734H21.6062ZM15.8875 39.625V51H14.3797V39.625H15.8875ZM20.8094 44.5156V45.7422H15.5828V44.5156H20.8094ZM21.5281 39.625V40.8594H15.5828V39.625H21.5281ZM29.3453 49.2734L32.6969 39.625H34.3297L30.1187 51H28.9547L29.3453 49.2734ZM26.2125 39.625L29.5328 49.2734L29.9469 51H28.7828L24.5797 39.625H26.2125ZM39.6781 39.625V51H38.1703V39.625H39.6781ZM51.8469 49.7734V51H45.8234V49.7734H51.8469ZM46.1281 39.625V51H44.6203V39.625H46.1281ZM51.05 44.5156V45.7422H45.8234V44.5156H51.05ZM51.7687 39.625V40.8594H45.8234V39.625H51.7687ZM58.9062 47.5625L61.1641 39.625H62.2578L61.625 42.7109L59.1953 51H58.1094L58.9062 47.5625ZM56.5703 39.625L58.3672 47.4062L58.9062 51H57.8281L55.0703 39.625H56.5703ZM65.1797 47.3984L66.9375 39.625H68.4453L65.6953 51H64.6172L65.1797 47.3984ZM62.4219 39.625L64.6172 47.5625L65.4141 51H64.3281L61.9844 42.7109L61.3438 39.625H62.4219ZM79.5437 49.7734V51H73.5203V49.7734H79.5437ZM73.825 39.625V51H72.3172V39.625H73.825ZM78.7469 44.5156V45.7422H73.5203V44.5156H78.7469ZM79.4656 39.625V40.8594H73.5203V39.625H79.4656ZM86.6891 51H84.3141L84.3297 49.7734H86.6891C87.5016 49.7734 88.1786 49.6042 88.7203 49.2656C89.262 48.9219 89.6682 48.4427 89.9391 47.8281C90.2151 47.2083 90.3531 46.4844 90.3531 45.6562V44.9609C90.3531 44.3099 90.275 43.7318 90.1188 43.2266C89.9625 42.7161 89.7333 42.2865 89.4313 41.9375C89.1292 41.5833 88.7594 41.3151 88.3219 41.1328C87.8896 40.9505 87.3922 40.8594 86.8297 40.8594H84.2672V39.625H86.8297C87.5745 39.625 88.2542 39.75 88.8688 40C89.4833 40.2448 90.012 40.6016 90.4547 41.0703C90.9026 41.5339 91.2464 42.0964 91.4859 42.7578C91.7255 43.4141 91.8453 44.1536 91.8453 44.9766V45.6562C91.8453 46.4792 91.7255 47.2214 91.4859 47.8828C91.2464 48.5391 90.9 49.099 90.4469 49.5625C89.999 50.026 89.4573 50.3828 88.8219 50.6328C88.1917 50.8776 87.4807 51 86.6891 51ZM85.1188 39.625V51H83.6109V39.625H85.1188ZM111.238 44.9531V45.6719C111.238 46.526 111.131 47.2917 110.917 47.9688C110.704 48.6458 110.396 49.2214 109.995 49.6953C109.594 50.1693 109.113 50.5312 108.55 50.7812C107.993 51.0312 107.368 51.1562 106.675 51.1562C106.003 51.1562 105.386 51.0312 104.823 50.7812C104.266 50.5312 103.782 50.1693 103.37 49.6953C102.964 49.2214 102.649 48.6458 102.425 47.9688C102.201 47.2917 102.089 46.526 102.089 45.6719V44.9531C102.089 44.099 102.198 43.3359 102.417 42.6641C102.641 41.987 102.956 41.4115 103.363 40.9375C103.769 40.4583 104.251 40.0938 104.808 39.8438C105.37 39.5938 105.988 39.4688 106.659 39.4688C107.352 39.4688 107.977 39.5938 108.534 39.8438C109.097 40.0938 109.579 40.4583 109.98 40.9375C110.386 41.4115 110.696 41.987 110.909 42.6641C111.128 43.3359 111.238 44.099 111.238 44.9531ZM109.745 45.6719V44.9375C109.745 44.2604 109.675 43.6615 109.534 43.1406C109.399 42.6198 109.198 42.1823 108.933 41.8281C108.667 41.474 108.342 41.2057 107.956 41.0234C107.576 40.8411 107.144 40.75 106.659 40.75C106.191 40.75 105.766 40.8411 105.386 41.0234C105.011 41.2057 104.688 41.474 104.417 41.8281C104.152 42.1823 103.946 42.6198 103.8 43.1406C103.654 43.6615 103.581 44.2604 103.581 44.9375V45.6719C103.581 46.3542 103.654 46.9583 103.8 47.4844C103.946 48.0052 104.154 48.4453 104.425 48.8047C104.701 49.1589 105.027 49.4271 105.402 49.6094C105.782 49.7917 106.206 49.8828 106.675 49.8828C107.165 49.8828 107.599 49.7917 107.98 49.6094C108.36 49.4271 108.68 49.1589 108.941 48.8047C109.206 48.4453 109.407 48.0052 109.542 47.4844C109.678 46.9583 109.745 46.3542 109.745 45.6719ZM124.445 39.625V51H122.93L117.203 42.2266V51H115.695V39.625H117.203L122.953 48.4219V39.625H124.445Z" fill="white"></path><path d="M12.1753 0.737647L14.8843 6.18804L20.844 7.04862C21.3441 7.13058 21.7608 7.45843 21.9275 7.95019C22.0943 8.40098 21.9692 8.93372 21.5941 9.26156L17.2598 13.4825L18.3017 19.4657C18.3851 19.9574 18.1767 20.4492 17.7599 20.7361C17.3432 21.0639 16.8014 21.0639 16.3429 20.859L11.0084 18.0314L5.63217 20.859C5.2154 21.0639 4.67361 21.0639 4.25685 20.7361C3.84009 20.4492 3.63171 19.9574 3.71506 19.4657L4.71529 13.4825L0.380968 9.26156C0.0475581 8.93372 -0.0774704 8.40098 0.0475581 7.95019C0.214263 7.45843 0.631025 7.13058 1.13114 7.04862L7.13251 6.18804L9.79978 0.737647C10.0082 0.286863 10.4666 0 11.0084 0C11.5085 0 11.9669 0.286863 12.1753 0.737647Z" fill="white"></path><path d="M38.6753 0.737647L41.3843 6.18804L47.344 7.04862C47.8441 7.13058 48.2608 7.45843 48.4275 7.95019C48.5943 8.40098 48.4692 8.93372 48.0941 9.26156L43.7598 13.4825L44.8017 19.4657C44.8851 19.9574 44.6767 20.4492 44.2599 20.7361C43.8432 21.0639 43.3014 21.0639 42.8429 20.859L37.5084 18.0314L32.1322 20.859C31.7154 21.0639 31.1736 21.0639 30.7569 20.7361C30.3401 20.4492 30.1317 19.9574 30.2151 19.4657L31.2153 13.4825L26.881 9.26156C26.5476 8.93372 26.4225 8.40098 26.5476 7.95019C26.7143 7.45843 27.131 7.13058 27.6311 7.04862L33.6325 6.18804L36.2998 0.737647C36.5082 0.286863 36.9666 0 37.5084 0C38.0085 0 38.4669 0.286863 38.6753 0.737647Z" fill="white"></path><path d="M65.1753 0.737647L67.8843 6.18804L73.844 7.04862C74.3441 7.13058 74.7608 7.45843 74.9275 7.95019C75.0943 8.40098 74.9692 8.93372 74.5941 9.26156L70.2598 13.4825L71.3017 19.4657C71.3851 19.9574 71.1767 20.4492 70.7599 20.7361C70.3432 21.0639 69.8014 21.0639 69.3429 20.859L64.0084 18.0314L58.6322 20.859C58.2154 21.0639 57.6736 21.0639 57.2569 20.7361C56.8401 20.4492 56.6317 19.9574 56.7151 19.4657L57.7153 13.4825L53.381 9.26156C53.0476 8.93372 52.9225 8.40098 53.0476 7.95019C53.2143 7.45843 53.631 7.13058 54.1311 7.04862L60.1325 6.18804L62.7998 0.737647C63.0082 0.286863 63.4666 0 64.0084 0C64.5085 0 64.9669 0.286863 65.1753 0.737647Z" fill="white"></path><path d="M91.6753 0.737647L94.3843 6.18804L100.344 7.04862C100.844 7.13058 101.261 7.45843 101.428 7.95019C101.594 8.40098 101.469 8.93372 101.094 9.26156L96.7598 13.4825L97.8017 19.4657C97.8851 19.9574 97.6767 20.4492 97.2599 20.7361C96.8432 21.0639 96.3014 21.0639 95.8429 20.859L90.5084 18.0314L85.1322 20.859C84.7154 21.0639 84.1736 21.0639 83.7569 20.7361C83.3401 20.4492 83.1317 19.9574 83.2151 19.4657L84.2153 13.4825L79.881 9.26156C79.5476 8.93372 79.4225 8.40098 79.5476 7.95019C79.7143 7.45843 80.131 7.13058 80.6311 7.04862L86.6325 6.18804L89.2998 0.737647C89.5082 0.286863 89.9666 0 90.5084 0C91.0085 0 91.4669 0.286863 91.6753 0.737647Z" fill="white"></path><path d="M118.175 0.737647L120.884 6.18804L126.844 7.04862C127.344 7.13058 127.761 7.45843 127.928 7.95019C128.094 8.40098 127.969 8.93372 127.594 9.26156L123.26 13.4825L124.302 19.4657C124.385 19.9574 124.177 20.4492 123.76 20.7361C123.343 21.0639 122.801 21.0639 122.343 20.859L117.008 18.0314L111.632 20.859C111.215 21.0639 110.674 21.0639 110.257 20.7361C109.84 20.4492 109.632 19.9574 109.715 19.4657L110.715 13.4825L106.381 9.26156C106.048 8.93372 105.923 8.40098 106.048 7.95019C106.214 7.45843 106.631 7.13058 107.131 7.04862L113.133 6.18804L115.8 0.737647C116.008 0.286863 116.467 0 117.008 0C117.509 0 117.967 0.286863 118.175 0.737647Z" fill="white"></path><defs><clipPath id="clip0_3851_6769"><rect width="129" height="36.6876" fill="white" transform="translate(0 62)"></rect></clipPath></defs></svg>