<svg xmlns="http://www.w3.org/2000/svg" width="84" height="102" viewBox="0 0 84 102" fill="none"><path opacity="0.4" d="M2.80445 94.3094H4.31836C4.54173 94.3094 4.75682 94.2928 4.96364 94.2597C5.17045 94.2266 5.35245 94.1646 5.50964 94.0736C5.66682 93.9743 5.79091 93.8378 5.88191 93.6641C5.98118 93.4904 6.03082 93.2629 6.03082 92.9816C6.03082 92.7003 5.98118 92.4728 5.88191 92.2991C5.79091 92.1254 5.66682 91.993 5.50964 91.902C5.35245 91.8027 5.17045 91.7365 4.96364 91.7035C4.75682 91.6704 4.54173 91.6538 4.31836 91.6538H2.80445V94.3094ZM0.856227 90.1399H4.85195C5.40623 90.1399 5.87777 90.2226 6.26659 90.3881C6.65541 90.5453 6.96977 90.7562 7.20968 91.021C7.45786 91.2857 7.63573 91.5876 7.74327 91.9268C7.85909 92.266 7.917 92.6176 7.917 92.9816C7.917 93.3373 7.85909 93.6889 7.74327 94.0364C7.63573 94.3755 7.45786 94.6775 7.20968 94.9422C6.96977 95.207 6.65541 95.422 6.26659 95.5875C5.87777 95.7447 5.40623 95.8233 4.85195 95.8233H2.80445V99H0.856227V90.1399ZM10.0875 90.1399H12.8299L14.9023 96.2328H14.9271L16.8877 90.1399H19.6301V99H17.806V92.721H17.7812L15.6096 99H14.1081L11.9365 92.783H11.9117V99H10.0875V90.1399ZM22.2999 90.1399H28.9264V91.7779H24.2482V93.6765H28.5417V95.1904H24.2482V97.362H29.0257V99H22.2999V90.1399ZM35.5728 90.1399H37.3348V99H35.5728V90.1399ZM39.7265 92.5845H41.4886V99H39.7265V92.5845ZM42.9157 89.2589H40.9798L39.6645 91.4553H40.893L42.9157 89.2589ZM48.3848 95.7736C48.3848 95.5089 48.36 95.2566 48.3103 95.0167C48.2607 94.7685 48.1738 94.5534 48.0497 94.3714C47.9339 94.1811 47.7809 94.0281 47.5906 93.9123C47.4003 93.7965 47.1604 93.7385 46.8709 93.7385C46.5813 93.7385 46.3373 93.7965 46.1387 93.9123C45.9402 94.0281 45.7789 94.1811 45.6548 94.3714C45.539 94.5617 45.4521 94.7809 45.3942 95.0291C45.3446 95.269 45.3197 95.5213 45.3197 95.786C45.3197 96.0342 45.3487 96.2824 45.4066 96.5306C45.4645 96.7788 45.5555 97.0021 45.6796 97.2007C45.812 97.391 45.9733 97.5481 46.1636 97.6722C46.3621 97.788 46.5979 97.846 46.8709 97.846C47.1604 97.846 47.4003 97.788 47.5906 97.6722C47.7891 97.5564 47.9463 97.4034 48.0621 97.2131C48.178 97.0145 48.2607 96.7912 48.3103 96.543C48.36 96.2948 48.3848 96.0384 48.3848 95.7736ZM48.4096 98.181H48.3848C48.178 98.5285 47.905 98.7808 47.5658 98.938C47.2349 99.0869 46.8585 99.1613 46.4366 99.1613C45.9567 99.1613 45.5348 99.0703 45.1708 98.8883C44.8068 98.698 44.5049 98.4457 44.265 98.1314C44.0333 97.8087 43.8555 97.4406 43.7314 97.027C43.6156 96.6133 43.5576 96.1831 43.5576 95.7364C43.5576 95.3062 43.6156 94.8926 43.7314 94.4955C43.8555 94.0901 44.0333 93.7344 44.265 93.4283C44.5049 93.1222 44.8027 92.8782 45.1584 92.6962C45.5141 92.5059 45.9278 92.4108 46.3993 92.4108C46.7799 92.4108 47.1397 92.4935 47.4789 92.659C47.8264 92.8161 48.0994 93.0519 48.2979 93.3663H48.3227V90.1399H50.0848V99H48.4096V98.181ZM56.6896 95.1035C56.6069 94.6568 56.4579 94.3176 56.2429 94.086C56.036 93.8544 55.7175 93.7385 55.2874 93.7385C55.0061 93.7385 54.7703 93.7882 54.58 93.8875C54.398 93.9785 54.2491 94.0943 54.1333 94.2349C54.0258 94.3755 53.9472 94.5245 53.8975 94.6816C53.8562 94.8388 53.8314 94.9795 53.8231 95.1035H56.6896ZM53.8231 96.2204C53.8479 96.7912 53.9927 97.2048 54.2574 97.4613C54.5221 97.7177 54.9027 97.846 55.399 97.846C55.7548 97.846 56.0609 97.7591 56.3173 97.5854C56.5738 97.4034 56.7309 97.2131 56.7889 97.0145H58.34C58.0918 97.7839 57.7113 98.334 57.1984 98.665C56.6854 98.9959 56.065 99.1613 55.337 99.1613C54.8324 99.1613 54.3774 99.0827 53.972 98.9255C53.5666 98.7601 53.2233 98.5285 52.942 98.2306C52.6608 97.9328 52.4415 97.5771 52.2844 97.1635C52.1354 96.7498 52.061 96.2948 52.061 95.7985C52.061 95.3186 52.1396 94.8719 52.2968 94.4583C52.4539 94.0446 52.6773 93.6889 52.9669 93.3911C53.2564 93.085 53.5997 92.8451 53.9968 92.6714C54.4022 92.4976 54.8489 92.4108 55.337 92.4108C55.883 92.4108 56.3587 92.5183 56.764 92.7334C57.1694 92.9402 57.5003 93.2215 57.7568 93.5772C58.0215 93.933 58.2118 94.3383 58.3276 94.7933C58.4434 95.2483 58.4848 95.724 58.4517 96.2204H53.8231ZM60.4513 92.5845H62.1265V93.7758H62.1513C62.2341 93.5772 62.3457 93.3952 62.4864 93.2298C62.627 93.056 62.7883 92.9113 62.9703 92.7955C63.1523 92.6714 63.3467 92.5762 63.5536 92.51C63.7604 92.4439 63.9755 92.4108 64.1988 92.4108C64.3147 92.4108 64.4429 92.4315 64.5835 92.4728V94.1108C64.5008 94.0943 64.4015 94.0819 64.2857 94.0736C64.1699 94.057 64.0582 94.0488 63.9507 94.0488C63.628 94.0488 63.355 94.1025 63.1317 94.2101C62.9083 94.3176 62.7263 94.4665 62.5857 94.6568C62.4533 94.8388 62.3582 95.0539 62.3002 95.3021C62.2423 95.5503 62.2134 95.8191 62.2134 96.1087V99H60.4513V92.5845Z" fill="white"></path><path opacity="0.4" d="M68.1643 89.445L66.4146 91.4553H65.6205L66.8117 89.445H68.1643ZM69.2514 93.3166C69.2266 92.8699 69.2721 92.4563 69.3879 92.0757C69.5037 91.6952 69.6816 91.3684 69.9215 91.0954C70.1697 90.8141 70.4758 90.5949 70.8398 90.4377C71.2038 90.2805 71.6174 90.202 72.0807 90.202C72.4612 90.202 72.8169 90.2599 73.1478 90.3757C73.487 90.4832 73.7807 90.6445 74.0289 90.8596C74.2771 91.0665 74.4715 91.327 74.6121 91.6414C74.761 91.9558 74.8355 92.3198 74.8355 92.7334C74.8355 93.1222 74.7734 93.4655 74.6493 93.7634C74.5335 94.0612 74.3763 94.33 74.1778 94.57C73.9793 94.8016 73.7518 95.0125 73.4953 95.2028C73.2388 95.3931 72.9741 95.5751 72.7011 95.7488C72.4281 95.9143 72.1551 96.0797 71.8821 96.2452C71.6091 96.4024 71.3568 96.572 71.1252 96.754C70.9018 96.936 70.7074 97.1345 70.5419 97.3496C70.3848 97.5564 70.2813 97.7963 70.2317 98.0693H74.7486V99H69.0032C69.0446 98.4788 69.1356 98.0362 69.2762 97.6722C69.4251 97.3 69.6113 96.9773 69.8346 96.7043C70.058 96.4313 70.3103 96.1914 70.5916 95.9846C70.8728 95.7778 71.1665 95.5834 71.4726 95.4014C71.8449 95.1697 72.1717 94.9588 72.4529 94.7685C72.7342 94.57 72.9658 94.3714 73.1478 94.1729C73.3381 93.9743 73.4788 93.7592 73.5698 93.5276C73.669 93.296 73.7187 93.0271 73.7187 92.721C73.7187 92.4811 73.6732 92.266 73.5822 92.0757C73.4912 91.8772 73.3671 91.7076 73.2099 91.567C73.061 91.4263 72.8831 91.3188 72.6763 91.2443C72.4695 91.1699 72.2503 91.1326 72.0186 91.1326C71.7125 91.1326 71.4478 91.1988 71.2244 91.3312C71.0093 91.4553 70.8315 91.6207 70.6908 91.8275C70.5502 92.0344 70.4468 92.2701 70.3806 92.5349C70.3227 92.7913 70.2979 93.0519 70.3062 93.3166H69.2514ZM77.1012 93.3166C77.0764 92.8699 77.1219 92.4563 77.2377 92.0757C77.3535 91.6952 77.5314 91.3684 77.7713 91.0954C78.0195 90.8141 78.3256 90.5949 78.6896 90.4377C79.0536 90.2805 79.4672 90.202 79.9305 90.202C80.311 90.202 80.6668 90.2599 80.9977 90.3757C81.3369 90.4832 81.6305 90.6445 81.8787 90.8596C82.1269 91.0665 82.3213 91.327 82.4619 91.6414C82.6109 91.9558 82.6853 92.3198 82.6853 92.7334C82.6853 93.1222 82.6233 93.4655 82.4992 93.7634C82.3834 94.0612 82.2262 94.33 82.0276 94.57C81.8291 94.8016 81.6016 95.0125 81.3451 95.2028C81.0887 95.3931 80.8239 95.5751 80.5509 95.7488C80.2779 95.9143 80.0049 96.0797 79.7319 96.2452C79.4589 96.4024 79.2066 96.572 78.975 96.754C78.7516 96.936 78.5572 97.1345 78.3918 97.3496C78.2346 97.5564 78.1312 97.7963 78.0815 98.0693H82.5984V99H76.853C76.8944 98.4788 76.9854 98.0362 77.126 97.6722C77.2749 97.3 77.4611 96.9773 77.6844 96.7043C77.9078 96.4313 78.1601 96.1914 78.4414 95.9846C78.7227 95.7778 79.0164 95.5834 79.3224 95.4014C79.6947 95.1697 80.0215 94.9588 80.3028 94.7685C80.584 94.57 80.8157 94.3714 80.9977 94.1729C81.1879 93.9743 81.3286 93.7592 81.4196 93.5276C81.5189 93.296 81.5685 93.0271 81.5685 92.721C81.5685 92.4811 81.523 92.266 81.432 92.0757C81.341 91.8772 81.2169 91.7076 81.0597 91.567C80.9108 91.4263 80.7329 91.3188 80.5261 91.2443C80.3193 91.1699 80.1001 91.1326 79.8684 91.1326C79.5624 91.1326 79.2976 91.1988 79.0743 91.3312C78.8592 91.4553 78.6813 91.6207 78.5407 91.8275C78.4 92.0344 78.2966 92.2701 78.2304 92.5349C78.1725 92.7913 78.1477 93.0519 78.156 93.3166H77.1012Z" fill="white"></path><path fill-rule="evenodd" clip-rule="evenodd" d="M7 0C3.13403 0 0 3.13379 0 7V77C0 80.8662 3.13403 84 7 84H77C80.866 84 84 80.8662 84 77V7C84 3.13379 80.866 0 77 0H7ZM68.9119 10.355C70.2124 7.91895 69.292 4.88965 66.856 3.58936C64.4199 2.28857 61.3909 3.20898 60.0903 5.64502L32.1216 58.0312C27.9832 58.1626 21.8796 58.7354 16.8372 60.2993C14.0161 61.1743 10.6685 62.6094 8.47388 65.186C7.28296 66.5845 6.38501 68.3794 6.22144 70.5249C6.06055 72.6348 6.64429 74.6235 7.61035 76.3945C10.9062 82.4365 18.0891 82.3452 22.825 80.9102C28.092 79.314 33.5818 75.4429 37.2283 69.6704L37.3259 69.5161L38.0564 68.1479C41.9048 68.3916 46.6538 68.9204 51.2024 69.6055C54.3438 70.0791 57.3 70.6138 59.7048 71.1538C62.2673 71.7295 63.7502 72.2153 64.2639 72.4722C66.6187 73.6494 67.7786 74.6953 69.0295 75.8232C69.603 76.3403 70.1958 76.8745 70.9314 77.4468C73.1113 79.1421 76.2527 78.7495 77.948 76.5698C79.6433 74.3901 79.2507 71.2485 77.0708 69.5532C76.9541 69.4624 76.7603 69.2861 76.4954 69.0454C75.2639 67.9258 72.4929 65.4062 68.7358 63.5278C67.0134 62.6665 64.4407 61.9688 61.8962 61.397C59.1941 60.79 55.9919 60.2144 52.6924 59.7173C49.5789 59.248 46.2974 58.8369 43.189 58.5342L68.9119 10.355ZM19.7998 69.8506C21.3257 69.3774 23.0454 69.0122 24.7896 68.7358C23.1841 69.9941 21.4827 70.8677 19.925 71.3398C17.3245 72.1279 16.4746 71.5981 16.3281 71.4893L16.312 71.4565C16.7866 71.0688 17.8479 70.4561 19.7998 69.8506Z" fill="white"></path></svg>