<svg xmlns="http://www.w3.org/2000/svg" width="560" height="574" viewBox="0 0 560 574" fill="none"><g clip-path="url(#clip0_3520_4784)"><path opacity="0.1" d="M567 490.5L426 574M567 490.5L426 409.307M567 490.5V328.371M426 574L0 327M426 574V409.307M0 327V164M0 327L142.401 246M0 164L143.5 84M0 164L142.401 246M567 0L426 84M567 0L710.5 84M567 0V328.371M426 84V246L710.5 84M426 84L710.5 246M710.5 84V246M710.5 246L567 328.371M426 409.307L567 328.371M426 409.307L142.401 246M567 328.371L143.5 84M143.5 84L142.401 246" stroke="#524A82" stroke-width="4.23" stroke-linejoin="round"></path></g><defs><clipPath id="clip0_3520_4784"><rect width="560" height="574" fill="white"></rect></clipPath></defs></svg>