<svg xmlns="http://www.w3.org/2000/svg" width="320" height="561" viewBox="0 0 320 561" fill="none"><g clip-path="url(#clip0_3520_4778)"><path opacity="0.1" fill-rule="evenodd" clip-rule="evenodd" d="M-10.319 563L-10.319 374.556C-10.319 373.841 -9.93787 373.181 -9.31916 372.824L150.84 280.334L-172.489 93.6205C-173.108 93.2632 -173.489 92.603 -173.489 91.8886L-173.489 -96.5559C-173.489 -97.2704 -173.108 -97.9307 -172.489 -98.288C-171.87 -98.6452 -171.108 -98.6452 -170.489 -98.2878L319 184.379C319.555 184.699 319.919 185.264 319.988 185.893C319.996 185.965 320 186.038 320 186.111L320 374.556C320 375.27 319.619 375.93 319 376.287L-7.3188 564.732C-7.93761 565.089 -8.70006 565.089 -9.31889 564.732C-9.93776 564.375 -10.319 563.715 -10.319 563ZM314.001 374.555L-6.31899 559.535L-6.31898 375.71L154.839 282.644L314.001 374.555ZM158.838 280.334L316 371.091L316 189.576L158.838 280.334ZM154.839 278.025L314.001 186.111L-169.489 -93.0914L-169.489 90.734L154.839 278.025Z" fill="#524A82"></path></g><defs><clipPath id="clip0_3520_4778"><rect width="320" height="561" fill="white"></rect></clipPath></defs></svg>