<svg xmlns:xlink="http://www.w3.org/1999/xlink"  xmlns="http://www.w3.org/2000/svg" width="3293" height="2000" viewBox="0 0 3293 2000" fill="none"><g clip-path="url(#clip0_328_67870)"><path d="M1108.56 -0.312343C1109.23 -0.341347 1109.89 -0.370351 1110.58 -0.400233C1121.33 -0.533465 1130.24 5.66707 1139.13 11.0627C1140.3 11.7673 1141.47 12.4711 1142.64 13.1742C1145.14 14.6696 1147.63 16.1684 1150.12 17.6691C1154.03 20.0243 1157.96 22.3548 1161.89 24.6798C1175.21 32.5569 1188.5 40.487 1201.71 48.5419C1211.1 54.2645 1220.54 59.8995 1230 65.5002C1240.04 71.4407 1250.04 77.429 1260 83.5002C1269.88 89.5214 1279.8 95.4745 1289.75 101.375C1290.42 101.77 1291.08 102.165 1291.77 102.571C1296.51 105.383 1301.26 108.192 1306 111C1311.42 114.207 1316.83 117.414 1322.25 120.625C1322.92 121.02 1323.58 121.415 1324.27 121.822C1334.12 127.666 1343.93 133.58 1353.71 139.543C1363.77 145.676 1373.9 151.703 1384.04 157.705C1393.5 163.307 1402.92 168.965 1412.31 174.688C1424.62 182.186 1437 189.551 1449.41 196.879C1455.92 200.726 1462.43 204.579 1468.94 208.438C1469.95 209.038 1469.95 209.038 1470.98 209.65C1480.93 215.552 1490.83 221.521 1500.71 227.542C1510.1 233.265 1519.54 238.899 1529 244.5C1539.04 250.441 1549.04 256.429 1559 262.5C1568.88 268.521 1578.8 274.475 1588.75 280.375C1589.42 280.77 1590.08 281.165 1590.77 281.571C1595.51 284.383 1600.26 287.192 1605 290C1610.42 293.207 1615.83 296.414 1621.25 299.625C1621.92 300.02 1622.58 300.415 1623.27 300.822C1633.12 306.666 1642.93 312.58 1652.71 318.543C1662.77 324.676 1672.9 330.703 1683.04 336.705C1692.5 342.307 1701.92 347.965 1711.31 353.688C1723.62 361.186 1736 368.551 1748.41 375.879C1754.92 379.726 1761.43 383.579 1767.94 387.438C1768.61 387.838 1769.29 388.238 1769.98 388.65C1779.93 394.552 1789.83 400.521 1799.71 406.542C1809.1 412.265 1818.54 417.899 1828 423.5C1838.04 429.441 1848.04 435.429 1858 441.5C1867.88 447.521 1877.8 453.475 1887.75 459.375C1888.42 459.77 1889.08 460.165 1889.77 460.571C1894.51 463.383 1899.26 466.192 1904 469C1909.42 472.207 1914.83 475.414 1920.25 478.625C1920.92 479.02 1921.58 479.415 1922.27 479.822C1932.12 485.666 1941.93 491.58 1951.71 497.543C1961.1 503.265 1970.54 508.9 1980 514.5C1990.04 520.441 2000.04 526.429 2010 532.5C2019.88 538.521 2029.8 544.475 2039.75 550.375C2040.42 550.77 2041.08 551.165 2041.77 551.571C2046.51 554.383 2051.26 557.192 2056 560C2061.42 563.207 2066.84 566.414 2072.25 569.625C2073.25 570.218 2073.25 570.218 2074.27 570.822C2084.12 576.666 2093.93 582.58 2103.71 588.543C2113.77 594.676 2123.9 600.703 2134.04 606.705C2143.5 612.307 2152.92 617.965 2162.31 623.688C2174.62 631.186 2187 638.551 2199.41 645.879C2205.92 649.726 2212.43 653.579 2218.94 657.438C2219.61 657.838 2220.29 658.238 2220.98 658.651C2230.93 664.552 2240.83 670.521 2250.71 676.542C2260.1 682.265 2269.54 687.9 2279 693.5C2289.04 699.441 2299.04 705.429 2309 711.5C2318.88 717.521 2328.8 723.475 2338.75 729.375C2339.42 729.77 2340.08 730.165 2340.77 730.571C2345.51 733.383 2350.26 736.192 2355 739C2360.42 742.207 2365.84 745.414 2371.25 748.625C2372.25 749.218 2372.25 749.218 2373.27 749.822C2383.12 755.666 2392.93 761.58 2402.71 767.543C2412.77 773.676 2422.9 779.703 2433.04 785.705C2442.5 791.307 2451.92 796.965 2461.31 802.688C2473.62 810.186 2486 817.551 2498.41 824.879C2504.92 828.726 2511.43 832.579 2517.94 836.438C2518.61 836.838 2519.29 837.238 2519.98 837.651C2529.93 843.552 2539.83 849.521 2549.71 855.542C2559.1 861.265 2568.54 866.9 2578 872.5C2588.04 878.441 2598.04 884.429 2608 890.5C2617.88 896.521 2627.8 902.475 2637.75 908.375C2638.42 908.77 2639.08 909.165 2639.77 909.571C2644.51 912.383 2649.26 915.192 2654 918C2659.42 921.207 2664.84 924.414 2670.25 927.625C2671.25 928.218 2671.25 928.218 2672.27 928.822C2682.12 934.666 2691.93 940.58 2701.71 946.543C2711.1 952.265 2720.54 957.9 2730 963.5C2740.04 969.441 2750.04 975.429 2760 981.5C2769.88 987.521 2779.8 993.475 2789.75 999.375C2790.42 999.77 2791.08 1000.16 2791.77 1000.57C2796.51 1003.38 2801.26 1006.19 2806 1009C2811.42 1012.21 2816.84 1015.41 2822.25 1018.63C2823.25 1019.22 2823.25 1019.22 2824.27 1019.82C2834.12 1025.67 2843.93 1031.58 2853.71 1037.54C2863.77 1043.68 2873.9 1049.7 2884.04 1055.71C2893.5 1061.31 2902.92 1066.96 2912.31 1072.69C2924.62 1080.19 2937 1087.55 2949.41 1094.88C2955.92 1098.73 2962.43 1102.58 2968.94 1106.44C2969.61 1106.84 2970.29 1107.24 2970.98 1107.65C2980.93 1113.55 2990.83 1119.52 3000.71 1125.54C3010.1 1131.26 3019.54 1136.9 3029 1142.5C3039.04 1148.44 3049.04 1154.43 3059 1160.5C3068.88 1166.52 3078.8 1172.47 3088.75 1178.38C3089.42 1178.77 3090.08 1179.16 3090.77 1179.57C3095.51 1182.38 3100.26 1185.19 3105 1188C3110.42 1191.21 3115.84 1194.41 3121.25 1197.63C3121.92 1198.02 3122.58 1198.42 3123.27 1198.82C3133.12 1204.67 3142.93 1210.58 3152.71 1216.54C3162.1 1222.26 3171.54 1227.9 3181 1233.5C3191.04 1239.44 3201.04 1245.43 3211 1251.5C3220.44 1257.25 3229.91 1262.94 3239.42 1268.58C3241.48 1269.8 3243.54 1271.02 3245.59 1272.24C3251.42 1275.7 3257.25 1279.15 3263.12 1282.55C3276.77 1290.5 3287.76 1297.29 3293 1313C3293.2 1315.5 3293.32 1317.94 3293.38 1320.44C3293.42 1321.76 3293.47 1323.08 3293.52 1324.43C3293 1334.14 3286.97 1343.25 3282.19 1351.44C3281.03 1353.45 3279.88 1355.47 3278.72 1357.48C3278.12 1358.54 3277.51 1359.59 3276.89 1360.68C3273.58 1366.51 3270.35 1372.38 3267.13 1378.25C3265.77 1380.72 3264.41 1383.18 3263.05 1385.65C3262.71 1386.26 3262.38 1386.87 3262.03 1387.5C3253.95 1402.17 3245.83 1416.81 3237.56 1431.38C3231.65 1441.81 3225.85 1452.3 3220.06 1462.81C3219.73 1463.42 3219.39 1464.03 3219.04 1464.66C3218.71 1465.28 3218.37 1465.89 3218.02 1466.52C3212.67 1476.24 3207.26 1485.94 3201.86 1495.65C3199.98 1499.04 3198.1 1502.42 3196.22 1505.81C3189.59 1517.75 3182.95 1529.68 3176.27 1541.59C3170.11 1552.57 3164 1563.58 3157.89 1574.59C3154.14 1581.35 3150.38 1588.11 3146.63 1594.87C3143.49 1600.52 3140.35 1606.17 3137.22 1611.82C3130.59 1623.76 3123.94 1635.68 3117.27 1647.59C3111.11 1658.57 3105 1669.58 3098.89 1680.59C3095.76 1686.23 3092.63 1691.86 3089.5 1697.5C3088.25 1699.75 3087 1702 3085.75 1704.25C3083.25 1708.75 3080.75 1713.25 3078.25 1717.75C3077.63 1718.86 3077.01 1719.98 3076.37 1721.13C3075.13 1723.37 3073.88 1725.62 3072.63 1727.87C3069.48 1733.54 3066.33 1739.21 3063.18 1744.89C3057.35 1755.41 3051.5 1765.91 3045.56 1776.38C3039.65 1786.81 3033.85 1797.3 3028.06 1807.81C3027.73 1808.42 3027.39 1809.03 3027.04 1809.66C3026.71 1810.28 3026.37 1810.89 3026.02 1811.52C3020.66 1821.24 3015.26 1830.94 3009.86 1840.65C3007.98 1844.04 3006.1 1847.42 3004.22 1850.81C2997.59 1862.75 2990.95 1874.68 2984.27 1886.59C2978.11 1897.57 2972 1908.58 2965.89 1919.59C2964.01 1922.98 2962.13 1926.37 2960.25 1929.76C2959.32 1931.43 2959.32 1931.43 2958.37 1933.13C2957.13 1935.37 2955.89 1937.6 2954.64 1939.84C2951.75 1945.05 2948.86 1950.25 2945.98 1955.47C2944.65 1957.9 2943.31 1960.33 2941.97 1962.75C2941.04 1964.43 2940.11 1966.12 2939.19 1967.81C2925.23 1993.05 2925.23 1993.05 2911.59 1998.27C2905.65 1999.94 2899.7 2000.14 2893.57 2000.13C2892.74 2000.13 2891.91 2000.13 2891.06 2000.13C2888.27 2000.14 2885.49 2000.13 2882.7 2000.13C2880.68 2000.13 2878.65 2000.13 2876.63 2000.13C2871.03 2000.14 2865.43 2000.14 2859.83 2000.14C2853.72 2000.13 2847.62 2000.14 2841.52 2000.14C2830.77 2000.15 2820.03 2000.15 2809.28 2000.15C2797.68 2000.15 2786.09 2000.15 2774.49 2000.15C2773.76 2000.15 2773.02 2000.15 2772.27 2000.15C2769.27 2000.15 2766.28 2000.15 2763.28 2000.16C2735.11 2000.17 2706.94 2000.17 2678.77 2000.17C2650.97 2000.18 2623.18 2000.18 2595.38 2000.19C2593.61 2000.19 2591.84 2000.19 2590.07 2000.19C2582.93 2000.19 2575.79 2000.19 2568.65 2000.19C2483.03 2000.21 2397.42 2000.23 2311.81 2000.23C2282.73 2000.24 2253.64 2000.24 2224.55 2000.24C2223.06 2000.24 2223.06 2000.24 2221.55 2000.24C2212.54 2000.25 2203.53 2000.25 2194.52 2000.25C2092.7 2000.26 1990.88 2000.27 1783.44 2000.29C1773.76 2000.29 1764.07 2000.29 1754.38 2000.29C1751.15 2000.29 1747.91 2000.29 1744.68 2000.29C1724.12 2000.29 1703.57 2000.29 1683.02 2000.29C1677.6 2000.29 1672.18 2000.3 1666.75 2000.3C1564.33 2000.3 1461.91 2000.31 1359.48 2000.33C1358.4 2000.33 1357.33 2000.33 1356.22 2000.33C1321.44 2000.34 1286.66 2000.35 1251.88 2000.36C1218.39 2000.37 1184.9 2000.37 1151.41 2000.38C1150.35 2000.38 1149.28 2000.38 1148.18 2000.38C1081.53 2000.4 1014.88 2000.41 948.228 2000.41C946.684 2000.41 946.684 2000.41 945.109 2000.41C899.911 2000.41 854.713 2000.42 809.516 2000.42C791.333 2000.42 773.151 2000.42 754.969 2000.42C751.954 2000.42 748.939 2000.42 745.924 2000.42C699.793 2000.42 653.662 2000.42 607.532 2000.44C606.536 2000.44 605.541 2000.44 604.516 2000.44C588.504 2000.44 572.492 2000.45 556.481 2000.45C511.04 2000.47 465.6 2000.48 420.16 2000.48C419.239 2000.48 418.317 2000.48 417.368 2000.48C397.266 2000.48 377.165 2000.48 357.063 2000.47C349.046 2000.47 341.03 2000.47 333.014 2000.47C331.702 2000.47 331.702 2000.47 330.364 2000.47C302.603 2000.47 274.843 2000.48 247.082 2000.49C219.758 2000.51 192.434 2000.51 165.111 2000.5C161.372 2000.5 157.633 2000.49 153.894 2000.49C153.162 2000.49 152.43 2000.49 151.675 2000.49C140.116 2000.49 128.557 2000.49 116.998 2000.51C105.699 2000.52 94.3994 2000.52 83.1002 2000.5C77.0806 2000.5 71.0612 2000.5 65.0416 2000.51C59.584 2000.53 54.1267 2000.52 48.6691 2000.5C46.708 2000.5 44.747 2000.5 42.786 2000.51C28.6656 2000.59 18.8598 1999.6 8.20327 1989.45C1.86379 1982.41 -0.180976 1975.68 -0.312359 1966.38C-0.341363 1965.71 -0.370367 1965.05 -0.400249 1964.37C-0.537485 1953.37 6.09777 1943.84 11.3126 1934.56C12.026 1933.28 12.7388 1932 13.4511 1930.72C14.9142 1928.1 16.3806 1925.47 17.8498 1922.85C20.4854 1918.14 23.1023 1913.42 25.7199 1908.7C27.5715 1905.36 29.426 1902.02 31.2814 1898.69C33.7836 1894.19 36.2836 1889.69 38.7814 1885.19C45.4078 1873.25 52.055 1861.32 58.7331 1849.41C64.8884 1838.43 70.9995 1827.42 77.109 1816.41C80.2376 1810.77 83.369 1805.14 86.5001 1799.5C87.7502 1797.25 89.0002 1795 90.2501 1792.75C92.7501 1788.25 95.2501 1783.75 97.7501 1779.25C98.3691 1778.14 98.988 1777.02 99.6256 1775.87C100.874 1773.63 102.122 1771.38 103.371 1769.13C106.523 1763.46 109.674 1757.79 112.82 1752.11C118.653 1741.59 124.503 1731.09 130.438 1720.63C136.355 1710.19 142.152 1699.7 147.937 1689.19C148.273 1688.58 148.61 1687.97 148.957 1687.34C149.294 1686.72 149.631 1686.11 149.978 1685.48C155.335 1675.76 160.74 1666.06 166.137 1656.35C168.02 1652.96 169.901 1649.58 171.781 1646.19C178.408 1634.25 185.055 1622.32 191.733 1610.41C197.888 1599.43 203.999 1588.42 210.109 1577.41C213.861 1570.65 217.617 1563.89 221.373 1557.13C224.512 1551.48 227.649 1545.83 230.785 1540.18C237.411 1528.24 244.056 1516.32 250.733 1504.41C256.888 1493.43 262.999 1482.42 269.109 1471.41C272.238 1465.77 275.369 1460.14 278.5 1454.5C279.75 1452.25 281 1450 282.25 1447.75C284.75 1443.25 287.25 1438.75 289.75 1434.25C290.369 1433.14 290.988 1432.02 291.626 1430.87C292.874 1428.63 294.122 1426.38 295.371 1424.13C298.523 1418.46 301.674 1412.79 304.82 1407.11C310.653 1396.59 316.503 1386.09 322.438 1375.63C328.355 1365.19 334.152 1354.7 339.937 1344.19C340.273 1343.58 340.61 1342.97 340.957 1342.34C341.294 1341.72 341.631 1341.11 341.978 1340.48C347.335 1330.76 352.74 1321.06 358.137 1311.35C360.02 1307.96 361.901 1304.58 363.781 1301.19C370.408 1289.25 377.055 1277.32 383.733 1265.41C389.888 1254.43 395.999 1243.42 402.109 1232.41C405.861 1225.65 409.617 1218.89 413.373 1212.13C416.512 1206.48 419.649 1200.83 422.785 1195.18C429.411 1183.24 436.056 1171.32 442.733 1159.41C448.888 1148.43 454.999 1137.42 461.109 1126.41C464.861 1119.65 468.617 1112.89 472.373 1106.13C475.512 1100.48 478.649 1094.83 481.785 1089.18C488.411 1077.24 495.056 1065.32 501.733 1053.41C507.888 1042.43 513.999 1031.42 520.109 1020.41C523.238 1014.77 526.369 1009.14 529.5 1003.5C530.75 1001.25 532 999 533.25 996.75C535.75 992.25 538.25 987.75 540.75 983.25C541.369 982.136 541.988 981.022 542.626 979.874C543.874 977.627 545.122 975.381 546.371 973.134C549.523 967.461 552.674 961.786 555.82 956.11C561.653 945.592 567.503 935.086 573.438 924.625C579.355 914.193 585.152 903.696 590.937 893.19C591.273 892.578 591.61 891.966 591.957 891.336C592.294 890.724 592.631 890.112 592.978 889.482C598.335 879.755 603.74 870.056 609.137 860.352C611.02 856.965 612.901 853.576 614.781 850.188C621.408 838.248 628.055 826.32 634.733 814.409C640.888 803.425 646.999 792.417 653.109 781.407C656.861 774.647 660.617 767.889 664.373 761.13C667.511 755.481 670.649 749.831 673.785 744.18C680.411 732.243 687.056 720.318 693.733 708.409C699.888 697.425 705.999 686.417 712.109 675.407C715.238 669.771 718.369 664.135 721.5 658.5C722.75 656.25 724 654 725.25 651.75C727.75 647.25 730.25 642.75 732.75 638.25C733.369 637.136 733.988 636.022 734.626 634.874C735.874 632.627 737.122 630.381 738.371 628.134C741.523 622.461 744.674 616.786 747.82 611.11C753.653 600.592 759.503 590.086 765.438 579.625C771.355 569.193 777.152 558.696 782.937 548.19C783.273 547.578 783.61 546.966 783.957 546.336C784.294 545.724 784.631 545.112 784.978 544.482C790.335 534.755 795.74 525.056 801.137 515.352C803.02 511.965 804.901 508.576 806.781 505.188C813.408 493.248 820.055 481.32 826.733 469.409C832.888 458.425 838.999 447.417 845.109 436.407C848.861 429.647 852.617 422.889 856.373 416.13C859.511 410.481 862.649 404.831 865.785 399.18C872.411 387.243 879.056 375.318 885.733 363.409C891.888 352.425 897.999 341.417 904.109 330.407C907.238 324.771 910.369 319.135 913.5 313.5C914.75 311.25 916 309 917.25 306.75C919.75 302.25 922.25 297.75 924.75 293.25C925.678 291.579 925.678 291.579 926.626 289.874C927.874 287.627 929.122 285.381 930.371 283.134C933.523 277.461 936.674 271.786 939.82 266.11C945.653 255.592 951.503 245.086 957.438 234.625C963.355 224.193 969.152 213.696 974.937 203.19C975.273 202.578 975.61 201.966 975.957 201.336C976.463 200.418 976.463 200.418 976.978 199.481C982.335 189.755 987.74 180.055 993.137 170.352C995.02 166.965 996.901 163.576 998.781 160.188C1005.41 148.248 1012.05 136.32 1018.73 124.409C1024.89 113.425 1031 102.417 1037.11 91.4074C1040.86 84.6498 1044.61 77.8942 1048.37 71.1388C1051.53 65.4411 1054.7 59.7417 1057.86 54.0392C1060.97 48.4136 1064.1 42.7946 1067.23 37.1789C1068.95 34.0857 1070.66 30.9848 1072.36 27.883C1073.41 26.005 1074.45 24.1274 1075.5 22.2502C1075.96 21.4111 1076.41 20.5721 1076.88 19.7077C1080.9 12.5646 1085.64 6.59363 1093.25 3.12516C1094.08 2.73586 1094.91 2.34656 1095.77 1.94547C1100.11 0.109352 1103.91 -0.24743 1108.56 -0.312343ZM1109 106C1104.64 112.596 1100.88 119.517 1097.06 126.438C1095.72 128.864 1094.38 131.289 1093.04 133.715C1092.53 134.633 1092.53 134.633 1092.01 135.57C1088.69 141.559 1085.35 147.531 1082 153.5C1075.26 165.513 1068.57 177.551 1061.89 189.593C1058.14 196.353 1054.38 203.112 1050.63 209.87C1047.49 215.52 1044.35 221.17 1041.21 226.82C1034.59 238.757 1027.94 250.683 1021.27 262.591C1015.11 273.575 1009 284.583 1002.89 295.593C999.763 301.23 996.631 306.865 993.5 312.5C992.25 314.75 991 317 989.75 319.25C987.25 323.75 984.75 328.25 982.25 332.75C981.631 333.864 981.012 334.978 980.375 336.126C979.126 338.374 977.877 340.622 976.627 342.871C973.489 348.52 970.351 354.17 967.215 359.82C960.589 371.757 953.944 383.683 947.267 395.591C941.112 406.575 935.001 417.583 928.891 428.593C925.139 435.353 921.383 442.112 917.628 448.87C914.489 454.52 911.351 460.17 908.215 465.82C901.589 477.757 894.944 489.683 888.267 501.591C882.112 512.575 876.001 523.583 869.891 534.593C866.763 540.23 863.631 545.865 860.5 551.5C859.25 553.75 858 556 856.75 558.25C854.25 562.75 851.75 567.25 849.25 571.75C848.322 573.421 848.322 573.421 847.375 575.126C846.126 577.373 844.878 579.62 843.63 581.866C840.477 587.54 837.327 593.214 834.18 598.891C827.837 610.328 821.461 621.744 815.006 633.118C809.689 642.508 804.485 651.961 799.291 661.42C798.962 662.02 798.632 662.62 798.292 663.238C797.395 664.87 796.499 666.503 795.603 668.135C794.548 670.021 793.445 671.881 792.294 673.709C790.786 675.951 790.786 675.951 790.965 678.684C792.484 683.551 794.986 687.682 797.563 692.063C798.756 694.131 799.947 696.2 801.137 698.27C801.768 699.364 802.399 700.458 803.048 701.585C806.047 706.832 808.961 712.125 811.871 717.422C813.561 720.499 815.256 723.574 816.949 726.649C817.286 727.26 817.623 727.871 817.969 728.501C826.048 743.169 834.175 757.81 842.438 772.375C848.355 782.808 854.152 793.304 859.937 803.811C860.442 804.728 860.442 804.728 860.957 805.664C861.294 806.276 861.631 806.888 861.978 807.519C867.335 817.245 872.74 826.945 878.137 836.649C880.02 840.036 881.901 843.424 883.781 846.813C889.835 857.72 895.9 868.62 902 879.5C908.735 891.513 915.426 903.551 922.109 915.593C925.238 921.23 928.369 926.865 931.5 932.5C935.263 939.273 939.026 946.046 942.785 952.82C948.838 963.725 954.901 974.622 961 985.5C967.735 997.513 974.426 1009.55 981.109 1021.59C984.238 1027.23 987.369 1032.86 990.5 1038.5C994.263 1045.27 998.026 1052.05 1001.79 1058.82C1007.84 1069.72 1013.9 1080.62 1020 1091.5C1026.74 1103.51 1033.43 1115.55 1040.11 1127.59C1043.24 1133.23 1046.37 1138.86 1049.5 1144.5C1050.75 1146.75 1052 1149 1053.25 1151.25C1053.87 1152.36 1054.49 1153.48 1055.13 1154.63C1060.75 1164.75 1060.75 1164.75 1062.63 1168.13C1063.87 1170.37 1065.12 1172.62 1066.37 1174.87C1069.52 1180.54 1072.67 1186.21 1075.82 1191.89C1081.65 1202.41 1087.5 1212.91 1093.44 1223.38C1098.98 1233.15 1104.43 1242.98 1109.83 1252.84C1116.12 1264.29 1122.57 1275.63 1129 1287C1339.21 1287 1549.42 1287 1766 1287C1764.54 1282.61 1763.26 1279.38 1761.05 1275.46C1760.46 1274.4 1759.86 1273.34 1759.25 1272.25C1758.61 1271.11 1757.97 1269.98 1757.31 1268.81C1756.64 1267.61 1755.96 1266.41 1755.29 1265.2C1753.89 1262.71 1752.49 1260.21 1751.08 1257.71C1747.87 1251.99 1744.69 1246.24 1741.5 1240.5C1740.25 1238.25 1739 1236.01 1737.75 1233.76C1735.24 1229.23 1732.73 1224.71 1730.21 1220.18C1724.16 1209.28 1718.1 1198.38 1712 1187.5C1705.26 1175.49 1698.57 1163.45 1691.89 1151.41C1688.76 1145.77 1685.63 1140.14 1682.5 1134.5C1678.74 1127.73 1674.97 1120.95 1671.21 1114.18C1665.16 1103.28 1659.1 1092.38 1653 1081.5C1646.26 1069.49 1639.57 1057.45 1632.89 1045.41C1629.76 1039.77 1626.63 1034.14 1623.5 1028.5C1622.25 1026.25 1621 1024 1619.75 1021.75C1618.82 1020.08 1618.82 1020.08 1617.88 1018.38C1612.25 1008.25 1612.25 1008.25 1610.37 1004.87C1609.13 1002.63 1607.88 1000.38 1606.63 998.13C1603.49 992.48 1600.35 986.831 1597.21 981.18C1591.16 970.276 1585.1 959.378 1579 948.5C1572.26 936.487 1565.57 924.45 1558.89 912.407C1555.76 906.771 1552.63 901.135 1549.5 895.5C1545.74 888.728 1541.97 881.955 1538.21 875.18C1532.16 864.276 1526.1 853.378 1520 842.5C1513.26 830.487 1506.57 818.45 1499.89 806.407C1496.76 800.771 1493.63 795.135 1490.5 789.5C1489.25 787.25 1488 785 1486.75 782.75C1485.82 781.08 1485.82 781.08 1484.88 779.375C1479.25 769.25 1479.25 769.25 1477.37 765.874C1476.13 763.627 1474.88 761.381 1473.63 759.134C1470.48 753.461 1467.33 747.786 1464.18 742.11C1458.35 731.592 1452.5 721.086 1446.56 710.625C1440.65 700.193 1434.85 689.696 1429.06 679.19C1428.56 678.272 1428.56 678.272 1428.04 677.336C1427.71 676.724 1427.37 676.112 1427.02 675.482C1421.67 665.755 1416.26 656.056 1410.86 646.352C1408.98 642.965 1407.1 639.576 1405.22 636.188C1399.17 625.281 1393.1 614.381 1387 603.5C1380.26 591.487 1373.57 579.45 1366.89 567.407C1363.76 561.771 1360.63 556.135 1357.5 550.5C1353.74 543.728 1349.97 536.955 1346.21 530.18C1340.16 519.276 1334.1 508.378 1328 497.5C1321.26 485.487 1314.57 473.45 1307.89 461.407C1304.76 455.771 1301.63 450.135 1298.5 444.5C1297.25 442.25 1296 440 1294.75 437.75C1294.13 436.636 1293.51 435.523 1292.88 434.375C1287.25 424.25 1287.25 424.25 1285.37 420.875C1284.13 418.626 1282.88 416.378 1281.63 414.13C1278.49 408.48 1275.35 402.831 1272.21 397.18C1266.16 386.276 1260.1 375.378 1254 364.5C1247.26 352.487 1240.57 340.45 1233.89 328.407C1230.76 322.771 1227.63 317.135 1224.5 311.5C1220.74 304.727 1216.97 297.955 1213.21 291.18C1207.16 280.276 1201.1 269.378 1195 258.5C1188.26 246.487 1181.57 234.45 1174.89 222.407C1171.76 216.771 1168.63 211.135 1165.5 205.5C1164.25 203.25 1163 201 1161.75 198.75C1161.13 197.636 1160.51 196.523 1159.88 195.375C1154.25 185.25 1154.25 185.25 1152.37 181.874C1151.13 179.627 1149.88 177.381 1148.63 175.134C1145.48 169.461 1142.33 163.786 1139.18 158.11C1132.11 145.361 1125 132.641 1117.8 119.961C1115.18 115.322 1112.58 110.666 1110 106C1109.67 106 1109.34 106 1109 106ZM1204 132C1205.61 137.892 1208.59 142.819 1211.63 148.063C1212.81 150.131 1213.99 152.2 1215.17 154.27C1216.11 155.911 1216.11 155.911 1217.06 157.585C1220.39 163.445 1223.63 169.348 1226.88 175.25C1228.24 177.722 1229.6 180.193 1230.96 182.664C1231.29 183.276 1231.63 183.888 1231.98 184.519C1237.34 194.245 1242.74 203.945 1248.14 213.649C1250.02 217.036 1251.9 220.424 1253.78 223.813C1259.83 234.72 1265.9 245.62 1272 256.5C1278.74 268.513 1285.43 280.551 1292.11 292.593C1295.24 298.23 1298.37 303.865 1301.5 309.5C1305.26 316.273 1309.03 323.046 1312.79 329.82C1318.84 340.725 1324.9 351.622 1331 362.5C1337.74 374.513 1344.43 386.551 1351.11 398.593C1354.24 404.23 1357.37 409.865 1360.5 415.5C1361.75 417.75 1363 420 1364.25 422.25C1364.87 423.364 1365.49 424.478 1366.13 425.625C1371.75 435.75 1371.75 435.75 1373.63 439.126C1374.87 441.373 1376.12 443.62 1377.37 445.866C1380.52 451.54 1383.67 457.214 1386.82 462.891C1392.65 473.408 1398.5 483.915 1404.44 494.375C1410.35 504.808 1416.15 515.304 1421.94 525.811C1422.27 526.422 1422.61 527.034 1422.96 527.664C1423.29 528.276 1423.63 528.888 1423.98 529.519C1429.34 539.245 1434.74 548.945 1440.14 558.649C1442.02 562.036 1443.9 565.424 1445.78 568.813C1451.83 579.72 1457.9 590.62 1464 601.5C1470.74 613.513 1477.43 625.551 1484.11 637.593C1487.24 643.23 1490.37 648.865 1493.5 654.5C1497.26 661.273 1501.03 668.046 1504.79 674.82C1510.84 685.725 1516.9 696.622 1523 707.5C1529.74 719.513 1536.43 731.551 1543.11 743.593C1546.24 749.23 1549.37 754.865 1552.5 760.5C1553.75 762.75 1555 765 1556.25 767.25C1556.87 768.364 1557.49 769.478 1558.13 770.625C1563.75 780.75 1563.75 780.75 1565.63 784.126C1566.87 786.374 1568.12 788.622 1569.37 790.871C1572.51 796.52 1575.65 802.17 1578.79 807.82C1584.84 818.725 1590.9 829.622 1597 840.5C1603.74 852.513 1610.43 864.551 1617.11 876.593C1620.24 882.23 1623.37 887.865 1626.5 893.5C1630.26 900.273 1634.03 907.046 1637.79 913.82C1643.84 924.725 1649.9 935.622 1656 946.5C1662.74 958.513 1669.43 970.551 1676.11 982.593C1679.24 988.23 1682.37 993.865 1685.5 999.5C1686.75 1001.75 1688 1004 1689.25 1006.25C1689.87 1007.36 1690.49 1008.48 1691.13 1009.63C1696.75 1019.75 1696.75 1019.75 1698.63 1023.13C1699.87 1025.37 1701.12 1027.62 1702.37 1029.87C1705.52 1035.54 1708.67 1041.21 1711.82 1046.89C1717.65 1057.41 1723.5 1067.91 1729.44 1078.38C1735.35 1088.81 1741.15 1099.3 1746.94 1109.81C1747.44 1110.73 1747.44 1110.73 1747.96 1111.66C1748.29 1112.28 1748.63 1112.89 1748.98 1113.52C1754.34 1123.24 1759.74 1132.94 1765.14 1142.65C1767.02 1146.04 1768.9 1149.42 1770.78 1152.81C1776.83 1163.72 1782.9 1174.62 1789 1185.5C1795.74 1197.51 1802.43 1209.55 1809.11 1221.59C1810.99 1224.98 1812.87 1228.37 1814.75 1231.76C1815.37 1232.87 1815.99 1233.99 1816.63 1235.13C1817.87 1237.37 1819.11 1239.6 1820.35 1241.83C1823.26 1247.07 1826.17 1252.31 1829.07 1257.55C1830.43 1260.01 1831.79 1262.46 1833.14 1264.92C1834.09 1266.63 1835.04 1268.35 1835.99 1270.07C1836.57 1271.12 1837.16 1272.18 1837.76 1273.26C1838.26 1274.18 1838.77 1275.1 1839.29 1276.04C1839.86 1277.02 1840.42 1277.99 1841 1279C1841.31 1279.66 1841.63 1280.32 1841.95 1281C1844.08 1285.22 1844.08 1285.22 1847.89 1287.74C1850.25 1288.03 1852.5 1288.05 1854.88 1287.99C1855.78 1288 1856.68 1288.01 1857.61 1288.02C1860.65 1288.05 1863.69 1288.02 1866.73 1287.98C1868.93 1287.99 1871.14 1288 1873.34 1288.01C1879.43 1288.04 1885.52 1288.01 1891.61 1287.98C1897.54 1287.95 1903.48 1287.97 1909.41 1287.98C1921.69 1288 1933.97 1287.99 1946.26 1287.95C1958.71 1287.92 1971.16 1287.9 1983.61 1287.91C1984.79 1287.91 1984.79 1287.91 1985.99 1287.91C1990 1287.91 1994 1287.91 1998.01 1287.91C2027.03 1287.92 2056.04 1287.89 2085.06 1287.85C2113.8 1287.8 2142.54 1287.77 2171.28 1287.76C2172.18 1287.76 2173.07 1287.76 2173.99 1287.76C2182.14 1287.76 2190.29 1287.75 2198.43 1287.75C2218.69 1287.75 2238.95 1287.74 2259.21 1287.73C2260.13 1287.73 2261.05 1287.73 2262 1287.73C2306.89 1287.71 2351.78 1287.66 2396.67 1287.6C2412.25 1287.59 2427.83 1287.57 2443.41 1287.55C2444.38 1287.55 2445.34 1287.55 2446.34 1287.55C2491.25 1287.5 2536.16 1287.47 2581.07 1287.44C2583.98 1287.44 2586.9 1287.44 2589.81 1287.44C2609.13 1287.43 2628.45 1287.42 2647.77 1287.41C2686.2 1287.39 2724.64 1287.36 2763.08 1287.34C2764.91 1287.34 2766.74 1287.34 2768.57 1287.34C2851 1287.29 2933.42 1287.21 3015.85 1287.13C3017 1287.13 3017 1287.13 3018.18 1287.12C3056.79 1287.08 3095.39 1287.04 3134 1287C3130.51 1284.16 3127.05 1281.74 3123.15 1279.49C3122.59 1279.16 3122.03 1278.84 3121.46 1278.5C3120.25 1277.8 3119.04 1277.1 3117.83 1276.41C3114.55 1274.51 3111.29 1272.61 3108.02 1270.7C3107.34 1270.31 3106.67 1269.92 3105.98 1269.51C3099.33 1265.63 3092.76 1261.64 3086.19 1257.63C3076.17 1251.51 3066.1 1245.48 3056 1239.5C3045.9 1233.52 3035.83 1227.49 3025.81 1221.38C3016.43 1215.65 3006.99 1210.04 2997.5 1204.5C2987.42 1198.63 2977.42 1192.65 2967.46 1186.57C2958.02 1180.81 2948.52 1175.13 2939 1169.5C2928.9 1163.52 2918.83 1157.49 2908.81 1151.38C2899.43 1145.65 2889.99 1140.04 2880.5 1134.5C2870.42 1128.63 2860.42 1122.65 2850.46 1116.57C2841.02 1110.81 2831.52 1105.13 2822 1099.5C2811.96 1093.56 2801.96 1087.57 2792 1081.5C2780.62 1074.56 2769.18 1067.74 2757.71 1060.95C2748.62 1055.56 2739.56 1050.14 2730.5 1044.7C2722.77 1040.05 2715.01 1035.44 2707.24 1030.84C2695.89 1024.11 2684.56 1017.33 2673.29 1010.46C2663.23 1004.33 2653.1 998.296 2642.96 992.294C2633.54 986.717 2624.16 981.079 2614.81 975.375C2605.43 969.651 2595.99 964.036 2586.5 958.5C2576.42 952.625 2566.42 946.648 2556.46 940.572C2547.02 934.81 2537.52 929.135 2528 923.5C2517.96 917.56 2507.96 911.572 2498 905.5C2485.83 898.084 2473.59 890.797 2461.33 883.534C2460.35 882.951 2460.35 882.951 2459.34 882.356C2458.7 881.973 2458.05 881.591 2457.39 881.197C2451.48 877.697 2445.6 874.165 2439.72 870.625C2434.71 867.614 2429.68 864.623 2424.66 861.645C2423.67 861.061 2423.67 861.061 2422.67 860.466C2421.66 859.872 2421.66 859.872 2420.64 859.266C2408.48 852.064 2396.36 844.815 2384.29 837.46C2374.23 831.326 2364.11 825.298 2353.96 819.295C2344.5 813.693 2335.08 808.035 2325.69 802.313C2313.38 794.814 2301 787.45 2288.59 780.122C2282.08 776.275 2275.57 772.421 2269.06 768.563C2268.39 768.162 2267.71 767.762 2267.02 767.35C2257.07 761.448 2247.17 755.479 2237.29 749.458C2227.9 743.736 2218.46 738.101 2209 732.5C2198.96 726.56 2188.96 720.571 2179 714.5C2169.12 708.479 2159.2 702.526 2149.25 696.625C2148.58 696.23 2147.92 695.836 2147.23 695.429C2142.49 692.617 2137.75 689.808 2133 687C2127.58 683.794 2122.17 680.586 2116.75 677.375C2116.08 676.98 2115.42 676.585 2114.73 676.178C2104.88 670.334 2095.07 664.421 2085.29 658.458C2075.23 652.325 2065.11 646.297 2054.96 640.295C2045.5 634.693 2036.08 629.035 2026.69 623.313C2014.38 615.814 2002 608.45 1989.59 601.122C1983.08 597.275 1976.57 593.421 1970.06 589.563C1969.39 589.162 1968.71 588.762 1968.02 588.35C1958.07 582.448 1948.17 576.479 1938.29 570.458C1928.9 564.736 1919.46 559.101 1910 553.5C1899.96 547.56 1889.96 541.571 1880 535.5C1870.12 529.479 1860.2 523.526 1850.25 517.625C1849.58 517.23 1848.92 516.836 1848.23 516.429C1843.49 513.617 1838.75 510.808 1834 508C1828.58 504.794 1823.17 501.586 1817.75 498.375C1817.08 497.98 1816.42 497.585 1815.73 497.178C1805.88 491.334 1796.07 485.421 1786.29 479.458C1776.9 473.735 1767.46 468.101 1758 462.5C1747.96 456.56 1737.96 450.571 1728 444.5C1718.12 438.479 1708.2 432.526 1698.25 426.625C1697.58 426.23 1696.92 425.836 1696.23 425.429C1691.49 422.617 1686.75 419.808 1682 417C1676.58 413.794 1671.17 410.586 1665.75 407.375C1665.08 406.98 1664.42 406.585 1663.73 406.178C1653.88 400.334 1644.07 394.421 1634.29 388.458C1624.23 382.325 1614.11 376.297 1603.96 370.295C1594.5 364.693 1585.08 359.035 1575.69 353.313C1563.38 345.814 1551 338.45 1538.59 331.122C1532.08 327.275 1525.57 323.421 1519.06 319.563C1518.39 319.162 1517.71 318.762 1517.02 318.35C1507.07 312.448 1497.17 306.479 1487.29 300.458C1477.9 294.736 1468.46 289.101 1459 283.5C1448.96 277.56 1438.96 271.571 1429 265.5C1419.12 259.479 1409.2 253.526 1399.25 247.625C1398.58 247.23 1397.92 246.836 1397.23 246.429C1392.49 243.617 1387.75 240.808 1383 238C1377.58 234.794 1372.17 231.586 1366.75 228.375C1366.08 227.98 1365.42 227.585 1364.73 227.178C1354.88 221.334 1345.07 215.421 1335.29 209.458C1325.9 203.735 1316.46 198.101 1307 192.5C1296.96 186.56 1286.96 180.572 1277 174.5C1265.64 167.578 1254.22 160.76 1242.78 153.987C1236.33 150.173 1229.9 146.344 1223.49 142.465C1222.9 142.109 1222.31 141.754 1221.71 141.387C1218.95 139.719 1216.19 138.047 1213.44 136.367C1212 135.499 1212 135.499 1210.54 134.613C1209.71 134.106 1208.87 133.598 1208.01 133.076C1206.09 131.843 1206.09 131.843 1204 132ZM750 750C749.624 750.677 749.248 751.353 748.861 752.05C742.971 762.652 737.081 773.254 731.192 783.856C730.581 784.954 729.971 786.053 729.342 787.185C728.105 789.411 726.868 791.638 725.631 793.864C722.491 799.516 719.352 805.167 716.215 810.82C709.589 822.757 702.944 834.683 696.267 846.591C690.112 857.575 684.001 868.583 677.891 879.593C674.139 886.353 670.383 893.112 666.628 899.87C663.489 905.52 660.351 911.17 657.215 916.82C650.589 928.757 643.944 940.683 637.267 952.591C631.112 963.575 625.001 974.583 618.891 985.593C615.139 992.353 611.383 999.112 607.628 1005.87C604.489 1011.52 601.351 1017.17 598.215 1022.82C591.589 1034.76 584.944 1046.68 578.267 1058.59C572.112 1069.57 566.001 1080.58 559.891 1091.59C556.763 1097.23 553.631 1102.86 550.5 1108.5C549.25 1110.75 548 1113 546.75 1115.25C544.25 1119.75 541.75 1124.25 539.25 1128.75C538.322 1130.42 538.322 1130.42 537.375 1132.13C536.126 1134.37 534.878 1136.62 533.63 1138.87C530.477 1144.54 527.327 1150.21 524.18 1155.89C518.347 1166.41 512.498 1176.91 506.563 1187.38C500.646 1197.81 494.848 1208.3 489.064 1218.81C488.727 1219.42 488.39 1220.03 488.043 1220.66C487.538 1221.58 487.538 1221.58 487.022 1222.52C483.509 1228.9 479.975 1235.26 476.438 1241.63C475.832 1242.71 475.227 1243.8 474.603 1244.93C471.695 1250.16 468.782 1255.39 465.859 1260.62C464.468 1263.1 463.08 1265.59 461.692 1268.08C460.712 1269.83 459.729 1271.58 458.746 1273.33C458.153 1274.4 457.56 1275.46 456.949 1276.55C456.427 1277.49 455.904 1278.42 455.366 1279.38C453.768 1282.34 453.768 1282.34 452 1287C649.34 1287 846.68 1287 1050 1287C1045.83 1278.66 1041.7 1270.49 1037.06 1262.44C1031.96 1253.5 1026.96 1244.52 1022 1235.5C1017.22 1226.8 1012.4 1218.13 1007.5 1209.5C1001.6 1199.11 995.826 1188.66 990.064 1178.19C989.558 1177.27 989.558 1177.27 989.043 1176.34C988.706 1175.72 988.369 1175.11 988.022 1174.48C982.665 1164.76 977.261 1155.06 971.863 1145.35C969.98 1141.96 968.099 1138.58 966.219 1135.19C960.166 1124.28 954.101 1113.38 948 1102.5C941.265 1090.49 934.574 1078.45 927.891 1066.41C924.763 1060.77 921.631 1055.14 918.5 1049.5C914.737 1042.73 910.974 1035.95 907.215 1029.18C901.163 1018.28 895.099 1007.38 889 996.5C882.265 984.487 875.574 972.45 868.891 960.407C865.763 954.771 862.631 949.135 859.5 943.5C858.25 941.25 857 939 855.75 936.75C855.131 935.636 854.513 934.523 853.875 933.375C848.25 923.25 848.25 923.25 846.375 919.874C845.126 917.627 843.878 915.381 842.63 913.134C839.477 907.461 836.327 901.786 833.18 896.11C827.347 885.592 821.498 875.086 815.563 864.625C809.646 854.193 803.848 843.696 798.064 833.19C797.727 832.578 797.39 831.966 797.043 831.336C796.706 830.724 796.369 830.112 796.022 829.482C791.283 820.878 786.506 812.295 781.731 803.711C779.186 799.136 776.647 794.558 774.113 789.977C768.36 779.579 762.594 769.188 756.688 758.875C756.237 758.081 755.787 757.287 755.323 756.469C753.314 752.604 753.314 752.604 750 750ZM1911.87 1355.73C1904.67 1355.62 1897.47 1355.56 1890.28 1355.52C1885.61 1355.49 1880.94 1355.43 1876.28 1355.3C1859.26 1353.93 1859.26 1353.93 1843.6 1358.65C1839.96 1362.57 1838.09 1366.83 1836.64 1371.93C1835.72 1374.93 1834.19 1377.49 1832.6 1380.17C1831.61 1382.03 1830.61 1383.89 1829.63 1385.75C1825.58 1393.29 1821.46 1400.77 1817.19 1408.19C1812.43 1416.45 1807.78 1424.77 1803.19 1433.13C1802.85 1433.74 1802.51 1434.35 1802.16 1434.99C1800.79 1437.48 1799.42 1439.97 1798.05 1442.47C1792.69 1452.21 1787.27 1461.93 1781.86 1471.65C1779.98 1475.04 1778.1 1478.42 1776.22 1481.81C1769.59 1493.75 1762.95 1505.68 1756.27 1517.59C1750.11 1528.57 1744 1539.58 1737.89 1550.59C1734.14 1557.35 1730.38 1564.11 1726.63 1570.87C1723.49 1576.52 1720.35 1582.17 1717.21 1587.82C1710.59 1599.76 1703.94 1611.68 1697.27 1623.59C1691.11 1634.57 1685 1645.58 1678.89 1656.59C1675.76 1662.23 1672.63 1667.86 1669.5 1673.5C1668.25 1675.75 1667 1678 1665.75 1680.25C1663.25 1684.75 1660.75 1689.25 1658.25 1693.75C1657.63 1694.86 1657.01 1695.98 1656.37 1697.13C1655.13 1699.37 1653.88 1701.62 1652.63 1703.87C1649.48 1709.54 1646.33 1715.21 1643.18 1720.89C1637.35 1731.41 1631.5 1741.91 1625.56 1752.38C1619.65 1762.81 1613.85 1773.3 1608.06 1783.81C1607.73 1784.42 1607.39 1785.03 1607.04 1785.66C1606.71 1786.28 1606.37 1786.89 1606.02 1787.52C1600.67 1797.24 1595.26 1806.94 1589.87 1816.64C1587.97 1820.05 1586.08 1823.47 1584.18 1826.88C1578.35 1837.4 1572.5 1847.91 1566.56 1858.38C1561 1868.18 1555.54 1878.03 1550.11 1887.91C1546.67 1894.17 1543.21 1900.43 1539.72 1906.67C1539.02 1907.92 1538.33 1909.16 1537.64 1910.4C1536.33 1912.75 1535.01 1915.09 1533.7 1917.43C1532.81 1919.01 1532.81 1919.01 1531.91 1920.63C1531.14 1922.01 1531.14 1922.01 1530.35 1923.41C1529.05 1925.9 1528.02 1928.39 1527 1931C1562.98 1931.01 1598.95 1931.01 1634.93 1931.02C1635.63 1931.02 1636.34 1931.02 1637.06 1931.02C1712.82 1931.03 1788.59 1931.04 1864.35 1931.04C1866.04 1931.04 1867.73 1931.04 1869.42 1931.04C1904.93 1931.05 1940.45 1931.05 1975.96 1931.05C1993.81 1931.05 2011.66 1931.05 2029.51 1931.05C2032.2 1931.06 2034.89 1931.06 2037.58 1931.06C2078.84 1931.06 2120.1 1931.06 2161.36 1931.07C2162.24 1931.07 2163.12 1931.07 2164.03 1931.07C2178.23 1931.07 2192.44 1931.07 2206.64 1931.08C2247.75 1931.08 2288.85 1931.09 2329.96 1931.09C2330.81 1931.09 2331.66 1931.09 2332.54 1931.09C2351.29 1931.09 2370.04 1931.09 2388.79 1931.09C2396.35 1931.09 2403.9 1931.09 2411.46 1931.09C2412.28 1931.1 2413.11 1931.1 2413.96 1931.1C2438.61 1931.1 2463.26 1931.1 2487.9 1931.11C2525.74 1931.11 2563.57 1931.12 2601.4 1931.11C2602.13 1931.11 2602.85 1931.11 2603.6 1931.11C2693.88 1931.1 2784.16 1930.9 2881 1930C2881.39 1929.27 2881.78 1928.54 2882.18 1927.79C2883.66 1925.04 2885.15 1922.28 2886.63 1919.52C2887.57 1917.76 2888.51 1916.01 2889.46 1914.25C2894.4 1905.06 2899.5 1895.97 2904.66 1886.89C2908.27 1880.54 2911.83 1874.15 2915.38 1867.75C2916.31 1866.06 2916.31 1866.06 2917.27 1864.33C2918.55 1862.03 2919.82 1859.74 2921.09 1857.44C2924.23 1851.79 2927.36 1846.15 2930.5 1840.5C2931.75 1838.25 2933 1836 2934.25 1833.75C2936.75 1829.25 2939.25 1824.75 2941.75 1820.25C2942.37 1819.14 2942.99 1818.02 2943.63 1816.87C2944.87 1814.63 2946.12 1812.38 2947.37 1810.13C2950.51 1804.48 2953.65 1798.83 2956.79 1793.18C2963.41 1781.24 2970.06 1769.32 2976.73 1757.41C2982.89 1746.43 2989 1735.42 2995.11 1724.41C2998.24 1718.77 3001.37 1713.14 3004.5 1707.5C3005.75 1705.25 3007 1703 3008.25 1700.75C3010.75 1696.25 3013.25 1691.75 3015.75 1687.25C3016.37 1686.14 3016.99 1685.02 3017.63 1683.87C3018.87 1681.63 3020.12 1679.38 3021.37 1677.13C3024.51 1671.48 3027.65 1665.83 3030.79 1660.18C3037.41 1648.24 3044.06 1636.32 3050.73 1624.41C3056.89 1613.43 3063 1602.42 3069.11 1591.41C3072.86 1584.65 3076.62 1577.89 3080.37 1571.13C3083.51 1565.48 3086.65 1559.83 3089.79 1554.18C3096.41 1542.24 3103.06 1530.32 3109.73 1518.41C3115.89 1507.43 3122 1496.42 3128.11 1485.41C3131.24 1479.77 3134.37 1474.14 3137.5 1468.5C3138.75 1466.25 3140 1464 3141.25 1461.75C3143.75 1457.25 3146.25 1452.75 3148.75 1448.25C3149.37 1447.14 3149.99 1446.02 3150.63 1444.87C3151.87 1442.63 3153.12 1440.38 3154.37 1438.13C3157.52 1432.46 3160.67 1426.79 3163.82 1421.11C3169.76 1410.4 3175.71 1399.71 3181.75 1389.06C3185.96 1381.62 3190.16 1374.17 3194.31 1366.69C3194.79 1365.84 3195.26 1364.99 3195.75 1364.12C3196.18 1363.34 3196.61 1362.56 3197.05 1361.76C3197.43 1361.08 3197.81 1360.4 3198.2 1359.7C3199.14 1358.01 3199.14 1358.01 3199 1356C3160.69 1355.99 3122.37 1355.99 3084.06 1355.98C3083.31 1355.98 3082.56 1355.98 3081.79 1355.98C3001.28 1355.97 2920.77 1355.96 2840.27 1355.96C2838.47 1355.96 2836.68 1355.96 2834.89 1355.96C2797.25 1355.95 2759.62 1355.95 2721.99 1355.95C2703.08 1355.95 2684.17 1355.95 2665.25 1355.95C2662.4 1355.95 2659.55 1355.95 2656.7 1355.94C2612.88 1355.94 2569.06 1355.94 2525.24 1355.93C2524.3 1355.93 2523.36 1355.93 2522.39 1355.93C2507.25 1355.93 2492.12 1355.93 2476.98 1355.92C2433.27 1355.92 2389.56 1355.91 2345.86 1355.91C2344.5 1355.91 2344.5 1355.91 2343.12 1355.91C2323.29 1355.91 2303.46 1355.91 2283.63 1355.91C2275.64 1355.91 2267.66 1355.91 2259.67 1355.91C2258.8 1355.91 2257.93 1355.91 2257.03 1355.91C2229.07 1355.9 2201.11 1355.9 2173.15 1355.89C2144.89 1355.89 2116.63 1355.89 2088.37 1355.89C2084.42 1355.89 2080.48 1355.89 2076.54 1355.89C2075.77 1355.89 2074.99 1355.89 2074.2 1355.89C2063.62 1355.89 2053.05 1355.89 2042.47 1355.88C2038.14 1355.88 2033.81 1355.88 2029.48 1355.88C2025.95 1355.88 2022.43 1355.88 2018.9 1355.87C2004.27 1355.87 1989.64 1355.88 1975.01 1355.93C1971.27 1355.94 1967.53 1355.95 1963.8 1355.96C1961.37 1355.97 1958.94 1355.98 1956.51 1355.99C1941.63 1356.04 1926.75 1355.96 1911.87 1355.73ZM412 1357C411.64 1357.67 411.279 1358.34 410.908 1359.02C409.239 1362.11 407.569 1365.2 405.899 1368.29C405.332 1369.34 404.765 1370.39 404.182 1371.47C400.402 1378.46 396.549 1385.4 392.625 1392.31C392.027 1393.37 391.429 1394.42 390.813 1395.51C390.338 1396.34 389.864 1397.18 389.375 1398.04C383.816 1407.84 378.371 1417.7 372.907 1427.56C369.775 1433.21 366.637 1438.85 363.5 1444.5C362.25 1446.75 361 1449 359.75 1451.25C357.25 1455.75 354.75 1460.25 352.25 1464.75C351.631 1465.86 351.012 1466.98 350.375 1468.13C349.126 1470.37 347.877 1472.62 346.627 1474.87C343.489 1480.52 340.351 1486.17 337.215 1491.82C330.589 1503.76 323.944 1515.68 317.267 1527.59C311.112 1538.57 305.001 1549.58 298.891 1560.59C295.139 1567.35 291.383 1574.11 287.628 1580.87C284.489 1586.52 281.351 1592.17 278.215 1597.82C271.589 1609.76 264.944 1621.68 258.267 1633.59C252.112 1644.57 246.001 1655.58 239.891 1666.59C236.763 1672.23 233.631 1677.86 230.5 1683.5C229.25 1685.75 228 1688 226.75 1690.25C224.25 1694.75 221.75 1699.25 219.25 1703.75C218.322 1705.42 218.322 1705.42 217.375 1707.13C216.126 1709.37 214.878 1711.62 213.63 1713.87C210.477 1719.54 207.327 1725.21 204.18 1730.89C198.347 1741.41 192.498 1751.91 186.563 1762.38C180.646 1772.81 174.848 1783.3 169.064 1793.81C168.727 1794.42 168.39 1795.03 168.043 1795.66C167.706 1796.28 167.369 1796.89 167.022 1797.52C161.665 1807.24 156.261 1816.94 150.863 1826.65C148.98 1830.04 147.099 1833.42 145.219 1836.81C138.595 1848.75 131.952 1860.67 125.274 1872.58C120.32 1881.42 115.408 1890.28 110.498 1899.14C105.907 1907.41 101.241 1915.63 96.5036 1923.82C96.0397 1924.62 95.5758 1925.43 95.0978 1926.26C94.6905 1926.96 94.2833 1927.66 93.8637 1928.39C92.9215 1929.84 92.9215 1929.84 93.0001 1931C526.95 1931 960.9 1931 1408 1931C1406.53 1927.32 1405.03 1924.03 1403.16 1920.56C1402.6 1919.51 1402.04 1918.47 1401.46 1917.39C1400.85 1916.27 1400.25 1915.15 1399.63 1914C1399.16 1913.13 1399.16 1913.13 1398.68 1912.25C1394.13 1903.82 1389.46 1895.47 1384.68 1887.17C1380.43 1879.79 1376.29 1872.34 1372.19 1864.88C1371.85 1864.26 1371.51 1863.65 1371.16 1863.01C1369.79 1860.52 1368.42 1858.03 1367.05 1855.53C1363.53 1849.14 1359.99 1842.76 1356.44 1836.38C1355.82 1835.27 1355.21 1834.17 1354.58 1833.03C1353.34 1830.8 1352.1 1828.58 1350.86 1826.35C1348.98 1822.96 1347.1 1819.58 1345.22 1816.19C1339.17 1805.28 1333.1 1794.38 1327 1783.5C1320.26 1771.49 1313.57 1759.45 1306.89 1747.41C1303.76 1741.77 1300.63 1736.14 1297.5 1730.5C1293.74 1723.73 1289.97 1716.95 1286.21 1710.18C1280.16 1699.28 1274.1 1688.38 1268 1677.5C1261.26 1665.49 1254.57 1653.45 1247.89 1641.41C1244.76 1635.77 1241.63 1630.14 1238.5 1624.5C1237.25 1622.25 1236 1620 1234.75 1617.75C1234.13 1616.64 1233.51 1615.52 1232.88 1614.38C1227.25 1604.25 1227.25 1604.25 1225.37 1600.87C1224.13 1598.63 1222.88 1596.38 1221.63 1594.13C1218.48 1588.46 1215.33 1582.79 1212.18 1577.11C1206.35 1566.59 1200.5 1556.09 1194.56 1545.63C1188.65 1535.19 1182.85 1524.7 1177.06 1514.19C1176.56 1513.27 1176.56 1513.27 1176.04 1512.34C1175.71 1511.72 1175.37 1511.11 1175.02 1510.48C1169.67 1500.76 1164.26 1491.06 1158.86 1481.35C1156.98 1477.96 1155.1 1474.58 1153.22 1471.19C1147.17 1460.28 1141.1 1449.38 1135 1438.5C1126.62 1423.56 1118.31 1408.58 1110 1393.6C1100.94 1374.21 1100.94 1374.21 1089 1357C1087.51 1356.9 1086.02 1356.88 1084.54 1356.88C1083.08 1356.87 1083.08 1356.87 1081.59 1356.87C1080.5 1356.87 1079.42 1356.87 1078.3 1356.88C1077.16 1356.88 1076.02 1356.87 1074.84 1356.87C1071.63 1356.87 1068.43 1356.87 1065.22 1356.88C1061.75 1356.88 1058.27 1356.88 1054.8 1356.88C1048.7 1356.88 1042.6 1356.88 1036.5 1356.88C1027.43 1356.89 1018.36 1356.89 1009.29 1356.89C994.029 1356.89 978.773 1356.89 963.517 1356.89C948.404 1356.9 933.291 1356.9 918.178 1356.91C917.24 1356.91 916.301 1356.91 915.334 1356.91C910.568 1356.91 905.803 1356.91 901.037 1356.91C867.251 1356.91 833.465 1356.92 799.679 1356.92C766.85 1356.93 734.02 1356.94 701.191 1356.95C699.674 1356.95 699.674 1356.95 698.126 1356.95C687.97 1356.95 677.814 1356.95 667.658 1356.95C646.968 1356.95 626.277 1356.95 605.587 1356.96C604.636 1356.96 603.684 1356.96 602.704 1356.96C539.136 1356.97 475.568 1356.98 412 1357ZM1169 1357C1170.37 1361.12 1171.39 1364 1173.48 1367.6C1173.97 1368.47 1174.47 1369.33 1174.98 1370.23C1175.53 1371.16 1176.07 1372.1 1176.63 1373.06C1177.81 1375.13 1178.99 1377.2 1180.17 1379.27C1181.11 1380.91 1181.11 1380.91 1182.06 1382.58C1185.39 1388.45 1188.63 1394.35 1191.88 1400.25C1193.23 1402.72 1194.59 1405.18 1195.95 1407.65C1196.45 1408.57 1196.45 1408.57 1196.97 1409.5C1205.05 1424.17 1213.18 1438.81 1221.44 1453.38C1227.35 1463.81 1233.15 1474.3 1238.94 1484.81C1239.27 1485.42 1239.61 1486.03 1239.96 1486.66C1240.29 1487.28 1240.63 1487.89 1240.98 1488.52C1246.33 1498.24 1251.74 1507.94 1257.13 1517.64C1259.03 1521.05 1260.92 1524.47 1262.82 1527.88C1268.65 1538.4 1274.5 1548.91 1280.44 1559.38C1286.35 1569.81 1292.15 1580.3 1297.94 1590.81C1298.27 1591.42 1298.61 1592.03 1298.96 1592.66C1299.29 1593.28 1299.63 1593.89 1299.98 1594.52C1305.34 1604.24 1310.74 1613.94 1316.14 1623.65C1318.02 1627.04 1319.9 1630.42 1321.78 1633.81C1327.83 1644.72 1333.9 1655.62 1340 1666.5C1346.74 1678.51 1353.43 1690.55 1360.11 1702.59C1363.24 1708.23 1366.37 1713.86 1369.5 1719.5C1373.26 1726.27 1377.03 1733.05 1380.79 1739.82C1386.84 1750.72 1392.9 1761.62 1399 1772.5C1405.74 1784.51 1412.43 1796.55 1419.11 1808.59C1422.24 1814.23 1425.37 1819.86 1428.5 1825.5C1429.75 1827.75 1431 1830 1432.25 1832.25C1432.87 1833.36 1433.49 1834.48 1434.13 1835.63C1444.75 1854.75 1455.38 1873.88 1466 1893C1466.99 1893 1467.98 1893 1469 1893C1469.61 1891.89 1469.61 1891.89 1470.23 1890.77C1482.99 1867.61 1495.8 1844.47 1508.73 1821.41C1514.89 1810.43 1521 1799.42 1527.11 1788.41C1530.86 1781.65 1534.62 1774.89 1538.37 1768.13C1541.51 1762.48 1544.65 1756.83 1547.79 1751.18C1554.41 1739.24 1561.06 1727.32 1567.73 1715.41C1573.89 1704.43 1580 1693.42 1586.11 1682.41C1589.86 1675.65 1593.62 1668.89 1597.37 1662.13C1600.51 1656.48 1603.65 1650.83 1606.79 1645.18C1613.41 1633.24 1620.06 1621.32 1626.73 1609.41C1632.89 1598.43 1639 1587.42 1645.11 1576.41C1648.86 1569.65 1652.62 1562.89 1656.37 1556.13C1659.51 1550.48 1662.65 1544.83 1665.79 1539.18C1672.41 1527.24 1679.06 1515.32 1685.73 1503.41C1691.89 1492.43 1698 1481.42 1704.11 1470.41C1707.24 1464.77 1710.37 1459.14 1713.5 1453.5C1714.75 1451.25 1716 1449 1717.25 1446.75C1719.75 1442.25 1722.25 1437.75 1724.75 1433.25C1725.68 1431.58 1725.68 1431.58 1726.63 1429.87C1727.87 1427.63 1729.12 1425.38 1730.37 1423.13C1733.52 1417.46 1736.67 1411.79 1739.82 1406.11C1746.45 1394.15 1753.11 1382.21 1759.88 1370.33C1760.38 1369.45 1760.88 1368.57 1761.39 1367.67C1761.82 1366.91 1762.26 1366.15 1762.7 1365.36C1764.21 1362.62 1765.6 1359.8 1767 1357C1569.66 1357 1372.32 1357 1169 1357Z" fill="#EE703F"></path></g><defs><clipPath id="clip0_328_67870"><rect width="3293" height="2000" fill="white"></rect></clipPath></defs></svg>