<svg xmlns:xlink="http://www.w3.org/1999/xlink"  xmlns="http://www.w3.org/2000/svg" width="3428" height="2000" viewBox="0 0 3428 2000" fill="none"><g clip-path="url(#clip0_328_67868)"><path d="M2649.52 -0.252455C2650.62 -0.257975 2651.73 -0.263494 2652.87 -0.269181C2654.69 -0.263015 2654.69 -0.263015 2656.54 -0.256725C2657.84 -0.260231 2659.13 -0.263737 2660.46 -0.267349C2664.07 -0.276826 2667.68 -0.2738 2671.29 -0.268793C2675.21 -0.265533 2679.13 -0.273804 2683.05 -0.280612C2689.93 -0.290932 2696.8 -0.293752 2703.68 -0.2917C2713.91 -0.288655 2724.13 -0.296962 2734.36 -0.307449C2753.68 -0.326812 2773 -0.332418 2792.32 -0.333563C2807.24 -0.334481 2822.16 -0.338594 2837.08 -0.344964C2841.37 -0.346759 2845.66 -0.348539 2849.96 -0.350314C2851.02 -0.350756 2852.09 -0.351198 2853.19 -0.351654C2883.2 -0.363966 2913.21 -0.371854 2943.23 -0.370967C2944.36 -0.370936 2945.49 -0.370905 2946.66 -0.370873C2952.4 -0.370706 2958.13 -0.370508 2963.87 -0.370303C2965.01 -0.370263 2966.15 -0.370223 2967.33 -0.370182C2969.63 -0.370101 2971.93 -0.370018 2974.24 -0.369932C3010.1 -0.368706 3045.96 -0.383722 3081.83 -0.411077C3122.1 -0.441781 3162.37 -0.45901 3202.64 -0.45715C3206.93 -0.457001 3211.22 -0.456904 3215.52 -0.456842C3216.57 -0.456818 3217.63 -0.456795 3218.72 -0.456771C3235.75 -0.456709 3252.77 -0.469495 3269.8 -0.486706C3286.9 -0.503639 3304.01 -0.505655 3321.11 -0.492488C3331.28 -0.485082 3341.44 -0.488803 3351.61 -0.508372C3358.4 -0.520335 3365.19 -0.517823 3371.97 -0.503431C3375.84 -0.495637 3379.71 -0.494207 3383.58 -0.510346C3387.75 -0.527569 3391.92 -0.513954 3396.08 -0.497234C3397.29 -0.50717 3398.49 -0.517106 3399.73 -0.527344C3408.67 -0.451043 3415.48 1.4824 3422 8.00054C3426.71 15.2188 3428.86 21.3682 3428 30.0005C3425.58 38.2522 3420.99 45.6244 3416.69 53.0005C3415.97 54.2344 3415.26 55.4686 3414.55 56.7032C3413.09 59.2363 3411.62 61.7673 3410.15 64.2964C3408.14 67.7583 3406.14 71.2262 3404.14 74.6959C3401.05 80.0609 3397.96 85.4225 3394.86 90.7828C3391.74 96.1872 3388.62 101.594 3385.5 107.001C3384.25 109.167 3383 111.334 3381.75 113.501C3380.82 115.109 3380.82 115.109 3379.88 116.751C3373 128.667 3366.12 140.584 3359.25 152.501C3358.32 154.11 3358.32 154.11 3357.38 155.751C3356.13 157.916 3354.88 160.081 3353.63 162.246C3350.49 167.687 3347.35 173.128 3344.21 178.571C3337.6 190.055 3330.95 201.523 3324.27 212.966C3318.1 223.527 3312 234.122 3305.89 244.718C3302.76 250.147 3299.63 255.574 3296.5 261.001C3295.25 263.167 3294 265.334 3292.75 267.501C3265.25 315.167 3237.75 362.834 3210.25 410.501C3209.32 412.11 3209.32 412.11 3208.38 413.751C3207.13 415.916 3205.88 418.081 3204.63 420.246C3201.49 425.687 3198.35 431.128 3195.21 436.571C3189.19 447.023 3183.15 457.464 3177.06 467.876C3171.99 476.553 3166.98 485.267 3162 494.001C3156.46 503.722 3150.87 513.409 3145.22 523.067C3139.06 533.591 3132.98 544.154 3126.89 554.718C3123.76 560.147 3120.63 565.574 3117.5 571.001C3116.25 573.167 3115 575.334 3113.75 577.501C3096.25 607.834 3078.75 638.167 3061.25 668.501C3060.32 670.11 3060.32 670.11 3059.37 671.751C3058.13 673.916 3056.88 676.081 3055.63 678.246C3052.49 683.687 3049.35 689.128 3046.21 694.571C3040.19 705.023 3034.15 715.464 3028.06 725.876C3022.99 734.553 3017.98 743.267 3013 752.001C3007.46 761.722 3001.87 771.409 2996.22 781.067C2990.06 791.591 2983.98 802.154 2977.89 812.718C2974.76 818.147 2971.63 823.574 2968.5 829.001C2967.25 831.167 2966 833.334 2964.75 835.501C2931 894.001 2931 894.001 2897.25 952.501C2896.32 954.11 2896.32 954.11 2895.37 955.751C2894.13 957.916 2892.88 960.081 2891.63 962.246C2888.49 967.687 2885.35 973.128 2882.21 978.571C2876.19 989.023 2870.15 999.464 2864.06 1009.88C2858.99 1018.55 2853.98 1027.27 2849 1036C2843.46 1045.72 2837.87 1055.41 2832.22 1065.07C2826.06 1075.59 2819.98 1086.15 2813.89 1096.72C2810.76 1102.15 2807.63 1107.57 2804.5 1113C2803.25 1115.17 2802 1117.33 2800.75 1119.5C2783.25 1149.83 2765.75 1180.17 2748.25 1210.5C2747.32 1212.11 2747.32 1212.11 2746.37 1213.75C2745.13 1215.92 2743.88 1218.08 2742.63 1220.25C2739.49 1225.69 2736.35 1231.13 2733.21 1236.57C2727.19 1247.02 2721.15 1257.46 2715.06 1267.88C2709.99 1276.55 2704.98 1285.27 2700 1294C2694.46 1303.72 2688.87 1313.41 2683.22 1323.07C2677.06 1333.59 2670.98 1344.15 2664.89 1354.72C2661.76 1360.15 2658.63 1365.57 2655.5 1371C2654.25 1373.17 2653 1375.33 2651.75 1377.5C2618 1436 2618 1436 2584.25 1494.5C2583.32 1496.11 2583.32 1496.11 2582.37 1497.75C2581.13 1499.92 2579.88 1502.08 2578.63 1504.25C2575.49 1509.69 2572.35 1515.13 2569.21 1520.57C2562.6 1532.06 2555.95 1543.52 2549.27 1554.97C2543.1 1565.53 2537 1576.12 2530.89 1586.72C2527.76 1592.15 2524.63 1597.57 2521.5 1603C2520.25 1605.17 2519 1607.33 2517.75 1609.5C2476.5 1681 2476.5 1681 2435.25 1752.5C2434.32 1754.11 2434.32 1754.11 2433.37 1755.75C2432.13 1757.92 2430.88 1760.08 2429.63 1762.25C2426.49 1767.69 2423.35 1773.13 2420.21 1778.57C2414.19 1789.02 2408.15 1799.46 2402.06 1809.88C2396.99 1818.55 2391.98 1827.27 2387 1836C2381.46 1845.72 2375.87 1855.41 2370.22 1865.07C2364.06 1875.59 2357.98 1886.15 2351.89 1896.72C2348.76 1902.15 2345.63 1907.57 2342.5 1913C2341.25 1915.17 2340 1917.33 2338.75 1919.5C2336.25 1923.83 2333.75 1928.17 2331.25 1932.5C2330.63 1933.57 2330.01 1934.65 2329.37 1935.75C2328.13 1937.91 2326.88 1940.07 2325.64 1942.22C2322.42 1947.8 2319.21 1953.38 2316 1958.96C2312.87 1964.41 2309.73 1969.85 2306.57 1975.28C2305.23 1977.61 2303.89 1979.94 2302.56 1982.27C2297.87 1990.29 2293.04 1996.89 2284 2000C2281.37 2000.25 2281.37 2000.25 2278.49 2000.25C2277.38 2000.26 2276.27 2000.27 2275.14 2000.27C2273.32 2000.27 2273.32 2000.27 2271.47 2000.26C2270.17 2000.26 2268.88 2000.27 2267.54 2000.27C2263.94 2000.28 2260.33 2000.28 2256.72 2000.28C2252.8 2000.27 2248.88 2000.28 2244.97 2000.29C2238.09 2000.3 2231.22 2000.31 2224.35 2000.31C2214.13 2000.31 2203.91 2000.32 2193.68 2000.33C2173.31 2000.35 2152.93 2000.36 2132.55 2000.37C2130.96 2000.37 2130.96 2000.37 2129.35 2000.37C2127.76 2000.37 2127.76 2000.37 2126.14 2000.37C2114.43 2000.37 2102.71 2000.38 2091 2000.39C2055.62 2000.4 2020.25 2000.42 1984.88 2000.42C1983.18 2000.42 1983.18 2000.42 1981.45 2000.42C1976.86 2000.42 1972.27 2000.42 1967.69 2000.43C1964.23 2000.43 1960.78 2000.43 1957.33 2000.43C1956.19 2000.43 1955.05 2000.43 1953.87 2000.43C1918.02 2000.43 1882.17 2000.45 1846.32 2000.49C1806.06 2000.53 1765.81 2000.55 1725.55 2000.55C1721.26 2000.55 1716.96 2000.55 1712.67 2000.55C1711.09 2000.55 1711.09 2000.55 1709.47 2000.55C1692.45 2000.55 1675.43 2000.57 1658.42 2000.59C1641.32 2000.62 1624.22 2000.62 1607.12 2000.61C1596.96 2000.6 1586.79 2000.6 1576.63 2000.63C1569.84 2000.65 1563.06 2000.64 1556.27 2000.63C1552.4 2000.62 1548.53 2000.62 1544.67 2000.64C1540.5 2000.66 1536.33 2000.64 1532.16 2000.62C1530.36 2000.64 1530.36 2000.64 1528.53 2000.66C1520.28 2000.57 1513.36 1999.02 1507.14 1993.29C1503.5 1989.36 1500.98 1984.77 1498.5 1980.06C1497.63 1978.46 1496.76 1976.86 1495.89 1975.25C1495.42 1974.4 1494.96 1973.55 1494.48 1972.68C1491.84 1967.9 1489.07 1963.21 1486.31 1958.5C1481.37 1950.06 1476.45 1941.6 1471.56 1933.13C1470.63 1931.51 1470.63 1931.51 1469.68 1929.85C1468.42 1927.66 1467.15 1925.47 1465.89 1923.28C1462.76 1917.85 1459.63 1912.43 1456.5 1907C1455.25 1904.83 1454 1902.67 1452.75 1900.5C1452.13 1899.43 1451.51 1898.36 1450.88 1897.25C1355.25 1731.5 1355.25 1731.5 1353.37 1728.25C1352.13 1726.09 1350.88 1723.92 1349.63 1721.76C1346.49 1716.31 1343.35 1710.87 1340.21 1705.43C1334.19 1694.98 1328.15 1684.54 1322.06 1674.13C1316.64 1664.86 1311.3 1655.54 1305.98 1646.21C1300.78 1637.09 1295.52 1628 1290.22 1618.93C1284.06 1608.41 1277.98 1597.85 1271.89 1587.28C1268.76 1581.85 1265.63 1576.43 1262.5 1571C1261.25 1568.83 1260 1566.67 1258.75 1564.5C1258.13 1563.43 1257.51 1562.36 1256.88 1561.25C1191.25 1447.5 1191.25 1447.5 1189.37 1444.25C1188.13 1442.09 1186.88 1439.92 1185.63 1437.76C1182.48 1432.29 1179.33 1426.83 1176.18 1421.36C1174.91 1419.16 1173.64 1416.95 1172.38 1414.75C1171.76 1413.69 1171.15 1412.62 1170.52 1411.52C1167.43 1406.18 1164.33 1400.85 1161.17 1395.55C1160.56 1394.53 1159.95 1393.51 1159.33 1392.46C1158.18 1390.53 1157.02 1388.6 1155.86 1386.68C1155.35 1385.82 1154.84 1384.97 1154.32 1384.09C1153.87 1383.35 1153.42 1382.6 1152.96 1381.83C1152 1380 1152 1380 1152 1378C1151.34 1378 1150.68 1378 1150 1378C1149.6 1379.06 1149.6 1379.06 1149.2 1380.14C1147.93 1383.17 1146.43 1385.92 1144.8 1388.77C1143.83 1390.46 1143.83 1390.46 1142.85 1392.17C1142.15 1393.39 1141.45 1394.6 1140.75 1395.81C1140.03 1397.08 1139.3 1398.34 1138.58 1399.6C1133.5 1408.44 1128.37 1417.26 1123.22 1426.06C1117.06 1436.59 1110.98 1447.15 1104.89 1457.72C1101.76 1463.15 1098.63 1468.57 1095.5 1474C1094.25 1476.17 1093 1478.33 1091.75 1480.5C1043 1565 1043 1565 994.25 1649.5C993.631 1650.57 993.012 1651.65 992.375 1652.75C991.126 1654.92 989.877 1657.08 988.627 1659.25C985.488 1664.69 982.35 1670.13 979.215 1675.57C973.193 1686.02 967.153 1696.46 961.063 1706.88C955.987 1715.55 950.978 1724.27 946 1733C940.46 1742.72 934.866 1752.41 929.217 1762.07C923.062 1772.59 916.976 1783.15 910.891 1793.72C907.763 1799.15 904.632 1804.57 901.5 1810C900.25 1812.17 899 1814.33 897.75 1816.5C864 1875 864 1875 830.25 1933.5C829.631 1934.57 829.012 1935.65 828.374 1936.75C827.129 1938.91 825.884 1941.07 824.638 1943.22C821.428 1948.78 818.226 1954.35 815.039 1959.92C811.389 1966.3 807.705 1972.66 804 1979C803.544 1979.79 803.087 1980.58 802.617 1981.4C797.605 1990.02 792.8 1996.73 783 2000C781.249 2000.09 779.494 2000.13 777.74 2000.13C776.641 2000.13 775.542 2000.14 774.409 2000.14C773.194 2000.14 771.979 2000.14 770.727 2000.14C769.437 2000.14 768.147 2000.14 766.817 2000.15C763.212 2000.15 759.607 2000.15 756.002 2000.15C752.088 2000.15 748.175 2000.16 744.262 2000.17C736.49 2000.18 728.717 2000.18 720.945 2000.19C711.64 2000.19 702.335 2000.2 693.03 2000.21C670.536 2000.24 648.042 2000.26 625.548 2000.27C618.099 2000.27 610.65 2000.28 603.201 2000.28C563.611 2000.31 524.022 2000.33 484.432 2000.34C475.257 2000.34 466.082 2000.35 456.907 2000.35C455.197 2000.35 455.197 2000.35 453.453 2000.35C416.487 2000.36 379.522 2000.39 342.557 2000.44C304.568 2000.48 266.579 2000.51 228.59 2000.51C223.226 2000.51 217.863 2000.51 212.499 2000.51C210.916 2000.51 210.916 2000.51 209.3 2000.51C192.299 2000.52 175.297 2000.54 158.295 2000.56C141.211 2000.59 124.127 2000.6 107.043 2000.59C96.8892 2000.58 86.7355 2000.59 76.5818 2000.62C69.8009 2000.63 63.0201 2000.63 56.2393 2000.62C52.3745 2000.61 48.51 2000.61 44.6453 2000.63C40.4811 2000.65 36.318 2000.64 32.1538 2000.62C30.9552 2000.63 29.7566 2000.64 28.5217 2000.66C19.8494 2000.57 13.249 1998.6 6.5625 1992.94C6.04688 1992.3 5.53125 1991.66 5 1991C4.46375 1990.36 3.9275 1989.72 3.375 1989.06C0.309425 1984.46 -0.361341 1980.43 -0.5 1974.94C-0.551562 1973.73 -0.603125 1972.52 -0.65625 1971.28C0.0875272 1961.6 7.59934 1952.04 12.4375 1943.88C13.6777 1941.77 14.9172 1939.66 16.1562 1937.55C16.7905 1936.47 17.4247 1935.39 18.0781 1934.28C21.2248 1928.91 24.3316 1923.52 27.4375 1918.13C28.0594 1917.05 28.6813 1915.97 29.322 1914.86C30.5845 1912.66 31.8468 1910.47 33.1089 1908.28C36.2368 1902.85 39.3686 1897.43 42.5 1892C43.75 1889.83 45 1887.67 46.25 1885.5C68.75 1846.5 91.25 1807.5 113.75 1768.5C114.369 1767.43 114.988 1766.36 115.625 1765.25C116.874 1763.09 118.124 1760.92 119.373 1758.76C122.512 1753.31 125.65 1747.87 128.785 1742.43C134.807 1731.98 140.847 1721.54 146.938 1711.13C152.013 1702.45 157.023 1693.73 162 1685C167.54 1675.28 173.134 1665.59 178.783 1655.93C184.938 1645.41 191.024 1634.85 197.109 1624.28C200.237 1618.85 203.369 1613.43 206.5 1608C207.75 1605.83 209 1603.67 210.25 1601.5C232.75 1562.5 255.25 1523.5 277.75 1484.5C278.369 1483.43 278.988 1482.36 279.625 1481.25C280.874 1479.09 282.124 1476.92 283.373 1474.76C286.512 1469.31 289.65 1463.87 292.785 1458.43C298.807 1447.98 304.847 1437.54 310.938 1427.13C316.013 1418.45 321.023 1409.73 326 1401C331.54 1391.28 337.134 1381.59 342.783 1371.93C348.938 1361.41 355.024 1350.85 361.109 1340.28C364.237 1334.85 367.369 1329.43 370.5 1324C371.75 1321.83 373 1319.67 374.25 1317.5C391.75 1287.17 409.25 1256.83 426.75 1226.5C427.369 1225.43 427.988 1224.36 428.625 1223.25C429.874 1221.09 431.124 1218.92 432.373 1216.76C435.512 1211.31 438.65 1205.87 441.785 1200.43C447.807 1189.98 453.847 1179.54 459.938 1169.13C465.013 1160.45 470.023 1151.73 475 1143C480.54 1133.28 486.134 1123.59 491.783 1113.93C497.938 1103.41 504.024 1092.85 510.109 1082.28C513.237 1076.85 516.369 1071.43 519.5 1066C520.75 1063.83 522 1061.67 523.25 1059.5C545.75 1020.5 568.25 981.501 590.75 942.501C591.369 941.428 591.988 940.355 592.625 939.25C593.874 937.085 595.124 934.92 596.373 932.755C599.512 927.314 602.65 921.873 605.785 916.43C611.808 905.978 617.847 895.538 623.938 885.126C629.013 876.448 634.023 867.734 639 859.001C644.54 849.279 650.134 839.592 655.784 829.934C661.938 819.41 668.024 808.847 674.109 798.283C677.237 792.854 680.369 787.427 683.5 782.001C684.75 779.834 686 777.667 687.25 775.501C706 743.001 706 743.001 724.75 710.501C725.679 708.89 725.679 708.89 726.627 707.246C727.869 705.094 729.112 702.942 730.355 700.79C733.264 695.755 736.166 690.717 739.043 685.665C740.058 683.882 741.076 682.101 742.094 680.321C743.368 678.092 744.638 675.86 745.902 673.626C757.35 653.631 757.35 653.631 768.543 649.617C773.56 648.359 778.684 648.591 783.826 648.62C785.76 648.613 785.76 648.613 787.733 648.606C791.312 648.594 794.891 648.6 798.47 648.609C802.364 648.616 806.257 648.605 810.151 648.597C816.976 648.584 823.8 648.583 830.625 648.589C840.773 648.598 850.921 648.59 861.069 648.579C879.193 648.559 897.318 648.557 915.442 648.562C931.304 648.567 947.166 648.566 963.028 648.56C965.155 648.559 967.281 648.559 969.408 648.558C972.612 648.557 975.817 648.556 979.021 648.554C1008.82 648.544 1038.62 648.539 1068.41 648.547C1070.1 648.547 1070.1 648.547 1071.82 648.548C1080.94 648.55 1090.07 648.553 1099.19 648.555C1134.79 648.566 1170.38 648.557 1205.98 648.534C1245.96 648.508 1285.94 648.495 1325.92 648.502C1330.18 648.503 1334.44 648.504 1338.7 648.504C1340.28 648.504 1340.28 648.505 1341.88 648.505C1357.74 648.507 1373.59 648.499 1389.44 648.486C1407.46 648.471 1425.49 648.47 1443.51 648.488C1453.6 648.498 1463.69 648.496 1473.78 648.479C1480.52 648.468 1487.25 648.472 1493.99 648.488C1497.83 648.497 1501.67 648.499 1505.51 648.484C1509.65 648.468 1513.79 648.482 1517.92 648.5C1519.11 648.49 1520.3 648.481 1521.53 648.471C1530.34 648.548 1537.95 650.023 1544.69 656.012C1548.97 660.729 1551.93 666.268 1555 671.813C1555.99 673.556 1556.97 675.3 1557.96 677.043C1558.97 678.841 1559.99 680.643 1561 682.444C1564.11 687.992 1567.31 693.493 1570.5 699.001C1571.75 701.167 1573 703.334 1574.25 705.501C1574.87 706.573 1575.49 707.646 1576.13 708.751C1656.75 848.501 1656.75 848.501 1658.63 851.751C1659.87 853.916 1661.12 856.081 1662.37 858.246C1665.51 863.687 1668.65 869.128 1671.79 874.571C1677.81 885.023 1683.85 895.464 1689.94 905.876C1695.36 915.146 1700.7 924.459 1706.02 933.789C1711.22 942.913 1716.48 952.002 1721.78 961.067C1727.94 971.591 1734.02 982.154 1740.11 992.718C1743.24 998.147 1746.37 1003.57 1749.5 1009C1750.75 1011.17 1752 1013.33 1753.25 1015.5C1753.87 1016.57 1754.49 1017.65 1755.13 1018.75C1805.75 1106.5 1805.75 1106.5 1807.63 1109.75C1808.87 1111.92 1810.12 1114.08 1811.37 1116.25C1814.51 1121.69 1817.65 1127.13 1820.79 1132.57C1826.81 1143.02 1832.85 1153.46 1838.94 1163.88C1844.36 1173.15 1849.7 1182.46 1855.02 1191.79C1860.22 1200.91 1865.47 1209.99 1870.77 1219.05C1875.13 1226.49 1879.45 1233.96 1883.75 1241.44C1889.44 1251.33 1895.19 1261.18 1901 1271C1905.7 1264.23 1909.78 1257.21 1913.75 1250C1917.74 1242.81 1921.74 1235.63 1925.94 1228.56C1930.07 1221.59 1934.14 1214.59 1938.19 1207.56C1938.83 1206.46 1939.46 1205.35 1940.12 1204.21C1941.43 1201.94 1942.74 1199.67 1944.04 1197.4C1947.19 1191.93 1950.35 1186.46 1953.5 1181C1954.75 1178.83 1956 1176.67 1957.25 1174.5C1959.75 1170.17 1962.25 1165.83 1964.75 1161.5C1965.37 1160.43 1965.99 1159.36 1966.63 1158.25C1967.87 1156.09 1969.12 1153.92 1970.37 1151.76C1973.51 1146.31 1976.65 1140.87 1979.79 1135.43C1986.4 1123.95 1993.05 1112.48 1999.73 1101.03C2005.9 1090.47 2012.01 1079.88 2018.11 1069.28C2021.24 1063.85 2024.37 1058.43 2027.5 1053C2028.75 1050.83 2030 1048.67 2031.25 1046.5C2058.75 998.834 2086.25 951.167 2113.75 903.501C2114.68 901.892 2114.68 901.892 2115.63 900.25C2116.87 898.085 2118.12 895.92 2119.37 893.755C2122.51 888.314 2125.65 882.873 2128.79 877.43C2134.81 866.978 2140.85 856.538 2146.94 846.126C2152.01 837.448 2157.02 828.734 2162 820.001C2167.54 810.279 2173.13 800.592 2178.78 790.934C2184.94 780.41 2191.02 769.847 2197.11 759.283C2200.24 753.854 2203.37 748.427 2206.5 743.001C2207.75 740.834 2209 738.667 2210.25 736.501C2227.75 706.167 2245.25 675.834 2262.75 645.501C2263.68 643.892 2263.68 643.892 2264.63 642.25C2265.87 640.085 2267.12 637.92 2268.37 635.755C2271.51 630.314 2274.65 624.873 2277.79 619.43C2283.81 608.978 2289.85 598.538 2295.94 588.126C2301.01 579.448 2306.02 570.734 2311 562.001C2316.54 552.279 2322.13 542.592 2327.78 532.934C2333.94 522.41 2340.02 511.847 2346.11 501.283C2349.24 495.854 2352.37 490.427 2355.5 485.001C2356.75 482.834 2358 480.667 2359.25 478.501C2393 420.001 2393 420.001 2426.75 361.501C2427.68 359.892 2427.68 359.892 2428.63 358.25C2429.87 356.085 2431.12 353.92 2432.37 351.755C2435.51 346.314 2438.65 340.873 2441.79 335.43C2447.81 324.978 2453.85 314.538 2459.94 304.126C2465.01 295.448 2470.02 286.734 2475 278.001C2480.54 268.279 2486.13 258.592 2491.78 248.934C2497.94 238.41 2504.02 227.847 2510.11 217.283C2513.24 211.854 2516.37 206.427 2519.5 201.001C2520.75 198.834 2522 196.667 2523.25 194.501C2540.75 164.167 2558.25 133.834 2575.75 103.501C2576.68 101.892 2576.68 101.892 2577.63 100.25C2578.87 98.085 2580.12 95.9199 2581.37 93.7549C2584.51 88.3144 2587.65 82.8731 2590.79 77.4302C2597.42 65.9127 2604.06 54.3961 2610.79 42.9336C2613.8 37.7988 2616.77 32.6441 2619.67 27.4459C2620.28 26.3671 2620.89 25.2883 2621.52 24.1768C2622.67 22.1308 2623.82 20.0775 2624.94 18.0157C2630.47 8.30045 2637.61 -0.245163 2649.52 -0.252455ZM2666 52.0005C2661.05 60.5805 2656.1 69.1605 2651 78.0005C2643.5 91.0005 2643.5 91.0005 2639.75 97.4927C2637.24 101.851 2634.73 106.211 2632.21 110.571C2625.6 122.055 2618.95 133.523 2612.27 144.966C2606.1 155.527 2600 166.122 2593.89 176.718C2590.76 182.147 2587.63 187.574 2584.5 193.001C2583.25 195.167 2582 197.334 2580.75 199.501C2539.5 271.001 2539.5 271.001 2498.25 342.501C2497.63 343.573 2497.01 344.646 2496.37 345.751C2495.13 347.916 2493.88 350.081 2492.63 352.246C2489.49 357.687 2486.35 363.128 2483.21 368.571C2477.19 379.023 2471.15 389.464 2465.06 399.876C2459.99 408.553 2454.98 417.267 2450 426.001C2444.46 435.722 2438.87 445.409 2433.22 455.067C2427.06 465.591 2420.98 476.154 2414.89 486.718C2411.76 492.147 2408.63 497.574 2405.5 503.001C2404.25 505.167 2403 507.334 2401.75 509.501C2384.25 539.834 2366.75 570.167 2349.25 600.501C2348.63 601.573 2348.01 602.646 2347.37 603.751C2346.13 605.916 2344.88 608.081 2343.63 610.246C2340.49 615.687 2337.35 621.128 2334.21 626.571C2328.19 637.023 2322.15 647.464 2316.06 657.876C2310.99 666.553 2305.98 675.267 2301 684.001C2295.46 693.722 2289.87 703.409 2284.22 713.067C2278.06 723.591 2271.98 734.154 2265.89 744.718C2262.76 750.147 2259.63 755.574 2256.5 761.001C2255.25 763.167 2254 765.334 2252.75 767.501C2219 826.001 2219 826.001 2185.25 884.501C2184.63 885.573 2184.01 886.646 2183.37 887.751C2182.13 889.916 2180.88 892.081 2179.63 894.246C2176.49 899.687 2173.35 905.128 2170.21 910.571C2164.19 921.023 2158.15 931.464 2152.06 941.876C2146.99 950.553 2141.98 959.267 2137 968.001C2131.46 977.722 2125.87 987.409 2120.22 997.067C2114.06 1007.59 2107.98 1018.15 2101.89 1028.72C2098.76 1034.15 2095.63 1039.57 2092.5 1045C2091.25 1047.17 2090 1049.33 2088.75 1051.5C2071.25 1081.83 2053.75 1112.17 2036.25 1142.5C2035.63 1143.57 2035.01 1144.65 2034.37 1145.75C2033.13 1147.92 2031.88 1150.08 2030.63 1152.25C2027.49 1157.69 2024.35 1163.13 2021.21 1168.57C2015.19 1179.02 2009.15 1189.46 2003.06 1199.88C1997.99 1208.55 1992.98 1217.27 1988 1226C1982.46 1235.72 1976.87 1245.41 1971.22 1255.07C1965.08 1265.56 1959.01 1276.1 1952.94 1286.63C1950.91 1290.15 1948.89 1293.66 1946.86 1297.18C1946.35 1298.06 1946.35 1298.06 1945.83 1298.96C1944.19 1301.8 1942.56 1304.63 1940.92 1307.46C1939.78 1309.45 1938.64 1311.43 1937.5 1313.42C1936.58 1315 1935.64 1316.57 1934.65 1318.11C1933.07 1320.63 1932 1322.43 1931.99 1325.45C1933.43 1329.09 1935.25 1332.42 1937.19 1335.81C1937.63 1336.59 1938.07 1337.37 1938.52 1338.18C1943.36 1346.72 1948.33 1355.19 1953.3 1363.66C1957.04 1370.05 1960.74 1376.46 1964.44 1382.88C1965.37 1384.49 1965.37 1384.49 1966.32 1386.15C1967.59 1388.34 1968.85 1390.53 1970.11 1392.72C1973.24 1398.15 1976.37 1403.57 1979.5 1409C1980.75 1411.17 1982 1413.33 1983.25 1415.5C1983.87 1416.57 1984.49 1417.65 1985.13 1418.75C2050.75 1532.5 2050.75 1532.5 2052.63 1535.75C2053.87 1537.92 2055.12 1540.08 2056.37 1542.25C2059.51 1547.69 2062.65 1553.13 2065.79 1558.57C2071.81 1569.02 2077.85 1579.46 2083.94 1589.88C2089.36 1599.15 2094.7 1608.46 2100.02 1617.79C2105.22 1626.91 2110.48 1636 2115.78 1645.07C2121.94 1655.59 2128.02 1666.15 2134.11 1676.72C2137.24 1682.15 2140.37 1687.57 2143.5 1693C2144.75 1695.17 2146 1697.33 2147.25 1699.5C2147.87 1700.57 2148.49 1701.65 2149.12 1702.75C2199.75 1790.5 2199.75 1790.5 2201.63 1793.75C2202.87 1795.92 2204.12 1798.08 2205.37 1800.25C2208.51 1805.69 2211.65 1811.13 2214.79 1816.57C2220.81 1827.02 2226.85 1837.46 2232.94 1847.88C2238.01 1856.55 2243.02 1865.27 2248 1874C2253.17 1883.07 2258.37 1892.11 2263.62 1901.13C2264.18 1902.08 2264.74 1903.03 2265.31 1904.01C2268.83 1910.03 2272.4 1916.03 2276 1922C2278.76 1918.7 2281.03 1915.41 2283.1 1911.64C2283.67 1910.62 2284.24 1909.59 2284.82 1908.54C2285.42 1907.45 2286.01 1906.37 2286.62 1905.25C2290.66 1897.98 2294.69 1890.71 2298.94 1883.56C2303.07 1876.59 2307.14 1869.59 2311.19 1862.56C2311.83 1861.46 2312.46 1860.35 2313.12 1859.21C2314.43 1856.94 2315.74 1854.67 2317.04 1852.4C2320.19 1846.93 2323.35 1841.46 2326.5 1836C2330.26 1829.48 2334.03 1822.96 2337.79 1816.43C2343.81 1805.98 2349.85 1795.54 2355.94 1785.13C2361.01 1776.45 2366.02 1767.73 2371 1759C2376.54 1749.28 2382.13 1739.59 2387.78 1729.93C2393.94 1719.41 2400.02 1708.85 2406.11 1698.28C2409.24 1692.85 2412.37 1687.43 2415.5 1682C2416.75 1679.83 2418 1677.67 2419.25 1675.5C2436.75 1645.17 2454.25 1614.83 2471.75 1584.5C2472.37 1583.43 2472.99 1582.36 2473.63 1581.25C2474.87 1579.09 2476.12 1576.92 2477.37 1574.76C2480.51 1569.31 2483.65 1563.87 2486.79 1558.43C2492.81 1547.98 2498.85 1537.54 2504.94 1527.13C2510.01 1518.45 2515.02 1509.73 2520 1501C2525.54 1491.28 2531.13 1481.59 2536.78 1471.93C2542.94 1461.41 2549.02 1450.85 2555.11 1440.28C2558.24 1434.85 2561.37 1429.43 2564.5 1424C2565.75 1421.83 2567 1419.67 2568.25 1417.5C2602 1359 2602 1359 2635.75 1300.5C2636.37 1299.43 2636.99 1298.36 2637.63 1297.25C2638.87 1295.09 2640.12 1292.92 2641.37 1290.76C2644.51 1285.31 2647.65 1279.87 2650.79 1274.43C2656.81 1263.98 2662.85 1253.54 2668.94 1243.13C2674.01 1234.45 2679.02 1225.73 2684 1217C2689.54 1207.28 2695.13 1197.59 2700.78 1187.93C2706.94 1177.41 2713.02 1166.85 2719.11 1156.28C2722.24 1150.85 2725.37 1145.43 2728.5 1140C2729.75 1137.83 2731 1135.67 2732.25 1133.5C2749.75 1103.17 2767.25 1072.83 2784.75 1042.5C2785.37 1041.43 2785.99 1040.36 2786.63 1039.25C2787.87 1037.09 2789.12 1034.92 2790.37 1032.76C2793.51 1027.31 2796.65 1021.87 2799.79 1016.43C2805.81 1005.98 2811.85 995.538 2817.94 985.126C2823.01 976.448 2828.02 967.734 2833 959.001C2838.54 949.279 2844.13 939.592 2849.78 929.934C2855.94 919.41 2862.02 908.847 2868.11 898.283C2871.24 892.854 2874.37 887.427 2877.5 882.001C2878.75 879.834 2880 877.667 2881.25 875.501C2903.75 836.501 2926.25 797.501 2948.75 758.501C2949.37 757.428 2949.99 756.355 2950.63 755.25C2951.87 753.085 2953.12 750.92 2954.37 748.755C2957.51 743.314 2960.65 737.873 2963.79 732.43C2970.4 720.946 2977.05 709.479 2983.73 698.035C2989.9 687.474 2996 676.879 3002.11 666.283C3005.24 660.854 3008.37 655.427 3011.5 650.001C3012.75 647.834 3014 645.667 3015.25 643.501C3056.5 572.001 3056.5 572.001 3097.75 500.501C3098.37 499.428 3098.99 498.355 3099.63 497.25C3100.87 495.085 3102.12 492.92 3103.37 490.755C3106.51 485.314 3109.65 479.873 3112.79 474.43C3118.81 463.978 3124.85 453.538 3130.94 443.126C3136.01 434.448 3141.02 425.734 3146 417.001C3151.54 407.279 3157.13 397.592 3162.78 387.934C3168.94 377.41 3175.02 366.847 3181.11 356.283C3184.24 350.854 3187.37 345.427 3190.5 340.001C3191.75 337.834 3193 335.667 3194.25 333.501C3211.75 303.167 3229.25 272.834 3246.75 242.501C3247.37 241.428 3247.99 240.355 3248.63 239.25C3249.87 237.085 3251.12 234.92 3252.37 232.755C3255.51 227.314 3258.65 221.873 3261.79 216.43C3267.81 205.978 3273.85 195.538 3279.94 185.126C3285.01 176.448 3290.02 167.734 3295 159.001C3300.54 149.279 3306.13 139.592 3311.78 129.934C3316.03 122.678 3320.24 115.407 3324.44 108.126C3325.06 107.053 3325.67 105.981 3326.31 104.876C3329.53 99.2876 3332.75 93.6974 3335.96 88.106C3337.27 85.8416 3338.57 83.5772 3339.88 81.313C3340.81 79.6881 3340.81 79.6881 3341.76 78.0303C3345.61 71.3616 3349.5 64.7268 3353.56 58.1854C3355.44 55.3068 3355.44 55.3068 3356 52.0005C3128.3 52.0005 2900.6 52.0005 2666 52.0005ZM821 701.001C829.501 716.586 838.054 732.147 847.112 747.417C850.854 753.729 854.524 760.08 858.188 766.438C858.826 767.545 859.464 768.652 860.121 769.793C861.429 772.064 862.737 774.335 864.045 776.606C867.193 782.072 870.347 787.536 873.5 793.001C877.264 799.523 881.027 806.046 884.785 812.571C890.808 823.023 896.847 833.464 902.938 843.876C908.359 853.146 913.702 862.459 919.019 871.789C924.221 880.913 929.48 890.002 934.784 899.067C940.938 909.591 947.024 920.154 953.109 930.718C956.237 936.147 959.369 941.574 962.5 947.001C963.75 949.167 965 951.334 966.25 953.501C966.869 954.573 967.488 955.646 968.125 956.751C1048.75 1096.5 1048.75 1096.5 1050.63 1099.75C1051.87 1101.92 1053.12 1104.08 1054.37 1106.25C1057.51 1111.69 1060.65 1117.13 1063.79 1122.57C1069.81 1133.02 1075.85 1143.46 1081.94 1153.88C1087.36 1163.15 1092.7 1172.46 1098.02 1181.79C1103.22 1190.91 1108.48 1200 1113.78 1209.07C1119.92 1219.56 1125.98 1230.08 1132.05 1240.61C1134.11 1244.19 1136.18 1247.77 1138.25 1251.35C1139.29 1253.15 1140.33 1254.95 1141.37 1256.75C1142.36 1258.47 1143.35 1260.19 1144.34 1261.9C1144.94 1262.94 1145.53 1263.97 1146.15 1265.03C1146.68 1265.95 1147.2 1266.86 1147.75 1267.8C1148.53 1269.18 1149.29 1270.58 1150 1272C1150.66 1272 1151.32 1272 1152 1272C1152.37 1271.33 1152.74 1270.66 1153.13 1269.98C1165.7 1247.39 1165.7 1247.39 1172.11 1236.59C1175.85 1230.27 1179.52 1223.92 1183.19 1217.56C1184.14 1215.9 1184.14 1215.9 1185.12 1214.21C1186.43 1211.94 1187.74 1209.67 1189.04 1207.4C1192.19 1201.93 1195.35 1196.46 1198.5 1191C1199.75 1188.83 1201 1186.67 1202.25 1184.5C1221 1152 1221 1152 1239.75 1119.5C1240.37 1118.43 1240.99 1117.36 1241.63 1116.25C1242.87 1114.09 1244.12 1111.92 1245.37 1109.76C1248.51 1104.31 1251.65 1098.87 1254.79 1093.43C1260.81 1082.98 1266.85 1072.54 1272.94 1062.13C1278.01 1053.45 1283.02 1044.73 1288 1036C1293.54 1026.28 1299.13 1016.59 1304.78 1006.93C1310.94 996.41 1317.02 985.847 1323.11 975.283C1326.24 969.854 1329.37 964.427 1332.5 959.001C1333.75 956.834 1335 954.667 1336.25 952.501C1377.5 881.001 1377.5 881.001 1418.75 809.501C1419.37 808.428 1419.99 807.355 1420.63 806.25C1421.87 804.085 1423.12 801.92 1424.37 799.755C1427.51 794.314 1430.65 788.873 1433.79 783.43C1439.81 772.978 1445.85 762.538 1451.94 752.126C1457.17 743.173 1462.35 734.19 1467.5 725.188C1468 724.314 1468 724.314 1468.51 723.423C1469.48 721.735 1470.44 720.045 1471.41 718.356C1471.96 717.393 1472.51 716.431 1473.07 715.439C1475.76 710.65 1478.37 705.821 1481 701.001C1263.2 701.001 1045.4 701.001 821 701.001ZM775 728.001C774.589 728.723 774.177 729.446 773.754 730.19C766.556 742.825 759.348 755.452 752 768.001C746.944 776.636 741.954 785.307 737 794.001C731.46 803.722 725.866 813.409 720.217 823.067C714.062 833.591 707.976 844.154 701.891 854.718C698.763 860.147 695.632 865.574 692.5 871.001C691.25 873.167 690 875.334 688.75 877.501C666.25 916.501 643.75 955.501 621.25 994.501C620.631 995.573 620.012 996.646 619.375 997.751C618.126 999.916 616.877 1002.08 615.627 1004.25C612.488 1009.69 609.35 1015.13 606.215 1020.57C600.193 1031.02 594.153 1041.46 588.062 1051.88C582.987 1060.55 577.977 1069.27 573 1078C567.46 1087.72 561.866 1097.41 556.217 1107.07C550.062 1117.59 543.976 1128.15 537.891 1138.72C534.763 1144.15 531.631 1149.57 528.5 1155C527.25 1157.17 526 1159.33 524.75 1161.5C507.25 1191.83 489.75 1222.17 472.25 1252.5C471.631 1253.57 471.012 1254.65 470.375 1255.75C469.126 1257.92 467.876 1260.08 466.627 1262.25C463.488 1267.69 460.35 1273.13 457.215 1278.57C451.193 1289.02 445.153 1299.46 439.062 1309.88C433.987 1318.55 428.977 1327.27 424 1336C418.46 1345.72 412.866 1355.41 407.217 1365.07C401.062 1375.59 394.976 1386.15 388.891 1396.72C385.763 1402.15 382.631 1407.57 379.5 1413C378.25 1415.17 377 1417.33 375.75 1419.5C342 1478 342 1478 308.25 1536.5C307.631 1537.57 307.012 1538.65 306.375 1539.75C305.126 1541.92 303.876 1544.08 302.627 1546.25C299.488 1551.69 296.35 1557.13 293.215 1562.57C287.193 1573.02 281.153 1583.46 275.062 1593.88C269.987 1602.55 264.977 1611.27 260 1620C254.46 1629.72 248.866 1639.41 243.217 1649.07C237.062 1659.59 230.976 1670.15 224.891 1680.72C221.763 1686.15 218.631 1691.57 215.5 1697C214.25 1699.17 213 1701.33 211.75 1703.5C189.25 1742.5 166.75 1781.5 144.25 1820.5C143.631 1821.57 143.012 1822.65 142.375 1823.75C141.126 1825.92 139.876 1828.08 138.627 1830.25C135.488 1835.69 132.35 1841.13 129.215 1846.57C123.193 1857.02 117.153 1867.46 111.062 1877.88C105.645 1887.14 100.304 1896.44 94.9929 1905.77C89.5401 1915.34 84.0181 1924.87 78.4277 1934.36C77.8883 1935.28 77.3488 1936.2 76.793 1937.15C76.324 1937.94 75.855 1938.74 75.3718 1939.56C73.8158 1942.33 72.4122 1945.16 71 1948C136.669 1948.22 202.339 1948.43 268.009 1948.55C268.98 1948.55 269.952 1948.55 270.953 1948.56C292.068 1948.6 313.183 1948.63 334.297 1948.66C344.652 1948.68 355.006 1948.7 365.36 1948.71C366.391 1948.72 367.421 1948.72 368.483 1948.72C401.893 1948.78 435.304 1948.87 468.714 1948.99C503.041 1949.12 537.369 1949.2 571.697 1949.22C576.543 1949.23 581.389 1949.23 586.236 1949.23C587.189 1949.23 588.143 1949.24 589.126 1949.24C604.493 1949.25 619.859 1949.31 635.226 1949.39C650.667 1949.47 666.108 1949.5 681.549 1949.48C690.729 1949.47 699.906 1949.49 709.085 1949.57C715.214 1949.62 721.342 1949.62 727.471 1949.58C730.966 1949.56 734.458 1949.57 737.952 1949.62C750.889 1950.48 750.889 1950.48 762.847 1946.76C766.124 1943.34 767.485 1939.46 769 1935C770.222 1932.79 771.481 1930.61 772.789 1928.45C774.07 1926.2 775.348 1923.94 776.625 1921.69C778.031 1919.21 779.439 1916.74 780.848 1914.27C781.198 1913.65 781.549 1913.04 781.91 1912.4C785.256 1906.54 788.652 1900.7 792.063 1894.88C798.792 1883.37 805.457 1871.83 812.109 1860.28C815.237 1854.85 818.369 1849.43 821.5 1844C822.75 1841.83 824 1839.67 825.25 1837.5C857.75 1781.17 890.25 1724.83 922.75 1668.5C923.369 1667.43 923.988 1666.36 924.625 1665.25C925.874 1663.09 927.124 1660.92 928.373 1658.76C931.512 1653.31 934.65 1647.87 937.785 1642.43C943.808 1631.98 949.847 1621.54 955.938 1611.13C961.013 1602.45 966.023 1593.73 971 1585C976.54 1575.28 982.134 1565.59 987.784 1555.93C993.938 1545.41 1000.02 1534.85 1006.11 1524.28C1009.24 1518.85 1012.37 1513.43 1015.5 1508C1016.75 1505.83 1018 1503.67 1019.25 1501.5C1086.75 1384.5 1086.75 1384.5 1088.63 1381.25C1089.87 1379.09 1091.12 1376.93 1092.36 1374.78C1094.9 1370.37 1097.44 1365.96 1099.99 1361.56C1100.32 1360.98 1100.65 1360.41 1100.99 1359.82C1101.99 1358.09 1102.99 1356.36 1103.99 1354.64C1105.27 1352.41 1106.55 1350.17 1107.82 1347.93C1110.38 1343.41 1112.92 1338.98 1116 1334.79C1118.27 1331.62 1120.07 1328.85 1121 1325C1119.65 1319.98 1117.27 1316.18 1114.32 1311.94C1112.62 1309.44 1111.11 1306.84 1109.61 1304.22C1108.38 1302.1 1107.14 1299.99 1105.88 1297.88C1102.48 1292.14 1099.15 1286.35 1095.81 1280.56C1095.18 1279.46 1094.54 1278.35 1093.88 1277.21C1092.57 1274.94 1091.26 1272.67 1089.96 1270.4C1086.81 1264.93 1083.65 1259.46 1080.5 1254C1079.25 1251.83 1078 1249.67 1076.75 1247.5C1075.82 1245.89 1075.82 1245.89 1074.88 1244.25C1039.25 1182.5 1039.25 1182.5 1037.37 1179.25C1036.13 1177.09 1034.88 1174.92 1033.63 1172.76C1030.49 1167.31 1027.35 1161.87 1024.21 1156.43C1018.19 1145.98 1012.15 1135.54 1006.06 1125.13C1000.64 1115.86 995.298 1106.54 989.981 1097.21C984.78 1088.09 979.52 1079 974.217 1069.93C968.062 1059.41 961.976 1048.85 955.891 1038.28C952.763 1032.85 949.632 1027.43 946.5 1022C945.25 1019.83 944 1017.67 942.75 1015.5C941.822 1013.89 941.822 1013.89 940.875 1012.25C860.25 872.501 860.25 872.501 858.375 869.25C857.126 867.085 855.877 864.92 854.627 862.755C851.488 857.314 848.35 851.873 845.215 846.43C839.193 835.978 833.153 825.538 827.063 815.126C821.987 806.448 816.978 797.734 812 789.001C805.314 777.272 798.557 765.586 791.723 753.942C789.912 750.85 788.11 747.752 786.309 744.653C785.123 742.623 783.937 740.593 782.75 738.563C782.201 737.614 781.651 736.666 781.085 735.689C780.578 734.823 780.07 733.958 779.547 733.067C778.879 731.921 778.879 731.921 778.198 730.753C777.106 728.851 777.106 728.851 775 728.001ZM1525 728.001C1524.16 729.532 1524.16 729.532 1523.3 731.094C1517.85 740.999 1512.24 750.798 1506.52 760.554C1502.18 767.979 1497.86 775.42 1493.56 782.876C1492.94 783.955 1492.32 785.035 1491.68 786.147C1490.42 788.337 1489.15 790.528 1487.89 792.718C1484.76 798.147 1481.63 803.574 1478.5 809.001C1477.25 811.167 1476 813.334 1474.75 815.501C1433.5 887.001 1433.5 887.001 1392.25 958.501C1391.63 959.573 1391.01 960.646 1390.37 961.751C1389.13 963.916 1387.88 966.081 1386.63 968.246C1383.49 973.687 1380.35 979.128 1377.21 984.571C1371.19 995.023 1365.15 1005.46 1359.06 1015.88C1353.99 1024.55 1348.98 1033.27 1344 1042C1338.46 1051.72 1332.87 1061.41 1327.22 1071.07C1321.06 1081.59 1314.98 1092.15 1308.89 1102.72C1305.76 1108.15 1302.63 1113.57 1299.5 1119C1298.25 1121.17 1297 1123.33 1295.75 1125.5C1213.25 1268.5 1213.25 1268.5 1211.37 1271.75C1210.13 1273.91 1208.89 1276.06 1207.64 1278.22C1204.75 1283.23 1201.86 1288.25 1198.96 1293.26C1197.94 1295.02 1196.92 1296.78 1195.91 1298.53C1194.64 1300.73 1193.37 1302.92 1192.1 1305.11C1190.94 1307.11 1189.81 1309.11 1188.68 1311.12C1187 1314 1187 1314 1185.03 1316.79C1183.19 1319.55 1181.87 1321.79 1181 1325C1181.98 1329.48 1184.25 1332.89 1186.75 1336.69C1187.74 1338.31 1187.74 1338.31 1188.75 1339.97C1190.13 1342.22 1191.52 1344.47 1192.93 1346.7C1196.07 1351.7 1198.99 1356.82 1201.94 1361.94C1203.1 1363.93 1204.27 1365.92 1205.44 1367.91C1209.13 1374.22 1212.79 1380.54 1216.44 1386.88C1217.37 1388.5 1217.37 1388.5 1218.32 1390.15C1219.59 1392.34 1220.85 1394.53 1222.11 1396.72C1225.24 1402.15 1228.37 1407.57 1231.5 1413C1235.26 1419.52 1239.03 1426.05 1242.79 1432.57C1248.81 1443.02 1254.85 1453.46 1260.94 1463.88C1266.36 1473.15 1271.7 1482.46 1277.02 1491.79C1282.22 1500.91 1287.48 1510 1292.78 1519.07C1298.94 1529.59 1305.02 1540.15 1311.11 1550.72C1314.24 1556.15 1317.37 1561.57 1320.5 1567C1321.75 1569.17 1323 1571.33 1324.25 1573.5C1324.87 1574.57 1325.49 1575.65 1326.13 1576.75C1406.75 1716.5 1406.75 1716.5 1408.63 1719.75C1409.87 1721.92 1411.12 1724.08 1412.37 1726.25C1415.51 1731.69 1418.65 1737.13 1421.79 1742.57C1427.81 1753.02 1433.85 1763.46 1439.94 1773.88C1445.36 1783.15 1450.7 1792.46 1456.02 1801.79C1461.22 1810.91 1466.48 1820 1471.78 1829.07C1477.94 1839.59 1484.02 1850.15 1490.11 1860.72C1493.24 1866.15 1496.37 1871.57 1499.5 1877C1503.04 1883.14 1506.58 1889.27 1510.12 1895.41C1511.5 1897.8 1512.88 1900.2 1514.25 1902.59C1515.23 1904.27 1516.2 1905.95 1517.17 1907.64C1517.76 1908.66 1518.35 1909.69 1518.95 1910.74C1519.47 1911.64 1519.99 1912.53 1520.52 1913.46C1521.99 1915.99 1523.49 1918.5 1525 1921C1528.83 1919.72 1529.11 1918.53 1531 1915.03C1531.57 1913.99 1532.14 1912.96 1532.73 1911.89C1533.34 1910.77 1533.94 1909.65 1534.56 1908.5C1535.83 1906.19 1537.11 1903.87 1538.38 1901.56C1539.32 1899.86 1539.32 1899.86 1540.27 1898.13C1542.43 1894.23 1544.66 1890.39 1546.94 1886.56C1551.07 1879.59 1555.14 1872.59 1559.19 1865.56C1559.83 1864.46 1560.46 1863.35 1561.12 1862.21C1562.43 1859.94 1563.74 1857.67 1565.04 1855.4C1568.19 1849.93 1571.35 1844.46 1574.5 1839C1578.26 1832.48 1582.03 1825.96 1585.79 1819.43C1591.81 1808.98 1597.85 1798.54 1603.94 1788.13C1609.01 1779.45 1614.02 1770.73 1619 1762C1624.54 1752.28 1630.13 1742.59 1635.78 1732.93C1641.94 1722.41 1648.02 1711.85 1654.11 1701.28C1657.24 1695.85 1660.37 1690.43 1663.5 1685C1664.75 1682.83 1666 1680.67 1667.25 1678.5C1689.75 1639.5 1712.25 1600.5 1734.75 1561.5C1735.37 1560.43 1735.99 1559.36 1736.63 1558.25C1737.87 1556.09 1739.12 1553.92 1740.37 1551.76C1743.51 1546.31 1746.65 1540.87 1749.79 1535.43C1756.4 1523.95 1763.05 1512.48 1769.73 1501.03C1775.9 1490.47 1782.01 1479.88 1788.11 1469.28C1791.24 1463.85 1794.37 1458.43 1797.5 1453C1798.75 1450.83 1800 1448.67 1801.25 1446.5C1820 1414 1820 1414 1838.75 1381.5C1839.37 1380.43 1839.99 1379.35 1840.63 1378.25C1841.87 1376.09 1843.11 1373.94 1844.36 1371.79C1847.25 1366.76 1850.15 1361.74 1853.04 1356.72C1854.06 1354.95 1855.08 1353.18 1856.09 1351.42C1857.36 1349.21 1858.63 1347.01 1859.9 1344.8C1860.48 1343.79 1861.06 1342.79 1861.66 1341.75C1862.21 1340.78 1862.76 1339.82 1863.33 1338.82C1864.45 1336.93 1865.62 1335.07 1866.84 1333.24C1870.14 1328.53 1870.14 1328.53 1870.76 1323.05C1870.18 1322.04 1869.6 1321.04 1869 1320C1868.58 1319.25 1868.17 1318.49 1867.74 1317.71C1866.15 1314.86 1864.49 1312.06 1862.81 1309.25C1861.54 1307.09 1860.26 1304.92 1858.98 1302.76C1858.33 1301.64 1857.67 1300.53 1856.99 1299.38C1853.81 1293.98 1850.69 1288.55 1847.56 1283.13C1846.3 1280.94 1845.05 1278.76 1843.79 1276.58C1841.89 1273.29 1840 1270 1838.1 1266.71C1836.22 1263.43 1834.33 1260.15 1832.44 1256.88C1831.82 1255.8 1831.19 1254.72 1830.55 1253.61C1826.41 1246.43 1822.24 1239.28 1818.06 1232.13C1812.64 1222.86 1807.3 1213.54 1801.98 1204.21C1796.78 1195.09 1791.52 1186 1786.22 1176.93C1780.06 1166.41 1773.98 1155.85 1767.89 1145.28C1764.76 1139.85 1761.63 1134.43 1758.5 1129C1757.25 1126.83 1756 1124.67 1754.75 1122.5C1753.82 1120.89 1753.82 1120.89 1752.88 1119.25C1687.25 1005.5 1687.25 1005.5 1685.37 1002.25C1684.13 1000.08 1682.88 997.92 1681.63 995.755C1678.49 990.314 1675.35 984.873 1672.21 979.43C1666.19 968.978 1660.15 958.538 1654.06 948.126C1648.64 938.856 1643.3 929.542 1637.98 920.212C1632.78 911.088 1627.52 901.999 1622.22 892.934C1616.06 882.41 1609.98 871.847 1603.89 861.283C1600.76 855.854 1597.63 850.427 1594.5 845.001C1593.25 842.834 1592 840.667 1590.75 838.501C1590.13 837.428 1589.51 836.356 1588.88 835.251C1568.25 799.501 1547.63 763.751 1527 728.001C1526.34 728.001 1525.68 728.001 1525 728.001ZM1900 1378C1899.68 1378.57 1899.36 1379.14 1899.03 1379.73C1892.24 1391.81 1885.37 1403.85 1878.37 1415.81C1872.16 1426.42 1866.03 1437.07 1859.89 1447.72C1856.76 1453.15 1853.63 1458.57 1850.5 1464C1849.25 1466.17 1848 1468.33 1846.75 1470.5C1805.5 1542 1805.5 1542 1764.25 1613.5C1763.63 1614.57 1763.01 1615.65 1762.37 1616.75C1761.13 1618.92 1759.88 1621.08 1758.63 1623.25C1755.49 1628.69 1752.35 1634.13 1749.21 1639.57C1743.19 1650.02 1737.15 1660.46 1731.06 1670.88C1725.99 1679.55 1720.98 1688.27 1716 1697C1710.46 1706.72 1704.87 1716.41 1699.22 1726.07C1693.06 1736.59 1686.98 1747.15 1680.89 1757.72C1677.76 1763.15 1674.63 1768.57 1671.5 1774C1670.25 1776.17 1669 1778.33 1667.75 1780.5C1650.25 1810.83 1632.75 1841.17 1615.25 1871.5C1614.63 1872.57 1614.01 1873.65 1613.37 1874.75C1612.13 1876.92 1610.88 1879.08 1609.63 1881.25C1606.49 1886.69 1603.35 1892.13 1600.21 1897.57C1593.92 1908.5 1587.6 1919.42 1581.25 1930.31C1580.67 1931.32 1580.08 1932.32 1579.48 1933.35C1575.16 1940.74 1575.16 1940.74 1573.32 1943.68C1571.84 1945.84 1571.84 1945.84 1572 1948C1789.47 1948 2006.94 1948 2231 1948C2226.26 1939.12 2221.55 1930.34 2216.44 1921.69C2215.22 1919.61 2213.99 1917.52 2212.77 1915.44C2212.15 1914.38 2211.53 1913.32 2210.89 1912.23C2207.76 1906.88 2204.66 1901.5 2201.56 1896.13C2200.94 1895.05 2200.32 1893.97 2199.68 1892.86C2197.15 1888.48 2194.63 1884.09 2192.1 1879.71C2190.22 1876.43 2188.33 1873.15 2186.44 1869.88C2185.5 1868.26 2185.5 1868.26 2184.55 1866.61C2180.41 1859.43 2176.24 1852.28 2172.06 1845.13C2166.64 1835.86 2161.3 1826.54 2155.98 1817.21C2150.78 1808.09 2145.52 1799 2140.22 1789.93C2134.06 1779.41 2127.98 1768.85 2121.89 1758.28C2118.76 1752.85 2115.63 1747.43 2112.5 1742C2111.25 1739.83 2110 1737.67 2108.75 1735.5C2107.82 1733.89 2107.82 1733.89 2106.88 1732.25C2041.25 1618.5 2041.25 1618.5 2039.37 1615.25C2038.13 1613.09 2036.88 1610.92 2035.63 1608.76C2032.49 1603.31 2029.35 1597.87 2026.21 1592.43C2020.19 1581.98 2014.15 1571.54 2008.06 1561.13C2002.64 1551.86 1997.3 1542.54 1991.98 1533.21C1986.78 1524.09 1981.52 1515 1976.22 1505.93C1970.06 1495.41 1963.98 1484.85 1957.89 1474.28C1954.76 1468.85 1951.63 1463.43 1948.5 1458C1947.25 1455.83 1946 1453.67 1944.75 1451.5C1944.13 1450.43 1943.51 1449.36 1942.88 1448.25C1937.25 1438.5 1937.25 1438.5 1935.37 1435.25C1934.13 1433.09 1932.88 1430.93 1931.64 1428.77C1928.43 1423.22 1925.23 1417.67 1922.04 1412.11C1918.37 1405.74 1914.69 1399.37 1911 1393C1910.51 1392.15 1910.01 1391.29 1909.5 1390.41C1908.24 1388.23 1906.97 1386.05 1905.69 1383.88C1905.16 1382.95 1905.16 1382.95 1904.61 1382.01C1903.8 1380.64 1902.91 1379.31 1902 1378C1901.34 1378 1900.68 1378 1900 1378Z" fill="#9EBE0D"></path></g><defs><clipPath id="clip0_328_67868"><rect width="3428" height="2000" fill="white"></rect></clipPath></defs></svg>